<?xml version="1.0" encoding="UTF-8" standalone="no"?>
<!-- Created with Inkscape (http://www.inkscape.org/) -->

<svg
   xmlns:dc="http://purl.org/dc/elements/1.1/"
   xmlns:cc="http://creativecommons.org/ns#"
   xmlns:rdf="http://www.w3.org/1999/02/22-rdf-syntax-ns#"
   xmlns:svg="http://www.w3.org/2000/svg"
   xmlns="http://www.w3.org/2000/svg"
   xmlns:sodipodi="http://sodipodi.sourceforge.net/DTD/sodipodi-0.dtd"
   xmlns:inkscape="http://www.inkscape.org/namespaces/inkscape"
   width="128"
   height="128"
   viewBox="0 0 33.866666 33.866668"
   version="1.1"
   id="svg8"
   inkscape:version="0.92.2 (5c3e80d, 2017-08-06)"
   sodipodi:docname="handsup.svg">
  <defs
     id="defs2">
    <inkscape:path-effect
       effect="spiro"
       id="path-effect899"
       is_visible="true" />
    <inkscape:path-effect
       is_visible="true"
       id="path-effect895"
       effect="spiro" />
    <inkscape:path-effect
       effect="spiro"
       id="path-effect886"
       is_visible="true" />
    <inkscape:path-effect
       effect="spiro"
       id="path-effect846"
       is_visible="true" />
    <inkscape:path-effect
       effect="spiro"
       id="path-effect828"
       is_visible="true" />
  </defs>
  <sodipodi:namedview
     id="base"
     pagecolor="#ffffff"
     bordercolor="#666666"
     borderopacity="1.0"
     inkscape:pageopacity="0.0"
     inkscape:pageshadow="2"
     inkscape:zoom="5.6"
     inkscape:cx="48.822422"
     inkscape:cy="65.917426"
     inkscape:document-units="mm"
     inkscape:current-layer="layer1"
     showgrid="true"
     units="px"
     inkscape:window-width="1916"
     inkscape:window-height="1196"
     inkscape:window-x="0"
     inkscape:window-y="0"
     inkscape:window-maximized="0">
    <inkscape:grid
       type="xygrid"
       id="grid815"
       dotted="true" />
  </sodipodi:namedview>
  <metadata
     id="metadata5">
    <rdf:RDF>
      <cc:Work
         rdf:about="">
        <dc:format>image/svg+xml</dc:format>
        <dc:type
           rdf:resource="http://purl.org/dc/dcmitype/StillImage" />
        <dc:title></dc:title>
      </cc:Work>
    </rdf:RDF>
  </metadata>
  <g
     inkscape:label="Layer 1"
     inkscape:groupmode="layer"
     id="layer1"
     transform="translate(0,-263.13332)">
    <path
       id="path876"
       style="opacity:1;vector-effect:none;fill:#ffffff;fill-opacity:1;stroke:#000000;stroke-width:0.78799993;stroke-linecap:round;stroke-linejoin:miter;stroke-miterlimit:4;stroke-dasharray:none;stroke-dashoffset:0;stroke-opacity:1;marker:none;paint-order:markers fill stroke"
       d="m 184.18262,-213.57388 c -1.76242,2.40802 -8.24055,11.25923 -8.12577,11.10241 -0.47354,0.64701 -1.31627,1.35358 -2.11656,1.26465 -0.80029,-0.0889 -1.49459,-0.59708 -1.82134,-1.33302 -0.32676,-0.73594 -0.30918,-1.6412 -0.30918,-1.6412 0,0 -0.85758,0.29046 -1.65787,0.20153 -0.80029,-0.0889 -1.49459,-0.59708 -1.82134,-1.33302 -0.32675,-0.73595 -0.32739,-1.65453 -0.32739,-1.65453 0,0 -0.87579,0.27713 -1.67608,0.1882 -0.80029,-0.0889 -1.49459,-0.59708 -1.82134,-1.33302 -0.32675,-0.73595 -0.23632,-1.58788 0.14615,-2.30154 -0.56461,0.58036 -1.34933,0.92414 -2.14962,0.83521 -0.80029,-0.0889 -1.49459,-0.59708 -1.82134,-1.33302 -0.32676,-0.73594 -0.23633,-1.58788 0.23721,-2.23489 l 0.3494,-0.47739 10.31349,-14.09154 c 2.23312,-3.05116 5.92439,-4.6792 9.68334,-4.27084 3.75894,0.40836 7.01449,2.79108 8.54031,6.2506 1.52583,3.45952 0.91473,5.46996 -0.3617,9.4539 l -1.27436,11.07506 c -0.0753,0.47698 -0.50545,1.21786 -1.20378,1.61875 -0.69833,0.40089 -1.55871,0.40089 -2.25704,0 -0.69833,-0.4009 -1.21373,-0.9818 -1.17885,-1.72321 l 0.65366,-8.26309"
       inkscape:connector-curvature="0"
       sodipodi:nodetypes="cccsccccccccsccsscccsccc"
       transform="matrix(0.80695919,0.59060721,0.59060721,-0.80695919,0,0)" />
    <path
       style="opacity:1;vector-effect:none;fill:#ffffff;fill-opacity:1;fill-rule:evenodd;stroke:#000000;stroke-width:0.78799999;stroke-linecap:round;stroke-linejoin:miter;stroke-miterlimit:4;stroke-dasharray:none;stroke-dashoffset:0;stroke-opacity:1;marker:none;paint-order:markers fill stroke"
       d="m 8.5611607,266.5729 v 11.64167"
       id="path884"
       inkscape:connector-curvature="0"
       inkscape:path-effect="#path-effect886"
       inkscape:original-d="m 8.5611607,266.5729 v 11.64167" />
    <path
       inkscape:original-d="m 13.300039,266.5729 v 11.64167"
       inkscape:path-effect="#path-effect895"
       inkscape:connector-curvature="0"
       id="path893"
       d="m 13.300039,266.5729 v 11.64167"
       style="opacity:1;vector-effect:none;fill:#ffffff;fill-opacity:1;fill-rule:evenodd;stroke:#000000;stroke-width:0.78799999;stroke-linecap:round;stroke-linejoin:miter;stroke-miterlimit:4;stroke-dasharray:none;stroke-dashoffset:0;stroke-opacity:1;marker:none;paint-order:markers fill stroke" />
    <path
       style="opacity:1;vector-effect:none;fill:#ffffff;fill-opacity:1;fill-rule:evenodd;stroke:#000000;stroke-width:0.78799999;stroke-linecap:round;stroke-linejoin:miter;stroke-miterlimit:4;stroke-dasharray:none;stroke-dashoffset:0;stroke-opacity:1;marker:none;paint-order:markers fill stroke"
       d="m 18.038915,266.5729 v 11.64167"
       id="path897"
       inkscape:connector-curvature="0"
       inkscape:path-effect="#path-effect899"
       inkscape:original-d="m 18.038915,266.5729 v 11.64167" />
  </g>
</svg>
