<?xml version="1.0" encoding="UTF-8" standalone="no"?>
<svg
   width="128"
   height="128"
   viewBox="0 0 128 128"
   id="svg2"
   version="1.1"
   inkscape:version="1.2.2 (1:1.2.2+202305151915+b0a8486541)"
   sodipodi:docname="kingwhite.svg"
   xmlns:inkscape="http://www.inkscape.org/namespaces/inkscape"
   xmlns:sodipodi="http://sodipodi.sourceforge.net/DTD/sodipodi-0.dtd"
   xmlns:xlink="http://www.w3.org/1999/xlink"
   xmlns="http://www.w3.org/2000/svg"
   xmlns:svg="http://www.w3.org/2000/svg"
   xmlns:rdf="http://www.w3.org/1999/02/22-rdf-syntax-ns#"
   xmlns:cc="http://creativecommons.org/ns#"
   xmlns:dc="http://purl.org/dc/elements/1.1/">
  <defs
     id="defs4">
    <linearGradient
       inkscape:collect="always"
       id="linearGradient2102">
      <stop
         style="stop-color:#555753;stop-opacity:1"
         offset="0"
         id="stop2098" />
      <stop
         style="stop-color:#000000;stop-opacity:1"
         offset="1"
         id="stop2100" />
    </linearGradient>
    <linearGradient
       inkscape:collect="always"
       xlink:href="#linearGradient2102"
       id="linearGradient2104"
       x1="62.694489"
       y1="924.36218"
       x2="62.694489"
       y2="1052.4132"
       gradientUnits="userSpaceOnUse"
       gradientTransform="rotate(-90,64,988.3622)" />
    <filter
       inkscape:collect="always"
       style="color-interpolation-filters:sRGB"
       id="filter2961"
       x="-1.08e-05"
       width="1.0000216"
       y="-1.08e-05"
       height="1.0000216">
      <feGaussianBlur
         inkscape:collect="always"
         stdDeviation="0.00051749808"
         id="feGaussianBlur2963" />
    </filter>
  </defs>
  <sodipodi:namedview
     id="base"
     pagecolor="#ffffff"
     bordercolor="#666666"
     borderopacity="1.0"
     inkscape:pageopacity="0.0"
     inkscape:pageshadow="2"
     inkscape:zoom="5.6"
     inkscape:cx="41.607143"
     inkscape:cy="72.142858"
     inkscape:document-units="px"
     inkscape:current-layer="layer2"
     showgrid="false"
     units="px"
     inkscape:snap-page="true"
     inkscape:window-width="1920"
     inkscape:window-height="1152"
     inkscape:window-x="0"
     inkscape:window-y="0"
     inkscape:window-maximized="1"
     inkscape:document-rotation="0"
     inkscape:showpageshadow="2"
     inkscape:pagecheckerboard="0"
     inkscape:deskcolor="#d1d1d1" />
  <metadata
     id="metadata7">
    <rdf:RDF>
      <cc:Work
         rdf:about="">
        <dc:format>image/svg+xml</dc:format>
        <dc:type
           rdf:resource="http://purl.org/dc/dcmitype/StillImage" />
        <dc:title />
      </cc:Work>
    </rdf:RDF>
  </metadata>
  <g
     inkscape:groupmode="layer"
     id="layer2"
     inkscape:label="Layer 2"
     style="display:inline;opacity:1;mix-blend-mode:normal">
    <g
       id="g2113"
       transform="matrix(0.81920996,0,0,0.81920996,-12.847407,-41.933197)">
      <path
         style="fill:#cbcac8;stroke-width:0.146484"
         d="M 89.242656,199.44375 C 55.481763,198.23323 26.125753,168.72991 23.704233,135.26846 21.195868,107.90499 36.354908,79.979203 60.778419,67.32105 82.96144,55.249531 111.52428,56.530125 132.50213,70.623214 156.78571,86.246535 169.312,117.7275 162.19656,145.749 c -6.58788,27.71622 -31.22313,50.38572 -59.79614,53.22108 -4.361453,0.53647 -8.769071,0.68841 -13.157764,0.47367 z"
         id="path2155" />
      <path
         style="fill:#c1c0be;stroke-width:0.146484"
         d="M 90.194805,199.38491 C 61.322217,198.49185 34.770392,177.38911 26.69256,149.7593 18.669927,124.44465 26.626443,94.846678 46.836981,77.446433 c 5.852618,-6.290262 14.034883,-8.724896 22.026896,-10.98359 16.520458,-5.593434 34.672993,-5.274495 51.151753,0.298584 7.7072,1.996985 15.22107,4.89076 20.86734,10.749215 21.13909,18.694247 29.17036,50.793538 18.39045,77.029278 -9.07968,23.69552 -31.63543,41.70207 -56.99914,44.38308 -4.002079,0.51087 -8.049982,0.67856 -12.079475,0.46191 z"
         id="path2153" />
      <path
         style="fill:#c0bfbc;stroke-width:0.146484"
         d="M 89.02293,199.30166 C 59.346261,198.0893 32.782715,175.15162 25.82404,146.50417 19.454511,122.23131 27.445188,94.651003 46.273674,78.000562 c 7.771805,-4.522218 16.116043,-8.195157 24.628139,-11.122909 18.422066,-5.951239 38.976937,-4.45343 56.350567,4.105196 7.35202,2.936993 14.8579,5.799796 19.51334,12.620747 16.25717,18.445394 21.90832,45.701224 13.25949,68.868804 -9.25381,26.35198 -35.09798,46.29413 -63.262958,46.90814 -2.578785,0.10959 -5.163271,0.0819 -7.739322,-0.0789 z"
         id="path2151" />
      <path
         style="fill:#b9b8b4;stroke-width:0.146484"
         d="m 89.096172,199.29663 c -29.942306,-0.95314 -56.401178,-24.52731 -63.316359,-53.26616 -5.148388,-20.1725 -0.718454,-42.74474 12.36264,-59.049439 3.9956,-7.35821 12.974061,-9.041529 19.369859,-13.628739 19.904053,-11.159511 45.023198,-12.884664 65.844498,-3.176693 7.10156,3.519283 14.19519,7.155906 21.09919,11.000735 5.3834,5.193382 9.18541,11.881723 12.77814,18.388236 12.24775,24.74551 7.57019,56.55317 -11.35769,76.68223 -14.21208,15.65841 -35.67033,24.39214 -56.780278,23.04983 z M 95.395,188.05609 c 5.63126,-0.56454 11.76857,-1.20723 16.29593,-4.33432 -3.90204,-0.16026 -3.84752,-3.42134 -8.61521,-1.2179 -6.760398,1.50428 -18.742004,-0.96246 -22.214681,-0.004 -0.576001,1.66551 -5.885624,1.03152 -2.438072,-0.14676 -6.795125,1.53401 5.481979,4.43772 7.812984,4.96119 2.975018,0.72248 6.452513,0.75219 9.159049,0.74202 z m -19.042969,-5.1356 c 0.350337,-0.80948 0.350293,0.8095 0,0 z m 37.060549,0.29297 c -0.41492,-1.2075 -0.56386,1.39548 0,0 z m -4.35791,-0.42364 c 1.26057,-2.24312 -1.75255,0.92349 0,0 z m 2.05034,-0.56382 c -0.4697,-1.3712 -1.59324,0.74537 0,0 z m -31.823291,-0.27474 c -0.633278,-1.06001 -0.940082,1.0197 0,0 z m 30.468751,-0.72398 c -0.47848,-0.56015 -0.21568,0.78603 0,0 z M 95.348286,177.6842 c 3.561789,0.65867 11.794234,-2.49909 3.470136,-0.85129 -5.132628,0.67041 -10.266746,-0.35328 -15.394732,-0.51326 3.902071,0.90891 7.906547,1.5373 11.924596,1.36455 z m 10.839624,-2.05726 c -0.92855,-0.3826 -0.88681,0.80468 0,0 z"
         id="path2149" />
      <path
         style="fill:#b2b1ad;stroke-width:0.146484"
         d="M 88.803203,199.24366 C 57.54389,197.78426 29.823097,172.32608 24.766024,141.59679 21.430828,123.0024 25.820637,102.85878 37.687948,88.003923 c 9.11178,-3.592672 15.333323,-11.864441 24.361213,-15.70787 22.418941,-11.954058 51.308789,-9.89659 71.827689,5.078746 5.20737,3.279595 9.58777,8.11828 15.45305,10.06896 5.31709,5.085599 7.73766,12.579221 10.75853,19.164831 9.73526,26.88 0.48239,59.07145 -21.82673,76.88776 -13.69348,11.25828 -31.75669,17.12983 -49.458497,15.74731 z m 9.814453,-8.35186 c 17.883944,-1.45427 36.175054,-11.1996 44.060394,-27.85312 1.14681,-8.65425 -8.82686,1.83977 -11.27758,4.23592 -18.77349,18.42036 -51.207574,19.86005 -71.517379,3.14098 -4.817575,-2.96396 -8.937106,-10.15722 -14.585767,-10.11952 -0.121139,7.15637 6.095574,12.30174 10.71247,17.0444 11.521041,10.14953 27.406959,14.78365 42.607862,13.55134 z m 0.292969,-12.37143 c 12.807075,-1.41229 25.680255,-7.86364 32.445595,-19.16604 -10.01883,10.64584 -24.16565,18.01153 -39.050102,17.20685 -13.28627,-0.51305 -26.285721,-6.58788 -35.126686,-16.53231 2.722697,6.08364 8.927551,10.36143 14.740011,13.53122 8.264047,4.22406 17.771555,5.89218 26.991182,4.96028 z m -42.866949,-19.7698 c -0.638383,-0.89869 0.13993,0.77715 0,0 z"
         id="path2147" />
      <path
         style="fill:#b0aeab;stroke-width:0.146484"
         d="m 89.682109,199.29949 c -31.465751,-0.72764 -59.224306,-26.44962 -64.706888,-57.04685 -3.25245,-16.95102 0.01818,-35.16682 9.416819,-49.695047 6.235957,1.716629 8.955934,-7.490279 14.013515,-9.981624 17.310111,-15.5467 42.761326,-22.069944 65.097035,-14.661174 13.38688,4.140709 24.924,12.811191 34.36937,22.93643 7.76453,1.550057 9.61201,9.257415 12.17073,15.697605 9.1824,25.41374 1.84161,55.83298 -18.33351,73.92532 -13.91402,12.86823 -33.10875,19.77091 -52.027071,18.82534 z m 9.448243,-8.01879 c 22.908808,-1.73233 44.570248,-17.77881 51.103158,-40.09778 -2.48447,-9.23941 -9.53741,2.57753 -11.77231,6.50255 -10.3766,15.82053 -29.32985,25.72954 -48.323454,24.01327 -17.826899,-0.96667 -34.241344,-11.78704 -43.130703,-27.12669 -1.105028,-7.00029 -12.654981,-8.73834 -8.386092,-0.0181 8.457927,24.39454 35.39719,39.06738 60.509401,36.72679 z m -3.295899,-12.24458 c 17.709347,-0.66005 35.913747,-11.61859 41.723787,-28.86315 0.3973,-4.26309 -3.45282,5.72846 -5.1952,6.82734 -13.16935,17.75304 -39.247059,24.80996 -59.171872,14.63565 C 63.07961,166.7654 54.932001,158.27147 49.800134,148.3528 c 2.434553,12.26032 12.992487,21.38764 23.902117,26.47557 6.921376,3.07909 14.559969,4.56779 22.132202,4.20775 z"
         id="path2145" />
      <path
         style="fill:#adaca8;stroke-width:0.146484"
         d="M 89.096172,199.24457 C 54.655001,197.72772 24.295214,166.93714 23.845863,132.345 c -0.508676,-13.12478 2.362692,-26.61038 9.486946,-37.760474 5.170633,3.640997 8.434431,-7.156604 12.79753,-9.445291 17.909432,-17.950648 46.359198,-25.449062 70.282781,-16.027961 13.11774,5.018498 24.26774,14.200857 33.27616,24.812417 3.51993,3.78527 4.77657,-2.071647 6.18649,3.312946 14.19461,25.508173 9.06537,59.609653 -11.32098,80.336393 -14.11796,14.87613 -34.96012,23.19309 -55.458618,21.67154 z m 9.521484,-7.76219 c 24.881454,-1.61491 48.780944,-20.24027 53.374954,-45.26168 -4.06665,-8.67735 -9.71085,3.37284 -11.71018,7.7348 -9.23962,17.58601 -28.97055,28.8142 -48.82387,27.60547 -18.611037,-0.4635 -36.054894,-11.85796 -44.63989,-28.2655 -1.452431,-4.1492 -7.758968,-14.68003 -10.790642,-6.76421 2.048259,15.44687 13.163656,28.5096 26.158874,36.41864 10.873229,6.50498 23.785205,9.6537 36.430754,8.53248 z m -1.391601,-12.38149 c 18.422015,-1.15465 36.427245,-13.49834 42.016475,-31.44484 0.36362,-6.39804 -3.60437,4.8991 -4.93661,6.35929 -10.13006,16.12255 -30.40286,25.10189 -49.121454,21.22599 -16.760601,-2.79663 -31.033288,-15.51075 -36.941954,-31.27425 0.378752,11.38045 9.109677,20.59613 17.921007,26.83847 9.066421,6.06577 20.159862,9.1664 31.062536,8.29534 z"
         id="path2143" />
      <path
         style="fill:#aaa9a5;stroke-width:0.146484"
         d="M 89.242656,199.24563 C 55.746177,197.8006 25.981839,168.8058 24.007408,135.25981 c -1.051163,-12.80359 1.291129,-26.0119 7.484417,-37.330764 2.346006,7.241664 8.105297,-5.198403 10.606189,-7.497324 18.824328,-24.31743 55.590267,-32.354222 82.607436,-17.382541 10.73707,5.839052 19.63285,14.737079 26.33776,24.858617 1.36379,2.617882 5.91934,2.750902 4.61593,-0.953435 14.27885,25.365587 9.48959,59.444617 -10.75008,80.253467 -14.10251,15.05221 -35.04387,23.52952 -55.666404,22.0378 z m 9.155274,-7.46764 c 26.9935,-1.53932 52.34821,-23.27412 55.55235,-50.47971 -3.42641,-8.56096 -11.93785,0.22598 -11.14929,6.3834 -5.47654,13.34417 -16.206,24.65162 -29.79671,29.9037 -19.509417,8.24504 -43.503561,2.53966 -57.587112,-13.16978 -5.72007,-6.22264 -10.27659,-13.77763 -12.041724,-22.09001 -3.338514,-8.52347 -13.54547,-1.23275 -8.475872,5.60544 6.222385,25.11679 30.884034,43.00972 56.309484,43.97136 2.395813,0.10544 4.79822,0.0659 7.188874,-0.1244 z m -0.387883,-12.4422 c 20.069333,-1.53051 39.145933,-16.45242 43.511503,-36.4095 -0.30791,-9.23662 -3.01738,3.34624 -4.73686,5.84188 -7.92131,16.92627 -26.29241,28.13379 -44.977536,27.05979 -18.074009,-0.58879 -34.921561,-12.41786 -41.876919,-29.07844 -1.632789,-3.78786 -4.279368,-11.6909 -3.436462,-3.28102 1.935224,11.28961 9.91419,20.89575 19.06998,27.34639 9.440057,6.38856 21.077373,9.5045 32.446294,8.5209 z m -1.087832,-63.33416 c 5.532115,-2.58932 14.186325,-4.19418 14.707535,-11.60433 -1.40118,-7.435461 -10.41586,-10.680129 -17.236471,-10.558267 -6.675656,-0.321214 -13.698047,2.133891 -17.975301,7.451097 -3.108543,6.04376 0.308524,8.39517 6.06839,11.46044 4.197523,2.37427 8.344593,3.29878 13.881448,3.02741 z m 0.670051,-1.34285 c 0.650385,-1.00005 0.468563,0.7521 0,0 z M 77.230938,101.40194 c 0.353508,-0.57524 0.353508,0.57524 0,0 z m 2.929687,10.32715 c -0.65038,-1.00008 -0.468576,0.75209 0,0 z m 28.125005,-0.35757 c -0.21568,-0.78603 -0.47848,0.56015 0,0 z m 2.92968,-2.25474 c -0.24288,-1.08077 -0.74432,0.76978 0,0 z m 1.46485,-3.25571 c -0.47848,-0.56015 -0.21568,0.78603 0,0 z m -37.144051,-0.9601 c -1.005949,-0.75619 -0.183419,1.42481 0,0 z m 36.704591,-0.56934 c -0.32877,-0.56728 -0.19287,0.55543 0,0 z m -37.110014,-1.64795 -0.007,0.3574 z"
         id="path2141" />
      <path
         style="fill:#a8a6a3;stroke-width:0.146484"
         d="m 89.389141,199.24795 c -31.564269,-1.2479 -59.781973,-26.93622 -64.650747,-58.03633 -2.301934,-13.64498 -0.688845,-28.12847 5.555237,-40.5598 -1.885734,8.82326 7.10732,2.06028 7.257257,-2.587032 13.397038,-23.291131 42.03756,-36.921594 68.518292,-31.279806 19.70633,3.76788 37.21238,17.207382 46.09451,35.165778 1.65678,3.99121 6.22354,3.82111 5.1742,-1.04782 6.5926,12.79974 8.11895,28.19442 5.18411,42.29552 -5.24007,26.98177 -27.64374,49.54301 -54.6738,54.73873 -6.05881,1.25026 -12.28409,1.70368 -18.459059,1.31076 z m 10.253906,-7.31165 c 28.361383,-2.18073 54.391233,-26.51924 55.664333,-55.40703 0.20638,-7.69465 -8.95776,1.50894 -9.36296,-6.99451 -0.34398,5.47143 -6.8998,4.62227 -6.53559,10.48527 -3.40753,11.51473 -10.27661,22.28893 -20.75362,28.53772 -16.54464,10.64956 -39.752266,9.40995 -54.691808,-3.5849 -8.329471,-6.90626 -13.811819,-16.7581 -16.293966,-27.2072 -1.608521,-4.46201 -6.071292,-1.59552 -5.9,-6.9966 -1.494124,0.92015 -2.854895,6.91731 -7.212792,3.07505 -4.733936,2.99533 -0.47834,12.64955 0.65064,17.77141 9.086048,25.8913 37.271703,43.20875 64.435763,40.32079 z m -8.862305,-11.29807 c -6.328112,0.0134 -17.47062,-3.80536 -19.757467,-5.70515 8.364838,3.35256 17.243184,5.79329 26.35104,4.8379 10.865855,-0.76532 21.577255,-4.94597 29.719705,-12.2501 -3.4893,4.689 -9.68651,7.31059 -15.05392,9.75539 -6.7368,2.63396 -14.046778,3.68941 -21.259358,3.36196 z m -21.908338,-6.57172 c -4.700411,-2.87637 3.414983,1.00771 0,0 z m -4.264517,-2.59737 c -3.497133,-1.56911 0.07015,-2.00452 0,-3e-5 z m -3.797646,-2.95993 c -0.866299,-1.53379 1.672409,1.06919 0,0 z m 71.865029,-6.46274 c 0.46257,-0.63811 0.22512,0.6048 0,0 z m 11.64551,-26.07422 c 0.35353,-0.57524 0.35348,0.57526 0,0 z M 94.882305,124.54647 c -0.192874,-0.55543 -0.328773,0.56728 0,0 z m -0.952149,-0.12986 c 6.507564,-0.72268 12.652084,-3.25885 18.644554,-5.10084 6.02713,-1.38074 13.86423,-7.12809 9.58885,-13.97528 C 116.09374,94.609507 102.8404,89.418325 90.906566,90.453622 80.566223,91.461481 68.99874,96.566349 64.863352,106.71916 c -3.224311,6.36903 3.054196,10.87192 8.388469,12.18051 6.741185,1.88429 13.558255,5.05844 20.678335,5.51694 z M 64.92625,113.41366 c 0.353487,-0.57527 0.353532,0.57525 0,0 z m 56.64063,-1.12305 c -0.55112,-1.36871 1.26105,0.22641 0,0 z m -14.08178,9.16976 c 0.85567,-2.08365 -1.40971,1.48003 0,0 z m 8.17592,-2.70472 c -0.72173,-1.75375 -0.28229,1.14344 0,0 z m 5.1559,-3.39936 c -1.19411,-0.37715 0.32315,1.48575 0,0 z m -56.989303,-5.0188 c -0.502693,-0.60936 -0.378892,0.59737 0,0 z m 59.472653,-3.51563 c -0.22551,-0.60505 -0.46209,0.63832 0,0 z"
         id="path2139" />
      <path
         style="fill:#a5a4a1;stroke-width:0.146484"
         d="m 89.389141,199.24795 c -33.372985,-1.35611 -62.631054,-30.10947 -65.448883,-63.24851 -1.135874,-11.33727 0.579954,-23.03734 5.468502,-33.36755 -2.098691,3.73219 2.340629,13.64986 4.085309,4.81115 7.940956,-19.714808 25.26959,-35.781308 46.308349,-40.157278 24.059562,-5.740456 50.776222,4.211606 65.246552,24.277804 5.40203,5.01207 6.72448,15.609544 11.8585,18.762714 2.67804,-2.75544 -0.34186,-12.850835 2.57742,-4.8055 11.44758,29.16429 -0.38486,65.16878 -26.73966,82.05077 -12.67308,8.45843 -28.1473,12.63943 -43.356089,11.6764 z m 9.358652,-7.03629 c 28.556697,-1.75012 54.256937,-25.55492 57.314697,-54.15468 2.39812,-5.46903 -0.69114,-11.43052 -6.61729,-7.71944 -3.46237,-1.12409 -4.03587,-11.69371 -5.6357,-3.14847 -0.90598,5.79097 -3.85982,4.67523 -4.12782,1.20054 -0.71949,9.38122 -2.31758,19.06061 -7.78289,26.992 -12.26294,18.98665 -39.506949,25.96631 -59.355428,15.04532 -14.51172,-7.24815 -24.0237,-22.71463 -24.356257,-38.8805 -0.540611,-3.39102 -1.048752,-4.42785 -1.358141,-0.3641 -3.913992,2.60439 -2.683976,-13.50565 -5.865466,-4.15971 -0.905922,5.06931 -5.689559,4.51236 -8.988496,3.32066 -2.065339,6.25103 0.562067,13.17571 2.108127,19.36477 8.392562,26.12436 35.53452,44.35861 62.86578,42.60584 l 0.899961,-0.0452 z m 45.572987,-67.29033 c 0.21569,-0.78604 0.47847,0.56015 0,0 z m -50.164509,3.27691 c 8.952139,-0.71655 17.792609,-2.27727 26.474819,-4.5649 5.23278,-2.47198 9.23531,-1.16359 10.83978,-8.24374 -2.01452,-7.95604 -7.29185,-14.7345 -14.10308,-19.223526 -15.71894,-11.27542 -39.092969,-9.299548 -52.638342,4.540426 -3.921324,4.10739 -8.989856,10.05545 -8.145542,15.28204 -1.198167,6.8754 6.906413,6.49169 12.3568,8.89229 6.533176,0.6304 12.650113,2.16405 19.33126,2.69585 1.949926,0.29049 3.902759,0.67706 5.884305,0.62156 z m 7.171349,-1.16153 c 0.32877,-0.56728 0.19287,0.55543 0,0 z m 14.86816,-2.92969 c 0.35348,-0.57526 0.35353,0.57524 0,0 z m -48.193358,-0.14649 c 0.378892,-0.59737 0.502693,0.60936 0,0 z m 61.816408,-6.10163 c 0.36892,-0.95346 0.39546,1.07412 0,0 z m -11.20542,7.12599 c -0.40792,-1.34199 -0.76801,0.79065 0,0 z m -56.84283,-1.60017 c -0.01395,-0.74628 -0.483146,0.50278 0,0 z m 83.42911,-0.74255 c -0.35353,-0.57524 -0.35348,0.57526 0,0 z m -84.228518,-0.29296 c -0.502693,-0.60936 -0.378892,0.59737 0,0 z m 64.113738,-0.17395 c -0.32644,0.15806 0.33218,0.56031 0,0 z M 57.2815,120.99254 c -0.483436,-1.05309 -0.714167,1.12038 0,0 z m 71.65842,0.10081 c -0.65754,-0.78 -0.65919,0.91537 0,0 z m 2.62131,-1.43554 c 0.46728,-1.68304 -1.45617,0.79386 0,0 z M 56.503399,119.566 c -0.192874,-0.55543 -0.328773,0.56728 0,0 z m -0.219727,-1.70186 c -0.606656,-0.52484 -0.05739,0.99458 0,0 z m -0.194722,-2.35028 c -1.030412,-0.1941 0.295847,0.758 0,0 z"
         id="path2137" />
      <path
         style="fill:#a2a19d;stroke-width:0.146484"
         d="m 89.535625,199.2564 c -31.710503,-1.46119 -60.34354,-27.15521 -64.947231,-58.62332 -1.919221,-11.77186 -0.776435,-24.09052 3.656763,-35.1888 -0.857831,8.57113 1.810639,17.01814 1.376349,25.606 1.378561,23.21393 15.401994,45.64102 36.809258,55.3657 20.41351,10.08128 46.139166,7.95879 64.450656,-5.6543 17.06542,-12.23849 27.37026,-32.9703 27.12623,-53.94537 0.14314,-7.01016 1.52607,-15.43057 1.38808,-21.60315 11.19281,28.18171 0.53999,62.69203 -23.8973,80.38262 -13.04973,9.80733 -29.65588,14.86569 -45.962805,13.66062 z m 2.261605,-24.30373 c -13.985572,-0.64031 -28.336125,-8.40141 -34.085329,-21.58599 -2.261859,-5.54541 -2.411186,-11.98648 -0.417705,-15.86476 4.433743,-4.14585 11.605529,-3.54158 17.597334,-4.16706 6.811129,0.5886 13.486167,-1.07099 20.10723,-1.23479 7.0124,1.05639 14.1358,1.88539 21.21521,0.85223 4.14048,1.24363 10.7655,0.42217 13.44314,3.97843 0.46197,-0.0579 3.97712,7.43538 1.51124,12.12869 -2.86409,13.51207 -15.92048,22.57863 -28.89545,25.12025 -3.44359,0.67928 -6.969626,0.94076 -10.47567,0.773 z m 39.9259,-31.81997 c -0.55037,-0.28267 -0.13682,0.72294 0,0 z m -73.681646,-3.78266 c -0.281505,-0.89262 -0.582253,0.50828 0,0 z m 3.566798,-3.45572 c -1.489244,-4.16837 -0.355858,1.4441 0,0 z m 62.393618,-1.24043 c -0.32981,-1.06095 -0.4657,1.07219 0,0 z m -66.546353,2.73998 c -1.051788,-0.6824 1.765175,0.33304 0,0 z m 3.295898,-2.73998 c 0.502735,-0.60935 0.378852,0.59738 0,0 z m 7.202149,-1.26953 c -0.314053,-0.91812 0.98889,0.46023 0,0 z m 40.551756,-0.48828 c 0.7072,-0.65253 0.53944,0.63106 0,0 z m 41.51799,-4.42288 c -4.25218,-2.64863 -3.91689,-13.06354 -7.42829,-12.92793 -0.12578,2.33243 1.25548,14.06116 -1.81986,9.50821 -1.06333,-9.03784 -5.73731,-17.14326 -12.53465,-23.08866 C 115.17744,88.638539 94.206738,83.121214 76.729111,90.504427 65.317994,95.239574 55.386084,103.9974 49.57181,114.89722 c -2.274138,2.95613 -1.620232,13.00141 -4.536997,11.75854 -1.480761,-2.96101 1.737625,-16.48745 -2.647305,-8.15419 0.516995,6.07538 -7.286317,14.44882 -9.570958,4.96826 -1.619347,-14.45863 6.17954,-28.425707 15.885834,-38.592373 17.608358,-18.490712 46.876657,-24.31827 70.153236,-13.753414 19.03885,8.255487 34.81454,26.585296 36.10526,47.800107 -0.18353,3.17963 -0.86925,9.72826 -4.93754,9.54905 z"
         id="path2135" />
      <path
         style="fill:#a09e9b;stroke-width:0.146484"
         d="M 89.608867,199.25368 C 55.949831,197.6886 26.027192,168.72344 23.77825,135.02167 c -0.72946,-9.09002 0.419175,-18.35396 3.56056,-26.92621 -1.083422,11.55829 1.216357,23.13184 3.237698,34.45974 5.956568,24.75772 26.942287,45.61898 52.38063,49.53882 26.204302,4.84732 54.363592,-8.80822 67.057022,-32.17946 6.74588,-11.39682 8.86852,-24.67125 9.83102,-37.67502 1.00421,-3.69276 0.11882,-14.01218 0.62864,-13.51832 10.19742,29.41552 -3.43533,64.24915 -29.87169,80.20595 -12.1462,7.58463 -26.68841,11.36198 -40.993263,10.32651 z m 4.760742,-27.05543 c -8.350148,-0.32519 -18.230907,-2.49465 -23.431287,-9.44317 -4.993725,-3.40172 -8.599374,-14.16874 -2.158892,-16.50445 4.927327,-5.07442 12.441374,-3.53087 18.325789,-5.75611 5.283596,-1.02354 7.873718,-1.10624 13.625671,-0.1098 5.78978,1.42291 8.65542,0.91864 13.63268,3.68393 7.85054,-0.43677 10.65559,11.20523 4.93477,15.83968 -4.95248,8.10593 -14.64498,11.51805 -23.66624,12.41445 z M 120.88328,156.1871 c -0.35349,-0.57528 -0.35354,0.57527 0,0 z m 1.02539,-2.49024 c -0.19287,-0.55543 -0.32877,0.56728 0,0 z m -0.34216,-3.7255 c -0.90275,-0.85288 -0.067,1.31361 0,0 z m -54.076783,-0.0831 c -0.539419,-0.63108 -0.707205,0.65254 0,0 z M 120.7368,149.318 c -0.47997,-0.9438 -0.7948,0.56827 0,0 z m -53.320316,-1.33403 c -0.353531,-0.57525 -0.353486,0.57527 0,0 z m 52.980926,-0.32043 c -0.32644,0.15806 0.33218,0.56031 0,0 z m -51.720549,-0.66529 c -0.759713,0.0141 0.496958,0.72991 0,0 z m 50.262449,-1.30005 c -0.49487,-0.41296 -0.20687,0.36716 0,0 z m -43.026732,-1.9989 c -0.88931,-0.48158 -0.889278,0.48159 0,0 z m 29.589842,-1.94956 c -0.47848,-0.56017 -0.21568,0.78604 0,0 z m -40.502928,9.16392 c 0.328773,-0.56728 0.192874,0.55543 0,0 z m 0.512696,-2.34375 c 0.502695,-0.60936 0.378891,0.59737 0,0 z M 120.29539,146.369 c -0.28506,-1.3733 1.15603,0.97702 0,0 z m -3.06336,-2.48116 c -2.06396,-1.31723 2.06123,0.14373 0,0 z m -1.10801,-0.88195 c -0.31974,-1.46642 1.05305,0.47368 0,0 z m -3.44386,-0.73941 c 0.97371,-1.48062 0.43755,0.86885 0,0 z m -1.31836,-0.58134 c 0.35354,-0.57527 0.35349,0.57528 0,0 z m -25.488284,-1.31836 c 0.539457,-0.63107 0.707157,0.65255 0,0 z m -48.539189,-16.0803 c -7.330219,-3.58006 -2.45788,-13.62149 -0.96826,-19.55426 9.61589,-25.614405 38.035249,-41.755442 64.963753,-38.285991 24.97658,2.765022 48.23416,22.318347 52.23177,47.608061 2.06259,5.04682 -2.59481,13.82576 -6.96519,6.46206 -1.23201,-3.34743 -3.78169,-12.05344 -6.58721,-11.52291 0.73866,3.94331 3.71975,10.84056 0.83157,13.43711 -2.56615,-11.51329 -9.18258,-22.41207 -19.63891,-28.310981 -16.91649,-11.373407 -40.600141,-10.574104 -56.993118,1.42393 -9.18244,6.187021 -15.214828,16.213941 -17.438944,26.936731 -4.120361,-0.28573 1.426278,-10.5171 -0.003,-13.80265 -4.727989,4.12569 -3.590877,12.86257 -9.432498,15.6089 z"
         id="path2133" />
      <path
         style="fill:#9c9b97;stroke-width:0.146484"
         d="M 89.682109,199.2487 C 57.823546,197.81423 28.96388,171.9612 24.536862,140.28393 c -1.524038,-9.76779 -0.925026,-19.88816 1.944164,-29.3593 -0.964198,15.39383 2.095108,31.10239 8.42655,45.14199 10.784425,22.61707 35.137888,38.24068 60.368305,37.23211 25.427459,-0.59643 49.920619,-17.05816 58.991099,-41.0177 5.38953,-12.84735 7.1065,-26.92289 6.91677,-40.75822 8.56704,27.2547 -3.80647,58.5153 -26.77307,74.84155 -12.8491,9.24331 -28.91244,13.98998 -44.728571,12.88434 z m 4.879104,-33.60376 c -3.867921,-3.61151 -8.316832,-1.26937 -10.073288,-6.84126 4.330861,-1.83557 -2.225067,-2.29598 2.835143,-3.46081 0.62398,-3.7945 7.743339,-0.31432 6.28131,-3.10114 0.772435,-0.26728 4.017284,3.30947 2.545148,-0.0465 3.090107,2.30356 9.286404,3.40811 5.979414,7.51901 3.91004,4.4307 -9.195174,6.16176 -2.93415,3.32617 -1.94051,0.75674 -5.157397,-0.38339 -4.633577,2.60453 z m -0.484572,-1.8493 c -1.049561,-1.0077 -0.313975,0.88306 0,0 z m 5.979979,-0.0401 c -0.599179,-0.94578 -0.500199,1.10998 0,0 z m -7.444823,-0.18317 c -0.513645,-0.70455 -0.443768,0.85989 0,0 z m 1.898462,-0.27373 c 0.450576,-1.96026 -2.212661,0.73818 0,0 z m 1.028983,-0.19014 c 0.05064,-1.07628 -0.676065,0.45201 0,0 z m -3.586625,-0.1831 c -0.225392,-0.60493 -0.462398,0.63818 0,0 z m -4.210692,-0.98877 c -0.559338,-0.72311 -0.793039,1.02942 0,0 z M 100.13878,161.507 c 1.75265,-3.91468 -3.455796,1.47962 0,0 z m 1.82055,-0.76973 c -0.54396,-0.56306 -0.34129,0.89487 0,0 z m -12.863158,-0.96131 c -0.350337,-0.80948 -0.350293,0.8095 0,0 z m -2.856445,-0.21972 c -0.502693,-0.60936 -0.378892,0.59737 0,0 z m 2.563476,-0.43946 c -0.32881,-0.56725 -0.19283,0.55543 0,0 z m 11.096171,-0.96437 c -0.767479,-0.1683 0.0099,0.78448 0,0 z m -11.269547,-0.25542 c -0.390965,-1.51493 -0.607468,1.62378 0,0 z m -0.852014,0.19482 c 4.57161,-2.54723 -1.884046,-2.35304 0,0 z m 0.411987,-1.56533 c 0.5603,-0.33207 0.157987,0.32641 0,0 z m 2.371216,-0.63235 c -0.529752,-0.61741 -0.529793,0.6174 0,0 z m 9.077925,-0.43382 c 0.239552,-0.92222 -1.801301,0.95879 0,0 z m -9.810347,-0.15212 c -1.110443,-0.66906 -0.852715,0.65648 0,0 z m 5.419922,-0.2354 -0.462221,0.0365 z m 1.864624,-0.14607 c -0.494879,-0.41296 -0.206875,0.36716 0,0 z m 1.065063,0.0153 c -0.427419,-1.1623 -0.988113,0.0578 0,0 z m -5.273437,9.95229 c 0.462195,-0.53776 0.05164,0.74819 0,0 z m -2.02834,-0.10075 c -0.566463,-1.41433 1.65308,0.67658 0,0 z m -5.295879,-1.56653 c 0.215683,-0.78603 0.47848,0.56016 0,0 z m -1.513671,-1.27818 c -0.531497,-0.63775 0.672199,0.0848 0,0 z m 0.844189,-0.48311 c -2.630166,-2.53593 0.193091,-2.23602 -4e-6,4e-5 z m 18.490015,-0.69049 c -2.36382,-3.65697 0.96188,-3.19613 0,0 z m 0.56244,-1.80581 c -0.66668,-1.34343 1.08759,1.11316 0,0 z m -19.95768,-0.25109 c -2.885719,-1.53143 1.31384,-0.0885 0,0 z m -1.501465,-0.68449 c 0.790284,-1.60814 0.668483,1.04892 0,0 z m 1.228575,-1.17783 c 0.02206,-1.27685 0.653513,0.58654 0,0 z m -1.733537,-0.21693 c -0.0019,-0.75186 0.671581,0.33798 0,0 z m 21.891677,-0.65602 c 0.49194,-0.54234 0.56974,0.33121 0,0 z m -2.60386,-0.493 c -0.71831,-1.56415 2.77217,-0.50257 0,0 z m -14.901019,-1.50021 c 0.192853,-0.55541 0.328789,0.56725 0,0 z m 0.805664,-0.87891 c 0.502736,-0.60935 0.378852,0.59738 0,0 z m 4.394531,-0.21972 c 0.345321,-1.0472 0.345321,1.0472 0,0 z m 6.00586,-0.79459 c 0.434221,-0.74875 0.633977,0.31344 0,0 z M 36.10413,120.3311 c -3.896223,-8.20607 1.247603,-17.02735 4.869625,-24.355793 13.962326,-24.336318 45.934437,-35.824248 72.317485,-26.540731 17.83704,5.800101 33.30186,20.139876 38.32719,38.480504 4.76647,5.41045 -2.10258,17.78332 -6.17118,7.58189 -1.68622,-3.51093 -5.35443,-12.31585 -7.9022,-11.16043 1.62821,3.53832 5.07497,13.62575 2.42712,13.57691 -4.16266,-13.17574 -13.95518,-24.746632 -27.20256,-29.348263 -20.993373,-8.558689 -48.722579,-1.586636 -60.254411,18.721653 -2.49777,3.0638 -4.657495,12.08273 -6.116009,12.00848 -1.705428,-4.61159 4.984489,-14.20518 2.428484,-15.10486 -5.498337,4.2784 -4.97747,15.04713 -12.144665,16.36288 l -0.294112,-0.0116 -0.284767,-0.21092 z"
         id="path2131" />
      <path
         style="fill:#92918d;stroke-width:0.146484"
         d="m 90.04832,199.24502 c -31.02173,-1.19787 -59.497546,-25.52518 -64.896108,-56.21563 -1.655945,-8.46684 -1.752645,-17.25093 -0.151574,-25.7339 -1.047626,29.41037 15.340843,60.14509 43.203085,71.61962 25.308334,10.83577 57.131757,3.88855 75.064707,-17.1834 12.91327,-14.34312 19.04706,-33.75446 19.3973,-52.82679 4.44949,21.89708 -4.34363,45.57219 -20.47058,60.86703 -13.6885,13.41039 -33.0115,20.65266 -52.14683,19.47307 z M 39.534813,112.72925 C 33.467989,107.45152 40.465534,98.874287 43.267176,93.390856 55.757896,74.512211 79.30401,64.00062 101.70704,67.117905 c 20.82806,2.579149 40.49484,16.636718 47.65172,36.679965 5.11726,6.45011 -5.59707,11.55109 -7.30219,3.10957 -2.3057,-4.11086 -9.24968,-12.832915 -11.11986,-11.782887 3.25989,5.159427 7.19967,10.401327 7.56978,16.726007 C 132.25005,100.20085 122.47794,89.812018 109.49384,85.957618 92.146562,80.350633 71.417371,84.410495 58.912172,98.141502 54.93542,101.12875 50.478261,110.49137 49.078131,111.07895 48.482763,105.52211 56.657214,96.813155 55.727467,95.309772 48.317814,99.130844 46.728896,109.39777 39.534813,112.72925 Z"
         id="path2129" />
      <path
         style="fill:#8a8984;stroke-width:0.146484"
         d="M 89.02293,199.15518 C 55.002506,197.623 24.999457,167.49169 24.017493,133.37146 c -0.322836,-3.70368 0.1718,-9.68958 0.43342,-2.69389 3.211128,33.32953 32.255914,63.20168 66.217226,64.47895 27.317511,1.28724 54.067281,-15.55404 65.392031,-40.34015 4.46122,-9.19852 7.09361,-19.3202 7.3787,-29.55337 2.82966,30.25483 -17.61098,60.31967 -46.23802,69.94232 -8.99776,3.19833 -18.646621,4.56494 -28.17792,3.94986 z M 53.642324,102.65923 C 55.257667,95.697072 67.125473,87.457441 67.825666,85.657917 59.344808,88.737619 53.020038,95.595211 47.040267,101.78372 36.621282,103.43651 44.933629,91.662934 48.273454,88.100521 65.765037,66.484645 99.144755,60.780758 123.10523,74.689633 c 9.62713,5.438293 18.45784,13.602458 22.33564,24.143589 -3.17475,8.084228 -10.37629,-2.953911 -13.71524,-5.791385 -2.66448,-3.000725 -12.13115,-8.765503 -12.28547,-7.056394 5.01554,3.73497 13.12148,11.678623 13.26892,15.451507 C 119.05155,84.493118 93.892689,77.485675 73.865198,86.726784 65.871985,90.325618 59.022913,96.157274 53.585563,102.98146 l 0.0568,-0.32231 z"
         id="path2127" />
      <path
         style="fill:#83817c;stroke-width:0.146484"
         d="m 89.315899,199.14995 c -33.903015,-1.27373 -64.098082,-31.42907 -65.13202,-65.31738 3.431262,27.57607 24.314515,52.18903 51.283145,59.38394 26.178866,7.71512 56.350526,-2.26686 72.709046,-24.14601 8.19813,-10.36126 13.69459,-22.92916 15.28606,-36.07306 -0.2276,29.82295 -23.28217,56.76753 -51.91002,63.78239 -7.23398,1.91494 -14.761239,2.71513 -22.236211,2.37012 z M 126.35263,94.398217 C 108.83215,78.774586 80.027639,78.281072 62.168982,93.624632 c -2.61997,0.799486 4.684685,-5.843196 6.97483,-7.017307 5.007409,-3.290294 10.654551,-5.45409 16.366953,-7.172444 -11.956876,0.845681 -23.017077,6.697063 -32.03643,14.338321 -8.436765,2.330553 -4.609324,-7.817341 -0.130485,-10.166142 22.243161,-22.72504 63.95023,-21.229001 84.04997,3.601503 5.4908,6.652395 -6.75958,8.547617 -8.63633,2.46921 -7.71704,-5.521216 -16.7713,-9.827412 -26.41313,-10.026923 9.50497,2.61126 19.12164,7.164667 24.92894,15.452227 -0.30689,-0.234951 -0.61386,-0.47 -0.92067,-0.70486 z"
         id="path2125" />
      <path
         style="fill:#807e79;stroke-width:0.146484"
         d="m 89.535625,199.14972 c -32.212201,-1.13383 -61.08948,-28.16381 -64.871983,-60.08167 5.331908,28.32991 29.508335,51.69038 57.928967,56.31185 27.834091,4.7486 57.519161,-9.48035 71.524961,-33.95423 4.37769,-7.2302 7.53576,-15.2431 8.91201,-23.59783 -2.52865,30.3656 -28.32875,56.17515 -58.23749,60.4106 -5.036656,0.82352 -10.157696,1.1252 -15.256465,0.91128 z m -65.015933,-60.9802 c 0.126976,-0.66671 0.126995,0.66669 0,0 z M 121.80698,90.493483 c -0.85163,-1.361894 1.87751,1.597943 0,0 z M 65.512188,90.477373 C 80.29508,76.803628 105.4064,76.138785 120.55983,89.482259 116.44644,87.791515 111.71867,84.917532 106.91855,83.906464 93.214487,80.164027 77.978608,82.462637 66.111918,90.317715 l -0.384167,0.102272 z M 56.051673,89.582867 C 50.89977,81.263599 62.283707,77.3725 67.827059,73.727937 c 20.567115,-10.36092 47.817961,-7.370664 64.392821,9.085138 1.69672,5.149531 -3.29614,8.106827 -6.92295,3.86209 C 107.79166,76.072741 85.054784,75.170834 66.742785,84.274933 62.986334,85.376319 59.761662,89.657761 56.051673,89.582867 Z M 130.9907,88.511315 c -0.35351,-0.575269 -0.35352,0.57527 0,0 z"
         id="path2123" />
      <path
         style="fill:#7b7974;stroke-width:0.146484"
         d="M 89.096172,199.09808 C 58.629818,197.56905 30.59581,173.37633 25.428935,143.19102 c 6.68721,27.18473 30.817552,48.96619 58.577293,52.70907 33.523852,5.30689 68.636632,-17.64907 77.378262,-50.40967 1.96249,-6.40477 -0.84343,5.90068 -1.80062,7.75075 -10.01137,28.67788 -40.23791,48.21803 -70.487698,45.85691 z M 25.094065,141.89266 c 0.2703,-0.35584 -0.01559,0.67145 0,0 z M 71.386016,86.818949 C 84.30224,78.572782 101.96193,78.21341 115.02391,86.335663 101.92177,80.991499 86.778199,80.339156 73.690587,86.088205 l -1.253438,0.427196 z m -11.586719,0.09371 c 1.531897,-3.071627 8.143054,-7.518877 1.968542,-8.561724 6.969867,-6.334227 16.71977,-8.782775 25.865411,-10.052094 13.33379,-1.473767 27.42174,1.629396 38.19759,9.821482 -1.25205,2.768732 -6.36785,-1.624496 -2.05564,3.70011 4.90734,3.710106 0.71469,5.308138 -2.70325,2.273776 -18.6587,-9.653037 -42.025496,-8.051792 -59.911903,2.655383 l -0.664302,0.198859 z m 6.404093,-8.598817 c -1.001709,0.109265 -0.136631,1.139613 0,0 z m -2.054408,1.314732 c -0.139749,-0.885298 0.770277,0.353805 0,0 z"
         id="path2121" />
      <path
         style="fill:#73726d;stroke-width:0.146484"
         d="m 89.535625,199.1134 c -28.600334,-1.39952 -55.335793,-22.38171 -62.729533,-50.17185 10.02072,29.97025 41.678538,51.66702 73.437268,47.89255 27.0647,-2.78099 51.80976,-22.03493 60.47999,-47.93412 -7.88069,30.75152 -39.75301,52.57389 -71.187725,50.21342 z M 66.405131,82.656388 c 14.370613,-10.768821 35.137299,-11.293334 50.674199,-2.759555 6.40322,5.346391 -6.47828,-1.323896 -9.21094,-1.155672 -13.92049,-3.11702 -28.682387,-1.063525 -41.726358,4.479854 l 0.167911,-0.360347 z m 16.904908,-0.0044 c 1.831961,-0.806263 -0.333751,0.551056 0,0 z m 1.611328,-0.369551 c 4.47842,-0.999194 -1.700079,0.745368 0,0 z m 16.772463,0.06505 c -3.636149,-1.09363 -11.439254,0.05358 -12.629006,-0.73439 4.159939,-0.163588 8.660271,-0.617519 12.629006,0.73439 z M 94.369609,68.784053 c 2.187495,-1.146009 2.57158,1.184678 0,0 z m 5.053711,0.09835 c 0.70719,-0.652545 0.539435,0.631075 0,0 z m -2.380371,-0.100975 0.507159,0.0029 z"
         id="path2119" />
      <path
         style="fill:#6a6966;stroke-width:0.146484"
         d="m 89.828594,199.10294 c -25.683061,-1.30095 -50.206032,-17.9848 -60.003706,-41.89859 11.253506,24.32758 37.345217,40.64075 64.139148,40.21962 25.732304,0.11212 51.289034,-14.69872 62.590904,-38.06882 1.95833,-3.0967 -2.82948,6.59761 -4.14958,8.11557 -13.3033,20.58122 -38.0964,33.19776 -62.576766,31.63222 z M 78.932154,77.991374 c 8.633472,-3.839145 18.505406,-3.178724 27.485966,-1.022137 -0.17545,1.881465 -9.521726,-1.360282 -12.956164,-0.31228 -4.871724,0.0412 -9.707637,0.703449 -14.529802,1.334417 z"
         id="path2117" />
      <path
         style="fill:#5a5956;stroke-width:0.146484"
         d="m 89.169414,199.00459 c -19.448415,-1.26186 -38.2616,-11.07244 -50.164693,-26.54812 18.51735,22.99111 52.089164,31.90622 79.615159,21.3246 11.5018,-4.28518 21.86131,-11.61345 29.69004,-21.07097 -13.49302,18.16692 -36.84694,27.51499 -59.140506,26.29449 z"
         id="path2115" />
    </g>
  </g>
  <g
     inkscape:label="Layer 1"
     inkscape:groupmode="layer"
     id="layer1"
     transform="translate(0,-924.36216)"
     style="display:inline;opacity:1;mix-blend-mode:normal;filter:url(#filter2961)" />
</svg>
