<?xml version="1.0" encoding="UTF-8" standalone="no"?>
<svg
   width="128"
   height="128"
   viewBox="0 0 128 128"
   id="svg2"
   version="1.1"
   inkscape:version="1.2.2 (1:1.2.2+202305151915+b0a8486541)"
   sodipodi:docname="kingwhite.svg"
   xmlns:inkscape="http://www.inkscape.org/namespaces/inkscape"
   xmlns:sodipodi="http://sodipodi.sourceforge.net/DTD/sodipodi-0.dtd"
   xmlns:xlink="http://www.w3.org/1999/xlink"
   xmlns="http://www.w3.org/2000/svg"
   xmlns:svg="http://www.w3.org/2000/svg"
   xmlns:rdf="http://www.w3.org/1999/02/22-rdf-syntax-ns#"
   xmlns:cc="http://creativecommons.org/ns#"
   xmlns:dc="http://purl.org/dc/elements/1.1/">
  <defs
     id="defs4">
    <linearGradient
       inkscape:collect="always"
       id="linearGradient1605">
      <stop
         style="stop-color:#ebc300;stop-opacity:1;"
         offset="0"
         id="stop1601" />
      <stop
         style="stop-color:#b29400;stop-opacity:1;"
         offset="1"
         id="stop1603" />
    </linearGradient>
    <linearGradient
       inkscape:collect="always"
       id="linearGradient2102">
      <stop
         style="stop-color:#555753;stop-opacity:1"
         offset="0"
         id="stop2098" />
      <stop
         style="stop-color:#000000;stop-opacity:1"
         offset="1"
         id="stop2100" />
    </linearGradient>
    <linearGradient
       inkscape:collect="always"
       xlink:href="#linearGradient2102"
       id="linearGradient2104"
       x1="62.694489"
       y1="924.36218"
       x2="62.694489"
       y2="1052.4132"
       gradientUnits="userSpaceOnUse"
       gradientTransform="rotate(-90,64,988.3622)" />
    <filter
       inkscape:collect="always"
       style="color-interpolation-filters:sRGB"
       id="filter2961"
       x="-1.08e-05"
       width="1.0000216"
       y="-1.08e-05"
       height="1.0000216">
      <feGaussianBlur
         inkscape:collect="always"
         stdDeviation="0.00051749808"
         id="feGaussianBlur2963" />
    </filter>
    <linearGradient
       inkscape:collect="always"
       id="linearGradient1624">
      <stop
         style="stop-color:#e9c400;stop-opacity:1;"
         offset="0"
         id="stop1620" />
      <stop
         style="stop-color:#f9e463;stop-opacity:1;"
         offset="0.32119575"
         id="stop1022" />
      <stop
         style="stop-color:#cebb1f;stop-opacity:1;"
         offset="0.85545182"
         id="stop1632" />
      <stop
         style="stop-color:#b29300;stop-opacity:1;"
         offset="1"
         id="stop1622" />
    </linearGradient>
    <radialGradient
       inkscape:collect="always"
       xlink:href="#linearGradient1624"
       id="radialGradient1020"
       cx="61.738716"
       cy="28.344912"
       fx="61.738716"
       fy="28.344912"
       r="34.082702"
       gradientTransform="matrix(-0.00465936,1.8678812,-1.4826551,-0.00371186,106.20839,-84.082456)"
       gradientUnits="userSpaceOnUse" />
    <linearGradient
       inkscape:collect="always"
       xlink:href="#linearGradient1605"
       id="linearGradient1607"
       x1="63.899799"
       y1="31.124016"
       x2="63.737415"
       y2="96.221191"
       gradientUnits="userSpaceOnUse"
       gradientTransform="matrix(0.9779601,0,0,0.9779601,1.4035415,0.6948738)" />
  </defs>
  <sodipodi:namedview
     id="base"
     pagecolor="#ffffff"
     bordercolor="#666666"
     borderopacity="1.0"
     inkscape:pageopacity="0.0"
     inkscape:pageshadow="2"
     inkscape:zoom="7.919596"
     inkscape:cx="46.340748"
     inkscape:cy="67.553951"
     inkscape:document-units="px"
     inkscape:current-layer="layer2"
     showgrid="false"
     units="px"
     inkscape:snap-page="true"
     inkscape:window-width="1920"
     inkscape:window-height="1152"
     inkscape:window-x="0"
     inkscape:window-y="0"
     inkscape:window-maximized="1"
     inkscape:document-rotation="0"
     inkscape:showpageshadow="2"
     inkscape:pagecheckerboard="0"
     inkscape:deskcolor="#d1d1d1" />
  <metadata
     id="metadata7">
    <rdf:RDF>
      <cc:Work
         rdf:about="">
        <dc:format>image/svg+xml</dc:format>
        <dc:type
           rdf:resource="http://purl.org/dc/dcmitype/StillImage" />
        <dc:title />
      </cc:Work>
    </rdf:RDF>
  </metadata>
  <g
     inkscape:groupmode="layer"
     id="layer2"
     inkscape:label="Layer 2"
     style="display:inline;opacity:1;mix-blend-mode:normal">
    <g
       id="g969"
       transform="matrix(0.81923335,0,0,0.81923335,-26.578282,-32.133101)">
      <path
         style="fill:#d1d0ce;stroke-width:0.146484"
         d="M 107.00406,187.05569 C 76.485246,186.12621 48.770722,162.58601 42.064046,132.931 34.618141,102.7179 49.953174,68.205657 78.358504,54.835188 106.69624,40.824457 144.7715,47.020551 164.82439,72.246646 c 17.1885,20.540026 21.23555,51.132294 9.17037,75.170414 -12.01259,24.96116 -39.22385,41.44673 -66.9907,39.63863 z"
         id="path1015" />
      <path
         style="fill:#c9c9c6;stroke-width:0.146484"
         d="M 106.19839,186.93268 C 71.533124,185.52038 40.880362,154.57027 40.481803,119.74586 39.666017,99.237251 47.800638,77.190322 65.605964,65.75339 84.255823,52.223011 109.16001,46.53867 131.38673,53.794701 c 13.67345,4.277862 26.77649,11.728636 36.19607,22.639151 18.7122,24.628448 17.2609,61.869068 -2.90991,85.232568 -14.05977,16.98223 -36.42714,26.85304 -58.4745,25.26626 z m 9.30176,-8.85719 c 13.9084,-1.26945 28.151,-7.1359 36.63191,-18.64275 -0.69466,-5.88235 -8.8649,2.66884 -12.21821,3.09607 -16.09566,8.85844 -36.22828,10.4373 -53.023248,2.57466 -5.456696,-2.33192 -10.680184,-5.15981 -16.046763,-7.68422 -4.357958,3.51612 5.806848,9.43035 8.805578,11.90858 10.535799,6.79309 23.381163,9.8373 35.850733,8.74766 z m -0.21972,-12.4573 c 5.73734,0.0778 17.13085,-4.82337 17.74402,-6.3911 -13.75854,6.53051 -30.32551,6.96616 -44.106541,0.25495 -0.278219,1.1723 8.308838,4.84332 12.030811,5.34663 4.6982,1.0079 9.55135,1.21784 14.33171,0.78952 z m 37.79296,-8.42089 c -0.46897,-0.94373 -0.71434,0.62386 0,0 z"
         id="path1013" />
      <path
         style="fill:#c1c1bd;stroke-width:0.146484"
         d="M 106.56461,186.94228 C 75.281975,185.62967 46.843847,160.79134 41.581079,129.87831 38.386662,112.4512 41.644315,93.299729 52.38178,78.985734 67.620735,63.338501 88.053294,50.98415 110.5022,51.207886 c 23.02208,-0.0641 44.57062,12.432381 59.52766,29.296582 8.50147,11.953508 11.2414,27.277442 10.62999,41.701472 -1.99738,29.87932 -25.13184,56.85691 -54.4571,63.13672 -6.42374,1.47199 -13.06042,2.02679 -19.63814,1.59962 z m 8.8838,-8.27728 c 21.89761,-1.7351 43.66993,-16.12605 50.2026,-37.69653 -1.26454,-6.40042 -8.62721,3.95762 -10.32244,6.25279 -10.86453,13.33028 -27.17264,22.96708 -44.71895,22.56801 -18.413012,-0.11008 -35.564754,-10.34313 -46.594987,-24.72158 -1.346513,-2.86065 -9.206571,-9.79362 -7.764785,-2.33581 8.046348,23.76324 34.875971,38.10169 59.198562,35.93312 z m 2.06546,-12.80806 c 13.50377,-1.9307 26.67253,-9.76884 32.91933,-22.18763 -12.30809,16.64434 -35.43659,25.074 -55.2528,17.94435 -9.482074,-3.25007 -17.778996,-9.5366 -23.971584,-17.36669 8.467962,16.47711 28.575125,24.10341 46.305054,21.60997 z"
         id="path1011" />
      <path
         style="fill:#c0bebb;stroke-width:0.146484"
         d="M 106.63785,186.92882 C 75.81747,185.70178 47.639017,161.60597 41.92269,131.24178 38.685201,115.26208 40.663504,97.637602 49.507299,83.747153 62.230172,69.717792 77.682824,56.696066 96.795326,53.013948 c 23.588624,-5.093155 48.921804,3.941638 65.416284,21.219057 6.18488,5.098096 12.11926,11.010533 14.33576,18.958878 9.24582,24.611597 2.91237,54.089277 -15.74252,72.649067 -13.94764,14.29509 -34.14783,22.54121 -54.167,21.08787 z m 9.375,-7.97401 c 24.88084,-1.83408 48.31845,-20.75145 53.10185,-45.61568 -1.97743,-7.99316 -9.19455,4.18213 -10.58625,7.40272 -9.79806,16.83066 -28.21027,29.06058 -48.03354,28.61293 -19.356419,-0.0711 -37.966974,-11.23455 -47.456039,-28.06029 -2.233254,-3.22421 -6.97051,-12.90875 -10.451411,-9.2955 -0.746142,6.86496 3.512915,13.22364 6.511508,19.12346 11.808096,18.89054 34.787308,29.98796 56.913882,27.83236 z m 0.95215,-12.74297 c 16.61932,-2.16699 32.88595,-13.31384 37.70325,-29.88826 -5.15492,8.17394 -11.13353,16.2149 -19.82536,20.9147 -17.82126,10.52056 -42.452319,8.30739 -57.29164,-6.44442 -4.476787,-4.30301 -8.078378,-9.44795 -10.994619,-14.91233 5.439027,21.27072 29.708305,33.1052 50.408369,30.33031 z"
         id="path1009" />
      <path
         style="fill:#b9b8b5;stroke-width:0.146484"
         d="M 106.93082,186.92837 C 74.859173,185.80059 45.801151,159.77878 41.254476,127.99091 39.029103,113.98207 41.130879,99.20311 47.765431,86.614743 58.94638,75.626874 69.39922,62.956586 84.459564,57.160098 108.66041,46.699412 138.5141,52.402197 157.47932,70.623484 c 5.40537,4.946123 10.19029,10.531301 15.69742,15.370181 14.53942,26.809715 7.40571,62.622035 -15.30295,82.683105 -13.65047,12.52479 -32.40607,19.44597 -50.94297,18.2516 z m 9.01314,-7.67269 c 25.78394,-1.78283 49.68738,-21.88223 54.30462,-47.57444 3.80935,-5.74193 -4.50016,-9.48942 -6.23366,-2.76322 -5.66882,10.5141 -10.98984,21.83411 -21.03243,28.9569 -18.16169,14.28159 -45.733381,14.71608 -64.083351,0.51709 -9.543727,-7.01804 -15.869548,-17.32062 -20.846112,-27.85926 -1.318317,-4.81708 -9.589037,-7.49912 -7.081393,0.0816 4.026146,30.37104 35.40281,51.50431 64.972326,48.64131 z m -2.05514,-12.45852 c 19.42271,-1.05781 38.58746,-14.94427 42.77386,-34.42209 -0.62905,-3.79717 -3.35138,7.67931 -5.64971,9.21192 -11.21153,17.40875 -34.28124,26.80437 -54.201742,19.95582 -14.708256,-4.53387 -26.801133,-16.36427 -32.113262,-30.75398 0.878016,12.31293 10.067977,22.61678 20.165118,28.88958 8.645403,5.24916 18.915596,7.90141 29.025736,7.11875 z"
         id="path1007" />
      <path
         style="fill:#b2b1ad;stroke-width:0.146484"
         d="M 107.0773,186.90231 C 73.206943,185.91298 42.68926,156.81091 40.739513,122.85128 39.843749,112.06914 41.296385,100.961 45.83282,91.080109 53.782992,86.324892 57.110028,76.953293 64.167918,71.163819 84.261934,51.459995 117.35896,46.287202 142.03724,60.28359 c 11.11587,6.043212 20.1064,15.353181 27.38902,25.580663 6.52175,3.906169 9.20308,11.26665 10.08627,18.433807 6.12621,29.86913 -10.29473,62.45585 -37.85094,75.46775 -10.67359,5.25945 -22.69839,7.76072 -34.58429,7.1365 z m 9.15527,-7.15081 c 28.08713,-1.98763 53.25728,-25.45637 56.15917,-53.64743 2.22249,-5.7719 -3.01478,-13.59907 -7.0546,-5.25054 -4.23032,5.5175 -4.20249,13.75479 -9.25178,18.51644 1.25243,-3.5954 4.7831,-14.81244 1.56001,-14.69593 -4.818,21.47789 -25.04382,39.23854 -47.49772,38.56711 -21.250634,0.007 -41.042051,-16.20725 -45.936172,-36.71342 -2.849795,-6.94607 -2.037978,5.76825 -0.574254,7.74453 1.282273,3.37195 2.66477,9.19183 -0.501785,2.91294 -3.928051,-6.39555 -4.425952,-17.16842 -12.431764,-19.74265 -4.224239,5.95139 -0.336318,15.43316 1.396979,22.28713 9.295698,25.76488 36.908226,42.94887 64.131916,40.02182 z M 66.794098,143.1394 c 0.19239,-1.08813 0.554963,1.30149 0,0 z m -0.366211,-0.87891 c 0.192874,-0.55543 0.328773,0.56728 0,0 z m 88.549803,-0.66377 c 0.52048,-1.74224 1.11313,0.26609 0,0 z"
         id="path1005" />
      <path
         style="fill:#b0aeab;stroke-width:0.146484"
         d="m 105.90543,186.83951 c -34.000994,-1.35579 -63.611553,-31.37135 -65.296515,-65.22759 -0.624657,-9.33467 0.657277,-18.84507 4.120977,-27.55713 7.065652,0.51482 7.606462,-9.557706 12.111872,-13.391456 15.676629,-22.274925 45.741086,-33.613408 72.036256,-25.647424 17.89609,5.211085 32.92607,18.575799 41.29727,35.07692 5.06381,3.563456 9.08844,6.796843 9.24482,13.71915 6.19082,29.86975 -9.81464,62.79266 -37.52844,75.82282 -11.10296,5.46162 -23.63975,7.9407 -35.98624,7.20471 z m 10.2539,-6.7071 c 30.15979,-2.0691 56.83785,-28.71672 57.41217,-59.2293 0.8321,-5.61736 -2.43345,-13.51018 -6.95788,-5.79631 -3.39116,1.88174 -5.61541,12.7033 -6.90788,4.4735 -2.74943,-3.42178 -1.9598,7.07726 -4.00624,9.07407 -5.94609,17.65059 -22.13463,32.01498 -41.08306,33.27867 -22.099567,2.43234 -43.679132,-13.60182 -49.55162,-34.70887 -1.310079,-2.04003 -2.267894,-12.6101 -4.0752,-5.34823 -2.659007,3.7644 -3.70994,-6.89627 -7.298887,-7.42334 -7.909906,-6.62629 -6.10057,9.70943 -5.249246,14.23832 4.471464,28.28317 30.791447,50.96339 59.371653,51.58659 2.7817,0.11772 5.57008,0.0641 8.34619,-0.1451 z m -6.73828,-75.89682 c -0.52723,-0.70646 -0.44515,0.86178 0,0 z m 1.81207,-0.77359 c -1.39555,-3.5648 7.41296,-0.14494 2.26635,-3.3044 -1.85149,-3.467449 -8.95462,-1.795113 -4.31528,1.41536 -3.67571,1.90484 2.36527,2.03617 2.04893,1.88904 z m -2.83746,-0.61445 c 0.48922,-0.80117 0.19712,1.0417 0,0 z m 2.07858,-1.40029 c 1.26658,-0.70156 -0.18926,0.86837 0,0 z m 1.82261,-0.80514 c -0.63942,-1.773955 1.08095,0.79155 0,0 z m -3.46174,-0.0408 c 0.73439,-1.193101 1.30007,0.75622 0,0 z m 1.50622,-0.2395 c -2.63152,-1.457376 2.97348,-0.201 0,0 z m 2.88831,0.15923 c 0.21568,-0.786032 0.47848,0.56015 0,0 z m 0.58594,3.29185 c -0.61446,-0.59241 -0.44439,0.80696 0,0 z m -1.56333,-0.38719 c 3.07043,-2.23973 -2.18978,-0.64339 0,0 z m -4.64638,-1.65674 c 0.79032,-2.582906 -1.44763,1.02415 0,0 z m -1.99341,-0.45954 c -0.47848,-0.56015 -0.21568,0.78603 0,0 z m 0.43413,-0.86385 c 0.40284,-1.32374 -0.9467,0.72907 0,0 z m 1.10395,-0.37263 c -0.35354,-0.575265 -0.35349,0.57528 0,0 z m 6.92444,-0.704952 c -0.51004,-0.704951 -0.45688,0.849812 0,0 z m -6.88775,-0.06409 c -0.66633,-0.90915 -0.65677,0.779932 0,0 z m 6.48187,-1.062011 c -0.35031,-0.809484 -0.35031,0.809482 0,0 z"
         id="path1003" />
      <path
         style="fill:#adaca9;stroke-width:0.146484"
         d="m 105.83218,186.83545 c -35.551734,-1.48686 -66.441626,-34.42031 -65.262576,-70.06779 -0.0084,-7.2769 0.895454,-14.67114 3.701981,-21.435476 7.780948,2.609043 7.869253,-10.595781 12.769856,-14.466272 15.381298,-23.078579 46.460919,-33.859643 72.838049,-25.292714 18.26113,5.673218 33.38159,19.811877 41.03677,37.244056 1.76679,5.769783 7.54496,-0.199885 7.2745,6.111928 9.1227,30.492278 -6.65324,65.742708 -34.94336,80.022108 -11.42948,6.0136 -24.54348,8.66303 -37.41522,7.88416 z m 9.66797,-6.49943 c 29.6612,-1.73123 56.07162,-26.99156 58.35376,-56.76663 0.81657,-4.3494 0.58187,-19.80425 -6.10127,-11.99022 -1.97227,4.24712 -6.62172,7.00868 -9.52081,6.42388 -2.69817,11.36201 -8.96408,21.79703 -16.97943,30.22478 -13.47578,13.43443 -35.87949,16.30321 -52.25666,6.57614 -11.588771,-6.30637 -18.825889,-18.19805 -24.230278,-29.79498 -0.942435,-3.36627 -1.269583,-10.08458 -5.419084,-6.14919 -3.119797,-3.02452 -10.055112,-14.84693 -11.9764,-4.91422 -2.98147,31.71183 22.842525,62.32813 54.267252,65.93903 4.58795,0.63834 9.24314,0.78388 13.86292,0.45141 z m -4.09108,-67.45606 c 6.01932,-1.6296 13.02243,-5.49579 14.58437,-10.85314 0.47225,-6.575815 -6.81078,-9.467217 -12.14127,-10.788543 -7.11124,-1.369291 -15.0749,1.888903 -18.774691,7.871775 -0.714772,6.339468 4.391181,10.751628 10.469211,12.138528 1.917,0.65563 3.83644,1.39395 5.86238,1.63138 z m 6.00753,-2.67988 c -0.25379,-0.87318 0.50868,0.29944 0,0 z m -18.838331,-3.61207 c -0.304338,-1.29148 1.00922,1.06738 0,0 z m -1.901359,-1.25022 c 0.43638,-0.32498 0.269247,0.55562 0,0 z m -1.02539,-5.475877 c 0.215676,-0.786043 0.478486,0.560157 0,0 z m 5.12695,-5.631004 c 0.13689,-0.723194 0.55033,0.282576 0,0 z m 24.9161,10.078341 c -0.72085,-0.54347 0.24882,1.55197 0,0 z m 0.86515,-1.24197 c -0.65883,-0.81974 -0.25923,1.0528 0,0 z"
         id="path1001" />
      <path
         style="fill:#aaa9a5;stroke-width:0.146484"
         d="m 106.05191,186.83551 c -31.357561,-1.54272 -59.698405,-26.75245 -64.543204,-57.8439 -1.860855,-10.49542 -1.350616,-21.50799 2.163669,-31.613113 5.026016,4.486673 3.548867,11.288483 2.781302,17.082293 -1.226955,28.40085 18.634799,56.32414 46.226587,63.73306 23.444106,7.03193 50.513266,-0.74198 66.335536,-19.50458 12.53207,-14.47208 18.30926,-34.7328 14.73909,-53.56766 0.13045,-3.16451 4.08677,-12.520211 4.72055,-4.77489 8.424,29.93392 -7.17049,63.92463 -34.52602,78.23473 -11.53783,6.21199 -24.83365,9.00016 -37.89751,8.25406 z m 0.27019,-28.26946 c -9.690716,-1.37409 -19.173379,-5.76836 -25.394699,-13.48481 -5.526759,-5.59389 -8.518134,-12.95077 -11.713553,-19.88925 -4.491047,-5.69831 -6.325586,-11.18911 -13.525228,-12.79056 -5.843321,-3.97087 -8.979769,-11.35291 -5.123869,-17.928741 9.701342,-27.697188 40.383861,-45.830687 69.325609,-41.04369 24.75121,3.429699 46.91098,22.7317 52.44012,47.295621 -0.79958,6.02741 -6.23899,12.52305 -12.32941,13.15906 -3.75059,4.03043 -7.09441,9.60832 -10.0095,15.24424 -4.22757,10.58637 -11.47544,20.67521 -22.1503,25.6202 -6.62968,3.14802 -14.22706,4.33349 -21.51917,3.81793 z m -37.247372,-34.486 c -0.157914,-1.09079 -0.771966,0.5973 0,0 z m 39.247692,-7.30784 c 6.37971,-0.28477 13.57711,0.0595 18.86976,-2.0022 4.44469,-1.28073 8.56489,-3.96996 9.39947,-7.32618 1.18044,-7.461417 -5.71821,-13.147485 -11.57731,-16.473942 -12.30611,-7.043736 -29.813425,-3.785691 -37.99494,7.93297 -3.097997,3.992222 -3.711235,11.440972 1.167734,13.310082 5.749716,3.602 12.641296,4.29539 19.311406,4.52143 l 0.82388,0.0374 z m -14.184572,-1.85547 c -0.345272,-0.87601 0.876013,0.34529 0,0 z m -2.880859,-0.92773 c 0.378868,-0.59736 0.502716,0.60934 0,0 z m 44.824221,-7.58704 c 0.17566,-1.07808 0.77056,0.21412 0,0 z m 0,-2.53605 -0.25069,-0.25339 z m -50.044364,6.68155 c -0.649086,-0.58078 0.196727,0.73531 0,0 z m 50.176234,-1.33681 c -1.13634,-0.38393 -0.55074,1.53877 0,0 z m -52.133826,-3.79963 c -0.489202,-0.80116 -0.19714,1.04167 0,0 z"
         id="path999" />
      <path
         style="fill:#a6a5a1;stroke-width:0.146484"
         d="m 106.12515,186.83468 c -35.125567,-1.34706 -65.876416,-33.34906 -65.556688,-68.56429 -0.271748,-5.38767 0.820117,-16.93207 2.8148,-18.13316 2.975235,10.95608 1.213014,22.55579 4.802215,33.38355 6.474447,23.12467 26.276903,42.09998 50.078885,46.36894 24.401408,4.84394 51.052688,-5.708 65.157118,-26.28127 9.00882,-12.58607 12.69536,-28.24518 12.52823,-43.55878 0.24386,-3.24979 1.86831,-15.652464 3.21082,-7.07927 7.04411,30.55627 -9.98593,64.41132 -38.54648,77.25859 -10.70011,5.05164 -22.6844,7.29717 -34.4889,6.60569 z m 2.24401,-32.30612 c -7.25474,-0.92253 -14.737885,-3.44014 -19.894722,-8.78826 -3.657911,-4.67149 -11.569776,-12.78625 -4.85644,-18.23173 5.486015,-2.24953 9.94581,-2.31623 15.240324,-3.12313 5.272048,-1.62046 10.947098,-3.19444 16.499378,-1.75816 6.00286,1.84998 12.26928,1.59631 18.30917,3.04361 2.69407,1.57456 8.60112,4.25223 5.53739,9.40223 -0.80826,6.43427 -6.6327,11.10067 -11.65029,14.75766 -5.50816,3.69321 -12.63199,4.89332 -19.18481,4.69778 z M 82.336176,130.60403 c 0.818497,-2.5436 -1.602593,1.43456 0,0 z m 56.528234,-0.0623 c -0.32237,-1.04626 -0.11274,1.02349 0,0 z m -0.73242,-0.81431 c -0.4622,-0.53775 -0.0516,0.74817 0,0 z m -1.53809,-1.52944 c -0.35354,-0.57527 -0.35349,0.57528 0,0 z m -4.61426,-2.70996 c -0.65658,-0.92357 -0.56284,0.84128 0,0 z m -1.90429,-0.21972 c -0.52976,-0.61742 -0.5298,0.6174 0,0 z m -9.46392,-0.81765 c 0.25394,-1.21545 -0.78695,1.08851 0,0 z m -34.188426,19.71413 c 0.244175,-0.86247 0.258548,0.81676 0,0 z m -5.71289,-8.93555 c 0.328809,-0.56725 0.192828,0.55543 0,0 z m 59.288116,-1.25875 c -0.36301,-1.39175 1.57563,0.0808 0,0 z M 81.735504,129.0769 c 0.353509,-0.57524 0.353509,0.57524 0,0 z m -0.55664,-0.46875 c -0.881158,-1.10571 1.438403,0.18919 0,0 z m 1.875,-1.3623 c 1.417501,-3.12393 1.129374,0.83826 0,0 z m 53.613326,-0.10987 c 1.57804,-0.98329 1.4653,0.5024 0,0 z m -52.050826,-0.79345 c -0.531533,-0.63775 0.672217,0.0848 0,0 z m 0.732422,0 c -0.345288,-0.87602 0.876017,0.34527 0,0 z m 50.732424,-0.0671 c 0.88516,-0.56743 0.8852,0.56742 0,0 z m -49.716099,-0.80018 c -0.329177,-1.0295 0.879415,0.48698 0,0 z m 0.680452,-0.15743 c -1.035028,-1.28382 1.27886,0.52301 0,0 z m 45.607587,-0.15722 c -0.18504,-0.86724 1.07267,0.29538 0,0 z m -40.807286,-0.98735 c -0.133408,-0.81081 0.669029,0.69529 0,0 z M 63.225835,114.10468 c -0.622212,-5.84106 -9.903514,-2.31939 -11.204468,-8.85157 -3.822776,-7.297716 1.434182,-15.404686 4.588625,-21.99623 14.062756,-24.340936 45.692158,-36.120263 72.375698,-27.617948 19.85196,5.94047 37.2502,22.284308 41.3759,42.992818 0.43784,6.67459 -5.11918,11.24317 -10.85915,11.71886 -2.34359,5.52945 -10.56278,-0.11761 -12.71304,-4.40585 -5.60483,-7.600372 -12.22297,-14.968348 -21.29565,-18.441852 -15.38035,-6.825203 -34.347389,-1.680292 -45.073554,11.038428 -5.048574,4.114934 -7.048745,14.009754 -14.651438,13.402014 -1.488597,-0.26493 -1.580238,1.5777 -2.542923,2.16133 z"
         id="path997" />
      <path
         style="fill:#a2a19d;stroke-width:0.146484"
         d="m 105.61246,186.7819 c -34.115096,-1.6814 -64.23259,-31.98627 -64.945823,-66.28131 -0.319741,-6.4365 0.158398,-12.95463 1.877502,-19.18248 2.299207,16.35419 2.935608,33.7145 12.039647,48.10288 14.199957,24.27581 45.031718,37.25571 72.273014,29.94222 25.02106,-6.34581 44.7715,-28.60709 48.51228,-54.09668 1.4397,-8.12466 1.89665,-16.38049 3.12846,-24.53436 8.54853,30.96345 -8.51957,66.22808 -37.70211,79.38057 -10.90129,5.17684 -23.1421,7.51095 -35.18297,6.66916 z m 6.40046,-41.97836 c -0.13968,-0.8853 0.77027,0.35383 0,0 z m -4.34968,-0.47546 c 0.28708,-1.0169 0.75175,1.12788 0,0 z m 2.30085,0.18444 c -2.73559,-1.5849 -6.22423,-1.30755 -2.94615,-3.7394 -2.21732,-3.98364 1.21809,0.18479 3.06116,-3.51689 0.78323,2.46171 6.04792,0.14616 6.81258,5.48992 -1.78391,0.72959 -6.94448,-1.91404 -6.92759,1.76637 z m 5.35764,-2.20483 c 1.12661,-2.4645 -2.80592,0.0461 0,0 z m -5.90068,-0.48665 c -0.35354,-0.57527 -0.35349,0.57528 0,0 z m -0.54932,-0.84719 c 2.14992,-3.21589 -3.49505,-0.0636 0,0 z m -0.47607,-0.52647 c 0.33432,-1.30078 0.31202,0.98639 0,0 z m 1.40427,-0.15812 c -0.27501,-1.54488 -0.3744,2.31757 0,0 z m -0.28159,-1.62748 c -0.21798,-2.18403 -1.1037,1.32054 0,0 z m 2.1593,5.08487 c 1.14041,-1.06577 -0.63505,0.9626 0,0 z m 0.81958,-0.0213 c 0.66193,-1.32273 0.69196,1.21034 0,0 z m -8.2489,-0.38757 c -0.26675,-0.89777 1.02894,0.31229 0,0 z m -0.10654,-1.14349 c 0.81335,-3.95858 1.83741,-0.37344 0,0 z m -0.87307,-0.66621 c 0.35354,-0.57527 0.35349,0.57528 0,0 z m 0.73242,-0.8789 c 0.50269,-0.60936 0.37889,0.59737 0,0 z m 13.03711,-0.5127 c 0.22552,-2.09177 1.21064,0.11817 0,0 z m -11.93075,-0.3537 c -0.002,-0.75187 0.67159,0.33799 0,0 z m 11.56454,-0.0125 c 0.19285,-0.55541 0.32879,0.56725 0,0 z m -2.45362,-1.04916 c -1.49114,-1.38338 3.45625,-0.0343 0,0 z m -6.78946,-0.73222 c 0.43476,-1.27129 1.49301,0.83465 0,0 z m 5.80069,0.0236 c 0.35348,-0.57526 0.35353,0.57524 0,0 z m 2.417,0 c 0.46244,-0.63809 0.22545,0.60485 0,0 z m -9.30176,-0.95215 c 0.35032,-0.80951 0.35032,0.80951 0,0 z m 0.93402,-0.28739 c -2.18981,-1.39835 1.51219,0.29218 0,0 z m 5.47467,0.0102 c -2.06533,-1.54668 2.07841,0.42316 0,0 z m -3.18603,-0.6125 c 0.65757,-0.77999 0.65917,0.9154 0,0 z m 2.37121,-0.65759 c 0.34126,-0.89487 0.544,0.56303 0,0 z M 63.577903,110.03393 c -0.648076,-5.07139 -4.647361,-3.57523 -6.740672,-3.08472 -7.1008,-5.08712 -5.14206,-14.684647 -1.132487,-21.055008 13.103082,-26.368449 46.804816,-39.313882 74.429316,-29.705623 18.4983,5.97322 34.73895,21.098056 39.02129,40.441269 0.44918,6.016772 -4.40035,10.999342 -9.67609,9.454202 -1.58806,3.51267 -2.60822,4.81608 -3.8993,0.63038 -5.48955,-4.79739 -11.03881,-9.527314 -16.48038,-14.372119 C 124.27219,80.622514 102.06494,78.908596 86.265194,89.673975 78.421257,94.648283 72.275537,101.76636 65.0289,107.41747 c -0.811415,0.006 -1.559317,6.03712 -1.450997,2.61646 z"
         id="path995" />
      <path
         style="fill:#a09e9a;stroke-width:0.146484"
         d="m 106.34488,186.83445 c -31.395553,-1.43047 -60.016347,-26.56132 -64.747954,-57.76983 -1.46058,-8.50319 -1.357888,-17.29533 0.499412,-25.72941 1.836264,18.75926 5.125096,38.53365 17.371471,53.59994 17.725266,23.12996 51.944751,31.35896 78.217041,18.66059 20.93786,-9.24497 35.44552,-30.11295 38.60972,-52.57406 1.23143,-6.72919 1.96819,-13.53564 2.6406,-20.33956 8.18446,32.8024 -12.5616,69.24851 -44.37184,80.06715 -9.01178,3.22146 -18.67098,4.51598 -28.21845,4.08518 z M 63.987947,107.50708 c -0.737548,-4.10823 -2.963562,-6.04282 -5.680681,-2.77151 C 50.979141,101.783 52.122838,92.029945 55.822372,86.558895 67.479258,61.690878 97.655195,48.557038 124.06253,54.676631 c 20.41104,4.292014 39.00564,19.695991 44.14177,40.316222 0.67986,4.854274 -4.60681,12.322687 -8.87869,7.390277 -1.68387,3.4246 -3.09105,5.54387 -4.54271,0.66934 C 149.35503,96.884588 142.41998,92.121906 135.50559,87.76922 119.75995,78.521273 99.042336,78.782655 83.820952,89.024469 77.20512,93.764166 69.66017,98.313941 65.217326,105.2027 l -0.610836,1.35254 z"
         id="path993" />
      <path
         style="fill:#9a9995;stroke-width:0.146484"
         d="m 106.49136,186.83479 c -32.78289,-1.30945 -62.283246,-28.82375 -65.465732,-61.56196 -0.831683,-6.7455 -0.658391,-13.64153 0.78953,-20.29261 1.162412,22.28009 8.08921,45.84466 25.70219,60.70927 20.659355,18.30539 53.159272,21.38746 76.705482,6.83158 18.37809,-10.93191 30.31152,-30.88777 33.16377,-51.8877 0.96078,-5.26994 1.6913,-10.59132 1.93751,-15.94612 7.03994,32.70864 -14.08034,68.37905 -45.91874,78.40468 -8.6354,2.90741 -17.81661,4.13509 -26.91401,3.74286 z M 64.596832,104.26018 c -0.14261,-3.20915 -3.057417,-6.537731 -4.771605,-2.11133 -7.908116,-1.84788 -6.514093,-12.743939 -2.451205,-17.772872 13.096866,-25.547967 46.100738,-37.117254 72.831748,-27.882306 16.90767,5.547184 32.11769,18.879018 36.73611,36.449716 0.83368,5.243512 -5.18199,12.072502 -8.8564,6.390402 -1.03268,3.35649 -2.03049,6.78856 -3.60652,1.48688 -4.4897,-6.499918 -11.83877,-10.259928 -18.3361,-14.427943 -16.08131,-8.951208 -36.678778,-8.733536 -52.407627,0.898799 -6.085708,3.726432 -12.268809,7.828022 -16.876112,13.293254 -0.701922,1.2488 -0.986898,2.83561 -2.262289,3.6754 z"
         id="path991" />
      <path
         style="fill:#92918d;stroke-width:0.146484"
         d="m 106.12515,186.78848 c -33.620234,-1.42784 -63.546064,-30.61056 -65.333639,-64.31463 -0.471918,-3.50332 -0.112953,-12.7778 0.539119,-12.5836 1.65242,24.83818 13.41618,50.40878 35.65111,63.14151 24.71818,14.80985 58.9914,11.07361 79.53574,-9.29956 14.78194,-14.15598 21.90517,-34.60403 23.4251,-54.65304 4.9401,32.48183 -17.60333,66.113 -49.11981,74.84181 -7.9795,2.39413 -16.38205,3.36575 -24.69762,2.86751 z M 65.768707,100.31753 C 66.479386,93.839191 62.469338,96.483117 59.669256,98.231067 52.697814,93.706766 56.580339,84.489272 60.786198,79.40652 77.052401,54.770804 112.62007,46.310524 138.5028,60.273094 c 11.77902,6.099023 22.65855,16.108779 26.45217,29.115655 0.9894,5.587958 -5.18891,11.964531 -8.68165,5.542298 -0.95257,2.265971 -1.17178,7.326403 -3.05057,2.333761 -5.82705,-8.040626 -15.45351,-12.128743 -24.33841,-15.881131 -17.01502,-6.038896 -36.489422,-2.698822 -51.2674,7.401738 -4.713574,2.912725 -8.972691,6.757752 -11.848233,11.532115 z"
         id="path989" />
      <path
         style="fill:#8a8985;stroke-width:0.146484"
         d="m 106.34488,186.79729 c -31.730938,-1.4057 -60.490457,-27.12847 -64.877243,-58.69484 -0.826378,-5.16727 -1.039477,-10.44316 -0.493203,-15.65153 1.676632,27.17512 17.749905,54.47316 43.691733,64.78657 22.856343,9.96701 51.057803,5.60635 69.669893,-11.0327 15.15895,-12.9739 23.86341,-32.27958 25.80622,-51.9356 1.13945,4.20399 -0.13055,16.28079 -2.51785,23.11022 -7.47954,24.96986 -29.8116,44.6269 -55.60476,48.60784 -5.17088,0.86809 -10.44184,1.15143 -15.67479,0.81004 z M 67.753718,95.837037 C 69.468759,90.83672 63.717584,90.870979 62.31814,94.85077 55.995061,90.360711 58.327301,81.347336 63.239152,76.717717 79.887068,54.420038 112.91859,47.473571 137.53759,60.052504 c 10.58401,5.232505 20.38281,13.661198 24.76686,24.810376 1.16282,5.250986 -3.73101,13.516644 -7.73,5.735996 -2.20051,0.386835 -0.52748,8.371132 -3.36452,2.631214 C 144.25403,84.920857 133.48379,81.017997 123.30584,78.247168 105.8,74.418847 86.721141,79.162336 72.718573,90.1923 c -1.778155,1.772199 -3.2204,3.841975 -4.964855,5.644737 z"
         id="path987" />
      <path
         style="fill:#83817c;stroke-width:0.146484"
         d="m 106.56461,186.79067 c -30.949488,-1.40768 -59.439004,-25.68713 -64.666638,-56.42144 -0.926713,-3.26362 -1.456262,-13.34164 -0.942008,-12.36659 3.221782,29.42949 25.139611,56.91121 54.601343,63.275 27.267483,6.46302 57.661853,-6.08739 72.432463,-29.91775 6.77636,-10.385 10.94639,-22.39832 12.41462,-34.69342 1.30842,32.94538 -24.94074,63.66423 -57.16653,69.13658 -5.48859,1.0145 -11.10314,1.35592 -16.67325,0.98762 z M 69.657126,92.17349 c 3.253617,-7.670487 -5.333148,-1.021295 -6.196395,-1.118673 -3.57356,-6.586584 -2.159726,-14.104259 3.901016,-18.624068 20.081834,-22.092095 57.383163,-24.479292 80.366173,-5.542987 4.97724,3.873091 9.40362,8.666742 12.01832,14.464228 -1.24444,3.329059 -1.18464,14.164705 -6.05795,6.715239 -3.77915,-4.241043 -1.75912,7.642094 -5.47483,0.781767 C 138.86995,80.21628 125.77345,76.727198 113.37474,75.765324 99.131,75.281533 84.180706,79.330891 73.24236,88.687001 c -1.145017,1.206253 -2.157639,2.588372 -3.585234,3.486489 z"
         id="path985" />
      <path
         style="fill:#807e79;stroke-width:0.146484"
         d="M 106.83294,186.78853 C 75.720902,185.5693 47.106684,161.07698 41.907882,130.2269 c -0.817276,-2.77903 -1.617351,-15.28494 -0.477898,-7.05142 4.962715,28.03522 27.009968,53.09402 55.39639,58.63314 26.772626,5.68864 56.160246,-6.56692 70.958776,-29.60793 6.88023,-10.17713 11.27647,-22.03695 12.59034,-34.2566 0.78273,32.62412 -25.53176,62.55266 -57.39761,67.85634 -5.31724,0.96594 -10.74945,1.30562 -16.14494,0.9881 z M 71.413157,89.531961 c 3.765875,-9.204973 -9.628156,4.259298 -6.46319,-3.986085 -3.415063,-8.106388 2.544216,-14.175461 8.660412,-18.635272 23.058196,-18.79052 60.638751,-16.516144 80.344991,6.157894 4.40229,4.116629 2.33832,11.370541 1.60342,15.889646 -3.1085,-4.551831 -7.74443,-3.601796 -6.97704,-0.403737 -10.34421,-9.943361 -25.44967,-13.40882 -39.411,-13.369678 -12.425834,0.460066 -25.351222,3.977866 -35.010444,12.041241 -0.854017,0.829183 -1.565693,1.90138 -2.747149,2.305991 z"
         id="path983" />
      <path
         style="fill:#7a7873;stroke-width:0.146484"
         d="m 106.93082,186.77872 c -32.383736,-1.21049 -62.035757,-27.77219 -65.617546,-60.19679 -0.585775,-4.13035 -0.162616,-5.62876 0.5156,-0.40167 6.255853,30.87623 34.495687,56.45075 66.382466,57.25267 28.41103,1.22365 55.85656,-17.30613 66.52184,-43.46923 2.63397,-6.12089 4.47136,-12.58029 5.49731,-19.16317 -0.61235,33.64645 -29.79239,63.32927 -63.1393,65.7974 -3.37613,0.31082 -6.77533,0.37255 -10.16037,0.18079 z M 65.426911,88.110103 c 0.01323,-4.552167 6.308986,-12.472586 0.691163,-12.666368 7.843318,-11.673138 21.692964,-18.107722 35.206226,-20.450656 19.33516,-3.002727 40.61469,3.698601 53.03466,19.220601 -0.25199,2.179243 -4.68724,2.372492 -1.04903,5.857487 1.80486,2.581337 2.89294,10.577713 -1.82407,5.208717 -3.39818,-4.887965 -4.86035,2.438674 -4.37533,1.430244 -12.78135,-10.67125 -30.71608,-13.501324 -46.83089,-11.121112 -9.781882,1.454004 -19.266468,5.413167 -26.936487,11.570665 0.903286,-7.348518 -5.16014,0.529521 -7.916242,0.950422 z m 4.83901,-12.881289 c -0.05783,-1.60049 -0.977419,0.491305 0,0 z"
         id="path981" />
      <path
         style="fill:#75736c;stroke-width:0.146484"
         d="m 107.0773,186.75583 c -32.833766,-1.00087 -63.132078,-28.59771 -65.750516,-61.56462 5.651741,30.99748 33.671855,57.00439 65.497646,58.28243 31.80924,2.15137 62.7935,-20.60887 71.15628,-51.21549 1.03369,-2.81884 2.79025,-13.25588 1.80292,-5.13638 -3.75023,30.96285 -31.13401,56.66644 -62.07626,59.34059 -3.52911,0.36656 -7.0861,0.46595 -10.63007,0.29347 z M 66.647614,86.280938 c 3.202729,-9.190143 11.508141,-15.525654 19.627851,-20.213205 10.769444,-5.607289 23.502145,-8.371559 35.374325,-4.810211 10.25992,1.608729 19.30288,7.861806 26.68508,14.913723 3.08541,2.6796 8.64156,12.472397 1.31386,7.114694 -4.22196,-3.619708 -6.3587,-0.289211 -4.36842,1.267066 -18.91422,-13.34463 -45.542071,-13.56057 -65.536783,-2.482069 -2.815905,1.301807 -6.926193,6.163751 -3.40511,0.846765 -0.163003,-4.274958 -7.738331,3.570699 -9.690803,3.363237 z M 68.924335,72.36787 C 88.842377,49.510564 128.19707,48.471596 149.6138,69.723679 c 3.02797,3.961066 -6.92971,-3.929785 -9.43425,-5.169635 -19.07164,-10.28262 -43.492903,-9.946355 -61.918252,1.701992 -3.389147,1.363189 -6.638114,5.595266 -9.336963,6.111834 z"
         id="path979" />
      <path
         style="fill:#6a6964;stroke-width:0.146484"
         d="M 105.90543,186.68845 C 74.141826,185.2143 45.383272,158.8727 41.53844,127.23803 c 6.446911,31.44159 36.034834,56.84873 68.43516,56.67203 30.32743,0.38648 59.27163,-21.04533 67.81691,-50.14711 0.78003,-1.99889 2.54289,-9.88359 1.46169,-3.70766 -5.28883,31.72314 -35.41306,56.99898 -67.58398,56.71785 -1.92114,0.0397 -3.84361,0.01 -5.76279,-0.0847 z M 68.55191,84.034608 c 5.492858,-10.338024 16.652445,-16.365183 27.450809,-19.828447 19.094151,-5.423311 41.434571,0.59873 54.314351,15.869009 4.09622,7.025805 -6.85758,-1.981304 -9.88481,-2.37807 -4.38444,-2.28169 -3.01286,-1.043538 -0.006,1.588752 5.92734,5.930801 -6.44399,-2.716936 -9.66286,-2.638014 -17.53326,-5.532404 -37.806646,-3.777402 -53.377103,6.269754 2.023163,-1.925902 6.926595,-7.423121 1.075277,-3.869468 -3.50863,1.238484 -6.46242,3.615768 -9.909844,4.986484 z M 144.21109,65.91823 C 125.07861,53.438299 98.944849,52.736589 79.335852,64.575448 c -4.961674,1.972997 4.880654,-4.000054 6.659273,-4.521928 18.705035,-8.769061 42.688785,-6.900589 58.851785,6.14549 l -0.36274,-0.160188 z"
         id="path977" />
      <path
         style="fill:#63625c;stroke-width:0.146484"
         d="m 106.27164,186.68854 c -30.578119,-1.33329 -58.688378,-25.54942 -64.03372,-55.77123 7.815481,31.38303 39.169536,55.39257 71.7062,53.20479 29.31402,-1.30461 56.54053,-22.72626 64.32866,-51.07879 1.2335,-2.62631 -1.23746,6.5097 -1.84255,7.79328 -9.36432,27.15066 -37.13194,46.11845 -65.71966,45.92069 -1.47989,0.0205 -2.96038,-0.003 -4.43893,-0.0687 z m 72.74105,-56.37873 c 0.27031,-0.35583 -0.0155,0.67155 0,0 z M 70.89566,81.526605 c 9.03864,-12.254087 24.801116,-18.305499 39.70129,-18.449519 14.46622,0.01261 29.121,5.921917 38.71805,16.907365 -6.76013,-0.193905 -12.45716,-6.300773 -19.06289,-8.182027 -14.3552,-5.969178 -31.277814,-4.997429 -44.793247,2.710712 -4.864494,2.315408 -9.485534,5.162522 -14.563203,7.013469 z m 9.887696,-1.755541 c 16.490363,-14.658273 44.128534,-14.57098 60.217624,0.673024 -17.07745,-9.475899 -38.5589,-9.618365 -56.383677,-2.211641 -1.259757,0.449636 -2.521509,1.506068 -3.833947,1.538617 z M 93.014801,57.82873 C 103.3351,54.275566 114.75769,53.975464 125.24136,57.023097 114.62774,54.747076 103.5309,55.313437 93.014801,57.82873 Z m 33.609539,-0.304788 c -0.45839,-0.856968 2.2853,1.133393 0,0 z"
         id="path975" />
      <path
         style="fill:#55544f;stroke-width:0.146484"
         d="m 106.05191,186.63739 c -28.737856,-1.43236 -55.471092,-22.80426 -62.597613,-50.78037 9.23867,28.66255 38.215259,49.5535 68.407043,48.71747 29.57016,-0.2602 57.2947,-21.28277 66.0685,-49.41185 -7.1651,31.68329 -40.00428,53.77555 -71.87793,51.47475 z M 74.268775,78.576412 c 17.25671,-17.490436 47.184875,-19.430252 66.905975,-4.972724 2.5072,1.116019 7.23459,6.608812 1.46844,3.239357 C 131.28774,71.211878 119.03808,65.712429 106.0249,67.296972 95.109495,68.201351 85.469169,73.752845 75.745673,78.25621 Z M 84.449534,77.247909 C 99.335874,66.597984 120.71061,66.708066 135.872,76.749666 119.34155,70.957103 100.56853,70.575157 84.313564,77.503525 Z"
         id="path973" />
      <path
         style="fill:#32312f;stroke-width:0.146484"
         d="m 107.0773,186.61084 c -24.484991,-1.21751 -48.303629,-16.03772 -58.799818,-38.42526 13.719504,25.7016 44.289564,41.17177 73.123318,36.24399 21.78134,-3.4584 41.83174,-17.41762 51.95072,-37.1118 -11.39969,24.93642 -39.02448,40.96396 -66.27422,39.29307 z"
         id="path971" />
    </g>
    <path
       id="use1615"
       style="color:#000000;display:inline;overflow:visible;visibility:visible;opacity:1;fill:url(#radialGradient1020);fill-opacity:1;fill-rule:evenodd;stroke:url(#linearGradient1607);stroke-width:1.6346;stroke-linecap:butt;stroke-linejoin:miter;stroke-miterlimit:4;stroke-dasharray:none;stroke-dashoffset:0;stroke-opacity:1;marker:none;enable-background:accumulate"
       inkscape:transform-center-x="-0.23629668"
       inkscape:transform-center-y="-0.7291329"
       d="m 63.918137,31.67092 c 2.57498,0.08608 5.397938,0.511526 5.899956,4.828915 0.502017,4.317388 -2.513942,4.975709 -2.513942,4.975709 l 4.62005,29.874705 15.26067,-15.736021 c -0.996669,-1.411301 -1.28973,-4.014524 0.03398,-6.088305 1.25141,-1.960531 3.844154,-2.860326 6.034829,-1.701828 2.895786,1.531373 4.020651,4.661073 2.555467,7.46977 -1.105599,2.119396 -3.233631,3.507909 -5.401847,2.699606 l -10.663038,30.92301 0.472726,6.442485 H 63.918137 47.619296 l 0.472742,-6.442485 -10.663041,-30.92301 c -2.168213,0.808303 -4.296252,-0.58021 -5.401846,-2.699606 -1.465176,-2.808698 -0.340308,-5.938397 2.555466,-7.46977 2.190684,-1.158498 4.783427,-0.258703 6.034829,1.701828 1.323686,2.073781 1.030631,4.677004 0.03399,6.088305 l 15.260678,15.736021 4.620049,-29.874705 c 0,0 -3.015958,-0.658321 -2.513941,-4.975709 0.50201,-4.317389 3.324968,-4.742837 5.899955,-4.828915"
       sodipodi:nodetypes="cscccssscccccccssscccsc" />
  </g>
  <g
     inkscape:label="Layer 1"
     inkscape:groupmode="layer"
     id="layer1"
     transform="translate(0,-924.36216)"
     style="display:inline;opacity:1;mix-blend-mode:normal;filter:url(#filter2961)" />
</svg>
