<?xml version="1.0" encoding="UTF-8" standalone="no"?>
<svg
   width="128"
   height="128"
   viewBox="0 0 128 128"
   id="svg2"
   version="1.1"
   inkscape:version="1.2.2 (1:1.2.2+202305151915+b0a8486541)"
   sodipodi:docname="kingblack.svg"
   xmlns:inkscape="http://www.inkscape.org/namespaces/inkscape"
   xmlns:sodipodi="http://sodipodi.sourceforge.net/DTD/sodipodi-0.dtd"
   xmlns:xlink="http://www.w3.org/1999/xlink"
   xmlns="http://www.w3.org/2000/svg"
   xmlns:svg="http://www.w3.org/2000/svg"
   xmlns:rdf="http://www.w3.org/1999/02/22-rdf-syntax-ns#"
   xmlns:cc="http://creativecommons.org/ns#"
   xmlns:dc="http://purl.org/dc/elements/1.1/">
  <defs
     id="defs4">
    <linearGradient
       inkscape:collect="always"
       id="linearGradient2102">
      <stop
         style="stop-color:#555753;stop-opacity:1"
         offset="0"
         id="stop2098" />
      <stop
         style="stop-color:#000000;stop-opacity:1"
         offset="1"
         id="stop2100" />
    </linearGradient>
    <linearGradient
       inkscape:collect="always"
       xlink:href="#linearGradient2102"
       id="linearGradient2104"
       x1="62.694489"
       y1="924.36218"
       x2="62.694489"
       y2="1052.4132"
       gradientUnits="userSpaceOnUse"
       gradientTransform="rotate(-90,64,988.3622)" />
    <radialGradient
       inkscape:collect="always"
       xlink:href="#linearGradient1624"
       id="radialGradient1020"
       cx="61.738716"
       cy="28.344912"
       fx="61.738716"
       fy="28.344912"
       r="34.082703"
       gradientTransform="matrix(-0.00465936,1.8678812,-1.4826551,-0.00371186,106.29024,-84.082532)"
       gradientUnits="userSpaceOnUse" />
    <linearGradient
       inkscape:collect="always"
       id="linearGradient1624">
      <stop
         style="stop-color:#e9c400;stop-opacity:1;"
         offset="0"
         id="stop1620" />
      <stop
         style="stop-color:#f9e463;stop-opacity:1;"
         offset="0.32119575"
         id="stop1022" />
      <stop
         style="stop-color:#cebb1f;stop-opacity:1;"
         offset="0.85545182"
         id="stop1632" />
      <stop
         style="stop-color:#b29300;stop-opacity:1;"
         offset="1"
         id="stop1622" />
    </linearGradient>
    <linearGradient
       inkscape:collect="always"
       xlink:href="#linearGradient1605"
       id="linearGradient1607"
       x1="63.899799"
       y1="31.124016"
       x2="63.737415"
       y2="96.221191"
       gradientUnits="userSpaceOnUse"
       gradientTransform="matrix(0.9779601,0,0,0.9779601,1.48539,0.69479665)" />
    <linearGradient
       inkscape:collect="always"
       id="linearGradient1605">
      <stop
         style="stop-color:#b28600;stop-opacity:1;"
         offset="0"
         id="stop1601" />
      <stop
         style="stop-color:#b29400;stop-opacity:1;"
         offset="1"
         id="stop1603" />
    </linearGradient>
  </defs>
  <sodipodi:namedview
     id="base"
     pagecolor="#ffffff"
     bordercolor="#666666"
     borderopacity="1.0"
     inkscape:pageopacity="0.0"
     inkscape:pageshadow="2"
     inkscape:zoom="7.919596"
     inkscape:cx="45.961941"
     inkscape:cy="67.175144"
     inkscape:document-units="px"
     inkscape:current-layer="layer2"
     showgrid="false"
     units="px"
     inkscape:snap-page="true"
     inkscape:window-width="1920"
     inkscape:window-height="1152"
     inkscape:window-x="0"
     inkscape:window-y="0"
     inkscape:window-maximized="1"
     inkscape:document-rotation="0"
     inkscape:showpageshadow="2"
     inkscape:pagecheckerboard="0"
     inkscape:deskcolor="#d1d1d1" />
  <metadata
     id="metadata7">
    <rdf:RDF>
      <cc:Work
         rdf:about="">
        <dc:format>image/svg+xml</dc:format>
        <dc:type
           rdf:resource="http://purl.org/dc/dcmitype/StillImage" />
        <dc:title />
      </cc:Work>
    </rdf:RDF>
  </metadata>
  <g
     inkscape:groupmode="layer"
     id="layer2"
     inkscape:label="Layer 2"
     style="display:inline;opacity:1;mix-blend-mode:normal">
    <g
       id="g2471"
       transform="matrix(0.81937022,0,0,0.81937022,-18.154581,-82.789926)">
      <path
         style="opacity:0.5;fill:#c4b9b1;stroke-width:0.146484"
         d="m 96.009929,249.1943 c -31.091791,-1.37422 -59.163264,-26.01745 -64.790605,-56.5972 -5.663326,-27.85449 7.374162,-58.47831 31.844778,-73.15661 25.044488,-15.77567 60.014948,-13.6478 82.492288,5.82449 21.39489,17.87828 30.62049,48.96168 21.61888,75.47806 -8.80973,27.49568 -35.7622,48.12619 -64.76921,48.55909 -2.13217,0.0637 -4.267335,0.0281 -6.396131,-0.10783 z"
         id="path2326" />
      <path
         style="fill:#a99e96;stroke-width:0.146484"
         d="M 96.669109,249.16156 C 66.893893,248.26091 39.77421,225.79137 32.387825,197.08423 c -7.649129,-27.20137 3.287969,-58.33052 26.339088,-74.69948 24.784474,-18.20247 61.565237,-17.69984 85.425667,1.89523 22.6165,17.71437 32.57253,50.07747 22.61653,77.22166 -7.88327,23.26937 -28.41565,41.96049 -52.75946,46.33271 -5.69582,1.15319 -11.53474,1.62574 -17.340541,1.32721 z"
         id="path2324" />
      <path
         style="opacity:0.5;fill:#9e8776;stroke-width:0.146484"
         d="M 96.009929,249.08413 C 66.209176,247.63229 38.808097,225.08768 32.116082,195.92039 25.167599,168.73688 36.345769,138.02317 59.415507,121.95089 78.65224,108.4706 104.577,106.51754 126.44043,114.12952 c 28.26487,10.70048 46.99646,41.46226 43.75507,71.48183 -2.50904,27.95514 -23.13757,53.40046 -50.36426,60.77054 -7.71371,2.22895 -15.80428,3.14765 -23.821311,2.70224 z"
         id="path2322" />
      <path
         style="fill:#907867;stroke-width:0.146484"
         d="m 95.863445,249.04598 c -31.881052,-1.43101 -60.4769,-27.48233 -64.956007,-59.07769 -4.93165,-29.88991 11.791136,-62.66827 40.153665,-74.25935 19.387496,-6.62528 41.071957,-6.89357 60.222577,0.76271 29.73553,13.42673 45.79636,50.10917 36.64494,81.25373 -7.84035,29.30918 -36.37908,51.66165 -66.84799,51.45857 -1.739968,0.0193 -3.480671,-0.0266 -5.217185,-0.13797 z"
         id="path2320" />
      <path
         style="opacity:1;fill:#856b58;stroke-width:0.146484"
         d="m 96.229656,249.04035 c -28.717537,-1.16354 -55.11351,-22.14773 -63.063677,-49.72185 -8.07722,-25.73209 0.376783,-55.78462 21.173849,-73.0971 5.778354,-5.02342 12.332431,-9.34352 19.97327,-10.80006 14.320772,-4.48297 29.769392,-5.85899 44.393592,-2.00149 9.81066,2.17061 19.71914,5.35027 27.18139,12.42084 22.43138,18.76935 30.79433,52.26104 19.48596,79.29264 -10.44123,26.32398 -37.81771,44.94706 -66.265981,44.03159 l -1.439789,-0.0464 z"
         id="path2318" />
      <path
         style="fill:#7b6251;stroke-width:0.146484"
         d="m 96.403263,249.03642 c -29.759719,-1.25624 -57.124604,-23.61966 -64.12231,-52.60924 -7.413377,-28.25256 4.795896,-60.94566 30.142534,-75.99974 19.034632,-8.48661 41.229443,-11.99437 61.376913,-5.24725 7.76383,2.51286 15.99633,4.62845 21.92731,10.63643 22.35164,18.48154 30.7858,51.56252 19.97331,78.49062 -9.78758,25.82995 -35.90376,44.43077 -63.58966,44.80406 -1.90251,0.0606 -3.807912,0.0387 -5.708097,-0.0749 z"
         id="path2316" />
      <path
         style="fill:#715744;stroke-width:0.146484"
         d="M 95.423992,248.94198 C 64.987141,247.28387 37.416297,223.39056 31.651263,193.4121 c -5.646766,-26.18731 5.203485,-55.40888 27.318437,-70.745 14.801201,-7.03797 31.179378,-11.98871 47.74604,-10.43415 11.40104,0.80037 22.24301,4.89992 32.67806,9.27748 20.67219,12.50714 32.00481,37.55297 30.85647,61.33603 -1.00503,25.69554 -17.68525,49.68999 -41.15971,60.02119 -10.48756,4.7784 -22.18987,6.68104 -33.666568,6.07433 z"
         id="path2314" />
      <path
         style="fill:#664b38;stroke-width:0.146484"
         d="m 95.71696,248.93871 c -29.67245,-1.50319 -56.725086,-24.07287 -63.480769,-53.02247 -6.42779,-25.64999 2.831553,-55.25479 24.290069,-71.13592 13.32999,-6.4661 27.562933,-12.24642 42.627843,-12.34691 16.154047,-0.61176 31.657327,5.62383 45.729977,12.83691 24.43258,19.24222 32.39999,55.78475 18.79096,83.65046 -11.60361,25.05605 -38.96604,41.75098 -66.614074,40.07226 z m 9.59473,-8.47123 c 6.07353,-0.78059 12.57741,-1.58837 17.83295,-4.92665 -14.40133,4.97295 -30.422162,5.07364 -44.891228,0.30732 6.599363,3.93643 14.882017,4.64198 22.484718,4.82574 1.52641,-0.0105 3.05244,-0.079 4.57356,-0.20641 z m -1.97754,-7.11187 c 3.70687,0.008 12.48363,-2.10756 12.49966,-2.7494 -10.41515,2.58228 -21.452179,2.45867 -31.852625,-0.13254 6.099981,2.50448 12.806836,3.23584 19.352965,2.88194 z m 1.16179,-5.33842 c 2.61634,0.36417 13.73451,-3.15055 5.97047,-1.5288 -6.96336,2.04237 -20.184506,0.0952 -23.315878,-0.28669 5.558104,1.87522 11.525314,2.3207 17.345408,1.81549 z"
         id="path2312" />
      <path
         style="fill:#5b4231;stroke-width:0.146484"
         d="M 95.863445,248.93758 C 65.340759,247.43934 37.60646,223.60899 31.684748,193.59103 c -5.12442,-23.93126 3.225605,-50.61055 22.063363,-66.48599 14.937666,-7.36331 30.697628,-15.01378 47.790729,-14.33702 14.27812,0.33691 28.0668,5.27772 40.48347,12.08806 8.06137,2.3554 12.41259,10.3844 17.273,16.59425 16.28995,24.68576 14.15558,59.65052 -4.99787,82.19222 -14.03496,17.00683 -36.39171,26.85199 -58.433995,25.29503 z m 8.902735,-8.17369 c 9.98865,-0.87411 20.08139,-3.79053 28.11509,-9.97852 -17.76233,9.02484 -39.347235,10.92858 -57.896075,3.1454 -2.670781,-0.91185 -10.128986,-4.60364 -3.961387,-0.84285 10.001476,6.20441 22.102151,8.41393 33.742372,7.67597 z m 0.32578,-7.02254 c 6.18154,-0.0479 18.99594,-5.02693 19.50574,-6.74737 -15.08631,6.78298 -32.941826,7.20353 -48.039794,0.21808 -0.502646,1.16292 8.833184,4.7415 12.678337,5.47608 5.179698,1.21443 10.560706,1.59613 15.855717,1.05321 z m -0.58594,-5.5102 c 6.1758,-0.7996 12.90245,-1.93231 17.91462,-5.84953 -8.11986,3.37739 -12.42733,3.50524 -20.84873,4.01445 -5.086835,-0.0798 -10.972984,-0.56161 -13.188138,-0.73668 -3.469238,-0.67855 -14.479063,-4.72998 -5.838084,-0.69975 6.856565,2.9946 14.544329,3.78717 21.960332,3.27151 z"
         id="path2310" />
      <path
         style="fill:#533a29;stroke-width:0.146484"
         d="M 95.643718,248.88663 C 65.167121,247.6072 38.002489,223.47849 31.832264,193.81459 c -4.70721,-20.75425 1.047121,-43.31646 14.63902,-59.6075 5.340695,-6.6295 14.2126,-8.52386 21.08794,-13.11516 18.60926,-9.33296 41.255696,-10.74658 60.442346,-2.25582 7.51634,3.32841 14.72277,7.37344 21.94127,11.2582 14.07493,13.53887 21.38681,33.54457 20.14396,52.99458 -1.03961,27.29454 -19.99399,52.54576 -45.67358,61.62014 -9.15635,3.38056 -19.02553,4.87534 -28.769502,4.1776 z m 9.960942,-7.97379 c 12.42848,-1.21906 24.90182,-5.90195 33.82687,-14.86387 -19.14868,12.99524 -44.827542,16.09571 -66.102334,6.58914 -3.056498,-0.83495 -11.534295,-6.37184 -10.4149,-4.95884 11.450146,10.31006 27.551763,14.4099 42.690364,13.23357 z m -0.73243,-6.52387 c 9.95097,-1.18422 19.93119,-4.84976 27.2374,-11.89874 -16.59085,10.78223 -38.897186,13.26452 -56.639869,3.77831 -2.628973,-1.23791 -9.392197,-5.13497 -3.725237,-1.00436 9.388842,7.02817 21.486305,10.19965 33.127706,9.12479 z m 0.11143,-6.07242 c 8.4011,-1.08073 17.01533,-3.57193 23.45147,-9.33548 -9.80938,4.55302 -20.57559,8.04501 -31.572129,7.20217 -8.003905,-0.45946 -15.554131,-3.36283 -21.179769,-5.45711 -6.663073,-2.9894 3.871761,3.71497 5.979529,4.09056 7.323363,3.07997 15.422072,4.20269 23.320899,3.49986 z"
         id="path2308" />
      <path
         style="fill:#4b3323;stroke-width:0.146484"
         d="M 95.863445,248.89988 C 64.8431,247.53905 37.101756,222.74365 31.472147,192.33687 c -4.04489,-20.57997 1.804908,-43.14003 15.863939,-58.72994 6.789445,-3.97641 13.505166,-8.0527 20.272804,-12.0853 22.398224,-11.67089 50.81856,-10.15623 71.86667,3.82207 7.7729,4.83126 17.03905,8.57499 20.67484,17.75206 17.2835,27.11794 11.66715,65.93236 -12.32341,87.25553 -13.84887,12.87314 -33.07144,19.85317 -51.963545,18.54859 z m 10.592285,-7.84062 c 14.73597,-1.57231 29.31756,-8.35818 38.60141,-20.14475 -9.6978,7.41566 -20.87591,13.98656 -33.34628,14.71972 4.909,-4.10053 11.8499,-4.74179 16.59774,-9.20119 2.59945,-1.70941 8.13702,-6.39935 7.64934,-7.38056 -15.07075,12.37297 -36.809682,17.04139 -55.087929,9.33277 -6.012972,-2.40434 -11.515188,-5.8803 -16.874762,-9.47431 6.280198,7.50012 15.12837,12.35586 24.247364,15.55588 0.612075,2.995 -9.276501,-0.74219 -12.329695,-1.50946 -7.105135,-2.58612 -13.447512,-6.81506 -19.57382,-11.16816 11.860183,14.54838 31.77545,21.05789 50.116632,19.27006 z m -2.24268,-12.53046 c 10.8379,-1.24744 21.9594,-5.19469 29.37012,-13.53475 -2.59089,1.69035 -8.232,5.08175 -5.9977,2.98289 -15.68134,10.5165 -37.484392,11.04939 -53.387233,0.69677 -0.148807,1.3008 -9.45135,-5.39135 -3.901219,-0.3738 9.427103,7.61046 21.900185,11.07306 33.916032,10.22889 z"
         id="path2306" />
      <path
         style="fill:#422c1d;stroke-width:0.146484"
         d="m 96.083171,248.89843 c -29.86186,-1.23863 -56.92242,-24.10731 -63.778572,-53.09752 -5.080619,-20.218 -0.599703,-42.82021 12.560758,-59.10582 9.726296,-4.66979 17.404186,-12.78322 27.534864,-16.78819 22.197908,-10.16157 49.544969,-7.00521 69.032839,7.62506 4.74105,3.6068 9.96707,6.54991 14.89769,9.75878 4.54497,5.98755 7.75779,13.01933 10.43067,20.03243 9.35344,27.38658 -0.79278,59.82136 -23.8717,77.21376 -13.18171,10.22052 -30.13318,15.59499 -46.806549,14.3615 z m 9.814449,-7.53809 c 17.50937,-1.73237 34.97487,-10.82727 44.06779,-26.28006 -5.54921,4.70756 -14.82291,13.97577 -20.18295,12.7262 2.35766,-5.03888 9.70194,-8.3708 10.65058,-13.14016 -5.44342,4.39639 -10.62285,9.32218 -17.16591,12.17359 -20.36432,9.80359 -46.53287,4.96726 -62.062429,-11.46387 -3.626843,-2.00362 3.561181,6.38369 5.338886,7.36638 3.736466,2.00943 6.732972,8.93064 -0.02996,4.52954 -5.548143,-1.98923 -12.91955,-9.9391 -15.232517,-11.23096 7.425317,12.42424 20.908143,20.41777 34.696511,23.89013 6.50707,1.53642 13.260431,2.00848 19.919989,1.42921 z m -1.3916,-12.74706 c 12.59058,-1.20797 25.2479,-7.00189 32.75722,-17.45894 -5.25076,3.40256 -10.10894,7.18692 -15.85079,10.11585 -17.1813,8.24532 -39.187167,5.58938 -53.398219,-7.31135 2.189263,3.66862 -7.483048,-5.52213 -1.867585,0.85193 9.723623,10.07822 24.502916,14.98189 38.359374,13.80251 z"
         id="path2304" />
      <path
         style="fill:#352216;stroke-width:0.146484"
         d="m 96.302898,248.88469 c -31.021879,-1.22182 -59.158217,-25.76505 -64.699979,-56.299 -3.438821,-17.49326 0.02514,-36.38007 10.02207,-51.21005 8.296204,-1.17252 11.940187,-10.47794 19.140688,-14.04395 21.698484,-16.13205 53.291383,-17.1903 75.842783,-2.14934 6.97936,4.54753 12.8806,10.47923 19.26204,15.78418 6.85175,0.57277 7.24852,9.93809 10.31554,14.71702 10.19118,27.83089 0.35993,61.69657 -23.77422,79.13841 -13.08518,9.88698 -29.70504,15.12858 -46.108922,14.06273 z m 10.253902,-7.14835 c 21.04531,-2.35154 41.56601,-15.54569 49.55648,-35.61484 -0.66729,-3.88609 -5.3006,7.75986 -8.47794,8.71328 -2.30459,4.50257 -9.30325,3.79502 -4.27562,-1.27818 1.89356,-2.67034 4.86849,-10.91768 0.52159,-4.15883 -15.02266,21.64198 -47.015017,28.94284 -69.789472,15.50559 -8.253547,-4.68007 -14.952669,-11.6831 -20.405212,-19.36779 -0.532729,4.03134 8.94388,11.84666 3.57642,12.67243 -5.884547,-3.20315 -9.360219,-9.15951 -13.370009,-14.27422 6.551768,19.90989 25.926869,34.00518 46.254697,37.23556 5.41854,0.86577 10.943566,1.04092 16.409066,0.567 z m -2.19726,-12.91132 c 15.53524,-1.60828 31.19195,-10.13371 38.20929,-24.54316 -1.14996,0.7308 -5.93566,6.37327 -3.42979,1.90099 -11.45889,15.63731 -32.56175,23.4852 -51.339901,18.13146 -10.378857,-2.85795 -19.550845,-9.39069 -26.25069,-17.74667 4.361088,6.65501 -6.95251,-6.77507 -1.649036,1.24318 9.509893,14.43721 27.348949,22.51622 44.460127,21.0142 z"
         id="path2302" />
      <path
         style="fill:#301e12;stroke-width:0.146484"
         d="m 96.742351,248.85903 c -31.479802,-0.88775 -59.9296,-26.09455 -65.242671,-57.0302 -2.770013,-14.86425 -0.585356,-30.68335 6.496343,-44.07759 5.191198,5.64479 8.770081,-7.35227 12.752216,-10.02333 17.311291,-20.28588 47.574971,-28.49181 72.504971,-18.55033 13.84558,5.37149 25.65788,15.52629 33.59789,28.00413 2.5716,4.98942 5.94922,-2.54818 6.6204,2.32588 13.90233,28.01465 5.38349,64.86811 -19.34832,84.00344 -13.22625,10.64242 -30.41381,16.28336 -47.380829,15.348 z m 8.485399,-6.4859 c 27.41219,-1.73044 52.82711,-23.65056 56.69349,-51.1643 -1.79508,-3.08251 -3.39534,6.97065 -5.00736,8.66848 -0.52742,3.54735 -9.24683,11.0909 -7.69291,3.37634 1.7175,-2.68387 2.3705,-11.27537 -0.16089,-3.8993 -8.55139,19.65903 -29.48791,33.40223 -51.081837,32.12797 -20.536204,-0.83702 -39.696895,-14.61244 -47.262597,-33.68024 -2.606442,-1.32912 5.002288,14.68448 -2.752592,8.15494 -4.411195,-3.92947 -7.2813,-13.64912 -9.139882,-16.11489 0.307643,11.87589 6.827708,22.7099 14.21539,31.61157 12.907419,14.53545 32.792532,22.62187 52.189188,20.91943 z m -0.86821,-13.32543 c 19.08499,-1.68549 37.86337,-14.84537 42.70841,-33.92399 -2.08141,3.82189 -5.17565,7.3475 -3.37443,2.41579 -6.47017,14.17944 -19.89692,24.91165 -35.35232,27.45108 -18.586654,3.76028 -38.3683,-5.5936 -48.212051,-21.60931 -1.984053,-2.58594 -5.37864,-10.386 -2.586878,-3.13306 0.06118,2.96734 -5.630307,-8.49105 -2.70344,-0.66436 7.819694,19.14126 29.035671,31.45231 49.520709,29.46385 z m -4.833986,-58.14704 c 5.476096,-0.44231 10.417746,-3.52462 14.444706,-7.21921 7.87927,-4.74823 3.21648,-14.95482 -4.70846,-17.04563 -8.15217,-3.64134 -18.101782,-1.96011 -24.529713,4.08469 -6.234044,5.70249 -0.292459,12.72871 5.256505,15.85858 2.801368,1.98216 6.362694,3.81362 9.536962,4.32157 z m 8.349606,-3.43515 c 1.14567,-1.29505 1.6628,0.21379 0,0 z m -24.682614,-7.77955 c 0.19283,-0.55543 0.32881,0.56725 0,0 z m -0.659179,-2.63672 c 0.353486,-0.57527 0.353531,0.57525 0,0 z m 21.787803,13.22893 c -1.69481,-0.74442 0.79757,0.94666 0,0 z m 14.83329,-14.54729 c -0.35349,-0.57528 -0.35354,0.57527 0,0 z"
         id="path2300" />
      <path
         style="fill:#2c1b11;stroke-width:0.146484"
         d="m 96.742351,248.85903 c -32.840394,-0.9682 -62.54061,-28.39185 -65.824066,-61.1491 -1.489338,-12.13678 0.02454,-24.80289 5.332656,-35.89174 3.112597,9.82091 -1.433386,19.93266 -0.122255,29.92487 1.018764,27.00363 20.850074,52.09174 47.090519,58.88144 23.747755,6.78602 50.793265,-1.80942 66.438065,-20.88354 12.64807,-14.95097 17.02541,-35.5986 13.91402,-54.69738 -0.59882,-3.22242 -1.96426,-13.5766 1.2897,-12.63292 6.68679,16.20366 7.17829,34.83487 0.78775,51.22474 -8.8432,24.9007 -33.06617,43.02936 -59.33308,45.04408 -3.1819,0.27972 -6.383164,0.34165 -9.573309,0.17955 z m -0.439453,-17.69985 c -22.431681,-1.40736 -42.386062,-18.90446 -47.424289,-40.69269 -2.59174,-1.72676 2.859259,13.66711 -3.156659,9.12243 -11.228736,-15.39975 -9.97572,-37.4399 -0.217952,-53.26928 14.470027,-25.43786 47.902901,-37.70205 75.416982,-27.7324 24.75788,8.30201 44.57994,33.6923 41.42514,60.45933 -1.09705,6.4432 -3.27311,20.35131 -10.23727,20.25018 -0.47475,-2.89097 1.4844,-15.81303 -1.12546,-6.91198 -6.02446,23.67141 -30.26402,41.09913 -54.680492,38.77441 z m 9.301762,-2.03571 c 21.66817,-2.1593 41.67308,-19.91088 43.86919,-42.00533 -1.00388,3.48978 -5.87601,13.01374 -3.39588,3.95305 -0.76178,-0.99033 -3.31801,9.57903 -6.00174,12.39156 -10.90426,17.9609 -34.63672,26.9242 -54.56644,19.8246 -14.973653,-4.93379 -26.8982,-17.9225 -30.808455,-33.16165 -0.255673,2.6495 1.76043,9.17288 -1.018712,3.28577 -0.823539,-2.68495 -3.489803,-7.30027 -1.962551,-1.70051 5.279776,23.56176 30.060195,40.43527 53.884588,37.41251 z M 54.215463,188.6624 c -0.326427,0.158 0.332186,0.56026 0,0 z m 46.184707,-9.74769 c 7.88333,-0.51082 16.4745,-2.11181 22.1163,-8.08102 6.02264,-3.15855 6.17895,-12.32193 2.121,-17.47384 -11.78454,-15.46305 -38.495343,-15.10928 -49.574826,0.98662 -3.697756,6.44975 -2.031399,15.64841 5.270092,18.6767 5.746507,3.99389 13.013167,5.58768 20.067434,5.89154 z"
         id="path2298" />
      <path
         style="fill:#29190e;stroke-width:0.146484"
         d="m 95.497234,248.79194 c -33.244126,-1.29446 -62.144135,-30.20711 -64.794229,-63.14186 -1.03928,-10.66543 0.39607,-21.62358 4.548727,-31.52694 1.797655,10.55481 -1.323729,21.26222 0.561772,31.84847 3.194701,26.86903 24.444695,50.67014 51.16068,55.89515 25.736726,5.59811 54.167196,-6.32446 67.974446,-28.81594 9.90213,-15.39109 11.8368,-34.51273 9.41771,-52.31305 -0.69348,-2.39479 0.9174,-9.50239 2.25518,-3.31661 10.77621,30.53296 -3.64341,67.42224 -32.22384,82.63746 -11.76432,6.58768 -25.46175,9.55584 -38.900446,8.73332 z m 2.563476,-17.7312 C 73.804997,230.4693 51.897278,210.57161 48.733222,186.55792 c -2.158209,-7.94645 -1.144491,5.11774 -0.925068,7.75003 -3.260736,5.98494 -8.053439,-6.49843 -8.245672,-9.98358 -6.135405,-27.18498 12.541265,-55.66267 38.101411,-64.76542 27.239517,-11.04969 61.403307,0.3629 76.275947,25.78916 8.53247,14.10968 11.36264,32.83178 3.5366,47.84554 -2.43197,4.62076 -6.38251,2.59192 -4.31243,-2.23484 0.38824,-2.67412 -0.35264,-11.46489 -1.34249,-4.17812 -3.47231,22.8758 -23.37227,42.45024 -46.71192,44.05473 -2.34122,0.2299 -4.69772,0.3104 -7.04889,0.22532 z m 8.71582,-1.9358 c 22.95647,-2.55572 42.96672,-22.9858 43.69949,-46.305 -1.97007,-0.16436 -1.88586,9.82585 -4.4442,10.04665 0.84715,-2.76439 1.70344,-14.5269 0.27135,-5.82853 -3.68664,20.57181 -22.20949,37.57482 -43.2635,38.48642 -22.379731,1.62547 -44.437012,-15.14035 -48.421628,-37.30574 -0.519636,-3.18125 -1.887402,-6.36832 -1.073102,-1.23583 0.519493,2.3821 1.592662,9.5183 -0.682855,3.57589 -1.289807,-3.00716 -3.2555,-14.0162 -2.610052,-4.86113 2.516913,25.78332 28.131749,46.40409 53.851257,43.65435 l 1.33895,-0.1069 z M 54.877117,194.95939 c -0.722115,-1.32754 0.78523,0.60082 0,0 z m 38.592915,-11.71312 c 8.436138,-1.62729 17.363788,1.52791 25.473118,-2.10101 6.26742,-1.43139 12.94178,-6.03494 14.32114,-12.64443 1.8566,-7.02039 -2.76148,-13.95193 -7.3771,-18.85684 -13.05998,-11.90967 -34.397881,-12.91731 -48.534592,-2.25091 -5.745137,4.47029 -11.324472,11.60918 -10.198774,19.32796 -0.968896,5.58587 5.119888,10.51985 10.131809,13.16088 4.985023,2.49251 10.71085,3.31437 16.184399,3.36435 z m 20.960308,-1.24522 0.35739,0.007 z m 7.2876,-2.24673 c 0.46238,-0.63827 0.22532,0.60494 0,0 z m 11.38,-13.63221 c 0.3413,-0.89486 0.54398,0.56306 0,0 z m -64.920042,-6.86696 c 0.215683,-0.78603 0.47848,0.56016 0,0 z m 29.813446,23.75011 -0.345125,0.22071 z m 55.121056,-1.16504 c -0.53527,-1.43311 -0.56973,1.8283 0,0 z m -2.61028,-1.72834 c -0.43904,-1.78915 -0.22449,2.09127 0,0 z m -77.811283,-2.7123 c -0.462613,-0.6405 -0.462613,0.6405 0,0 z m -4.439697,-4.23706 c -0.192853,-0.55541 -0.328789,0.56725 0,0 z m 64.96582,-3.22266 c -0.35354,-0.57527 -0.35349,0.57528 0,0 z m -66.65039,-3.88183 c -0.350293,-0.8095 -0.350337,0.80948 0,0 z"
         id="path2296" />
      <path
         style="fill:#26180e;stroke-width:0.146484"
         d="M 95.497234,248.79194 C 60.138033,247.31775 29.524876,214.6399 30.449605,179.23105 c -0.05317,-7.29594 0.873133,-14.68524 3.526285,-21.51844 0.687819,16.68135 -0.35844,34.32312 7.834471,49.52284 12.906106,26.88247 45.803899,42.30921 74.661729,34.24287 26.08666,-6.40475 46.3925,-30.34739 48.84532,-57.04475 1.18796,-8.77132 0.45251,-17.67595 1.12488,-26.4497 2.68084,5.35816 3.45416,13.26899 3.74331,19.77901 0.74761,25.78671 -14.13163,51.22578 -37.15478,62.94504 -11.47079,6.02658 -24.59829,8.85984 -37.533586,8.08402 z m 2.416992,-18.15636 C 85.426224,229.85601 72.88892,224.8594 64.330122,215.53953 c 16.125847,15.38594 42.496448,19.13568 61.716878,7.36108 3.1126,-1.32761 10.42982,-7.87148 9.75661,-6.9784 -9.60443,10.23531 -24.03249,15.17071 -37.889384,14.71337 z m -0.366211,-5.277 c -23.07668,-0.86456 -43.261484,-21.50916 -43.589666,-44.60919 0.0448,-3.42433 -0.512379,-8.75542 -0.92575,-2.3216 0.01854,3.39545 0.975786,15.61506 -1.406432,6.50551 -1.092148,-3.00753 -0.854793,-13.06406 -1.632976,-11.26445 -0.14464,2.77203 -1.263906,10.7349 -1.615663,3.21113 -3.862009,0.13183 1.605247,16.42768 -4.946049,12.94007 -4.835292,-5.3963 -4.280731,-13.35305 -4.285177,-20.1374 1.767343,-26.87054 24.696377,-49.5258 50.958451,-53.35386 25.958287,-4.53343 54.136977,9.16748 65.666237,33.0442 5.53825,11.20208 7.56324,24.66582 3.57279,36.66517 -0.91915,3.9893 -7.37407,6.09638 -5.33583,-0.0408 -0.3612,-4.49366 -0.77642,-14.77609 -2.80221,-7.21199 -0.0782,-3.4709 -1.77897,-10.05977 -1.30088,-2.79819 0.22546,4.07881 -1.61169,12.0436 -2.8536,13.20379 0.54907,-3.00414 0.82535,-12.20828 -0.29529,-11.92847 0.6067,19.70901 -12.21587,39.20615 -31.08762,45.49146 -5.78321,2.07041 -11.98537,3.0004 -18.120335,2.60466 z m -8.000342,-34.32011 c 5.897391,-1.64662 14.148877,-1.22366 18.628987,-0.74954 6.06872,0.48277 12.69406,-0.90869 18.63072,-2.88226 5.64731,-2.98165 12.75747,-6.19622 12.90198,-13.63542 0.83143,-6.2708 -1.68315,-12.73366 -5.50582,-17.75116 -11.77155,-15.50059 -34.522388,-21.08924 -52.064665,-12.59827 -11.237213,5.41984 -21.757795,16.1058 -21.671629,29.28034 0.235706,5.66005 4.551642,10.6105 9.691506,13.00488 5.615286,2.77605 12.124907,4.73386 18.61629,4.60044 l 0.532996,0.26586 z M 62.539726,179.31725 c -0.32141,-1.46733 1.054585,0.47415 0,0 z m 74.729974,-0.10004 c -0.34529,-0.87602 0.87601,0.34526 0,0 z m -59.64356,10.35156 c -0.502717,-0.60934 -0.37887,0.59736 0,0 z M 61.728928,178.22722 c -0.97668,-0.15193 0.556931,1.04646 0,0 z m -13.519325,-3.48084 c -0.326427,0.158 0.332186,0.56026 0,0 z m 92.038607,-6.33596 c -0.26924,-0.55564 -0.43639,0.32498 0,0 z m -76.798185,46.46353 c -5.658983,-6.01168 1.911292,0.79069 0,0 z m 73.963575,-0.77312 c 1.33071,-2.69383 1.88015,-0.32872 0,0 z m 2.10219,-2.24915 c 0.13724,-0.72336 0.55005,0.28248 0,0 z m 1.20587,-1.62861 c 0.90857,-1.10779 -0.24652,1.00759 0,0 z M 49.073838,183.43609 c -0.253813,-0.87318 0.508632,0.29943 0,0 z m -0.170353,-1.27572 c 0.104967,-2.42133 0.771995,1.7216 0,0 z m 102.331055,-0.53706 c 0.37281,-2.69275 0.5158,1.85322 0,0 z"
         id="path2294" />
      <path
         style="fill:#23150c;stroke-width:0.146484"
         d="m 95.204265,248.74247 c -33.424968,-1.66806 -62.815927,-30.88983 -64.577901,-64.33849 -0.623612,-8.2649 0.170806,-16.67187 2.657818,-24.59283 0.455074,17.66181 0.898601,36.40606 10.641762,51.84635 13.976745,23.74885 43.764542,37.10266 70.717216,30.5371 25.18616,-5.56836 45.72582,-27.07731 50.25609,-52.45543 1.89595,-10.02499 1.7494,-20.26704 2.19223,-30.41942 10.19736,31.09765 -5.85487,67.8898 -35.22693,82.10551 -11.2678,5.67102 -24.08078,8.2094 -36.660285,7.31721 z m 1.025391,-23.59257 c -18.805114,-1.6322 -37.148628,-15.85873 -39.786945,-35.16728 -1.604857,-2.83018 0.558216,-9.53368 0.638959,-3.81189 -0.607154,1.76153 1.858626,-1.52324 1.828014,2.2008 5.322971,1.62883 7.69941,4.5504 12.416346,5.64186 5.619316,1.5177 11.542238,3.9176 17.541678,2.61499 4.708292,1.84079 9.862278,0.0557 14.996332,0.25036 5.89431,-0.1331 12.03271,0.55545 17.22193,-0.6008 4.0977,-1.03861 9.54576,-4.41722 11.86913,-2.78715 -0.71025,-4.22551 1.46192,0.90354 2.11731,-2.9434 2.37092,1.38996 3.40766,-1.80842 6.53334,-2.85532 1.86039,-3.95899 4.46362,-2.20695 2.79961,2.10037 -3.30302,19.87632 -22.3157,34.79173 -42.1165,35.4905 -2.01949,0.096 -4.046511,0.0545 -6.059204,-0.13304 z m -6.353227,-27.42426 c -1.255336,-0.87269 0.684121,1.28515 0,0 z m 11.699911,0.42111 c -0.26925,-0.55561 -0.43637,0.32497 0,0 z m 9.03233,-0.73845 c -0.97866,-1.67801 -0.45079,0.84193 0,0 z m 9.13173,-0.51531 c -0.52974,-0.6174 -0.52978,0.61739 0,0 z m -45.996096,-1.01675 c -0.281514,-0.8926 -0.582244,0.50828 0,0 z m 1.68457,-0.009 c -0.378851,-0.59738 -0.502737,0.60935 0,0 z m 50.024416,-0.43946 c -0.52978,-0.61739 -0.52974,0.6174 0,0 z m -51.928712,-0.73242 c -0.858879,-0.24243 0.161832,0.95295 0,0 z m -8.129883,-2.2705 c -0.56525,-0.85647 -0.537221,0.86456 0,0 z m 73.284425,-1.68536 c 0.60811,-1.05866 -0.71201,-0.37321 0,0 z m -76.507082,-0.36543 c -0.474026,-0.83829 -0.353235,0.83079 0,0 z m -0.878906,-0.28432 c -0.269244,-0.55563 -0.436384,0.32498 0,0 z m 80.712888,-1.99483 c -0.6164,-0.63322 -0.2922,0.79987 0,0 z m 0.70972,-0.47669 c 0.9391,-2.58892 -1.57619,0.13507 0,0 z m 0.68011,-1.12887 c -0.73035,-0.3207 0.3643,1.14995 0,0 z m -60.276546,9.74409 c -0.138544,-0.79553 0.6343,0.91334 0,0 z m 29.443366,0.0646 c 0.43637,-0.32498 0.26923,0.55561 0,0 z m -31.127936,-0.5773 c 0.378892,-0.59737 0.502693,0.60936 0,0 z m 41.162116,-0.58593 c 0.19283,-0.55543 0.32881,0.56725 0,0 z m 1.75928,-0.44185 c 0.56191,-0.36445 0.29365,0.56485 0,0 z m 2.22265,-0.53227 c -1.12765,-1.03275 1.11399,-0.22649 0,0 z m 11.1792,-4.6476 c 0.26596,-0.84305 0.68773,0.26876 0,0 z m -92.756669,-0.91843 c -6.745862,-5.11643 -5.728317,-14.83761 -5.210882,-22.3364 3.679611,-28.6304 31.21067,-50.78912 59.684496,-50.62056 26.353245,-0.45464 52.680035,17.34648 59.620875,43.2216 2.46831,8.76537 3.31661,18.89296 -1.0466,27.16634 -6.79673,3.15227 -3.04544,-10.32758 -5.44154,-14.44052 -1.40362,-2.1897 -5.43868,-9.53708 -3.43393,-2.79248 0.8688,6.15087 0.58134,12.57729 -1.62514,18.43199 0.56748,-5.56465 -0.26125,-18.77538 -2.70146,-19.06471 -0.46325,3.51171 -3.14639,-5.67595 -4.48942,-6.9626 -10.80058,-19.94941 -37.60759,-28.53104 -58.20134,-19.29639 -12.132919,4.88345 -21.499227,15.44442 -26.081347,27.55865 -1.623186,1.71743 -0.08028,-5.92219 -1.483397,-0.58923 -2.852994,4.26184 -0.315675,16.25656 -2.51254,16.71982 -2.183497,-6.04295 -0.438941,-12.52203 -1.049611,-18.72684 -5.185002,5.81856 -3.687909,14.24293 -5.385763,21.18607 z m 11.079402,-20.06773 c -0.0067,-1.14501 -0.943267,0.95064 0,0 z m 95.227067,-0.93119 c -0.50274,-0.60935 -0.37886,0.59738 0,0 z m -99.582552,-2.37121 c -0.326427,0.158 0.332186,0.56026 0,0 z m 4.076217,23.31609 c 0.561887,-0.36446 0.293651,0.56487 0,0 z m -0.587414,-2.9273 c 0.353531,-0.57525 0.353486,0.57527 0,0 z m 88.648829,-1.29775 c -1.30881,-1.95329 1.97719,-0.4643 0,0 z m 0.92637,-1.55296 c 0.49994,-2.20525 0.28911,1.91901 0,0 z m -88.75797,0.12854 c 0.270302,-0.35585 -0.01556,0.67148 0,0 z m 0.228108,-0.42808 c 0.253895,-0.79408 0.564669,0.59139 0,0 z m -0.679126,-0.51186 c 0.705525,-0.64095 0.705487,0.64097 0,0 z m 0.02598,-2.57173 c 0.430559,-0.83542 0.309932,0.61186 0,0 z m 88.597068,-0.48174 c 0.7444,-2.00945 0.91665,0.58805 0,0 z m -88.995282,-5.01291 c 0.08974,-1.18804 0.866275,1.00412 0,0 z m 89.608682,-0.1459 c 0.34128,-0.89488 0.544,0.56306 0,0 z m 0.0325,-0.63184 c -0.0806,-1.7886 0.71525,0.9138 0,0 z m -89.561906,-1.83195 c 0.136928,-0.72326 0.550298,0.28278 0,0 z m 89.208986,-0.82295 c 0.32581,-0.80133 0.1429,0.78184 0,0 z"
         id="path2292" />
      <path
         style="fill:#1d1109;stroke-width:0.146484"
         d="M 95.277507,248.73861 C 62.700848,247.12679 33.98075,219.42037 30.828773,187.01297 c -0.819287,-7.15147 -0.5198,-14.45109 1.090344,-21.4749 0.283201,21.1533 5.638253,43.57737 21.132159,58.90056 19.244395,20.05328 51.643724,25.72628 76.435584,13.00312 21.31114,-10.39106 35.52028,-32.66925 37.7409,-56.07137 0.9769,-4.44273 0.91007,-14.99158 1.49114,-15.67485 6.06205,27.5706 -7.18748,57.86745 -31.29434,72.45148 -12.47762,7.81895 -27.44502,11.66024 -42.147053,10.5916 z M 44.227703,181.6667 c -5.67701,-4.71195 -3.833288,-13.18514 -3.03406,-19.58748 5.498311,-27.09019 32.423725,-46.92763 59.735647,-46.17261 27.01431,0.0215 53.53826,19.83646 58.49465,46.87542 0.50215,5.68269 2.1301,13.57944 -2.60577,17.65148 -4.62995,-3.47656 -3.08416,-11.79067 -6.07117,-16.88402 -0.58752,-3.97526 -8.64887,-12.07673 -4.40769,-3.6485 2.19841,6.38785 3.69293,13.37462 2.02526,20.07127 -1.33523,-11.12849 -4.23669,-23.32574 -13.82535,-30.2702 -12.33196,-10.01549 -28.99334,-15.03171 -44.689129,-11.42859 -11.375367,2.36115 -21.882745,8.67811 -29.627693,17.25406 -5.638217,7.18837 -7.016908,16.51669 -8.074578,25.32542 -2.823273,-7.70933 2.017468,-19.13555 2.414636,-24.1737 -7.415976,6.2533 -6.208888,17.07148 -10.012416,25.01337 z"
         id="path2290" />
      <path
         style="fill:#150b05;stroke-width:0.146484"
         d="m 95.71696,248.74059 c -31.826073,-1.36098 -60.300501,-27.62973 -64.442294,-59.17982 -0.808612,-4.06323 -0.949552,-13.63199 -0.446283,-13.86175 1.779662,26.89707 17.792198,53.60805 43.29261,64.04653 24.170338,10.41686 54.164867,4.90439 72.861047,-13.69558 14.1829,-13.66772 21.71794,-33.23162 22.76669,-52.70046 3.47348,30.40702 -16.60919,61.08033 -45.32329,71.1403 -9.13824,3.37921 -18.98139,4.85997 -28.70848,4.25078 z M 52.704022,169.6037 c 0.157504,-8.21876 4.417795,-15.53571 8.402657,-22.46035 -8.774714,4.52978 -10.851145,15.08814 -14.692093,23.22477 -7.463629,0.63403 -3.19894,-11.81535 -2.095734,-16.3667 8.638081,-23.81396 34.427588,-39.52498 59.520918,-37.51869 23.40102,1.041 46.13863,16.97893 52.94862,39.7249 0.88605,3.9047 3.55331,15.01921 -2.91681,13.52964 -3.55351,-8.33519 -6.33405,-18.38616 -14.79985,-23.23168 3.90611,7.53792 9.30433,15.32324 8.44159,24.18284 -3.05626,-11.15936 -9.14367,-22.55503 -19.79785,-28.22753 -18.84762,-9.92464 -43.510747,-8.98797 -60.652273,4.04418 -7.66807,6.44324 -12.006211,15.98214 -14.205734,25.57678 -0.534083,-0.77665 0.196878,-1.6642 -0.153441,-2.47816 z"
         id="path2288" />
      <path
         style="fill:#0b0502;stroke-width:0.146484"
         d="M 96.083171,248.74946 C 64.514762,247.31975 35.499784,221.68414 31.50748,190.11593 c 6.242818,27.63827 29.705667,51.08787 58.056843,55.17789 27.180157,4.59625 56.105447,-9.13561 70.082567,-32.83393 4.61192,-7.46431 7.8082,-15.75957 9.72644,-24.30898 -3.54861,34.23324 -36.19547,62.1491 -70.519618,60.72254 -0.924233,-0.0223 -1.848008,-0.0637 -2.770541,-0.12399 z M 31.128916,188.31145 c 0.270306,-0.35585 -0.01559,0.67147 0,0 z m 24.927908,-28.36914 c 2.129406,-9.00056 8.636922,-16.05609 15.214006,-22.18553 -8.590738,3.06147 -14.801931,10.15041 -19.216748,17.85002 -2.034691,5.21705 -7.819521,4.24979 -5.68869,-1.56282 3.386933,-15.2349 16.615185,-26.2108 30.20444,-32.50152 24.301438,-10.60363 55.399748,-2.9928 71.108828,18.64787 3.94652,5.09596 7.05701,11.49562 6.0779,18.10402 -6.57574,0.86667 -7.30451,-9.1979 -12.12535,-12.29183 -2.92204,-3.78977 -11.15776,-8.54399 -13.15881,-8.48975 6.96647,5.72523 13.58337,12.85492 15.58214,21.9218 -6.38379,-11.79569 -17.23496,-22.45121 -31.1474,-23.90336 -12.514,-2.06991 -26.039066,-1.6041 -37.625052,3.93549 -8.482204,4.5707 -15.013964,12.60597 -19.151771,20.95627 l -0.28423,-0.0547 z"
         id="path2286" />
      <path
         style="fill:#040100;stroke-width:0.146484"
         d="m 96.742351,248.7202 c -24.27855,-1.21161 -47.856814,-15.85049 -58.443148,-37.94155 13.793008,25.3652 44.063887,40.60108 72.655347,35.80022 21.80903,-3.34381 41.59676,-17.54352 51.90653,-37.02791 -11.40119,24.84485 -38.96409,40.77347 -66.118729,39.16924 z M 37.437312,209.2343 c -0.328802,-1.05987 0.725532,1.35312 0,0 z m -0.377926,-0.72611 c -0.129978,-0.64082 0.489353,0.76034 0,0 z m 16.71007,-60.46774 c -2.516216,-7.11477 5.031102,-13.16137 9.583554,-17.62925 22.86927,-19.42184 61.76941,-17.07162 80.47582,7.02596 4.71941,3.49259 4.44651,14.12134 -2.25682,7.41545 -8.93617,-9.707 -20.88265,-16.84743 -34.12363,-18.43676 -16.941058,-2.59209 -34.621991,3.93941 -46.283967,16.39739 -2.27467,1.57298 -4.636092,5.20921 -7.394957,5.22721 z m 81.498284,-1.51085 c -15.28299,-15.97935 -41.862425,-19.61147 -60.54824,-7.51253 -2.765466,1.45015 -8.899187,7.59724 -9.198041,6.24557 15.645224,-19.97078 49.130541,-21.1016 66.698641,-3.15524 0.76881,0.59538 5.33621,6.61273 3.04764,4.4222 z"
         id="path2284" />
    </g>
    <path
       id="use1615"
       style="color:#000000;display:inline;overflow:visible;visibility:visible;mix-blend-mode:normal;fill:url(#radialGradient1020);fill-opacity:1;fill-rule:evenodd;stroke:url(#linearGradient1607);stroke-width:1.6346;stroke-linecap:butt;stroke-linejoin:miter;stroke-miterlimit:4;stroke-dasharray:none;stroke-dashoffset:0;stroke-opacity:1;marker:none;enable-background:accumulate"
       inkscape:transform-center-x="-0.23629668"
       inkscape:transform-center-y="-0.7291329"
       d="m 63.999986,31.670844 c 2.57498,0.08608 5.397938,0.511526 5.899956,4.828915 0.502017,4.317388 -2.513942,4.975709 -2.513942,4.975709 l 4.62005,29.874705 15.26067,-15.736021 c -0.996669,-1.411301 -1.28973,-4.014524 0.03398,-6.088305 1.25141,-1.960531 3.844154,-2.860326 6.034829,-1.701828 2.895786,1.531373 4.020651,4.661073 2.555467,7.46977 -1.105599,2.119396 -3.233631,3.507909 -5.401847,2.699606 l -10.663038,30.92301 0.472726,6.442489 H 63.999986 47.701145 l 0.472742,-6.442489 -10.663041,-30.92301 c -2.168213,0.808303 -4.296252,-0.58021 -5.401846,-2.699606 -1.465176,-2.808698 -0.340308,-5.938397 2.555466,-7.46977 2.190684,-1.158498 4.783427,-0.258703 6.034829,1.701828 1.323686,2.073781 1.030631,4.677004 0.03399,6.088305 l 15.260678,15.736021 4.620049,-29.874705 c 0,0 -3.015958,-0.658321 -2.513941,-4.975709 0.50201,-4.317389 3.324968,-4.742837 5.899955,-4.828915"
       sodipodi:nodetypes="cscccssscccccccssscccsc" />
  </g>
  <g
     inkscape:label="Layer 1"
     inkscape:groupmode="layer"
     id="layer1"
     transform="translate(0,-924.36216)"
     style="display:inline;opacity:1;mix-blend-mode:normal" />
</svg>
