<?xml version="1.0" encoding="UTF-8" standalone="no"?>
<svg
   width="128"
   height="128"
   viewBox="0 0 128 128"
   id="svg2"
   version="1.1"
   inkscape:version="1.2.2 (1:1.2.2+202305151915+b0a8486541)"
   sodipodi:docname="kingblack.svg"
   xmlns:inkscape="http://www.inkscape.org/namespaces/inkscape"
   xmlns:sodipodi="http://sodipodi.sourceforge.net/DTD/sodipodi-0.dtd"
   xmlns:xlink="http://www.w3.org/1999/xlink"
   xmlns="http://www.w3.org/2000/svg"
   xmlns:svg="http://www.w3.org/2000/svg"
   xmlns:rdf="http://www.w3.org/1999/02/22-rdf-syntax-ns#"
   xmlns:cc="http://creativecommons.org/ns#"
   xmlns:dc="http://purl.org/dc/elements/1.1/">
  <defs
     id="defs4">
    <linearGradient
       inkscape:collect="always"
       id="linearGradient2102">
      <stop
         style="stop-color:#555753;stop-opacity:1"
         offset="0"
         id="stop2098" />
      <stop
         style="stop-color:#000000;stop-opacity:1"
         offset="1"
         id="stop2100" />
    </linearGradient>
    <linearGradient
       inkscape:collect="always"
       xlink:href="#linearGradient2102"
       id="linearGradient2104"
       x1="62.694489"
       y1="924.36218"
       x2="62.694489"
       y2="1052.4132"
       gradientUnits="userSpaceOnUse"
       gradientTransform="rotate(-90,64,988.3622)" />
  </defs>
  <sodipodi:namedview
     id="base"
     pagecolor="#ffffff"
     bordercolor="#666666"
     borderopacity="1.0"
     inkscape:pageopacity="0.0"
     inkscape:pageshadow="2"
     inkscape:zoom="3.959798"
     inkscape:cx="39.143411"
     inkscape:cy="52.78047"
     inkscape:document-units="px"
     inkscape:current-layer="layer2"
     showgrid="false"
     units="px"
     inkscape:snap-page="true"
     inkscape:window-width="1920"
     inkscape:window-height="1152"
     inkscape:window-x="0"
     inkscape:window-y="0"
     inkscape:window-maximized="1"
     inkscape:document-rotation="0"
     inkscape:showpageshadow="2"
     inkscape:pagecheckerboard="0"
     inkscape:deskcolor="#d1d1d1" />
  <metadata
     id="metadata7">
    <rdf:RDF>
      <cc:Work
         rdf:about="">
        <dc:format>image/svg+xml</dc:format>
        <dc:type
           rdf:resource="http://purl.org/dc/dcmitype/StillImage" />
        <dc:title />
      </cc:Work>
    </rdf:RDF>
  </metadata>
  <g
     inkscape:groupmode="layer"
     id="layer2"
     inkscape:label="Layer 2"
     style="display:inline;opacity:1;mix-blend-mode:normal">
    <g
       id="g2763"
       transform="matrix(0.81817097,0,0,0.81817097,-20.484527,-62.466468)">
      <path
         style="fill:#d3d0ce;stroke-width:0.146484"
         d="M 99.565249,224.77919 C 70.169876,223.79951 43.298551,201.95671 35.537709,173.70997 28.104469,148.75821 36.147726,120.18539 55.421006,102.69603 77.09235,82.3543 111.92802,78.345903 137.70818,93.091682 c 25.4399,13.906708 40.42656,44.648648 34.85521,73.231758 -4.61173,27.14731 -26.07674,50.8009 -53.15117,56.7573 -6.48814,1.51531 -13.19543,2.09733 -19.846971,1.69845 z"
         id="path2805" />
      <path
         style="fill:#a6a09d;stroke-width:0.146484"
         d="M 99.372645,224.64084 C 69.595383,223.49009 42.493856,200.99015 35.215347,172.19485 27.69202,144.91692 38.872481,113.87086 61.945786,97.530801 86.381109,79.673314 122.37659,80.039545 146.1743,98.863398 c 22.73521,17.180582 33.24926,48.989132 24.13123,76.163442 -7.78961,25.65512 -31.00803,46.09542 -57.82539,49.18823 -4.34242,0.55755 -8.73805,0.7022 -13.107495,0.42577 z"
         id="path2803" />
      <path
         style="fill:#8f837b;stroke-width:0.146484"
         d="m 99.125795,224.54285 c -30.833509,-0.76814 -58.124107,-25.4402 -64.424236,-55.2332 -6.526988,-28.30846 6.740187,-59.94207 31.925451,-74.631974 25.220177,-15.398409 60.31694,-13.373096 82.50337,6.631764 20.38153,17.48761 29.74219,47.17051 21.45953,72.95929 -8.09879,27.77591 -34.62657,49.21687 -63.71351,50.21056 -2.58031,0.15101 -5.16815,0.17027 -7.750605,0.0636 z"
         id="path2801" />
      <path
         style="fill:#85776d;stroke-width:0.146484"
         d="M 99.052553,224.50329 C 68.633939,223.20678 41.18063,199.54785 34.73779,169.89317 c -7.14622,-30.04257 8.267164,-63.8309 36.05736,-77.561102 25.803073,-13.389296 59.82577,-9.246602 80.76458,11.253662 19.48467,18.42192 27.32367,48.44311 17.89055,73.76448 -9.51009,27.77914 -37.61243,48.55839 -67.29603,47.28416 l -1.55158,-0.0488 z"
         id="path2799" />
      <path
         style="fill:#705b4c;stroke-width:0.146484"
         d="M 99.638491,224.46912 C 68.959145,223.55749 41.120525,199.67429 34.799214,169.75638 28.637026,143.04198 39.79729,113.23707 62.434589,97.600835 81.751833,83.465561 108.37228,80.566407 130.35811,89.9708 c 24.81013,9.970709 42.2859,35.28025 42.96614,61.99678 1.26207,29.66972 -18.26674,58.96238 -46.50148,68.54844 -8.6827,3.09097 -17.98001,4.45411 -27.184279,3.9531 z"
         id="path2797" />
      <path
         style="fill:#654b39;stroke-width:0.146484"
         d="M 98.320131,224.34394 C 65.857932,222.81758 37.306374,195.40226 33.677693,163.23181 29.681379,132.825 47.869839,100.69643 76.772559,89.741593 c 2.007609,-0.95959 10.796568,-3.458916 4.421896,-1.244656 -7.459124,4.272311 5.143679,0.158062 7.467447,0.0449 12.755188,-2.319229 25.898718,-0.86794 38.417928,1.6666 -0.81261,-2.087836 -8.29834,-3.744633 -1.45814,-1.922516 29.49654,9.215538 49.96925,40.122989 47.54949,70.846159 -1.77315,29.32981 -23.70731,56.40893 -52.49373,63.14948 -7.28272,1.85511 -14.8584,2.54694 -22.357319,2.06238 z M 85.328798,86.997392 c 0.560263,-0.332182 0.158015,0.326427 0,0 z"
         id="path2795" />
      <path
         style="fill:#5a4231;stroke-width:0.146484"
         d="M 98.539858,224.34438 C 65.172025,222.8414 35.751758,193.97535 33.443111,160.6683 30.743416,132.03891 47.531392,102.15205 74.3118,91.001961 c -2.543583,0.438053 -7.760417,6.039413 -2.010007,3.513617 18.955605,-7.691179 40.848897,-8.566583 59.853067,-0.597318 5.94412,2.118901 3.52892,-1.377734 -0.25537,-3.055613 27.59822,10.912283 44.38148,41.850083 40.81666,70.959003 -2.85075,29.19653 -25.69843,55.59268 -54.78236,61.05005 -6.3595,1.35708 -12.90217,1.86311 -19.393932,1.47268 z"
         id="path2793" />
      <path
         style="fill:#533b2a;stroke-width:0.146484"
         d="m 98.979311,224.35998 c -30.662357,-1.32422 -58.446462,-25.38904 -64.276046,-55.50755 -6.153884,-28.3028 7.191698,-59.86658 32.580544,-74.193102 2.809968,-2.396026 -6.429744,5.704632 -0.445778,3.343502 19.572524,-10.167186 43.562029,-12.516716 64.100849,-3.772808 2.82021,1.22552 14.80033,6.678788 7.78666,0.437297 -1.59794,-1.44808 6.51335,3.555238 8.12614,5.118929 23.94407,18.576622 33.10992,53.577322 21.11864,81.461212 -10.98893,26.86221 -39.87351,45.46023 -68.991009,43.11252 z m 9.155269,-8.2221 c 3.70214,0.0154 13.90723,-2.37998 13.01402,-3.15551 -12.36849,3.38827 -25.5803,2.83325 -37.926058,-0.36349 7.828311,3.30649 16.498378,4.10359 24.912038,3.519 z m -0.36621,-7.76404 c 3.15802,0.43558 14.93918,-3.60088 6.03087,-1.49522 -8.75016,1.64369 -17.795133,0.91346 -26.421392,-1.09008 6.424219,2.64475 13.530752,3.08382 20.390522,2.5853 z m -0.51269,-4.68236 c 2.7794,0.32945 15.517,-3.57379 6.67591,-1.55431 -8.43468,1.64824 -17.180978,1.03729 -25.513249,-0.8943 5.936468,2.45035 12.494889,2.82402 18.837339,2.44861 z"
         id="path2791" />
      <path
         style="fill:#4a3324;stroke-width:0.146484"
         d="M 99.199038,224.35737 C 69.034919,223.10189 41.583169,199.9145 35.035794,170.4769 c -6.435621,-26.8373 4.638208,-57.35093 27.733078,-72.79207 -0.840707,-0.305711 -4.543776,7.12427 0.635044,3.2735 18.113118,-10.954574 40.894614,-15.371421 61.246154,-8.32176 7.2094,2.419219 13.97214,5.935843 20.85456,9.12722 1.01028,-2.733498 -6.59556,-7.112677 -1.03009,-3.608927 27.60796,18.996257 36.82527,59.375657 20.83513,88.707377 -12.34117,23.83044 -39.21958,39.46723 -66.110632,37.49513 z m 9.375002,-7.92417 c 9.16671,-0.96569 18.48418,-3.47801 25.94415,-9.09705 -18.87822,9.34647 -42.272871,10.42207 -61.21397,0.66372 8.289474,6.49976 19.406037,8.28866 29.708,8.64246 1.85583,0.0154 3.71245,-0.0532 5.56182,-0.20913 z m -0.36621,-7.67896 c 6.93897,-0.2965 17.64655,-4.41629 20.7423,-7.3179 -15.67025,8.09737 -34.992087,8.04504 -50.808176,0.36669 4.011215,3.59302 11.856801,5.58575 17.859532,6.63675 4.035884,0.60228 8.144614,0.69634 12.206344,0.31446 z m -0.5127,-4.91983 c 6.78074,-0.63223 13.78813,-2.52758 19.3769,-6.5244 -14.64445,7.08019 -32.451966,7.22972 -47.185906,0.3182 7.980548,5.46815 18.327753,6.90711 27.809006,6.2062 z m -1.02539,-1.74402 c 3.59405,0.17815 15.69428,-3.59081 6.41487,-1.28791 -7.96984,1.56503 -16.272198,1.08643 -24.108607,-0.96741 5.661792,1.94769 11.725077,2.7089 17.693737,2.25532 z"
         id="path2789" />
      <path
         style="fill:#412b1d;stroke-width:0.146484"
         d="m 99.492006,224.34484 c -29.014144,-1.00505 -55.56904,-22.44219 -63.375496,-50.29768 -7.830758,-25.70902 0.766169,-55.94372 22.076812,-72.63567 -5.107505,3.79319 -2.093668,8.02527 2.074129,2.9972 17.655205,-12.832463 41.175789,-18.767212 62.333869,-11.799574 10.12661,2.914055 18.9453,8.848724 27.84264,14.208524 1.94282,-1.23131 -5.89282,-9.317212 0.0541,-3.87601 17.09916,15.83368 26.12997,40.32095 21.61937,63.40603 -5.13811,29.61633 -30.65839,55.13322 -61.01876,57.73654 -3.85304,0.40513 -7.73926,0.48797 -11.606624,0.26064 z m 9.814454,-7.60777 c 12.90478,-1.62974 25.97611,-6.52469 34.95629,-16.26212 -14.14019,10.27777 -31.92109,15.87876 -49.417592,13.37008 -11.345988,-1.45781 -22.243686,-5.921 -31.526583,-12.57644 9.37685,10.10582 23.465437,14.72194 36.963495,15.67709 3.00741,0.1643 6.0281,0.10076 9.02439,-0.20861 z m -1.17188,-7.39856 c 11.12816,-1.26045 22.10243,-5.94362 29.88863,-14.13394 -15.58202,11.75221 -37.39145,16.28837 -55.611944,8.08465 -3.868038,-1.16137 -12.702885,-7.50585 -12.61176,-6.78524 10.101812,9.58324 24.541572,14.16532 38.335074,12.83453 z m -1.71202,-5.20435 c 10.37291,-0.8159 20.82874,-4.54234 28.39907,-11.86878 -3.84031,2.85886 -15.09551,7.9338 -15.11145,7.19262 3.30423,-0.94247 13.41976,-7.57845 5.51549,-3.11918 -15.06906,7.60951 -34.155458,6.83238 -48.343418,-2.42342 2.124209,2.48764 9.993071,5.05073 9.603729,5.76789 -4.027107,-0.59034 -12.069286,-6.56973 -12.792757,-5.55825 9.100851,7.35637 21.124285,10.70081 32.729336,10.00912 z"
         id="path2787" />
      <path
         style="fill:#3d291b;stroke-width:0.146484"
         d="M 99.565249,224.33577 C 70.664789,223.395 44.260365,202.07923 36.285101,174.43333 c -7.418234,-23.83064 -0.957579,-52.23054 17.689413,-69.04391 -3.037959,2.76853 -3.305188,8.58838 1.655677,4.08075 8.561694,-7.56962 18.373772,-14.00595 29.598608,-16.801267 21.508721,-6.121305 45.878491,-0.801324 62.505211,14.249357 2.45041,2.8596 9.79867,6.54389 5.56575,0.0176 -3.05264,-5.12094 6.08188,5.39174 7.48063,7.79855 14.96061,20.96138 16.31246,50.25494 3.91229,72.74193 -12.03986,22.99408 -37.57302,38.56771 -63.73048,36.92523 z m 9.301761,-7.30541 c 15.6297,-2.02973 31.81732,-8.74302 41.16075,-21.94385 -4.60743,2.7713 -10.35383,8.94284 -16.40572,11.38081 -24.43442,12.59739 -56.818796,8.47333 -76.395705,-11.17268 1.64677,4.67478 11.136798,11.76649 17.476353,14.97605 10.43002,5.45033 22.441623,7.8598 34.164322,6.75967 z m -1.27758,-6.95667 c 13.92394,-1.44521 27.31117,-8.70213 35.61483,-20.05213 -11.97713,11.4849 -28.54094,19.15293 -45.387516,17.02893 -12.871402,-1.41548 -25.159195,-7.51048 -34.123003,-16.84765 6.139553,9.17343 16.38337,15.18133 26.820381,18.31412 5.536402,1.53602 11.351498,2.10124 17.075308,1.55673 z m -1.2859,-5.79217 c 13.08373,-0.83121 26.06172,-6.91168 34.15738,-17.38223 -2.98255,2.91173 -12.19057,9.39012 -12.14997,8.34167 2.74366,-1.47089 11.2467,-9.7106 4.70219,-4.05669 -16.84467,13.55219 -43.113909,13.70979 -59.734579,-0.32946 -7.662755,-4.88715 10.998287,8.44706 3.539501,4.07423 -3.020794,-1.11876 -13.275826,-10.49758 -6.995229,-3.75428 9.594271,9.23828 23.229998,13.98309 36.480707,13.10676 z m -2.25384,-73.85016 c 5.40469,-0.3259 12.62381,-3.46385 12.68935,-9.33067 -0.75649,-5.23406 -8.80961,-8.10263 -14.34132,-7.5958 -5.446094,0.15928 -14.137814,2.74672 -12.883924,9.70119 2.187405,6.16888 9.07795,6.80426 14.535894,7.22528 z m 3.0879,-0.80062 c -0.13969,-0.88529 0.77025,0.3538 0,0 z m -8.597732,-0.34578 c 0.353487,-0.57527 0.353532,0.57525 0,0 z m -4.296875,-1.26953 c -0.53153,-0.63774 0.672214,0.0848 0,0 z m -4.052734,-4.5044 c 0.432674,-1.35147 0.544628,1.1866 0,0 z m 26.367191,-2.57568 c 0.52976,-0.61741 0.52979,0.61741 0,0 z"
         id="path2785" />
      <path
         style="fill:#392519;stroke-width:0.146484"
         d="m 99.858217,224.32287 c -29.388326,-0.68559 -56.116502,-22.71433 -63.837396,-50.84941 -6.518289,-22.31375 -1.236725,-48.52194 15.245503,-65.171 -2.930199,2.61368 -3.440161,10.49891 1.596943,5.1509 13.36869,-15.092113 33.702612,-24.582163 54.073673,-23.050701 18.25147,1.12557 35.43599,10.289371 47.71552,23.649111 6.35092,3.92843 -3.65145,-12.39074 2.14135,-4.3285 17.80075,19.93961 21.3824,50.61333 9.55252,74.44645 -11.43738,24.58442 -37.93989,41.67925 -65.26753,40.19903 z m 9.082033,-7.1492 c 18.079,-1.7887 35.94002,-11.45504 45.23797,-27.40166 -8.30843,8.49051 -17.62464,16.60434 -29.34053,19.83255 -13.29073,3.96091 -27.709019,3.8436 -41.158217,0.76968 -12.359758,-3.36406 -23.039771,-11.28296 -31.407307,-20.80788 11.063904,19.40964 34.859037,29.66879 56.668084,27.60731 z m -6.80012,-5.87532 c 17.50608,0.0202 34.68454,-9.90442 43.81453,-24.72196 -4.05441,3.74463 -8.4513,9.06454 -13.7333,12.13236 -20.43328,13.43895 -50.049676,10.54122 -66.941156,-7.35782 -1.626153,-1.60277 -6.67259,-6.58057 -2.846233,-1.74495 9.257148,12.3301 24.237867,20.97741 39.706159,21.69237 z m 5.33527,-7.02085 c 14.01056,-1.39118 27.93676,-8.48927 35.60545,-20.57564 -2.90102,2.95529 -8.8175,8.45575 -10.65018,8.72627 2.40802,-1.58112 9.55854,-10.05869 3.75959,-4.33051 -14.28542,13.93197 -37.641339,17.51709 -55.226622,7.87112 -4.186187,-1.40472 -11.67827,-9.65216 -12.512909,-8.94848 2.034261,2.00071 9.715275,8.85999 3.129032,4.19677 -2.390743,-2.03297 -10.487489,-9.63189 -4.90668,-2.99757 9.986335,11.49119 25.759524,17.18632 40.802319,16.05804 z m -4.40379,-65.99492 c 7.09712,-0.10511 13.5398,-3.82575 18.21578,-8.93398 6.91376,-4.86815 1.32042,-14.23871 -5.56339,-16.05222 -10.46087,-4.74512 -24.220031,-3.30154 -32.514489,4.93209 -4.248207,6.02966 1.015301,13.03834 6.80003,15.6675 3.76612,2.8651 8.473419,3.81945 13.062069,4.38661 z m 21.27147,-12.58649 c -0.37899,-0.72798 -0.37899,0.72798 0,0 z"
         id="path2783" />
      <path
         style="fill:#342115;stroke-width:0.146484"
         d="M 98.539858,224.24996 C 64.788299,222.68848 34.977247,193.09283 33.53761,159.2561 c -1.181674,-17.24752 4.057367,-35.10461 15.357953,-48.32248 -1.592279,2.27465 -6.138988,12.711 -1.627649,11.0375 12.210627,-18.70209 33.612258,-31.893189 56.307536,-31.330714 21.87097,0.07012 42.97049,12.070334 54.86255,30.319124 6.16783,5.64701 -0.96061,-9.9358 -0.3425,-9.51482 18.09934,21.67248 20.19242,54.76203 5.23609,78.6677 -13.15767,22.16837 -39.02198,35.95023 -64.791732,34.13755 z m 10.362822,-6.79084 c 21.87371,-2.01098 43.1257,-16.05052 51.01052,-36.96265 -5.82605,7.68296 -11.31281,15.9274 -19.73164,21.06954 -3.65662,2.09517 -10.26193,6.78922 -13.47999,4.67826 8.04564,-5.95611 16.0688,-12.58027 21.0821,-21.46098 1.38132,-2.27434 4.05269,-8.91999 1.01139,-3.16889 -13.15148,21.33213 -42.29826,31.9026 -65.590871,21.54708 -11.561356,-4.88345 -21.101745,-13.93598 -27.422466,-24.69788 4.375566,12.21525 14.610699,21.01047 24.876572,28.33255 -6.664231,1.26946 -12.195903,-4.35257 -17.573977,-7.47285 -6.451848,-4.91203 -11.535348,-11.38034 -15.797064,-18.22482 2.787366,10.12811 10.68506,18.04488 18.722618,24.40687 12.212522,9.01128 27.78013,13.34915 42.892808,11.95377 z m -1.72024,-13.03247 c 16.96103,-1.41189 33.5837,-11.79788 40.32683,-27.74372 -2.62293,4.52887 -9.56956,12.1773 -11.73937,12.94727 2.82153,-2.63743 7.96596,-9.615 7.71176,-10.60984 -11.51827,18.4203 -36.40892,27.53552 -56.81549,19.30161 -9.964244,-3.78492 -18.359909,-11.11461 -24.181449,-19.97048 1.073161,4.29167 8.085841,10.1705 7.951075,11.61516 -3.804914,-2.19458 -8.690247,-10.53127 -10.343342,-10.61856 8.834631,16.79321 28.365723,26.63232 47.089986,25.07856 z M 61.916396,177.18092 c -0.835665,-0.86831 0.693527,1.56401 0,0 z m 41.049014,-28.75104 c 7.35873,-0.74573 13.98921,-4.73481 20.47859,-7.83729 6.35521,-3.66784 12.76476,-10.52336 7.92905,-18.1908 -3.35773,-7.76776 -12.38735,-10.50541 -19.87939,-12.55329 -12.471715,-2.4546 -26.852369,0.63347 -35.626824,10.20278 -5.797452,6.31039 -2.156619,14.51658 3.547633,18.76473 5.562489,3.4682 11.574791,6.36121 17.914359,8.1858 1.899902,0.63634 3.580552,1.89819 5.636582,1.42807 z M 85.502749,142.0291 c 0.328773,-0.56728 0.192874,0.55543 0,0 z m 74.633791,-19.92188 c 0.53945,-0.63107 0.70715,0.65254 0,0 z"
         id="path2781" />
      <path
         style="fill:#301e13;stroke-width:0.146484"
         d="m 98.686342,224.25002 c -30.23274,-0.95585 -56.807523,-25.04476 -63.44479,-54.11098 -4.466232,-18.36677 -1.184401,-38.78099 9.973786,-54.19593 -4.003556,10.39095 -5.17271,21.58686 -5.781691,32.62513 1.579173,-1.1367 1.478611,-11.28845 3.890286,-15.33821 8.155143,-23.56328 31.243491,-40.95102 56.197598,-42.04287 24.546509,-1.758883 49.613549,12.05412 60.292849,34.4138 4.18621,8.20143 6.32637,17.34257 6.89002,26.5032 0.68484,-10.51244 -1.40377,-21.04684 -3.87859,-31.19946 -1.57903,-3.5934 -1.59892,-6.18807 0.87087,-1.25001 14.9431,24.4123 11.93196,57.95057 -6.7842,79.53988 -14.0724,16.82678 -36.31096,26.49215 -58.226138,25.05545 z m 9.382338,-6.34746 c 28.23242,-1.69484 53.45595,-24.58051 57.87766,-52.52939 1.56269,-2.4774 0.75058,-15.36781 -0.10383,-6.91769 -2.14559,16.31633 -10.92988,32.35174 -24.97358,41.28554 -3.00695,1.65533 -6.24342,1.96344 -2.37819,-1.30549 7.57973,-9.2763 15.05054,-19.83333 16.17474,-32.08574 -2.91829,9.7029 -7.26775,19.40633 -15.11559,26.20125 -17.9338,16.74525 -47.905561,19.31253 -67.519499,3.96753 -9.490253,-6.95001 -16.18868,-17.16543 -19.86454,-28.23552 1.776316,12.19782 9.165689,22.8842 17.64927,31.53328 -0.410186,4.42203 -8.458845,-2.9519 -10.598468,-4.73858 -11.612323,-10.56009 -18.068148,-25.94872 -19.424846,-41.42254 -0.806292,9.19432 1.942281,18.47198 5.40046,26.92037 9.51483,21.75384 32.018587,36.79918 55.740963,37.45085 2.37816,0.098 4.76221,0.0589 7.13545,-0.12387 z m 28.12723,-15.89963 c 0.99258,-0.94188 0.11029,0.62555 0,0 z m -28.72051,2.56684 c 21.38776,-1.50652 41.03111,-18.4221 44.65843,-39.72764 -1.72731,6.58085 -8.86933,18.60606 -11.43698,19.42816 3.52877,-4.76643 8.31932,-14.56974 7.86654,-17.69753 -5.39873,20.11375 -25.21855,35.50764 -46.22115,34.60243 -19.387311,-0.26391 -37.829473,-13.73025 -43.599807,-32.31766 -2.329108,-5.3676 1.058057,6.36025 2.308793,7.53863 1.35202,3.09195 8.416526,13.02755 2.293293,5.76596 -3.990847,-3.8729 -7.952403,-14.72654 -8.751195,-16.06905 4.548572,23.70038 29.127402,40.93141 52.882076,38.4767 z M 51.840639,166.16972 c -0.764162,-0.14346 0.494828,1.07209 0,0 z m 5.830078,-0.55664 c -0.322372,-1.0463 -0.11264,1.02348 0,0 z m 94.686473,-1.2571 c 0.67564,-1.84239 -0.95617,0.71282 0,0 z M 98.291295,154.7022 c 8.647195,0.41164 17.620855,-0.29086 25.506555,-3.77711 6.10276,-2.60106 13.92921,-5.53856 16.34348,-12.19192 3.2487,-7.80433 -2.90876,-15.44342 -8.49344,-20.32125 -17.84972,-15.48406 -48.512509,-12.91522 -62.713058,6.22379 -4.512062,6.03333 -5.331829,15.60153 1.576425,20.28649 5.669757,4.24725 12.49986,6.81989 19.319035,8.68443 2.865569,-0.1139 5.572261,1.37732 8.461003,1.09557 z m 20.902855,-2.4192 c 0.3789,-0.59737 0.50271,0.60937 0,0 z m 11.89271,-5.42907 c 0.34126,-0.89487 0.544,0.56303 0,0 z m -91.223495,4.62254 c 0.07722,-2.38859 -0.86566,2.17328 0,0 z m 98.959695,-8.86143 c -0.19283,-0.55543 -0.32881,0.56725 0,0 z"
         id="path2779" />
      <path
         style="fill:#2c1b11;stroke-width:0.146484"
         d="m 98.246889,224.19699 c -31.26607,-1.48429 -59.004722,-27.04116 -63.840641,-57.83614 -2.63497,-15.24433 -0.150665,-31.4542 7.545393,-44.93364 -5.289109,21.39201 -6.411568,45.68015 5.622156,65.10392 12.583649,21.79045 38.573437,34.9898 63.600763,31.44637 22.32301,-2.69742 42.51895,-17.76918 51.3385,-38.46883 8.26671,-18.50658 6.51851,-39.61363 1.72916,-58.77569 15.10574,25.88755 10.30023,61.26291 -10.85854,82.42122 -14.10811,14.64691 -34.83587,22.66651 -55.136791,21.04279 z M 98.6131,206.4608 c -23.697357,-1.76119 -44.768634,-21.80946 -46.738659,-45.66731 -0.538255,-2.98397 0.334042,-8.96255 0.490244,-2.34166 2.105446,24.45636 23.713279,45.65364 48.400835,46.47462 21.34303,1.22397 42.58491,-12.45001 49.87682,-32.6339 2.34765,-5.93927 3.66328,-12.32205 3.54871,-18.7206 1.61371,7.55332 -0.97759,15.45849 -3.65537,22.49423 -8.5614,20.05702 -30.37805,32.34421 -51.92258,30.39462 z m 1.75781,-5.49625 C 76.910851,200.0812 56.280265,178.59849 56.956729,155.00201 c -1.45844,-5.89953 2.634667,-10.72623 5.810374,-3.56678 5.197684,4.01639 11.572576,7.01352 18.027107,8.40344 5.677464,2.43446 12.43145,1.1343 18.266995,2.11301 6.764895,-1.94486 13.966975,1.02547 20.985235,-1.11622 5.81563,-0.29641 11.02353,-3.54334 15.87619,-4.77233 4.81972,-2.05273 8.97312,-6.34561 12.27057,-9.27988 2.61723,6.77978 1.25798,14.55937 -0.52863,21.42335 -5.99656,20.0434 -26.29956,34.45411 -47.29366,32.75795 z m 31.86035,-43.55459 c -0.35347,-0.57527 -0.35352,0.57525 0,0 z M 65.947085,154.1873 c -0.192874,-0.55543 -0.328773,0.56728 0,0 z m 76.098635,-1.46484 c -0.5522,-1.13959 -0.46914,1.00887 0,0 z m -79.394534,43.0664 C 50.622766,189.03201 44.665858,175.2153 41.798975,162.32311 36.954621,136.27722 51.916971,108.52192 75.855772,97.480177 98.821823,86.251778 128.46349,90.572615 146.72902,108.66292 c 18.01179,16.95338 24.38519,45.66099 13.18084,68.07856 -3.25108,7.03248 -7.90826,13.61086 -14.31537,18.09443 -4.3393,-3.6608 6.11497,-10.2322 6.01558,-15.51113 4.49061,-11.45078 6.2147,-24.42394 2.59385,-36.35574 -2.35984,-0.0564 -2.38212,-8.80169 -3.851,-6.65959 4.88651,14.91216 3.14571,32.54444 -7.15745,44.83091 11.36574,-18.12116 8.81999,-43.61209 -6.37142,-58.77012 -13.55785,-14.30434 -36.37385,-18.40632 -54.021292,-9.61352 -20.034088,9.40969 -31.42751,34.07238 -24.916447,55.36529 1.254482,4.59643 3.115561,9.0256 5.50513,13.14702 -10.748507,-12.68965 -12.527945,-31.37174 -6.599869,-46.60084 -5.080311,7.85964 -7.420976,17.1437 -6.300117,26.52135 0.811147,11.91896 5.973295,22.98951 12.55072,32.77226 0.524056,0.3638 0.581166,1.9517 -0.390989,1.82706 z m 91.099774,-54.55854 c -1.2333,-1.22926 0.93898,2.20613 0,0 z m -100.309604,-1.0689 c 0.418959,-0.62827 -1.007822,0.90312 0,0 z m 99.462924,-0.98511 -0.40423,0.0756 z m -3.16617,-5.1485 c -1.13757,-4.60133 -0.38707,1.629 0,0 z m -92.540317,-0.72359 -0.374655,0.50564 z m 91.340277,-2.30384 -0.25241,0.32211 z m -59.592939,30.07169 c 0.328773,-0.56728 0.192874,0.55543 0,0 z m -2.270507,-0.5127 c 0.598832,-0.78333 0.547878,0.7783 0,0 z m -4.833985,-0.65918 c 0.378892,-0.59737 0.502693,0.60936 0,0 z m -4.321289,-1.31836 c 0.225431,-0.60493 0.462369,0.63821 0,0 z m -3.076172,-1.17187 c 0.328773,-0.56728 0.192874,0.55543 0,0 z m 58.959962,-1.17188 c 0.35354,-0.57527 0.35349,0.57528 0,0 z m -62.455318,-0.36621 c 0.474028,-0.83829 0.353235,0.83079 0,0 z m -1.704839,-0.65918 c 0.353532,-0.57525 0.353487,0.57527 0,0 z m -17.519531,-1.52344 c 0.155939,-2.0983 0.860181,0.70264 0,0 z m 13.735938,-0.62222 c 1.009377,-1.45836 0.317401,1.02934 0,0 z m 88.96426,-0.49106 c 0.50274,-0.60935 0.37886,0.59738 0,0 z M 51.811342,151.99004 c 0.353487,-0.57527 0.353532,0.57525 0,0 z m 90.820308,-0.39123 c 0.66966,-1.76566 0.31253,1.00943 0,0 z m -90.820308,-0.3412 c 0.529793,-0.6174 0.529752,0.61741 0,0 z m 102.645878,-0.23498 c -1.06083,-0.67197 0.87614,-0.36312 0,0 z M 142.80011,150.679 c 0.31767,-0.60551 0.36212,0.48644 0,0 z m 11.45376,-0.98424 c -0.51313,-2.61415 1.02478,1.75372 0,0 z M 51.891178,149.46318 c 0.929146,-2.05493 0.249189,1.41465 0,0 z m 9.295164,0.0977 c 0.527233,-0.70646 0.445155,0.86177 0,0 z m 92.748918,-1.85464 c -0.30224,-2.56119 1.03883,2.15774 0,0 z m -6.52872,-1.40617 c -0.009,-0.78521 0.75898,0.1813 0,0 z m -95.00926,-2.19085 c 0.50603,-1.72004 0.680372,0.55306 0,0 z"
         id="path2777" />
      <path
         style="fill:#29190e;stroke-width:0.146484"
         d="M 99.125795,224.24988 C 66.44688,223.407 37.830209,195.63521 34.016409,163.50348 c -1.690034,-12.57458 0.08211,-25.68372 5.555775,-37.16785 -4.496511,21.50683 -3.123422,45.50363 9.795212,64.00799 15.864369,23.74328 48.317987,34.90885 75.233914,24.82622 21.81341,-7.49941 38.68115,-27.10348 42.93249,-49.75636 2.71167,-13.20526 1.91994,-26.95439 -1.12906,-40.02872 13.16771,26.21159 6.48575,60.4407 -15.33211,79.98991 -13.89932,12.83647 -33.02172,19.92524 -51.946835,18.87521 z m 0.732422,-18.00711 C 84.678554,205.28132 69.90388,197.21496 61.521855,184.4182 c 11.249769,13.94141 29.328899,22.86298 47.412075,20.42216 13.57639,-1.62003 26.50811,-8.67768 34.92044,-19.50167 -2.86854,5.86128 -8.75648,10.04663 -14.15444,13.631 -8.89378,5.39655 -19.47159,7.90283 -29.841713,7.27308 z m -0.146484,-5.4176 c -18.834165,-1.39303 -37.167479,-15.4875 -40.620136,-34.47719 0.171967,-8.51336 9.229731,0.59425 13.761187,0.3637 6.512643,1.99479 13.560977,3.71613 20.277967,2.83514 4.778817,0.86079 9.761879,0.0729 14.369199,0.19464 5.44968,0.6047 11.8552,-0.90333 17.16682,-0.82663 6.55481,-1.45425 12.42871,-3.72473 18.52994,-5.53405 6.57353,-4.93724 4.11277,7.29095 1.81002,11.04943 -7.49062,17.02418 -26.94245,27.80195 -45.294997,26.39496 z m 3.662107,-30.52459 c -0.50274,-0.60935 -0.37886,0.59738 0,0 z m 3.8086,0 c -0.35353,-0.57524 -0.35348,0.57526 0,0 z m 6.15234,0 c -0.32881,-0.56725 -0.19283,0.55543 0,0 z m 7.17773,-0.43945 c -0.3535,-0.57524 -0.3535,0.57524 0,0 z m 19.11622,-4.24805 c -0.19287,-0.55543 -0.32877,0.56728 0,0 z m -72.875981,-0.59053 c -0.468961,-0.94373 -0.714349,0.62386 0,0 z m 72.363281,-0.06 c -0.31062,-0.55726 -0.56266,0.36263 0,0 z m -74.267578,-0.37486 c -0.353532,-0.57525 -0.353487,0.57527 0,0 z m -6.977616,25.56325 c -7.734367,-4.55253 -11.204871,-13.62043 -14.129365,-21.66299 -7.559045,-24.79532 3.655857,-53.45803 25.576913,-67.10757 23.032177,-15.263105 56.101666,-12.566462 76.163726,6.52008 17.03672,15.59197 24.41006,41.45304 16.20824,63.34014 -2.22554,6.46415 -5.68136,12.64584 -10.77853,17.28325 -5.56607,-1.29131 3.59577,-10.11297 3.11016,-14.58138 6.61872,-21.34988 -0.16101,-47.43579 -19.41585,-59.99634 -4.97778,-2.48145 7.02416,6.13588 7.96959,9.16763 11.30576,14.82438 14.07334,36.92166 3.61352,52.89994 3.83452,-9.21809 5.40403,-19.87426 3.19708,-29.85173 -3.66401,-20.23858 -21.69515,-37.1735 -42.46481,-38.16461 -19.573857,-1.72013 -39.431354,10.08174 -46.872436,28.34849 -5.627728,12.57313 -5.454122,27.44769 0.456056,39.89151 -2.926197,-3.32187 -5.268312,-10.13072 -6.141275,-15.35822 -2.97257,-17.11038 4.319025,-35.0196 17.328433,-46.25104 -4.428082,1.96738 -9.77466,7.96939 -13.093962,12.77258 -11.830915,17.63531 -10.79188,41.53528 -0.674398,59.69579 0.34257,0.90415 0.977495,2.32182 -0.05309,3.05447 z m 16.178666,-77.26308 c -0.543997,-0.56303 -0.341262,0.89487 0,0 z m 70.782678,71.29727 c 0.56539,-2.37089 1.1505,0.35074 0,0 z m -84.134118,-0.79861 c -0.432215,-0.82705 0.77247,0.30022 0,0 z m -0.307966,-0.73831 c -0.129984,-0.64082 0.489347,0.7603 0,0 z m 25.434918,-13.10935 c -0.775945,-1.25274 1.139219,0.62816 0,0 z m 14.619136,-0.27231 c 0.43637,-0.32497 0.26925,0.55561 0,0 z m 4.61426,-0.13784 c 0.19283,-0.55543 0.32881,0.56725 0,0 z m 12.23145,-0.35401 c 0.44519,-0.86173 0.52718,0.70645 0,0 z m 2.9269,-0.16204 c -0.29401,-0.74132 0.82649,0.9122 0,0 z M 80.156069,168.2498 c 0.328809,-0.56725 0.192831,0.55543 0,0 z m -2.709961,-0.29297 c 0.378892,-0.59737 0.502693,0.60936 0,0 z m -3.00293,-1.17187 c 0.328773,-0.56728 0.192874,0.55543 0,0 z m 68.188472,-3.79131 c 0.13724,-0.72335 0.55004,0.28248 0,0 z"
         id="path2775" />
      <path
         style="fill:#26180e;stroke-width:0.146484"
         d="M 99.125795,224.24988 C 65.162376,223.29003 35.80825,193.32426 33.506312,159.77951 c -0.76971,-9.12348 0.299512,-18.4748 3.670916,-27.01902 -3.753525,24.7597 2.715126,52.32027 21.915299,69.42793 21.049744,19.54664 55.346003,22.69967 79.372953,6.76188 19.70428,-12.41378 31.28737,-35.49675 31.65159,-58.53351 0.92737,-4.40889 -1.53299,-16.92281 -0.23537,-16.54593 10.77356,31.89164 -6.03237,70.12665 -36.7911,83.81031 -10.56327,4.9159 -22.34128,7.08895 -33.964805,6.56871 z m 1.245115,-23.57451 c -13.811678,-1.06163 -28.710021,-8.17395 -34.381469,-21.4501 1.511485,-1.94362 3.85093,-0.10152 3.567946,-1.89238 5.907361,1.89283 12.612397,2.69552 19.320457,3.22742 5.97689,0.50132 10.537834,-0.89541 16.095906,0.81707 5.45926,-1.11723 5.63664,-0.26933 11.56844,-1.22479 5.09467,-0.69525 11.71452,-1.21007 15.61121,-2.00068 1.3752,0.95563 11.5385,-2.39074 7.26632,3.7261 -8.10924,13.1428 -24.02214,19.51362 -39.04881,18.79736 z M 97.95392,181.4334 c -0.539418,-0.63108 -0.707203,0.65254 0,0 z m 2.63549,-0.14263 c -0.008,-1.50862 -2.333096,0.84649 0,0 z m 17.87232,-0.0491 c -0.18527,-1.52811 -0.78964,0.15018 0,0 z m 1.40728,-0.33295 c -0.3423,-1.12444 -0.55304,0.76189 0,0 z m 1.15847,-0.082 c 1.53731,-1.84497 -2.32931,1.17791 0,0 z m -43.361645,-0.85816 c -0.695921,-0.72027 0.0652,0.53347 0,0 z m 62.742675,-0.68308 c -1.8915,-1.76163 -0.31134,1.20725 0,0 z m -66.141384,-0.28833 c -0.392119,-2.308 -2.412094,-0.29166 0,0 z m -1.508518,-0.20046 c -0.353487,-0.57527 -0.353532,0.57525 0,0 z m -21.166992,2.05078 c -8.631667,-8.60126 -9.914219,-21.79011 -9.621249,-33.35833 1.626285,-26.27243 22.695672,-49.375644 48.387842,-54.377803 24.340571,-5.307532 51.840941,5.040695 64.890621,26.668063 10.93499,17.23013 12.93927,40.78284 2.16389,58.55204 -7.46611,4.1398 -0.4557,-8.74956 -1.0827,-12.64994 2.63931,-19.58968 -4.799,-41.19963 -21.78622,-52.29213 -2.51839,-2.08518 -10.64723,-5.86572 -10.46235,-5.28736 17.56645,8.8204 29.98905,28.04919 28.24022,47.98637 0.0454,4.16087 -2.75386,12.83161 -3.63595,13.54306 6.17106,-20.48146 -2.53001,-44.88814 -21.55266,-55.36095 -17.43505,-10.32922 -41.398694,-7.9437 -56.05077,6.23196 -12.981834,11.85046 -18.698058,31.29531 -13.482196,48.17859 -2.027227,-1.1664 -4.035382,-11.39205 -3.638129,-16.45104 0.183422,-19.03937 12.564524,-37.28452 30.082986,-44.67114 -11.671977,3.48048 -21.637185,12.25186 -27.587304,22.81524 -7.930373,14.20765 -8.49126,31.54091 -3.817906,46.89836 0.13433,0.82505 1.386539,5.47831 -1.048125,3.57501 z M 122.27033,107.3942 c -0.26925,-0.55561 -0.43637,0.32497 0,0 z m -15.50472,72.94971 c 0.34774,-0.85256 0.45519,0.70529 0,0 z m 6.56917,0.0641 c 0.35354,-0.57527 0.35349,0.57528 0,0 z m -14.568939,-0.28284 c 0.01393,-1.08854 0.876345,0.92126 0,0 z m -9.893952,-0.23445 c 0.444399,-0.80695 0.614452,0.59241 0,0 z m -3.36914,-0.36161 c 0.328773,-0.56728 0.192874,0.55543 0,0 z m -8.056641,-1.23647 c 0.215663,-0.78606 0.478497,0.56016 0,0 z m 58.666992,-0.0819 c -0.17638,-1.13149 0.86,0.44752 0,0 z m -69.360351,-0.87891 c 0.345319,-1.0472 0.345319,1.0472 0,0 z"
         id="path2773" />
      <path
         style="fill:#24150c;stroke-width:0.146484"
         d="m 98.979311,224.21322 c -31.883879,-1.43765 -60.625948,-27.5443 -64.825303,-59.24346 -1.403117,-9.39681 -0.873616,-19.10318 1.740304,-28.24724 -2.479959,24.79606 5.45575,51.78915 25.363316,67.81909 21.442223,17.96507 54.567332,20.10295 77.856192,4.41049 18.78478,-12.1237 30.26904,-33.73428 31.43152,-55.88763 0.41807,-5.66337 0.29075,-11.35597 -0.15955,-17.01321 9.60763,30.82299 -6.76676,66.54349 -35.5055,80.69863 -11.00751,5.6442 -23.54895,8.31616 -35.900979,7.46333 z m 2.197269,-24.01471 c -6.353524,-0.65035 -13.202628,-2.04674 -18.546161,-5.4241 -1.792502,-2.75257 -7.016857,-5.03953 -0.409023,-3.92148 1.801814,-0.66179 6.028821,2.13974 6.519718,-0.49379 1.578292,0.66238 6.521053,1.08603 5.976855,-0.1279 2.235787,2.14958 3.611701,1.77183 6.964581,1.16123 -0.0478,0.69111 5.39535,-0.80948 6.06016,-1.14019 -0.0365,2.87256 4.83617,-0.9848 6.76371,1.13952 4.24456,0.16293 8.95892,-3.06837 11.50537,-0.8598 4.95095,-1.89846 -3.46924,6.25716 -6.36477,6.32072 -5.80982,2.47508 -12.19976,3.29594 -18.47044,3.34579 z m -18.896488,-6.7534 c -0.353531,-0.57525 -0.353486,0.57527 0,0 z m 15.820313,-0.95214 c -0.523038,-1.33202 -0.523081,1.33199 0,0 z m 17.926985,0.13887 c -0.27372,-0.54561 -0.19004,0.80058 0,0 z m -21.036727,-0.0931 c -0.456927,-0.84981 -0.510002,0.70488 0,0 z m 8.546457,-0.19592 c -0.64895,-0.91121 -0.55251,0.62543 0,0 z m 0.93536,-0.0696 c -0.50271,-0.60937 -0.3789,0.59737 0,0 z m -19.848638,-0.4481 c -0.478479,-0.56016 -0.215681,0.78603 0,0 z m 8.203125,0.16378 c -0.281489,-0.89261 -0.582268,0.50825 0,0 z m 2.736784,-0.1826 c -0.326427,0.158 0.332186,0.56026 0,0 z m 5.399119,0.1642 -0.34563,-0.17056 z m 17.35238,-0.0681 c -0.46878,-1.22681 -0.65575,0.74348 0,0 z m -37.353517,-0.13324 c -0.267289,-1.06211 -0.556924,0.77063 0,0 z m 32.603237,-0.16559 c -1.02641,-1.81251 -0.0624,1.2142 0,0 z m 11.04911,-0.1936 c -0.59276,-1.03121 -0.69873,0.7315 0,0 z m -1.9043,-0.30404 c -0.56973,-0.3312 -0.49193,0.54233 0,0 z m 2.2932,-0.218 c -0.66464,-0.87925 0.0995,1.03204 0,0 z m 2.83375,0.67944 c 0.47363,-2.09957 1.82657,0.70854 0,0 z m -30.203244,-0.41962 c 0.5603,-0.33207 0.157987,0.32641 0,0 z m -20.269258,-0.25569 c -0.553904,-0.92696 1.163992,0.3852 0,0 z m 8.753966,-0.41405 c -1.006012,-2.53164 0.870804,0.84632 0,0 z m 14.618926,-0.0359 c 0.53029,-0.86288 0.53025,0.86289 0,0 z m 0.73243,0.0733 c 0.32877,-0.56728 0.19287,0.55543 0,0 z m 12.01038,-0.0716 c 0.95257,-0.62325 -0.21728,0.73124 0,0 z m -16.624642,-0.0749 c 0.225431,-0.60493 0.462369,0.63821 0,0 z m 2.354434,0.0344 c 0.270855,-1.28636 0.695174,0.24029 0,0 z m 19.146898,-0.24177 c -4.1836,-2.39435 1.83832,-0.23934 0,0 z m -33.893283,-0.17571 c -0.283504,-0.92115 1.152066,1.16446 0,0 z m -5.980273,-0.1418 c 0.270291,-0.35584 -0.01555,0.67144 0,0 z m 4.941438,0.13187 c 0.5603,-0.33207 0.157987,0.32641 0,0 z m 3.275446,-0.14298 c 0.641759,-1.02842 0.322353,0.85445 0,0 z m 4.735418,0.0966 c 0.378852,-0.59738 0.502736,0.60935 0,0 z m 8.795314,0.0101 c 0.014,-1.08857 0.8763,0.92132 0,0 z m 13.98301,-0.15661 c 0.50275,-0.60937 0.37885,0.59739 0,0 z m -5.83416,-0.24251 c 0.70888,-1.47648 0.36911,0.83244 0,0 z m 2.58403,0.14245 c 0.56032,-0.33207 0.15798,0.3264 0,0 z m 0.48955,-0.11053 c 0.34776,-0.85257 0.45518,0.70532 0,0 z m 17.40901,0.0641 c 0.52978,-0.61739 0.52978,0.61739 0,0 z m -45.99609,-0.21973 c 0.142836,-0.78181 0.325799,0.80133 0,0 z m 43.4719,0.0106 c -0.84206,-1.26104 1.44731,-0.0161 0,0 z m 3.65029,0.11451 c -0.48983,-1.04622 1.07832,0.199 0,0 z m -4.40163,-0.15359 c -3.16812,-0.18925 1.1573,-0.54411 0,0 z m 1.81069,-0.48882 c 0.49193,-0.54233 0.56973,0.3312 0,0 z M 85.502749,188.7576 c 0.353531,-0.57525 0.353486,0.57527 0,0 z m 37.209271,-0.10121 c -0.0948,-0.914 0.71941,0.14585 0,0 z m -71.669721,-10.749 c -4.600582,-3.01707 -6.07813,-9.16421 -7.583073,-14.22154 -6.230745,-26.20038 8.858853,-55.16882 33.402982,-65.917421 22.834385,-11.14987 52.325242,-6.274173 69.975772,12.128891 15.56936,15.32236 22.34782,40.18198 13.81708,60.70208 -0.58153,4.12251 -7.32032,9.26405 -5.00391,1.54749 4.74608,-20.84863 -1.84909,-44.79662 -19.21064,-58.04502 -21.97027,-17.348335 -57.276865,-13.70714 -74.857487,8.19471 -11.518281,14.13945 -14.471484,33.72338 -10.384957,51.19772 -0.459455,1.26764 0.963651,3.48369 -0.155767,4.41309 z m 6.131395,-9.30336 c -0.675605,-1.8424 0.956271,0.71285 0,0 z m 91.915816,-0.1345 c 0.0832,-1.22847 0.53185,-0.14269 0,0 z m -92.475937,-1.62671 c -8.686774,-23.80134 6.483055,-52.18419 30.208779,-59.97155 21.699908,-8.085328 48.341488,1.81051 59.190998,22.37205 6.49244,11.47602 8.60813,25.9362 3.43826,38.31353 4.88572,-19.50791 -3.32815,-41.71905 -20.62028,-52.34765 -16.64924,-10.7578 -39.947162,-9.79672 -55.320685,2.88628 -14.555299,11.38918 -20.858771,31.52914 -16.49905,49.33905 z"
         id="path2771" />
      <path
         style="fill:#1d1109;stroke-width:0.146484"
         d="M 99.052553,224.21027 C 68.300129,222.84173 40.209699,198.62284 34.835156,168.21842 33.414949,160.9625 33.138,153.48296 34.029225,146.14287 c -0.643937,29.34411 17.044145,59.23261 45.046174,69.68065 25.937281,10.32692 57.790311,2.19226 75.526061,-19.39919 11.71175,-13.78177 17.75536,-31.93326 17.82881,-49.92746 4.18119,29.6486 -13.74997,60.44012 -41.28504,71.98489 -10.04154,4.41154 -21.13909,6.4568 -32.092677,5.72851 z M 46.858007,164.46531 c -5.381524,-6.50257 -4.039436,-15.83732 -3.143254,-23.59997 4.533771,-26.31182 28.759409,-47.349305 55.381917,-48.531804 21.88049,-1.841801 44.15984,9.343354 55.62902,28.088344 6.97381,11.32176 10.72386,25.42359 7.72383,38.55742 -2.01146,7.36456 -5.71092,1.66092 -4.50794,-3.04346 -1.20675,-21.51389 -14.67902,-42.85817 -35.55901,-50.00676 -18.26406,-7.001413 -40.120616,-3.22863 -54.702164,9.91157 -13.089718,11.27929 -19.61591,28.76781 -19.340705,45.81452 -0.221081,1.0399 -0.538705,2.18168 -1.481694,2.81014 z m 8.45035,-6.1032 c -4.154316,-23.83659 13.886689,-48.1226 37.27403,-52.83974 23.641543,-5.547783 50.375983,9.20998 57.116943,32.79523 1.83992,6.00181 2.47393,12.40563 1.58344,18.63238 0.0522,-18.46978 -10.37217,-36.91516 -27.36743,-44.77981 -20.09325,-9.86687 -46.639431,-3.31602 -59.447104,15.17489 -6.407785,8.93996 -9.419043,20.07622 -9.159879,31.01705 z"
         id="path2769" />
      <path
         style="fill:#150b05;stroke-width:0.146484"
         d="M 99.638491,224.18433 C 71.011592,223.09046 43.995505,202.18262 36.575501,174.414 c 9.815477,28.10642 38.543137,48.80217 68.557099,47.48851 28.25613,-0.42972 54.60911,-19.97419 64.23236,-46.38197 1.50578,-2.80381 -1.80837,6.53332 -2.7289,8.13388 -11.4451,25.34491 -39.16205,42.37835 -66.997569,40.52991 z M 46.85604,146.75322 c -3.648086,-5.6144 0.04901,-12.93168 1.73153,-18.74756 9.869544,-23.30445 35.975948,-38.243125 61.09104,-34.892772 25.16479,2.201406 48.97994,22.537862 51.34547,48.314842 0.4359,5.8127 -4.36709,4.55135 -4.49802,-0.52708 -6.9678,-19.02641 -23.47754,-35.11055 -43.92649,-38.24099 -21.641481,-3.816761 -45.032677,6.51853 -56.257678,25.52532 -3.953744,5.93947 -5.823323,13.01149 -9.312066,19.10267 z m 10.22874,-5.83374 c 4.784681,-24.54638 32.199899,-40.67037 56.15568,-34.98774 17.05983,3.64482 32.41703,17.08396 35.94901,34.51471 -6.66462,-19.30847 -25.89954,-33.80137 -46.545,-33.25497 -18.828644,0.0746 -37.021563,12.17274 -43.805481,29.84384 -0.57047,1.30096 -1.120701,2.61192 -1.754209,3.88416 z"
         id="path2767" />
      <path
         style="fill:#0b0501;stroke-width:0.146484"
         d="m 53.42651,125.99369 c 0.926879,-9.17064 8.537772,-15.86838 15.299656,-21.32191 21.527665,-15.958309 54.117114,-14.573378 73.710224,3.93036 4.10219,4.49083 9.92656,9.65424 10.01356,15.93576 -6.04257,-1.33455 -9.88926,-9.84061 -16.00295,-12.91864 -21.39462,-15.486928 -53.740272,-13.668447 -72.517625,5.20138 -3.516037,2.896 -6.408964,7.38392 -10.502865,9.17305 z m 16.357797,-6.01049 c 16.614316,-18.50056 49.254983,-18.92274 66.042683,-0.67349 -16.63895,-15.37605 -44.306297,-16.59581 -62.073852,-2.45675 -1.371378,0.98327 -2.533763,2.23987 -3.968831,3.13024 z"
         id="path2765" />
    </g>
  </g>
  <g
     inkscape:label="Layer 1"
     inkscape:groupmode="layer"
     id="layer1"
     transform="translate(0,-924.36216)"
     style="display:inline;opacity:1;mix-blend-mode:normal" />
</svg>
