<?xml version="1.0" encoding="UTF-8" standalone="no"?>
<svg
   width="128"
   height="128"
   viewBox="0 0 128 128"
   id="svg2"
   version="1.1"
   inkscape:version="1.2.2 (1:1.2.2+202305151915+b0a8486541)"
   sodipodi:docname="manblack.svg"
   xmlns:inkscape="http://www.inkscape.org/namespaces/inkscape"
   xmlns:sodipodi="http://sodipodi.sourceforge.net/DTD/sodipodi-0.dtd"
   xmlns:xlink="http://www.w3.org/1999/xlink"
   xmlns="http://www.w3.org/2000/svg"
   xmlns:svg="http://www.w3.org/2000/svg"
   xmlns:rdf="http://www.w3.org/1999/02/22-rdf-syntax-ns#"
   xmlns:cc="http://creativecommons.org/ns#"
   xmlns:dc="http://purl.org/dc/elements/1.1/">
  <defs
     id="defs4">
    <linearGradient
       inkscape:collect="always"
       id="linearGradient2102">
      <stop
         style="stop-color:#555753;stop-opacity:1"
         offset="0"
         id="stop2098" />
      <stop
         style="stop-color:#000000;stop-opacity:1"
         offset="1"
         id="stop2100" />
    </linearGradient>
    <linearGradient
       inkscape:collect="always"
       xlink:href="#linearGradient2102"
       id="linearGradient2104"
       x1="62.694489"
       y1="924.36218"
       x2="62.694489"
       y2="1052.4132"
       gradientUnits="userSpaceOnUse"
       gradientTransform="rotate(-90,64,988.3622)" />
    <filter
       inkscape:collect="always"
       style="color-interpolation-filters:sRGB"
       id="filter2961"
       x="-1.0771859e-05"
       width="1.0000215"
       y="-1.0785552e-05"
       height="1.0000216">
      <feGaussianBlur
         inkscape:collect="always"
         stdDeviation="0.00051749808"
         id="feGaussianBlur2963" />
    </filter>
  </defs>
  <sodipodi:namedview
     id="base"
     pagecolor="#ffffff"
     bordercolor="#666666"
     borderopacity="1.0"
     inkscape:pageopacity="0.0"
     inkscape:pageshadow="2"
     inkscape:zoom="5.6"
     inkscape:cx="63.214285"
     inkscape:cy="70.714285"
     inkscape:document-units="px"
     inkscape:current-layer="layer1"
     showgrid="false"
     units="px"
     inkscape:snap-page="true"
     inkscape:window-width="1920"
     inkscape:window-height="1152"
     inkscape:window-x="0"
     inkscape:window-y="0"
     inkscape:window-maximized="1"
     inkscape:document-rotation="0"
     inkscape:showpageshadow="2"
     inkscape:pagecheckerboard="0"
     inkscape:deskcolor="#d1d1d1" />
  <metadata
     id="metadata7">
    <rdf:RDF>
      <cc:Work
         rdf:about="">
        <dc:format>image/svg+xml</dc:format>
        <dc:type
           rdf:resource="http://purl.org/dc/dcmitype/StillImage" />
      </cc:Work>
    </rdf:RDF>
  </metadata>
  <g
     inkscape:groupmode="layer"
     id="layer2"
     inkscape:label="Layer 2"
     style="display:inline;opacity:1;mix-blend-mode:normal" />
  <g
     inkscape:label="Layer 1"
     inkscape:groupmode="layer"
     id="layer1"
     transform="translate(0,-924.36216)"
     style="display:inline;opacity:1;mix-blend-mode:normal;filter:url(#filter2961)">
    <g
       id="g357">
      <path
         style="fill:#8e837b;stroke-width:0.119868"
         d="m 60.489796,1045.6444 c -29.160943,-1.0426 -54.6397123,-27.9123 -54.006361,-57.11705 -0.1850288,-24.59248 16.99351,-48.30483 40.735989,-55.15422 23.343131,-7.4132 50.667472,2.29225 64.273286,22.62208 14.34929,20.68679 12.95804,50.88649 -3.89431,69.75389 -11.583641,13.4535 -29.40252,20.8864 -47.108604,19.8953 z"
         id="path3361" />
      <path
         style="fill:#85786f;stroke-width:0.119868"
         d="M 60.489796,1045.6119 C 36.29772,1044.545 14.361114,1026.2259 8.4355427,1002.8315 2.7024668,982.07203 10.105235,958.58603 26.537474,944.70649 c 18.040408,-15.72474 46.051593,-18.0635 66.552109,-5.79388 20.158877,11.497 31.806757,36.09807 27.436827,58.96068 -3.75392,22.61591 -21.961486,42.15421 -44.570312,46.65631 -5.071452,1.0774 -10.293983,1.4544 -15.466302,1.0823 z"
         id="path3359" />
      <path
         style="fill:#6f5a4c;stroke-width:0.119868"
         d="m 60.969272,1045.5967 c -24.347126,-0.796 -46.512524,-19.2006 -52.4838382,-42.7066 -6.1798396,-22.24784 2.8545892,-47.63197 21.6968262,-60.9785 20.127672,-14.74565 49.928972,-14.39591 69.360945,1.42056 17.991525,14.00941 26.398725,39.28804 19.402795,61.14044 -6.18509,20.9926 -24.937414,37.9671 -46.838911,40.6728 -3.686354,0.5104 -7.422264,0.6596 -11.137817,0.4513 z"
         id="path3357" />
      <path
         style="fill:#644a39;stroke-width:0.119868"
         d="M 60.309998,1045.5247 C 32.995076,1044.3369 8.8182781,1020.8046 6.8504111,993.52967 4.4284292,968.92059 19.680757,943.53575 43.093723,935.04459 c 2.197524,-1.18524 10.37934,-2.94456 8.99842,-2.51706 -2.479207,-0.009 -12.536168,4.48 -5.067355,2.79279 10.959685,-2.21551 22.48282,-2.8476 33.37236,0.0606 9.552568,0.46672 -11.437405,-4.49167 -2.95407,-2.63746 23.995462,5.26395 42.640372,27.74083 43.781012,52.22668 1.59176,24.32075 -13.89221,48.92945 -37.105288,56.96475 -7.586752,2.7862 -15.741289,3.9723 -23.808804,3.5898 z m -6.802543,-113.39025 0.292458,0.006 z m 19.960391,-0.12355 0.35366,0.008 z m -18.634345,-0.11868 c 0.458495,-0.27173 0.129281,0.26711 0,0 z m 17.980283,0 c 0.458496,-0.27173 0.129269,0.26711 0,0 z"
         id="path3355" />
      <path
         style="fill:#5a4231;stroke-width:0.119868"
         d="m 60.609669,1045.5248 c -25.178081,-0.6336 -47.451602,-20.7856 -52.6299309,-45.101 -6.2584827,-26.06308 9.1774919,-55.54319 34.3360889,-64.92875 -2.657588,0.41608 -8.403032,5.79758 -2.199601,3.13965 14.736897,-5.5355 31.510464,-6.21661 46.27984,-0.41274 2.327953,1.1946 6.061275,0.91634 1.926901,-1.2474 -2.245833,-1.08811 -4.832007,-2.51597 -0.96054,-0.83824 25.522983,10.66938 39.943013,41.82782 31.651563,68.21528 -6.03613,21.8587 -26.270623,38.801 -48.874043,40.8439 -3.162069,0.354 -6.351338,0.4616 -9.530278,0.3293 z m 3.71592,-34.0779 c -0.524841,-0.5457 -0.999255,0.5823 0,0 z m -1.228648,-0.083 -0.415011,0 z m 1.795527,0.01 c -0.405125,-0.3378 -0.169087,0.3007 0,0 z m 1.207651,-6.9305 c -1.410759,-1.0429 -6.813222,0.5048 -1.291778,0.1174 0.433292,-0.01 0.863086,-0.07 1.291778,-0.1174 z m -0.942431,-7.03135 c -0.120793,-1.16413 -4.960473,0.45763 -0.594468,0.0537 l 0.323608,-0.0292 0.27086,-0.0244 z m -0.20712,-13.54056 c 0.107926,-2.62175 -4.546816,0.92222 -0.07666,0.0103 z m 2.731338,-7.09467 c -1.792947,-2.63588 -10.659707,0.56627 -3.71592,0.0875 1.238809,-0.01 2.479838,0.0142 3.71592,-0.0875 z m -7.431848,-6.88461 c 3.029817,-0.66617 12.622566,0.84393 5.168106,-1.23348 -0.960024,-0.54809 -10.822489,1.92684 -5.168106,1.23348 z m -1.738091,-6.86226 c 2.786483,-1.50701 10.636369,0.84872 10.823193,-0.58177 -3.196791,-1.13144 -10.594664,-0.4626 -11.348513,0.66823 l 0.320626,-0.0527 0.204694,-0.0336 z"
         id="path3353" />
      <path
         style="fill:#533b2b;stroke-width:0.119868"
         d="m 60.369931,1045.4872 c -27.386461,-1.0905 -51.5713179,-24.766 -53.491455,-52.07473 -2.0317029,-22.32983 10.144501,-45.74228 30.52361,-55.6134 -2.44964,0.44967 -6.564833,6.10602 -1.400989,3.3077 16.495747,-8.03486 36.548615,-9.00959 53.28014,-1.09528 2.661273,1.44462 7.723336,2.46747 3.214093,-0.79225 -5.104925,-3.51096 4.347527,1.86357 5.844624,3.29597 19.663406,14.44918 28.183136,42.14525 19.648446,65.07779 -7.70419,22.0192 -29.861064,38.0477 -53.265774,37.9804 -1.451304,0.024 -2.903475,-0 -4.352695,-0.086 z m 7.671587,-6.7642 c 2.647365,-0.033 10.030096,-1.6677 9.451911,-2.1442 -9.001777,2.1611 -18.473067,1.9661 -27.496452,0.034 5.736893,2.1521 11.981343,2.5205 18.044541,2.1107 z m -0.102706,-6.3598 c 2.288027,0.1401 10.106942,-2.3056 3.423107,-0.904 -4.828149,1.3858 -14.996991,-0.204 -16.816061,-0.067 4.360856,1.1198 8.917292,1.3688 13.392954,0.9709 z m -5.471187,-3.8989 c -2.319377,-0.2878 -1.387834,0.1481 0.190814,0.084 z m 2.307474,0.036 -0.897386,3e-4 z m 2.2775,-0.1152 -0.415005,0 z m -0.175493,-9.3263 c 2.776294,0.1984 9.961666,-2.8989 3.211729,-1.1261 -4.232415,1.2151 -12.732685,-0.3251 -14.480669,-0.077 3.599787,1.2583 7.48673,1.6022 11.26894,1.2033 z m -1.173029,-7.2594 c 2.172146,0.5187 9.77475,-3.0022 3.455577,-1.3205 -4.473988,1.0451 -9.090392,0.2515 -13.546129,-0.4821 3.066791,1.6729 6.660673,2.0093 10.090552,1.8026 z m 0.821093,-7.0774 c 5.511672,-1.4197 2.028397,-1.7883 -1.412261,-0.7047 -2.300043,-0.2902 -10.413233,-1.1123 -3.742321,0.6768 1.69999,0.3107 3.4496,0.2831 5.154582,0.028 z m -0.162965,-7.34357 c 2.613157,-1.90111 -10.993051,-0.55229 -2.990031,0.35289 1.006456,0.0805 2.031917,-0.0285 2.990031,-0.35289 z m -0.332272,-13.35446 c -0.771267,-4.10817 -7.253366,1.60607 -1.201302,0.26498 0.421505,0.005 0.808972,-0.12841 1.201302,-0.26498 z m -5.285334,-6.67944 c 2.380996,-1.06541 11.851487,1.45697 5.328607,-1.93818 -1.265552,-0.98358 -11.469991,2.71566 -5.328607,1.93818 z m 11.732053,-6.04165 c -3.897683,-4.56184 -15.16996,-2.59031 -16.059763,-0.37117 5.320626,-1.35713 10.947275,-1.44268 16.059763,0.37117 z M 54.49637,964.39333 c 6.586002,-2.38409 13.909939,-1.80897 20.475696,0.34723 -5.981393,-3.92893 -14.175184,-3.86003 -20.614443,-1.20799 -1.415236,0.46468 -2.063446,2.13549 0.138747,0.86073 z m 0.119869,-8.08255 c 5.510891,-2.03587 16.300102,-0.2546 18.675955,-0.44478 -6.068767,-2.79427 -13.441263,-2.34309 -19.525855,0.17413 -1.846253,0.82995 0.949188,0.35266 0.8499,0.27065 z M 37.767653,937.5546 c 1.141268,-0.79647 -0.402503,0.47311 0,0 z"
         id="path3351" />
      <path
         style="fill:#4a3324;stroke-width:0.119868"
         d="m 60.489796,1045.4921 c -24.879147,-1.1333 -47.45653,-20.4702 -52.5099486,-44.8473 -5.0984544,-22.59415 4.9805146,-48.24618 25.0018376,-60.20654 -2.530433,0.91737 -5.660452,6.96919 -0.798337,3.43564 13.562723,-7.50959 29.798963,-11.5513 45.101958,-7.5004 7.13559,1.59676 13.577686,5.17764 20.206635,8.12222 2.173787,-1.579 -6.317454,-6.34442 -0.860765,-3.08398 21.921394,14.45146 30.647224,45.12457 20.187984,69.11096 -9.10195,21.8375 -32.59702,36.8501 -56.329364,34.9694 z m 8.031198,-6.5335 c 6.930957,-0.7762 13.994546,-2.5224 19.736484,-6.6519 -14.533104,6.9283 -31.98461,7.2365 -46.764214,0.8622 1.54174,2.0112 10.226894,4.8555 14.700443,5.3989 4.073342,0.6342 8.221543,0.7159 12.327287,0.3908 z m -1.770512,-6.1809 c 5.424027,0.2137 15.774924,-3.8793 16.950861,-5.2341 -11.959013,5.2124 -26.008912,5.8495 -38.040385,0.503 -2.409189,-0.2805 5.260078,2.9331 7.077503,3.2525 4.541023,1.2888 9.303408,1.7613 14.012021,1.4786 z m 0.571821,-4.0755 c 3.766699,0.1226 12.984978,-3.0341 12.732076,-3.6253 -10.273476,4.2745 -22.097819,3.8457 -32.443006,0.043 6.042841,3.0856 12.99343,4.0587 19.71093,3.5822 z m 0.539409,-9.5221 c 3.443312,-0.088 10.920658,-3.1457 10.610341,-4.1551 -8.808339,4.0201 -19.292488,4.1478 -28.194983,0.3399 0.464853,1.8873 7.725132,3.798 11.251152,3.9662 2.108577,0.174 4.235574,0.1229 6.33349,-0.151 z m 0.345054,-7.4856 c 2.729723,0.3538 10.828384,-5.075 4.101945,-2.2783 -6.525121,2.4239 -13.831978,1.4569 -20.159261,-1.1091 4.405097,3.6539 10.596008,4.2001 16.057316,3.3874 z m -0.578049,-7.0006 c 2.399019,0.1733 7.280735,-4.2318 2.14279,-1.8888 -3.937664,2.4508 -12.044447,-0.5188 -13.66114,-0.021 3.275505,2.3918 7.653423,2.6824 11.51835,1.9099 z m -1.680115,-6.97652 c 4.00104,-1.07714 2.411262,-2.75815 -0.691386,-1.10067 -1.949374,0.11637 -8.552418,-1.15916 -3.521767,0.98027 1.367509,0.36446 2.829515,0.4619 4.213153,0.1204 z m 0.354816,-13.1222 c 1.14599,-5.17754 -9.527867,0.60506 -2.163436,0.20562 0.724333,-0.0123 1.454468,-0.0416 2.163436,-0.20562 z m -7.107841,-6.53539 c 2.987135,-2.44716 10.029974,1.10035 10.686945,-0.70673 -2.771999,-3.96961 -12.980208,-1.58227 -11.636806,1.00991 l 0.949861,-0.30314 z m -3.517444,-6.28161 c 5.186314,-3.81712 15.873887,-0.10266 18.093647,-0.0108 -4.650828,-4.23891 -12.206476,-4.20452 -17.657734,-1.69663 -1.917551,0.85825 -4.209766,3.6705 -0.435913,1.70742 z m -3.279462,-6.24017 c 7.856117,-3.78591 17.319988,-3.02176 25.045331,0.71135 -4.370288,-4.98201 -12.014066,-5.19807 -18.153699,-4.3662 -2.987704,0.12825 -9.064729,2.97328 -8.839904,4.47583 0.67314,-0.21839 1.278709,-0.59372 1.948272,-0.82098 z m -3.296384,-6.96488 c 9.176276,-3.84026 19.700434,-3.85675 28.987979,-0.44607 -0.59258,-2.60188 -8.747072,-4.84568 -12.953814,-4.65412 -6.097883,-0.24416 -12.636582,1.12297 -17.229627,5.38169 0.386364,0.15562 0.805369,-0.23525 1.195462,-0.2815 z m 44.524107,-18.99398 c -0.549953,-0.49532 1.055705,0.61663 0,0 z"
         id="path3349" />
      <path
         style="fill:#442e20;stroke-width:0.119868"
         d="m 60.669602,1045.4889 c -25.02594,-1.0991 -47.842723,-20.5491 -52.7463956,-45.148 -4.5076493,-20.9587 3.7120556,-44.70453 21.3149706,-57.1991 -2.843995,1.8415 -4.421719,6.83515 0.51313,3.41771 17.64278,-13.25771 43.241473,-15.20708 62.360416,-3.88521 2.866606,0.67784 7.558344,6.30265 9.339857,3.95532 -1.42063,-2.31162 -4.618525,-5.26098 -0.39678,-1.80888 19.08405,15.58862 25.54338,44.20173 15.34882,66.58256 -9.33148,21.4113 -32.339958,35.7666 -55.734018,34.0856 z m 7.791451,-6.2858 c 9.873577,-0.997 19.780159,-4.6059 27.035661,-11.5521 -14.821708,9.9266 -34.471522,13.077 -51.154722,6.1076 -3.04301,-0.8121 -10.603413,-5.4625 -10.197894,-4.6581 9.375883,7.9714 22.220613,11.0358 34.316955,10.1026 z m -0.899012,-6.187 c 8.329363,-0.9683 16.789249,-3.8199 22.91586,-9.753 -12.626797,8.6826 -29.525582,11.0186 -43.735839,4.9586 -2.55172,-0.6632 -8.781047,-4.8453 -8.328737,-4.205 7.858448,6.9791 18.813813,9.7709 29.148716,8.9994 z m -0.02471,-4.1902 c 7.346169,-0.7491 14.681675,-3.2792 20.362469,-8.1048 -13.397786,8.7785 -31.968997,9.8986 -45.704999,1.2413 1.896586,2.624 10.002784,5.6912 14.870608,6.392 3.450529,0.6091 6.98061,0.7741 10.471922,0.4715 z m -0.334923,-1.4352 c 3.079525,-0.1223 6.445311,-1.3408 1.538497,-0.2768 -2.53949,0.7341 -11.504812,-0.4805 -10.022082,0.035 2.808817,0.3821 5.657969,0.4418 8.483585,0.2416 z m -10.997941,-0.7998 -0.292458,0.01 z m -0.809113,-0.1604 c -1.243707,-0.7211 0.198392,0.5388 0,0 z m 13.065668,-7.1276 c 4.782435,-0.3171 13.313415,-4.5798 13.944534,-6.6922 -9.602622,5.7809 -22.11752,7.5406 -32.275418,2.1425 -2.341765,-1.4541 -6.640992,-2.5336 -2.245086,0.1079 5.984012,3.9806 13.496929,5.435 20.57597,4.4418 z m -2.397364,-7.1414 c 4.271543,0.015 11.454911,-3.4735 12.209722,-5.6408 -7.548571,4.3168 -17.311116,6.0749 -25.171957,1.5375 -3.111846,-2.0413 -4.284312,-0.7701 -0.651726,1.0584 4.040502,2.4844 8.919599,3.3938 13.613961,3.0449 z m -0.333491,-6.9567 c 2.600618,1.0717 12.020769,-5.80172 5.614453,-3.0973 -5.292013,3.0028 -13.014333,0.587 -17.065706,-0.4384 2.756044,2.9521 7.534429,3.9625 11.451253,3.5357 z m 0.61736,-7.42654 c 3.298278,-0.10288 4.025432,-4.15814 0.392335,-1.64213 -2.588059,1.31954 -12.007255,-1.99433 -5.188585,1.61472 1.561439,0.41248 3.232153,0.44582 4.79625,0.0274 z m -0.07954,-12.58732 c 3.544284,-5.11915 -10.607021,-1.60442 -3.037271,0.11793 1.012354,0.0587 2.034658,0.0525 3.037271,-0.11793 z m -8.30528,-6.33583 c 3.6164,-3.49026 11.893018,0.57807 13.026072,-0.53627 -2.526342,-5.71158 -14.979278,-2.84626 -13.988218,0.92105 l 0.670302,-0.32681 z M 53.93342,972.9267 c 6.364959,-3.84324 14.825397,-3.46594 21.041224,0.50171 -0.228823,-4.22399 -9.773606,-6.02914 -14.38923,-4.95418 -3.09684,0.12333 -8.578313,3.1963 -8.312545,5.28998 l 0.569646,-0.26014 z m -4.692482,-5.41791 c 8.839408,-5.87116 20.935079,-5.57067 29.80171,0.0759 0.938296,-1.87435 -7.161158,-5.76328 -10.5663,-5.90624 -7.49965,-1.40554 -16.187999,0.46968 -21.096316,6.67817 l 0.963108,-0.34466 z m -3.835246,-6.59384 c 10.959402,-6.57601 25.248114,-6.65663 36.401685,-0.50835 1.313969,-1.56365 -6.083624,-5.80818 -9.075429,-6.38095 -9.608232,-3.12963 -21.416085,-0.83128 -28.30043,6.76331 -0.767886,0.99857 0.787958,0.36969 0.974174,0.12599 z"
         id="path3347" />
      <path
         style="fill:#412c1e;stroke-width:0.119868"
         d="m 60.789466,1045.4862 c -23.294073,-0.847 -44.548188,-17.8738 -51.306049,-40.0515 -6.5550289,-19.80365 -1.3698492,-43.26811 14.087041,-57.57047 1.607738,-1.58491 5.617885,-5.03807 2.14934,-1.45468 -2.84967,2.72041 -1.312141,5.65134 1.822491,2.04595 15.697598,-12.63211 38.115198,-16.89547 56.954316,-9.14754 6.607607,2.24645 11.943547,6.84803 17.923155,10.22154 3.62369,-0.13039 -5.745136,-8.2283 -0.19927,-3.64864 20.84024,17.77673 25.07509,51.37432 9.5754,73.90804 -10.94082,16.6808 -31.014043,27.1006 -51.006424,25.6973 z m 7.732133,-6.162 c 11.452705,-1.1405 22.855679,-5.9848 30.551932,-14.7295 -15.199776,12.3888 -37.142574,16.5683 -55.368223,8.6981 -4.462078,-1.514 -11.277445,-6.0974 -13.415259,-7.3364 9.709877,10.1484 24.445688,14.5296 38.23155,13.3678 z m -0.795177,-6.124 c 9.534619,-0.9477 18.980309,-5.009 25.465854,-12.1935 -12.319771,9.6475 -29.564893,13.8325 -44.422185,7.8734 -5.034827,-1.9128 -9.70492,-4.6932 -14.001312,-7.9231 8.177372,9.0621 20.940678,13.2942 32.957643,12.2432 z m -0.724419,-4.2574 c 8.699597,-0.8327 17.514935,-4.0388 23.656252,-10.4552 -7.13687,5.3021 -15.71746,9.0609 -24.703998,9.2784 3.762893,-0.06 12.267761,-2.5253 12.407566,-3.1875 -9.664466,3.7479 -20.753734,3.4454 -30.289783,-0.5564 4.404989,3.0451 14.656621,3.67 16.607233,3.8278 -9.625675,0.342 -19.04777,-3.2905 -26.784957,-8.8516 7.452779,7.6051 18.730639,10.4437 29.107687,9.9445 z m -19.577876,-5.2693 c -0.843797,-0.6647 0.12011,0.4884 0,0 z m 21.096867,-4.3086 c 5.689799,-0.3514 14.89255,-5.4726 15.909412,-8.3984 -9.019874,6.2068 -20.922104,9.3636 -31.39076,4.9359 -2.91098,-0.7806 -8.542322,-4.6686 -9.340075,-4.4101 6.035841,6.8128 16.098566,8.9458 24.821423,7.8726 z m -1.558294,-7.2082 c 4.411542,0.2197 13.203829,-5.345 12.413907,-6.5807 -7.527059,4.8658 -17.626218,7.3207 -25.79851,2.5449 -1.658003,-0.8935 -7.684837,-3.8351 -3.562039,-0.4832 4.654164,3.8714 11.058249,4.9823 16.946642,4.519 z m 0.05982,-7.0683 c 2.737902,0.8909 11.655491,-6.74217 5.191782,-3.5259 -5.803756,3.9079 -13.904455,0.7417 -18.766502,-0.3252 3.700246,3.3191 8.685134,5.2472 13.57472,3.8511 z m -0.982495,-7.13748 c 3.374659,0.11875 5.718046,-5.16134 1.162896,-1.8519 -2.546853,1.76299 -13.027698,-2.9418 -6.660928,1.40976 1.738125,0.6809 3.673048,0.78196 5.498032,0.44214 z m 0.284778,-12.46189 c 4.259727,-4.90194 -10.671048,-2.9937 -3.983041,0.0746 1.326926,0.13059 2.656388,-0.0339 3.983041,-0.0746 z m -9.668942,-5.74834 c 3.903541,-4.75969 13.776085,-0.0115 15.02492,-1.0155 -2.601868,-6.64166 -16.820566,-3.03417 -15.02492,1.01546 z m -5.083028,-5.17198 c 6.670434,-5.17061 16.794943,-5.8515 23.686516,-0.72488 3.122919,-0.61904 -5.286038,-6.02273 -8.196134,-5.51951 -5.975998,-1.0024 -13.42743,0.91942 -16.325223,6.58664 l 0.334439,-0.0368 0.500402,-0.30546 z m -4.601086,-5.34743 c 9.2245,-7.45887 23.422739,-8.00974 32.892221,-0.68989 3.612249,1.01269 -3.154327,-4.35998 -4.604466,-4.70631 -9.273561,-4.8829 -22.646134,-3.27947 -28.926943,5.49977 -0.191564,0.37216 0.607487,-0.18028 0.639188,-0.10357 z m -3.851335,-6.64023 c 10.46963,-6.98694 24.7715,-9.32235 36.099498,-3.02031 2.347924,1.73922 8.007813,3.73763 3.509897,-0.0566 -10.789739,-10.66109 -30.531164,-9.62239 -39.909777,2.39673 l -0.09868,0.47539 z"
         id="path3345" />
      <path
         style="fill:#392519;stroke-width:0.119868"
         d="m 60.969272,1045.479 c -23.372159,-0.7631 -44.7767,-17.8021 -51.5396694,-40.0675 -6.5504493,-19.98043 -1.0772871,-43.87264 14.8313644,-57.90744 -3.554525,2.54974 -3.250377,9.37395 0.854395,3.86371 13.41605,-12.2834 32.662293,-18.87421 50.652938,-14.38921 10.123324,2.23086 19.483041,7.41516 26.99911,14.50231 5.00383,4.18077 3.14327,-2.33736 0.43175,-4.37706 3.89759,2.95191 8.66237,9.16476 11.32969,14.36583 10.93918,20.36974 8.13511,47.28736 -7.45538,64.52276 -11.387279,12.97 -28.811705,20.5867 -46.104198,19.4866 z m 7.197601,-5.9254 c 13.533608,-1.1496 26.852564,-7.7943 34.884107,-18.9184 -4.997893,3.6378 -9.411317,8.1756 -15.175527,10.7172 -19.751026,10.0077 -45.618817,6.2093 -61.318079,-9.5388 -2.812572,-1.1928 4.543515,6.0844 6.608213,7.3816 9.843102,7.6069 22.594665,11.4436 35.001286,10.3584 z m -0.245229,-5.9877 c 11.476088,-1.2175 22.651503,-7.163 29.234351,-16.776 -11.735551,12.4828 -30.659732,18.28 -47.059179,12.4059 -7.154437,-2.43 -13.673651,-6.6527 -18.900724,-12.0999 7.750563,11.7723 22.946637,17.6625 36.725552,16.47 z m -0.719206,-4.5574 c 10.61868,-0.8285 21.048086,-5.9644 27.531365,-14.5233 -3.726463,3.7052 -10.74767,8.5796 -13.886081,9.5439 2.418424,-1.1887 8.583632,-5.7976 2.718203,-2.0211 -12.994502,7.5287 -30.237904,6.5795 -42.492362,-2.0232 2.110917,2.0279 9.37822,5.6544 2.880158,2.6319 -2.830611,-0.9448 -8.967756,-7.2328 -8.87402,-5.817 8.01679,8.8072 20.350291,13.1278 32.122737,12.2088 z m -26.371081,-9.216 -0.364449,-0.3065 z m 28.109172,-0.3673 c 7.250023,-1.4362 14.629598,-4.8755 18.730021,-11.2872 -6.334393,4.3843 -12.914927,9.2635 -20.945299,9.6233 -9.258999,0.8235 -18.243556,-3.1505 -25.273943,-8.8925 -0.201487,2.6528 7.03024,7.0741 10.706426,8.5914 5.265399,2.1942 11.15207,2.9355 16.782795,1.965 z m -1.437332,-7.2021 c 4.660241,0.036 14.243833,-5.9088 13.25893,-8.1744 -8.247345,7.1184 -21.351541,9.0764 -30.367667,2.2302 -2.151899,-2.0244 -5.832269,-3.3928 -2.053794,0.1823 5.04788,4.7407 12.359212,6.7698 19.162531,5.7619 z m -0.600429,-6.9656 c 3.405648,-0.7132 8.536299,-2.5467 9.079844,-6.26121 -5.96862,4.80871 -15.141024,6.29041 -21.514287,1.41851 -6.60638,-3.36201 1.595798,4.5611 4.305028,4.2215 2.614293,0.8237 5.420522,1.047 8.129415,0.6212 z m -1.643324,-7.04989 c 3.473991,1.02415 8.264296,-6.66835 2.442096,-2.33602 -2.491369,2.86972 -10.594948,-3.21732 -9.792575,0.14818 1.943159,1.80013 4.74441,2.59455 7.350479,2.18784 z m 1.316084,-12.28524 c 4.751747,-5.74937 -11.829686,-3.43268 -4.329157,0.15217 1.444468,0.15013 2.887897,-0.0822 4.329157,-0.15217 z m -10.454948,-5.4395 c 3.825083,-5.96399 14.575852,-0.0573 16.275521,-1.30925 -3.500165,-5.80139 -13.975161,-5.57419 -17.161925,0.35457 -0.652094,0.77546 -0.151433,2.05494 0.886404,0.95468 z m -4.868753,-5.25286 c 6.944648,-6.21261 18.641191,-6.54151 25.408689,0.11613 3.571231,0.26973 -3.372525,-5.56615 -5.394096,-5.87678 -6.948325,-2.96672 -16.55202,-1.62525 -20.933168,4.96564 -0.826162,1.33291 -0.633822,2.3595 0.918575,0.79501 z m -5.805531,-4.30505 c 8.733728,-7.97131 23.116934,-10.59752 32.944603,-3.06736 2.18549,2.27353 6.45875,3.67029 2.277359,-0.31923 -9.258966,-8.94032 -26.438632,-8.82302 -34.748817,1.30595 -0.206624,0.27749 -2.632075,3.7311 -0.473145,2.08064 z m -4.432994,-6.06665 c 11.744983,-10.77565 31.365257,-11.83625 43.743903,-1.56584 5.943048,3.51609 -1.711009,-5.24817 -3.917525,-6.35933 -11.154605,-8.66002 -28.584952,-7.07292 -37.811908,3.6759 -0.285757,0.41722 -4.519946,5.39005 -2.01447,4.24927 z M 56.131521,951.1002 c 3.863785,-1.25496 12.940983,-0.31052 13.601917,-0.52284 -3.593114,-1.27481 -14.269985,0.12706 -13.601917,0.52285 z m 16.672272,0.10032 c -0.405106,-0.33786 -0.169112,0.30065 0,0 z m -1.078817,-0.23974 c -0.405108,-0.33786 -0.169109,0.30066 0,0 z"
         id="path3343" />
      <path
         style="fill:#342115;stroke-width:0.119868"
         d="m 61.20901,1045.4647 c -24.894158,-0.6303 -47.643935,-19.8233 -52.916495,-44.0898 -4.0569824,-17.40033 0.3871484,-36.8537 12.357409,-50.23213 -0.481012,0.2106 -5.364041,10.8226 -0.421524,7.11479 11.654333,-15.6201 31.865932,-25.15145 51.38243,-21.76692 14.248528,2.22829 27.189553,10.45544 36.16878,21.61388 6.06919,2.90397 -4.60975,-12.40734 0.55555,-5.78446 14.23877,16.58927 16.85294,41.68683 6.92126,61.07564 -9.50512,19.7435 -30.983054,33.3024 -53.046186,32.1066 z m 7.040307,-5.6689 c 16.562942,-1.2554 32.469133,-11.2163 40.022143,-26.1392 -4.74716,3.7341 -7.63994,9.6092 -13.048892,12.7509 -10.165013,7.5244 -23.151652,10.1636 -35.595688,9.2414 -15.954912,-0.1295 -30.667375,-9.5184 -39.694913,-22.3256 3.029318,8.0419 9.841089,14.1175 16.839686,18.8102 9.28711,5.8771 20.518932,8.6915 31.477664,7.6623 z m -2.964775,-4.9144 c 14.822614,-0.9383 29.131934,-10.1467 35.775018,-23.4309 -2.787842,2.7351 -5.945497,7.7969 -9.902517,10.3861 -13.939124,11.1813 -34.847406,12.7209 -49.972519,2.9867 -5.671088,-3.5331 -10.504862,-8.3287 -14.340183,-13.783 3.092002,7.6298 9.688977,13.4139 16.518619,17.731 6.627879,3.7833 14.195972,6.543 21.921582,6.1101 z m 2.037761,-5.7505 c 12.716809,-1.1052 25.227814,-8.2768 31.254003,-19.7498 -3.100491,3.2771 -5.793743,7.1072 -9.692287,9.5009 1.914001,-1.4735 5.966622,-6.5625 1.85008,-2.408 -12.132648,11.5204 -31.945528,14.2751 -46.329939,5.3437 -3.487987,-2.0521 -6.648648,-4.6212 -9.548812,-7.4341 1.478518,1.7416 6.159872,6.6061 1.377946,2.3891 -1.966219,-1.6182 -8.870486,-9.9526 -4.391807,-3.3462 8.032048,10.9182 22.060909,16.8421 35.480816,15.7044 z m 1.558294,-9.5273 c 9.175208,-1.6015 18.255988,-7.0943 22.010907,-15.9131 -7.005464,7.5812 -16.21926,14.447 -27.054404,14.0456 -9.874557,0.1046 -18.954374,-5.4591 -25.311031,-12.6872 -3.015219,-0.8992 2.792423,5.5587 4.034189,6.5891 6.993619,6.3877 16.979768,9.2516 26.320339,7.9656 z m -0.839079,-7.299 c 6.903803,-1.2387 13.646696,-5.4868 16.462643,-12.1038 -5.903835,5.2921 -12.790303,11.0345 -21.276798,10.3029 -7.236112,-0.2981 -13.709972,-4.3124 -18.623336,-9.374 -1.463345,1.7584 5.227438,7.4543 8.35475,8.8166 4.604516,2.3593 9.976844,3.2424 15.082741,2.3583 z m -0.719215,-6.9592 c 4.132614,-0.082 11.539777,-6.06708 10.168095,-8.12638 -2.281945,2.64213 -9.669388,6.16408 -10.13133,5.56768 1.547935,-0.3324 -10.339216,-0.3448 -5.700826,0.3725 -4.782593,-0.147 -8.505616,-4.52103 -12.052423,-5.76764 3.223061,6.20014 10.979196,9.37554 17.716484,7.95384 z m -8.630531,-3.3681 c -0.972246,-0.7344 0.04095,0.5098 0,0 z m 7.949368,-3.89271 c 3.660409,0.48597 7.846842,-8.0419 2.032704,-2.9829 -3.703137,3.52612 -10.73967,-1.66373 -12.603349,-0.79887 1.83933,3.73177 6.878998,4.47886 10.570645,3.78177 z m 0.41578,-11.60936 c 4.981307,-6.58211 -12.825546,-4.27032 -5.224247,0.21013 1.72762,0.28014 3.5393,0.32895 5.224247,-0.21013 z m -11.356236,-5.04901 c 4.337399,-6.80927 15.086584,-1.76777 17.902447,-0.0436 -2.102364,-8.76467 -16.963345,-8.65954 -19.489788,-0.22063 -0.696999,2.03991 1.108312,1.15164 1.587341,0.26427 z m -5.521522,-4.60476 c 6.648545,-7.79229 20.312785,-8.57355 27.032726,-0.45588 5.780662,4.43938 -2.387884,-7.83227 -6.064669,-7.25751 -8.002261,-3.15666 -19.016883,-0.42974 -22.647906,7.88158 -0.727206,2.3398 1.156978,0.66611 1.679849,-0.16819 z m -4.204073,-5.74751 c 9.463426,-10.07417 27.395517,-9.94952 36.476291,0.59772 5.335033,5.11627 -0.143287,-4.20746 -2.512716,-5.33383 -11.038229,-9.55423 -31.200858,-6.5716 -37.332387,7.22239 0.803797,1.26439 2.518584,-1.91819 3.368812,-2.48628 z m -8.286064,-2.26715 c 8.649713,-9.8646 22.931946,-15.71275 35.770907,-11.18755 6.586709,2.17403 12.268494,6.45413 17.069138,11.37306 -2.138589,-7.24188 -8.047815,-12.84191 -14.508542,-16.39081 1.922647,0.50808 7.805159,2.73651 2.929028,0.43584 -10.842134,-4.82899 -24.074834,-4.05485 -34.156976,2.26842 2.621216,-1.49543 10.224261,-3.9169 3.519486,-0.56332 -4.594389,2.96448 -10.469486,9.7208 -10.623041,14.06436 z"
         id="path3341" />
      <path
         style="fill:#301e12;stroke-width:0.119868"
         d="m 60.07026,1045.4053 c -24.206468,-0.8348 -45.722107,-19.712 -51.4230595,-42.9748 -4.3098849,-16.47756 -0.919652,-35.02348 9.7736225,-48.4104 -2.318424,3.94134 -4.596386,12.18785 -3.456057,14.52948 3.432843,-5.66292 6.382896,-11.71807 11.251982,-16.36657 14.966087,-15.69946 40.024285,-20.62138 59.649715,-11.18359 12.261924,5.59878 21.797957,16.14067 27.297277,28.31326 0.94768,-4.49389 -2.65994,-12.38555 -3.11568,-14.69463 15.46409,20.23238 14.62184,50.96455 -2.02551,70.26925 -11.519927,13.9355 -29.928961,21.7621 -47.95229,20.518 z m 7.731519,-5.3143 c 20.768978,-1.3219 40.306321,-16.5763 45.411771,-36.952 -3.60271,4.935 -5.56078,10.9949 -10.02985,15.3504 -4.618907,5.2154 -10.411057,9.5312 -17.042033,11.799 2.178825,-4.4235 7.343213,-6.3733 9.941556,-10.5915 4.194717,-4.9999 7.679267,-10.843 8.818527,-17.3472 -6.337728,17.9157 -25.267915,30.3642 -44.263918,28.7124 -15.92245,-1.0917 -30.543184,-11.817 -36.641077,-26.5309 -1.849308,-2.318 1.527524,5.9269 2.469664,7.2634 3.765029,6.9721 9.404758,12.7591 15.64528,17.5626 0.676307,2.6974 -6.213386,-1.6834 -7.891959,-2.627 -8.602968,-5.3489 -14.587934,-13.9533 -18.907774,-22.9453 1.158847,8.0236 6.287087,14.9618 11.648923,20.8108 10.505749,10.7345 25.81172,16.7852 40.84089,15.4953 z m -0.479476,-10.8423 c 14.954744,-1.3693 29.475133,-11.1576 34.528857,-25.5942 -1.49847,0.8758 -5.924327,10.1188 -7.402339,9.4916 1.814038,-1.797 4.633834,-8.0305 1.377201,-2.6918 -9.826975,14.3801 -29.872912,20.6728 -46.044531,13.9383 -8.379305,-3.2755 -15.378521,-9.6375 -19.953655,-17.3319 1.033739,2.6834 6.661901,10.0963 1.57466,4.3167 -1.693312,-1.7917 -4.542818,-7.9213 -5.110926,-7.2145 5.981988,16.3116 24.011471,26.5092 41.030733,25.0858 z m 1.712773,-9.5217 c 11.47592,-1.8268 21.993571,-10.4361 24.857503,-21.88049 -6.485062,11.76569 -19.261813,21.35629 -33.25896,19.56919 -11.236402,-1.1891 -20.474193,-9.2217 -26.16623,-18.54355 3.750144,14.37575 20.203785,23.34175 34.567687,20.85485 z m -2.308972,-7.0843 c 9.231121,-1.0901 18.166817,-7.7565 20.197066,-17.09625 -5.383325,8.82275 -15.1681,16.29115 -26.022096,14.58185 -8.316082,-1.2276 -15.378289,-7.0322 -19.62374,-14.09582 2.360181,11.05662 14.710469,17.83442 25.44877,16.61022 z m 0.776005,-7.1746 c 5.883289,-1.2942 11.408682,-5.70647 12.754293,-11.76062 -3.867988,4.12164 -6.914623,6.99802 -11.388088,8.25992 -4.829835,2.1913 -10.357074,-0.1353 -14.711185,-2.0218 -2.247549,-2.17264 -8.772371,-8.62637 -4.772868,-2.09803 3.747386,5.87533 11.278881,9.15933 18.117848,7.62053 z m -0.659282,-7.26739 c 3.864321,0.23256 9.516241,-9.79621 3.688067,-4.48765 -4.969331,4.12216 -11.61243,1.87567 -15.752645,-1.58575 1.379129,5.16756 7.16648,7.57038 12.064578,6.0734 z m -0.580864,-10.6129 c 7.370933,-4.48457 -8.623672,-9.1881 -6.547943,-1.48212 1.465052,1.92494 4.404728,1.94085 6.547943,1.48212 z m 8.166488,-3.80305 c 0.510709,-7.72738 -9.490524,-10.53692 -15.475469,-8.12929 -3.692012,0.0745 -7.187648,8.68337 -4.461872,7.68597 3.610537,-6.46784 14.482178,-7.48901 18.167646,-0.63906 0.289771,0.25751 1.310923,2.48226 1.769695,1.08238 z m -26.52485,-3.05364 c 4.371023,-9.66353 18.29493,-13.26058 26.623226,-6.5435 2.730904,0.51435 7.086743,10.85402 5.887092,4.27989 -4.359207,-13.15856 -25.268809,-14.52892 -31.824633,-2.50644 -0.69698,0.39024 -2.850617,8.52472 -0.685685,4.77005 z m 39.389303,-1.85595 c -0.621712,0.012 0.406721,0.59726 0,0 z m -46.3682,-0.0624 c 5.516753,-13.02014 22.835049,-19.15502 35.162469,-12.03444 4.797562,2.69601 8.551307,7.02048 11.018372,11.90102 -1.144302,-10.80279 -12.344655,-18.26092 -22.718457,-18.17224 -10.661612,-0.29893 -22.16105,6.94526 -23.706749,17.98497 z m 52.708744,-4.2853 c -0.702837,-0.19838 0.132409,0.7798 0,0 z m -57.949679,-1.47866 c 8.216813,-15.99483 30.892604,-21.59283 45.770338,-11.61548 4.974956,3.20216 8.847403,7.88689 11.70493,13.0223 -0.634467,-6.0521 -4.127535,-11.47821 -7.853133,-16.11416 -2.088089,-1.75044 -4.161205,-4.13259 -0.125776,-1.43922 2.96277,2.22369 3.453853,1.63781 0.418164,-0.33353 -13.952999,-9.95466 -34.998663,-8.79275 -47.264609,3.39245 1.599416,-1.68407 9.823444,-6.37779 4.463188,-1.82943 -3.797961,3.41316 -8.81368,13.96995 -7.682348,15.74891 0.164058,0.0321 0.120087,-1.06817 0.569246,-0.83184 z m 24.89343,-12.61838 c -0.404958,-0.33793 -0.169284,0.30045 0,0 z m 2.65959,-0.24201 c -2.110615,-0.26319 -1.560954,0.46312 0,0 z m 1.420589,-0.011 -0.716787,-1.4e-4 z m 0.9568,0.003 -0.415011,0.002 z"
         id="path3339" />
      <path
         style="fill:#2c1b11;stroke-width:0.119868"
         d="m 60.07026,1045.4053 c -24.806363,-0.8891 -46.632634,-20.7144 -51.8489525,-44.664 -3.4100538,-14.67697 -0.8229355,-30.86119 7.8366705,-43.30073 -4.012038,9.26649 -4.539816,19.59559 -4.887161,29.55229 0.176873,19.99674 11.728049,39.87554 30.134582,48.32994 18.740585,9.2018 42.832855,5.826 58.016724,-8.6142 12.199157,-11.1209 18.559697,-27.94962 17.240397,-44.36029 -0.34273,-8.30962 -1.70509,-16.64704 -4.4443,-24.49546 12.99364,18.71424 11.82765,45.28095 -1.49165,63.52355 -11.337087,16.0016 -30.990003,25.3461 -50.55631,24.0289 z m 1.618226,-14.4451 c -20.150057,-0.6426 -38.319143,-17.6821 -40.048954,-37.79838 -1.368016,-5.56848 -0.368472,6.95538 0.725507,9.09288 1.960002,7.5737 6.210449,14.2556 10.715646,20.5354 -0.195119,3.297 -6.437004,-2.7808 -7.847897,-4.4495 -13.462385,-14.3594 -16.5681289,-37.37567 -6.890603,-54.61686 10.495014,-20.43835 35.720013,-31.67509 57.948118,-25.86596 22.086723,5.26037 39.826877,26.46693 38.958977,49.51367 -0.66602,13.79905 -6.98042,28.12605 -18.659051,36.00145 -4.251321,0.4407 2.619553,-5.8597 3.337244,-7.984 4.971457,-7.9901 7.611917,-17.51592 6.902757,-26.94001 -0.34204,15.93291 -9.61244,31.63081 -24.338479,38.26151 -6.437403,3.1092 -13.653112,4.6648 -20.803265,4.2498 z m 5.28022,-1.5399 c 20.42941,-1.1509 38.802454,-19.686 38.108584,-40.42651 -0.92192,7.39418 -3.19123,14.81191 -7.884087,20.73451 1.630422,-2.9134 4.284717,-9.6837 3.988197,-10.53192 -4.742056,17.38982 -22.941757,29.59632 -40.826176,27.65922 -16.051368,-1.3038 -30.307883,-13.7014 -34.105326,-29.31025 -0.220972,3.39755 4.254904,10.21395 3.823494,11.49685 -4.440899,-6.0708 -6.517867,-13.54155 -7.292318,-20.93956 -0.792725,20.74196 16.849953,39.87126 37.477411,41.27466 2.230212,0.2026 4.477649,0.2195 6.710221,0.043 z m 0.337722,-9.3492 c 16.784994,-1.4314 30.491036,-17.9094 28.765275,-34.69467 -0.570077,-9.56467 -3.525761,-19.24272 -9.244699,-26.96163 2.526606,1.38947 8.375739,6.91878 3.51312,1.90773 -11.187159,-11.03731 -29.377944,-13.64399 -43.337715,-6.5138 -4.691123,2.21616 -9.110042,5.31026 -12.108049,9.61232 1.827631,-2.0669 8.623536,-7.39781 3.83734,-1.87324 -6.33894,11.68592 -9.576916,26.40961 -4.37585,39.10809 5.411621,12.6298 19.183809,21.0622 32.950578,19.4152 z m -4.71893,-2.5914 C 47.372542,1016.767 33.75902,1003.423 32.45735,988.31865 c -0.866975,-16.85393 14.405696,-32.15002 31.174518,-31.92096 15.235346,-0.28555 29.660719,11.72031 31.657825,26.9281 2.111411,17.84141 -14.895684,35.18851 -32.702195,34.15391 z m 3.775861,-4.6587 c 13.933368,-0.8858 24.322295,-15.29943 22.41729,-28.81072 -0.385376,-8.80143 -5.352555,-17.31065 -13.27825,-21.35079 -7.895987,-3.87111 -17.935554,-3.38682 -25.451659,1.18838 -4.681945,3.69633 -8.695613,8.27561 -9.955478,14.31816 -3.721592,12.43887 1.732596,27.91107 14.325707,32.82277 3.750576,1.5742 7.890914,2.2319 11.94239,1.8322 z m -3.47619,-2.903 c -12.748187,-0.3645 -24.086539,-12.34301 -22.842624,-25.20507 1.129678,-14.65228 18.004028,-24.71611 31.61086,-19.74141 12.184033,3.81045 20.497396,18.94406 14.384925,30.80784 -4.439142,8.54594 -13.276578,14.74284 -23.153161,14.13864 z m 4.91461,-4.3858 c 9.710365,-1.8636 15.468085,-12.4489 14.088899,-21.8139 -0.292669,-8.84295 -8.294137,-16.10134 -17.039911,-16.1382 -8.740371,-0.59248 -18.058004,5.64751 -18.6801,14.83777 -1.819187,9.63583 3.624721,20.96373 13.762315,23.06053 2.571107,0.6243 5.291392,0.6696 7.868797,0.054 z m -4.91461,-2.7935 c -4.911533,0.2619 -9.183637,-4.75187 -11.459761,-5.56508 -5.561652,-4.66539 -6.12795,-13.44722 -1.610484,-19.02954 5.647337,-8.46828 18.921784,-9.94792 26.053499,-2.55757 5.869024,5.06682 7.287034,14.96386 1.473964,20.62218 -3.128975,2.48192 -6.443092,5.79761 -11.920776,6.46731 -0.841581,0.093 -1.691268,0.1161 -2.536442,0.063 z m 3.024053,-4.16763 c 8.54298,-1.73965 11.863718,-13.73689 6.827393,-20.30728 -5.348243,-5.93297 -17.758018,-4.42673 -19.579507,3.99689 -1.414468,6.73087 1.912672,15.69752 9.620224,16.41545 1.041065,0.12501 2.101776,0.0929 3.13189,-0.10506 z m -2.663026,-2.55183 c -5.71104,-0.76042 -11.830707,-6.924 -8.228157,-12.75834 3.496336,-6.72622 14.33168,-6.86692 17.943962,-0.12462 3.508924,6.23199 -3.374047,13.35697 -9.715805,12.88296 z m 2.742074,-7.54633 c 9.195638,-4.72435 -9.339424,-10.92467 -6.355042,-1.72732 1.334623,1.9122 4.237482,2.83204 6.355042,1.72732 z M 51.199986,963.37967 c 1.602364,-1.02422 -0.827543,0.84781 0,0 z m 24.153507,-0.54851 c -0.887524,-0.89814 2.464588,1.48404 0,0 z M 52.099,962.97295 c 0.127028,-0.38304 0.645577,0.24443 0,0 z m -3.775448,1.86553 -0.521676,0.42469 z m 0.96595,-0.59235 -0.413755,0.30659 z m 52.583588,32.76029 c -0.0947,-0.84741 -0.17629,1.08992 0,0 z m 3.27833,-9.26287 c -0.68421,0.087 0.54602,0.78831 0,0 z m -0.0286,-1.64496 c 0.0195,-0.83344 -0.38208,0.61228 0,0 z M 34.284171,964.26566 c 0.951104,-1.71297 -1.374699,1.59057 0,0 z"
         id="path3337" />
      <path
         style="fill:#29190e;stroke-width:0.119868"
         d="m 59.890455,1045.3617 c -29.299433,-1.514 -54.6939905,-28.9363 -53.1289728,-58.40015 0.2923618,-9.20409 2.7372016,-18.38519 7.3931418,-26.3534 -6.0064179,19.37935 -5.2469448,42.26475 7.484196,58.88295 12.208425,16.579 34.552646,24.9454 54.579025,19.7687 19.823767,-4.5302 35.970325,-21.3741 39.776175,-41.32906 2.55879,-12.49136 1.39124,-25.61519 -2.37796,-37.72759 12.4559,20.87267 9.0674,49.57815 -7.79385,67.06665 -11.583171,12.4808 -28.920536,19.4476 -45.931755,18.0919 z m 1.258623,-14.5796 c -17.330931,-0.961 -33.728534,-13.8465 -37.597369,-30.9624 4.3012,11.7825 12.980263,22.3476 24.923327,26.8473 16.204415,6.5952 36.25405,1.8089 47.375046,-11.806 3.837732,-3.5987 7.633088,-13.1899 8.423758,-14.8191 -4.22335,19.0554 -23.985548,32.2471 -43.124762,30.7402 z m 1.13875,-3.8353 c -18.62305,-0.3887 -35.196362,-16.2895 -36.801036,-34.77322 -0.866293,-3.59665 1.115896,-12.03716 0.820661,-12.64306 -2.185771,8.93922 -1.180528,18.57138 2.568095,26.95578 -8.440274,-12.78087 -6.831024,-30.38091 1.625235,-42.73557 -4.16869,3.14792 -5.893688,8.62301 -7.856589,13.30192 -4.484357,13.79068 -1.31839,29.28805 6.559914,41.22935 0.207227,5.0255 -6.09559,-3.0105 -7.266273,-4.6509 -13.4901317,-17.99721 -11.02473,-45.38735 4.836065,-61.16425 12.077817,-13.1019 31.342722,-19.06972 48.649511,-14.49452 19.856317,4.61584 36.862199,21.67425 39.041269,42.30948 1.84644,14.46464 -3.35934,29.94319 -14.43799,39.61689 -3.655064,-1.4171 3.63843,-7.5996 3.72771,-11.1486 5.55115,-13.48702 4.90641,-29.87466 -3.56375,-42.0294 -0.889243,-2.26841 -6.370013,-7.41204 -2.279534,-2.10771 8.135114,12.23079 9.294954,29.38486 1.115649,41.89171 3.332055,-7.52176 4.623625,-16.03757 3.120415,-24.16279 3.33569,19.14799 -10.139815,39.56979 -29.269584,43.56819 -3.46014,0.828 -7.034377,1.1852 -10.589768,1.0367 z m 6.705596,-6.9813 c 16.054626,-2.1569 28.42734,-17.9605 27.472648,-33.99687 0.005,-7.45555 -2.572062,-14.54962 -4.646147,-21.61229 -2.444532,-5.66881 6.461446,5.22957 6.997407,8.02843 3.047298,6.35883 -0.988293,-3.79644 -2.663167,-5.45636 -9.391591,-14.23851 -28.695812,-21.08259 -44.814726,-15.08263 -11.45054,3.96701 -20.943371,13.54727 -24.286601,25.25879 1.496583,-5.54979 7.741977,-13.99813 10.306192,-15.29438 -2.976158,5.16409 -3.636926,11.31067 -5.304141,16.96257 -2.747969,13.83477 2.620736,29.61854 15.189258,36.86984 6.440392,3.9254 14.287303,5.6277 21.749277,4.3229 z m -7.644337,-2.6487 c -14.443763,-1.1364 -26.55109,-13.9649 -28.474552,-28.04155 -1.568646,-15.93911 11.72047,-31.0861 27.491725,-32.57825 15.552275,-1.97026 31.586985,9.3419 34.317073,24.91517 2.585632,13.42199 -6.201031,27.07443 -18.042688,32.89873 -4.723586,2.2747 -10.060801,3.3396 -15.291558,2.8059 z m 5.553681,-4.4398 c 14.151228,-1.2265 24.329354,-16.05809 22.121522,-29.75428 -0.673927,-6.50241 -3.458685,-12.93531 -8.390945,-17.33155 3.987294,3.14354 1.589556,0.77623 -0.79306,-0.90505 -10.945862,-8.02187 -28.434978,-5.74029 -36.668788,4.38178 1.740183,-1.53047 4.777881,-4.00322 1.457588,-0.59532 -10.929069,13.04612 -6.235113,36.32712 10.01311,42.68442 3.862913,1.5619 8.13439,2.0564 12.260573,1.52 z m -4.781121,-3.1257 c -4.628834,0.6852 -13.092917,-5.8479 -13.198259,-5.4729 -6.683015,-5.53596 -10.779797,-14.81923 -7.923565,-23.41304 3.381911,-12.69788 18.425474,-20.02741 30.662162,-15.64011 11.811296,3.42077 19.415695,17.45349 14.686156,29.05599 -3.744124,9.45396 -14.029929,16.21526 -24.226494,15.47006 z m 4.421509,-3.8798 c 11.412889,-1.3783 17.987056,-14.39395 15.324469,-24.9419 -1.526616,-9.17536 -11.548124,-14.49192 -20.276808,-13.13573 -7.896108,0.70317 -15.366577,6.84303 -15.859965,15.0747 -1.8484,10.95688 6.494344,23.68453 18.327229,23.20743 l 1.246046,-0.06 z m -5.034475,-3.3602 c -5.522079,-0.1609 -9.196857,-5.51167 -11.453891,-10.00358 1.177436,2.16956 1.871555,5.79684 -0.531897,2.02374 -6.353347,-8.49839 0.675755,-21.14926 10.333805,-23.14619 10.730135,-3.11674 23.129934,7.0906 20.76789,18.38196 -0.380262,2.95176 -6.16045,10.17829 -2.981508,3.44349 -1.901696,4.67587 -7.74899,10.03398 -13.934384,9.52628 l -1.101732,-0.065 z m 5.206221,-4.00909 c 7.757231,-1.95586 10.288214,-12.05526 7.457995,-18.72363 -4.832021,-7.7888 -19.466752,-6.51822 -21.485764,2.91353 -0.968483,6.79536 2.701182,15.62386 10.366405,16.22862 1.232952,0.0789 2.475324,-0.0798 3.661364,-0.41852 z m -4.666813,-3.03432 c -3.509623,-1.22254 -4.242213,-3.98342 -4.515397,-2.20353 -5.859911,-3.80616 -3.039495,-12.83479 3.123803,-14.54145 6.350429,-2.67182 14.777601,3.71234 12.759309,10.43975 -2.083562,3.75862 -5.811316,7.02261 -11.367715,6.30523 z m 3.473646,-6.13809 c 8.376826,-2.59357 -2.119261,-12.13445 -6.100807,-5.50166 -1.935433,3.41698 3.057778,6.79002 6.100807,5.50166 z m 12.571885,2.15903 c -0.299458,-0.42107 -0.12448,1.78049 0,0 z m 0.975801,12.45167 c -0.281906,-0.5164 -0.392417,0.9216 0,0 z m -36.9399,-33.54894 -0.424693,0.52168 z m 59.954659,11.32799 c -0.26377,-0.85618 -0.0923,0.8375 0,0 z m -0.27772,-1.10129 c -0.26711,0.12929 0.27173,0.4585 0,0 z m -0.13943,-0.90651 c -0.43926,-2.26265 -0.0315,1.40583 0,0 z m -0.4714,-1.65422 c -0.67901,-1.07467 0.77705,2.08995 0,0 z M 31.364146,962.59762 31.10418,962.44329 Z m 66.884242,58.19908 c 0.289293,-0.4707 0.289267,0.4707 0,0 z M 23.35043,999.32361 c 0.464181,-0.93016 0.232068,0.81839 0,0 z m 81.29055,-0.87253 c -0.42637,-1.54974 0.82526,-0.23819 0,0 z"
         id="path3335" />
      <path
         style="fill:#23140b;stroke-width:0.119868"
         d="m 60.489796,1045.4047 c -30.502017,-0.9941 -56.6043995,-30.677 -53.5526951,-61.07449 0.4603909,-5.77731 1.6644939,-11.53929 3.9991971,-16.86238 -4.1693954,20.13624 -0.05625,43.04467 14.971791,57.87937 15.61113,15.9921 41.616862,20.6602 61.588297,10.3757 16.481624,-8.0656 28.198534,-24.7495 30.252554,-42.98259 1.22647,-8.61028 0.86586,-17.44513 -1.06816,-25.92496 10.23233,22.23072 2.76314,50.49735 -16.35214,65.52175 -11.079664,9.0408 -25.558348,13.7823 -39.838844,13.0676 z m 1.078817,-18.5666 c -17.209991,-0.9219 -33.006848,-14.5939 -35.385252,-31.85301 -1.474462,-8.90376 0.182542,-18.50614 5.457946,-25.93729 0.241182,9.0704 -2.602483,18.36516 0.640328,27.21502 3.639198,12.62828 14.878975,23.01168 28.191013,24.15078 14.359418,1.6303 29.052492,-7.3271 34.054347,-20.92324 3.564274,-8.4127 2.906841,-17.73886 1.5544,-26.53472 -0.0877,-7.67465 4.082865,2.6909 4.659015,5.21401 4.81273,15.58531 -2.032618,33.55005 -15.654018,42.39935 -6.839339,4.6341 -15.252025,7.0793 -23.517779,6.2691 z m 0.119873,-9.6326 c -11.54976,-0.8638 -21.804128,-9.0733 -25.860683,-19.81543 -4.562537,-8.88125 -2.880617,-19.85294 2.9239,-27.743 7.524111,-10.80868 22.370348,-15.83423 34.811429,-11.20646 13.150518,4.16967 23.903594,18.21202 20.613414,32.32315 -2.608148,12.66714 -12.489153,24.44734 -25.793611,26.15764 -2.209233,0.3612 -4.462557,0.4728 -6.694449,0.2841 z m 5.037618,-4.0835 c 13.378913,-1.1203 23.454385,-14.20659 23.088459,-27.27193 0.803718,-3.74679 -3.294306,-12.17663 -2.26775,-12.69322 6.015684,8.45737 6.062996,20.24019 1.291586,29.27315 9.488234,-14.77841 0.154944,-36.72265 -16.513844,-41.29167 -16.575719,-5.52621 -36.350815,7.73071 -36.980021,25.3388 -0.425178,6.52639 1.40859,13.22979 5.319744,18.49687 -6.580432,-9.64505 -6.946899,-23.7807 0.735804,-32.93248 -7.071458,13.06232 -2.429402,31.49628 11.060587,38.40128 4.337688,2.3025 9.381986,3.3282 14.265435,2.6792 z m -4.55815,-3.4228 c -12.564282,-0.7437 -22.538317,-14.37861 -18.644152,-26.55307 0.529244,-3.88449 -1.982904,6.46395 -0.841688,8.74044 0.110191,2.65563 2.817493,8.92863 -0.100853,3.37613 -5.593292,-11.36464 1.508962,-26.11585 13.396435,-29.82621 12.317016,-4.57641 27.799493,2.95463 30.720766,16.00287 1.281972,5.43348 0.355186,11.39865 -2.710764,16.08784 1.7516,-3.42246 1.595139,-12.70737 0.936436,-12.64073 2.00464,12.98633 -9.037784,26.80673 -22.75618,24.81273 z m 3.719071,-3.5328 c 10.537959,-0.8022 17.721639,-11.64284 16.949588,-21.69911 0.23336,-8.45115 -6.905877,-15.72008 -15.123829,-16.68707 -9.937529,-1.96894 -22.25748,4.65265 -22.564121,15.59742 -0.885311,9.56869 4.655564,20.21526 14.533228,22.41846 2.022915,0.4976 4.137441,0.6351 6.205134,0.3703 z m -4.018741,-3.65 c -8.138437,-0.8 -13.399278,-9.69028 -11.809521,-17.36085 -1.354632,2.16852 0.535703,11.72466 -2.025395,4.88532 -2.963561,-9.65019 6.477609,-19.16281 15.966469,-18.97898 10.051812,-0.45292 19.772159,10.88854 15.350445,20.59633 -2.010455,5.58038 -0.296042,-8.10391 -1.452802,-5.8673 2.011173,9.03321 -6.809939,18.59308 -16.029196,16.72548 z m 4.962465,-3.85268 c 7.549469,-2.05622 11.240234,-12.09353 7.808455,-18.79197 -5.081689,-7.8941 -19.780734,-6.8632 -22.397783,2.5712 -1.620778,8.23462 5.156039,19.31445 14.589328,16.22077 z m -4.003513,-3.10232 c -4.683776,1.51225 -6.188104,-10.53651 -6.412041,-4.51083 -5.20901,-5.39345 1.366996,-13.28913 7.787955,-12.67152 6.09144,-0.23869 11.777904,6.75894 7.876087,12.29102 -1.692965,1.32675 -0.239396,-3.86436 -1.502049,-0.11653 -0.894612,3.81684 -3.950074,5.74101 -7.749952,5.00786 z m 2.411718,-5.19889 c 8.762045,-1.79277 0.139059,-13.33331 -5.387513,-7.26062 -3.669101,3.23063 1.534586,8.74638 5.387513,7.26062 z m 19.35905,-7.28545 c -0.471164,-0.45867 0.345443,0.93248 0,0 z m -43.287173,22.69084 -0.36445,-0.3065 z m 46.520311,-1.5342 c -0.140079,-0.6632 -0.552432,1.3606 0,0 z m 0.628792,-0.9717 c -0.133485,-0.6875 -0.629732,1.5413 0,0 z m -66.402152,7.2031 c -9.225439,-10.2634 -10.088871,-25.78295 -6.222532,-38.50519 5.667155,-19.62207 24.620748,-34.08037 44.924773,-34.99847 20.680724,-1.62513 41.664467,10.863 49.548747,30.15059 5.67778,13.05273 5.5459,29.23171 -2.65308,41.18117 -4.19111,1.7193 -0.44658,-6.5039 -0.43544,-9.04841 2.89501,-16.7312 -3.62227,-35.35097 -18.026163,-44.9335 -1.651108,-1.25788 -8.827019,-5.06111 -8.200473,-3.74118 17.201054,7.96543 28.069526,29.44012 21.336426,47.72289 1.95811,-11.69935 -0.10677,-24.42771 -7.804538,-33.75015 -8.960504,-11.58571 -24.64538,-17.33928 -38.948099,-14.0025 -18.263114,3.85174 -32.197912,22.07837 -30.586505,40.77547 0.07051,2.63454 1.242108,10.34768 -0.298121,3.99312 -4.373211,-17.74497 5.724543,-37.38787 22.297292,-44.81779 3.085621,-1.97366 -5.925069,1.95855 -7.625704,3.46625 -14.344252,9.29421 -21.63229,27.49617 -18.65265,44.20085 -0.307859,3.32915 3.52841,10.98035 1.346067,12.30685 z M 79.60883,949.71465 c -0.378372,-0.52229 -0.184373,0.49503 0,0 z m -68.621069,17.44087 c -0.0042,-0.64517 0.461553,-0.13513 0,0 z"
         id="path3333" />
      <path
         style="fill:#1d1008;stroke-width:0.119868"
         d="m 60.309998,1045.3671 c -28.051532,-1.1965 -52.5353431,-26.1298 -53.521343,-54.14023 -0.2616921,-5.10251 0.1999242,-10.259 1.5486846,-15.19373 -2.8125064,24.45336 10.1456224,50.80156 33.0718894,60.97256 20.079264,9.327 45.579732,4.8221 61.063951,-11.073 12.71871,-12.7312 18.72721,-31.37661 17.18897,-49.17431 5.16412,19.94195 -3.12196,41.97771 -18.72242,55.06531 -11.085204,9.6451 -26.003999,14.4495 -40.629732,13.5434 z m 0.83908,-18.6561 c -18.728001,-1.0032 -35.368703,-17.8593 -35.059996,-36.81898 -1.139932,-2.99804 1.378612,-11.72765 3.31683,-5.16598 0.89886,7.80492 2.474006,15.89566 7.486146,22.22776 7.800812,10.9589 22.431946,16.5651 35.476061,12.8634 14.313698,-3.7347 25.04781,-17.4747 25.551067,-32.20387 -0.141107,-2.77891 2.268564,-9.14018 3.768654,-3.50517 2.55428,15.14903 -6.177117,30.74624 -19.4884,37.93744 -6.35806,3.5626 -13.766692,5.3474 -21.050362,4.6654 z m 0.29967,-9.8145 c -17.199426,-0.976 -30.611681,-20.78604 -24.020407,-36.96714 0.569452,2.42674 -0.493939,10.80539 1.652865,15.10002 3.549002,12.71152 17.757337,20.99822 30.560107,17.82092 10.255577,-1.8661 17.910505,-10.7916 19.887546,-20.76266 1.435654,-3.30336 0.26836,-12.42732 0.994429,-11.9916 6.21103,15.53653 -5.742688,34.44316 -22.125706,36.52266 -2.294437,0.3671 -4.63242,0.4591 -6.948834,0.2778 z m 0.0599,-7.33 C 49.1124,1008.4086 39.237007,994.13866 44.142027,982.29093 c -0.110374,8.98522 3.510784,19.20267 12.478137,22.77527 10.045046,4.4057 22.795239,-1.8111 25.671807,-12.36685 1.195791,-2.29966 0.828459,-10.80558 2.075571,-9.13072 3.890702,13.51263 -8.883511,28.23517 -22.858894,25.99787 z m -0.05695,-7.1791 c -8.098173,-1.2145 -13.896696,-10.82095 -10.564355,-18.45779 0.18002,7.28049 5.241025,15.63719 13.318695,15.38584 7.630655,-0.0485 12.459732,-7.84987 12.772142,-14.78204 2.927955,5.26667 -0.485653,13.07311 -5.817819,16.02559 -2.87023,1.7568 -6.39096,2.5046 -9.708663,1.8284 z m -44.428406,-5.70717 c -2.597333,-5.77527 -3.275899,-12.16391 -2.128726,-18.38168 3.180269,-21.73081 22.73975,-39.4253 44.564962,-40.98854 21.527289,-2.15328 43.733122,11.21337 51.103632,31.71774 2.93845,7.66337 3.92931,16.29154 1.60033,24.25271 -4.38124,6.01814 -3.67626,-5.8029 -4.2038,-8.59455 -2.26775,-19.72474 -19.233372,-36.88996 -39.220897,-38.35402 -19.488987,-2.45176 -39.966516,9.70286 -46.263546,28.49339 -2.538066,6.80473 -3.049768,14.12519 -3.484477,21.31032 -0.456484,0.53784 -1.29912,0.7605 -1.967478,0.54463 z m 45.512886,-1.24209 c -4.837214,0.84296 -5.594109,-8.60904 -5.595392,-8.49283 -1.557681,6.08393 -3.11258,-4.75536 0.326104,-5.53672 4.420078,-5.1131 15.070245,-2.84202 15.435863,4.26093 0.308737,4.56538 -1.78064,3.1384 -2.170034,0.27179 1.539133,5.58629 -1.984023,10.5264 -7.996541,9.49683 z m 2.665244,-4.18805 c 8.363069,-0.84031 2.831269,-13.17703 -3.758197,-9.12034 -7.03112,1.96033 -1.841546,10.78229 3.758197,9.12034 z m -23.511211,-1.13076 c -3.175084,-12.36959 7.730819,-24.78461 19.966517,-25.64015 13.535107,-1.89907 27.862457,11.26831 24.641206,25.13084 -1.19148,-1.20819 -0.925387,-9.8553 -4.309597,-12.65266 -5.963544,-9.26225 -19.255899,-12.78786 -28.751042,-6.91538 -7.38064,4.23721 -11.613138,12.79078 -11.185086,21.19947 -0.120666,-0.37404 -0.241332,-0.74808 -0.361998,-1.12212 z m -6.848077,0.47837 c -3.927017,-14.70411 7.935215,-30.02098 22.292752,-32.81751 15.231012,-3.73905 32.893921,6.11164 36.124045,21.81636 0.959363,2.30041 0.787935,10.70181 -0.356649,8.81655 -0.155422,-14.94508 -13.156326,-28.46595 -28.202281,-28.63496 -14.708144,-0.48692 -28.646834,11.73397 -29.426465,26.57425 -0.149552,1.41443 -0.225979,2.83703 -0.431402,4.24531 z m 13.884718,-0.93686 c -3.387554,-10.30186 8.037242,-20.43147 18.037777,-18.08816 7.949014,1.16328 15.016208,9.50777 12.553847,17.65968 -1.906696,-5.70205 -3.917838,-12.81532 -10.637817,-14.30691 -8.284162,-3.0773 -17.872511,3.21129 -19.231272,11.72187 -0.250549,1.00212 -0.425225,2.02308 -0.722535,3.01352 z m -24.344439,-0.21858 c -2.265767,-19.34529 12.943662,-38.06543 31.798136,-41.51928 18.703448,-3.89775 39.417763,7.4736 45.421061,25.77505 1.65864,4.68222 2.45066,9.69766 2.09311,14.6621 -1.19996,-7.69153 -2.75744,-15.58094 -7.53046,-21.95716 -10.065218,-14.64503 -30.617903,-21.1057 -47.051072,-13.92769 -14.287507,5.83036 -24.316592,20.57279 -24.547586,35.9987 z m 79.022137,-0.19388 c 0.21701,-1.38085 0.25199,0.77586 0,0 z m -2.99614,-9.02429 c -0.10912,-0.66351 0.54748,0.56897 0,0 z m 19.06616,-4.68776 c 0.22116,-0.29119 -0.0129,0.54941 0,0 z"
         id="path3331" />
      <path
         style="fill:#190d06;stroke-width:0.119868"
         d="M 60.549728,1045.3724 C 35.42268,1044.2536 12.46109,1024.4933 8.0205767,999.66132 7.0201432,994.60571 6.7009173,989.41249 7.1139585,984.27425 c -0.2290529,26.18585 19.0242835,51.63155 44.9675865,56.93195 22.695968,5.3697 47.847767,-5.7036 59.635925,-25.7399 5.80006,-9.3961 9.08228,-20.37965 9.11177,-31.4384 2.50406,24.7922 -13.78745,49.7534 -37.231923,57.9542 -7.336657,2.7082 -15.239445,3.9035 -23.047589,3.3903 z m 0.539409,-18.7807 c -16.509185,-1.4613 -32.584921,-14.4544 -34.114951,-31.54778 3.920622,-4.12394 4.5719,6.74078 7.277992,9.08038 7.329535,12.3071 22.524586,19.7216 36.69451,16.4342 12.731117,-2.6987 23.001897,-13.0463 26.78472,-25.33531 4.006292,-5.63668 3.379732,4.22957 1.729203,6.53371 -5.293078,15.5929 -21.984914,26.3781 -38.371474,24.8348 z M 28.24516,994.06601 c -0.289261,-0.47074 -0.289293,0.47073 0,0 z m 33.203588,22.69269 c -14.787385,-0.9967 -27.78712,-15.9261 -25.120704,-30.77271 1.174917,5.92145 2.718816,13.06483 7.227077,17.96571 8.039873,10.6108 24.413871,13.0479 35.164078,5.1673 7.66491,-5.0021 12.013797,-13.9266 12.41212,-22.91169 1.916389,0.25885 0.647225,8.02954 -0.332088,10.83176 -3.865248,12.18223 -16.406514,21.29593 -29.350483,19.71963 z m 1.018877,-7.1811 c -10.938881,-0.5404 -20.507308,-11.06912 -19.277415,-22.09621 2.209852,4.86883 3.185597,10.54713 7.601002,14.11921 6.801921,6.4108 18.572524,6.9879 25.546134,0.5386 5.24283,-1.7202 6.335828,-13.47734 8.539774,-13.33265 0.233983,11.58905 -10.809553,22.02025 -22.409495,20.77105 z m 0.179806,-7.0558 c -6.250106,0.1411 -11.077035,-5.95972 -12.404699,-11.58869 0.631378,-4.91411 3.29321,5.47008 6.537184,6.13257 5.168897,4.61482 13.811405,2.90619 17.25015,-2.99904 1.855828,-2.60279 4.793277,-9.32992 3.546022,-2.4683 -1.349215,6.65947 -8.155231,11.70016 -14.928657,10.92346 z m -0.305473,-7.18476 c -4.154581,0.92045 -7.443295,-11.40129 -2.442286,-4.57632 3.750023,3.57515 10.195054,-1.70058 10.898821,-2.40824 0.355854,4.32979 -4.257909,8.19563 -8.456535,6.98456 z m 37.201009,-2.8533 c 0.700053,-0.41751 0.04606,0.59527 0,0 z M 55.945882,988.0933 c -2.300653,-7.45653 9.015314,-12.40315 13.9427,-7.14629 3.187764,0.50454 2.513435,10.49584 0.68086,4.22759 -3.268898,-5.99051 -13.524369,-3.98433 -14.380316,2.78714 0.0048,0.0892 -0.178224,0.39856 -0.243244,0.13156 z m -38.163349,-0.89708 c -4.316627,-4.17076 -1.390962,-11.00731 -0.532128,-16.09614 6.356461,-21.70614 29.688752,-36.1261 51.935748,-33.45473 21.759465,2.00667 41.870767,20.27182 43.073397,42.59198 0.66822,4.23876 -2.71085,8.80156 -3.83076,2.45878 -3.57943,-17.78833 -18.1379,-33.33698 -36.313335,-36.30722 -18.911161,-3.7487 -39.611092,6.27722 -47.987516,23.72297 -3.052288,5.13107 -4.160511,12.61049 -6.345406,17.08436 z m 92.038287,0.0456 c 0.0459,-0.62904 0.47418,0.46744 0,0 z m -61.008325,-1.64858 c -0.296399,-11.05982 14.011037,-17.68383 22.957308,-12.01377 4.472008,2.42917 7.896177,7.45234 7.180162,12.68415 -2.036748,-8.06262 -10.80179,-14.08357 -19.028007,-11.56802 -5.542958,1.05433 -9.792544,7.47899 -10.997811,11.46823 l -0.0624,-0.31888 z m -6.898509,-0.86312 c 0.103449,-14.26982 16.978983,-24.03372 29.802025,-18.78867 8.110435,2.81811 14.805307,10.89077 14.163496,19.75123 -2.131982,-12.17481 -15.269346,-21.4863 -27.43901,-17.92879 -8.294282,2.26879 -14.820059,9.65031 -16.391814,18.05871 -0.0449,-0.36416 -0.0898,-0.72832 -0.134697,-1.09248 z m -6.639647,-1.90442 c 0.174671,-14.99512 15.308894,-26.46102 29.700733,-25.57495 13.342303,0.19095 26.985706,10.85869 27.562956,24.68625 -1.768531,-3.34157 -3.192907,-8.36362 -6.271676,-11.56026 -9.512882,-11.80847 -28.761114,-14.29319 -40.463553,-4.30435 -5.335438,4.19128 -8.567983,10.61572 -10.52846,16.75331 z m -10.055917,-2.81349 c 2.55655,-20.20733 23.563301,-35.12744 43.476914,-32.29212 16.369701,1.78403 31.249103,14.89171 33.828034,31.36086 -3.411801,-9.83722 -9.453204,-19.16854 -18.779225,-24.28317 -14.288585,-8.60684 -33.887429,-6.52647 -46.045961,4.88515 -6.084924,5.37289 -10.134188,12.67132 -12.479762,20.32928 z"
         id="path3329" />
      <path
         style="fill:#130a04;stroke-width:0.119868"
         d="M 60.709837,1045.3681 C 34.59421,1043.926 10.08413,1022.6885 7.4509445,996.22364 c 4.6447675,24.72016 26.7143085,45.23626 52.0041395,46.90576 22.369166,1.9238 45.000356,-10.7736 55.173456,-30.7655 2.87719,-5.41 4.92459,-11.2659 5.99285,-17.30145 -2.51679,26.06445 -25.366522,48.35445 -51.519196,50.12985 -2.788749,0.2546 -5.595392,0.3142 -8.392357,0.1758 z m 1.817729,-18.9037 c -13.147608,-0.5087 -26.189911,-8.2918 -31.628937,-20.4875 0.952797,-6.08944 5.170783,3.1059 7.220901,4.4735 10.544534,11.3185 28.778523,14.9733 42.360599,7.0681 5.929653,-3.2862 10.909516,-8.1493 14.670697,-13.7642 5.031064,-1.1594 -0.370915,7.5005 -2.152956,8.979 -7.336321,8.9017 -18.911189,14.2504 -30.470304,13.7311 z m 33.742993,-23.0486 c -0.157743,-0.4546 -0.26911,0.4641 0,0 z m -35.001616,13.2247 c -12.951293,-1.4303 -25.480664,-12.6569 -24.904573,-26.30832 2.264466,10.60612 9.966409,20.48302 20.896883,22.91492 14.246147,3.6755 30.168252,-6.0462 33.362551,-20.40023 2.452339,-4.57301 -0.0069,6.09713 -1.278979,7.65003 -4.884633,10.387 -16.476438,17.7018 -28.075882,16.1436 z m 0.29967,-7.1897 c -9.313395,-1.0107 -17.822433,-9.0783 -18.069715,-18.66391 3.040217,9.61331 12.56347,17.74081 23.061155,16.10181 8.27266,-1.1071 14.713259,-7.72969 17.640148,-15.24122 0.228813,4.54514 -2.725104,9.39562 -6.284996,12.49792 -4.383031,3.9371 -10.458776,6.0942 -16.346592,5.3054 z m -0.385371,-7.2245 c -5.671,0.2749 -11.953237,-9.77361 -10.1224,-10.93567 3.288814,6.93745 12.369646,11.16607 19.297616,6.86417 2.993792,-1.0729 6.115825,-6.94436 7.050665,-7.05666 -0.756581,7.4499 -9.086892,12.83146 -16.225881,11.12816 z M 7.2776288,995.31464 c 0.221195,-0.29118 -0.01276,0.54948 0,0 z m 55.2499372,0.002 c -4.01991,0.90875 -7.23835,-9.98447 -2.330247,-3.57805 3.033486,3.74985 10.111306,-3.41145 10.126037,-0.71858 -1.071942,3.08067 -4.612854,5.06044 -7.79579,4.29663 z m -6.368019,-8.80314 c -0.673783,-8.61542 13.967104,-10.31382 15.429072,-1.79372 -0.737055,2.85846 -4.006048,-5.22449 -7.475944,-3.32618 -3.310387,0.0676 -6.563004,2.0918 -7.953128,5.1199 z m -6.52763,-3.59387 c 1.702032,-9.64364 14.508129,-14.13843 22.367525,-8.83481 2.693912,0.30419 7.235319,8.38993 5.082752,7.35635 -5.033683,-9.05858 -19.761043,-9.89414 -25.42152,-1.08372 -0.471244,0.23261 -1.621734,3.56354 -2.028757,2.56218 z m -6.578196,-2.11805 c 2.813911,-13.96768 21.3576,-20.45452 32.811233,-12.48424 4.44481,2.75111 8.073231,7.22311 8.886744,12.48792 -4.755939,-10.84418 -18.507996,-17.09253 -29.529538,-12.01057 -5.428653,2.40096 -9.673842,7.0335 -12.197677,12.34741 l 0.0278,-0.32373 z m -24.631156,-2.30509 c -2.544045,-4.6624 0.648055,-10.09006 2.27623,-14.56077 10.587583,-22.02629 39.46374,-32.30416 61.770105,-22.62276 14.160005,5.71265 26.13584,18.57623 28.06103,34.04884 -1.96385,6.3255 -4.61342,-3.95359 -6.45796,-5.96018 -7.962759,-14.37907 -23.66701,-24.46756 -40.304333,-24.09571 -17.509441,-0.21461 -33.626476,11.23411 -41.319847,26.62081 -1.592714,1.74192 -1.685137,6.0254 -4.025225,6.56977 z m 71.520338,-3.04879 c -7.09231,-14.23628 -26.716839,-20.12534 -40.410536,-11.92344 -4.952372,2.8556 -8.852241,7.2549 -11.827728,12.08201 4.035658,-14.63339 22.175316,-21.47219 35.787615,-16.47258 7.770761,2.64717 15.08444,8.81327 16.912368,17.07112 -0.153906,-0.25237 -0.307813,-0.50474 -0.461719,-0.75711 z m 9.384302,-4.64735 c -7.762562,-14.97753 -25.581662,-24.11357 -42.262012,-20.76966 -11.928821,2.13639 -22.519,10.06516 -28.406293,20.59262 4.43536,-11.58474 15.706578,-20.02851 27.811639,-22.18725 14.717151,-2.9258 30.849006,3.18377 39.364943,15.67856 1.466922,2.04501 2.808165,4.24349 3.491723,6.68573 z"
         id="path3327" />
      <path
         style="fill:#0b0401;stroke-width:0.119868"
         d="m 60.01032,1045.2857 c -15.989572,-1.1625 -31.469068,-9.271 -41.146403,-22.1152 14.727958,18.3498 41.148636,26.1744 63.418734,18.3922 10.369566,-3.4545 19.735849,-9.8705 26.685049,-18.3087 -11.188617,15.0209 -30.370572,23.3199 -48.95738,22.0317 z m 1.521478,-20.0307 c -4.311034,-0.098 -4.757412,-2.9094 -0.54029,-1.4077 2.548414,0.5126 7.962718,-1.8412 10.299862,-0.4042 -2.072224,2.8341 -6.740061,0.5053 -9.759572,1.8119 z m 6.030243,-0.5626 c -0.349766,-0.9511 -0.808576,0.047 0,0 z m -6.353031,-0.1798 c -0.26906,-0.4642 -0.157802,0.4546 0,0 z m 7.911325,-0.2996 c -0.433875,-0.7062 -0.433967,0.7061 0,0 z m -2.906815,-0.09 c 1.43425,-0.5058 -0.797815,-0.4346 0,0 z m 4.138205,-0.082 c 1.584408,-0.6795 -1.572246,-0.059 0,0 z m -7.104953,1.1239 c 0.378208,-0.44 0.04231,0.6122 0,0 z m -5.636071,-0.1741 c -0.345737,-0.6742 0.826151,0.3642 0,0 z m 13.855462,-0.8241 c 0.115272,-0.9436 0.664848,0.3384 0,0 z m -16.2834,-0.3596 c 0.275879,-3.2725 2.312023,1.3541 0,0 z m 17.174024,0.01 c 0.854336,-1.7536 0.91016,0.9063 0,0 z m -17.857751,-0.6359 c -1.858294,-1.5757 1.785984,-0.6266 0,0 z m -1.230688,-0.2859 c 0.230766,-1.2489 0.851691,1.1281 0,0 z m 18.55061,0.1823 c -0.05967,-1.1056 1.252994,0.05 0,0 z m 1.616638,-0.1624 c 0.287638,-1.0614 0.970944,0.8665 0,0 z m -55.034946,-0.2896 c -0.342835,-0.5142 0.824688,0.739 0,0 z m 34.257737,0.1298 c -0.913443,-1.2106 0.787133,0.097 0,0 z m 22.814979,-0.3325 c 0.213765,-0.9606 0.470918,0.5518 0,0 z m -1.558294,-0.4304 c 0.402549,-0.4438 0.466228,0.2711 0,0 z m 2.411276,-0.2531 c 0.830701,-1.1224 1.175788,0.4357 0,0 z m -24.646888,0.017 c 0.15778,-0.4546 0.269079,0.4642 0,0 z m 8.870268,-5.334 c -9.507706,-1.2262 -18.671871,-7.5114 -21.895308,-16.75046 6.365852,10.82386 19.731412,17.76256 32.190515,14.24826 8.013183,-2.1567 14.9021,-7.8897 18.79689,-15.17856 -3.667774,11.87496 -17.03959,19.31506 -29.092097,17.68076 z m 0.59935,-7.1452 c -6.537029,-0.1452 -14.567974,-7.4307 -15.333128,-11.24514 5.893705,8.38694 17.763889,12.37594 27.160725,7.60254 3.629255,-1.0147 8.529905,-7.15689 9.334708,-7.68012 -3.312315,8.06512 -12.809726,12.30122 -21.162305,11.32272 z m 1.738091,-6.8921 c -4.521271,0.283 -10.810774,-5.23336 -10.734049,-7.44368 5.284221,6.59188 16.383976,7.80098 22.203218,1.22987 4.213501,-3.63063 -2.722953,5.66431 -5.464005,5.29121 -1.901183,0.7434 -3.967558,1.0733 -6.005164,0.9226 z m -24.503174,-3.02803 c -0.207699,-0.71453 0.416217,0.24501 0,0 z m 24.143571,-4.15954 c -3.170164,0.0559 -5.951536,-6.00794 -1.588281,-2.08856 2.739596,2.57495 12.102955,-4.12098 6.795602,1.04999 -1.482414,1.06288 -3.427993,1.49311 -5.207321,1.03857 z m 7.48399,-11.57321 c -2.83137,-5.04358 -11.860453,-0.40325 -12.172007,-0.95667 1.849652,-4.30769 11.62313,-3.98167 12.172007,0.95667 z m -17.552951,-5.21794 c 4.66657,-7.33983 17.040736,-8.13763 22.091852,-0.88273 -4.546831,-3.36091 -10.575849,-4.77007 -16.032958,-2.67325 -2.220001,0.78907 -4.281587,2.01132 -6.058894,3.55598 z m 27.186828,-5.4596 c -8.402841,-7.90457 -22.530418,-7.84967 -31.154699,-0.3804 7.405912,-9.73531 24.324468,-9.34138 31.4917,0.59352 l -0.274627,-0.17365 -0.06237,-0.0394 z m -34.37894,-6.97828 c 0.233398,-0.50874 0.488887,0.0529 0,0 z m -22.038672,-0.17758 c -0.83484,-5.47678 4.107255,-10.00431 7.336107,-13.93388 15.313924,-15.58942 41.738208,-18.14416 59.741019,-5.72809 6.275934,4.332 12.282653,10.16107 14.442103,17.66092 -1.46968,3.28123 -5.664334,-4.25766 -7.995874,-5.70744 -12.700204,-11.76461 -31.90686,-16.78941 -48.351643,-10.44513 -9.353867,3.26801 -17.141945,9.79521 -23.483945,17.23096 l -0.729562,0.6499 z m 58.310427,-0.52258 c -10.001764,-7.48923 -24.852802,-7.56786 -34.912467,-0.14539 4.9919,-5.60493 13.308387,-7.33802 20.555957,-6.64933 5.438808,0.69098 11.193273,3.05025 14.78072,7.06442 l -0.274198,-0.17433 z m 8.169508,-6.86051 c -1.132928,-1.26538 1.247017,0.91482 0,0 z m -50.012708,-1.44454 c 13.485013,-11.7464 35.655761,-11.56864 48.931018,0.4237 C 74.538643,946.68776 53.42896,946.4728 39.428923,957.4432 l -0.135026,-0.006 z"
         id="path3325" />
    </g>
  </g>
</svg>
