<?xml version="1.0" encoding="UTF-8" standalone="no"?>
<svg
   width="128"
   height="128"
   viewBox="0 0 128 128"
   id="svg2"
   version="1.1"
   inkscape:version="1.2.2 (1:1.2.2+202305151915+b0a8486541)"
   sodipodi:docname="manblack.svg"
   xmlns:inkscape="http://www.inkscape.org/namespaces/inkscape"
   xmlns:sodipodi="http://sodipodi.sourceforge.net/DTD/sodipodi-0.dtd"
   xmlns:xlink="http://www.w3.org/1999/xlink"
   xmlns="http://www.w3.org/2000/svg"
   xmlns:svg="http://www.w3.org/2000/svg"
   xmlns:rdf="http://www.w3.org/1999/02/22-rdf-syntax-ns#"
   xmlns:cc="http://creativecommons.org/ns#"
   xmlns:dc="http://purl.org/dc/elements/1.1/">
  <defs
     id="defs4">
    <linearGradient
       inkscape:collect="always"
       id="linearGradient2102">
      <stop
         style="stop-color:#555753;stop-opacity:1"
         offset="0"
         id="stop2098" />
      <stop
         style="stop-color:#000000;stop-opacity:1"
         offset="1"
         id="stop2100" />
    </linearGradient>
    <linearGradient
       inkscape:collect="always"
       xlink:href="#linearGradient2102"
       id="linearGradient2104"
       x1="62.694489"
       y1="924.36218"
       x2="62.694489"
       y2="1052.4132"
       gradientUnits="userSpaceOnUse"
       gradientTransform="rotate(-90,64,988.3622)" />
    <filter
       inkscape:collect="always"
       style="color-interpolation-filters:sRGB"
       id="filter2961"
       x="-1.0802899e-05"
       width="1.0000216"
       y="-1.081348e-05"
       height="1.0000216">
      <feGaussianBlur
         inkscape:collect="always"
         stdDeviation="0.00051749808"
         id="feGaussianBlur2963" />
    </filter>
  </defs>
  <sodipodi:namedview
     id="base"
     pagecolor="#ffffff"
     bordercolor="#666666"
     borderopacity="1.0"
     inkscape:pageopacity="0.0"
     inkscape:pageshadow="2"
     inkscape:zoom="5.6568543"
     inkscape:cx="70.710678"
     inkscape:cy="69.473241"
     inkscape:document-units="px"
     inkscape:current-layer="layer1"
     showgrid="false"
     units="px"
     inkscape:snap-page="true"
     inkscape:window-width="1920"
     inkscape:window-height="1152"
     inkscape:window-x="0"
     inkscape:window-y="0"
     inkscape:window-maximized="1"
     inkscape:document-rotation="0"
     inkscape:showpageshadow="2"
     inkscape:pagecheckerboard="0"
     inkscape:deskcolor="#d1d1d1" />
  <metadata
     id="metadata7">
    <rdf:RDF>
      <cc:Work
         rdf:about="">
        <dc:format>image/svg+xml</dc:format>
        <dc:type
           rdf:resource="http://purl.org/dc/dcmitype/StillImage" />
      </cc:Work>
    </rdf:RDF>
  </metadata>
  <g
     inkscape:groupmode="layer"
     id="layer2"
     inkscape:label="Layer 2"
     style="display:inline;opacity:1;mix-blend-mode:normal" />
  <g
     inkscape:label="Layer 1"
     inkscape:groupmode="layer"
     id="layer1"
     transform="translate(0,-924.36216)"
     style="display:inline;opacity:1;mix-blend-mode:normal;filter:url(#filter2961)">
    <g
       id="g2204">
      <path
         style="fill:#a99d95;stroke-width:0.120096"
         d="M 61.035624,1045.7176 C 36.624221,1044.9791 14.390802,1026.5567 8.3348081,1003.0213 2.0632742,980.7202 11.02974,955.19869 29.928411,941.77857 c 20.343451,-14.9416 50.548136,-14.5096 70.107199,1.60938 17.99362,14.16931 26.2373,39.65348 18.99635,61.52935 -6.30272,20.7998 -24.931972,37.4998 -46.644131,40.2978 -3.755433,0.5389 -7.563862,0.7059 -11.352205,0.5025 z"
         id="path1667" />
      <path
         style="fill:#9e8776;stroke-width:0.120096;opacity:0.5"
         d="M 60.49519,1045.6541 C 33.867555,1044.5018 10.000263,1022.3746 6.9380243,995.86924 3.6650176,972.7572 15.888012,948.12982 36.900991,937.60799 c 11.581287,-6.18175 25.338915,-6.9529 38.132167,-5.24738 26.195492,3.66373 46.468932,28.79296 46.473762,54.91233 0.82017,25.76796 -17.94614,50.75106 -43.153362,56.61156 -5.823541,1.4622 -11.862705,2.0275 -17.858368,1.7696 z"
         id="path1665" />
      <path
         style="fill:#917867;stroke-width:0.120096"
         d="M 60.375098,1045.6229 C 35.063637,1044.4671 12.14434,1024.4577 7.5770347,999.52675 3.050284,977.37132 12.768588,952.87625 31.916642,940.58533 c 7.067319,-4.9702 15.792227,-6.56621 24.151655,-7.88726 11.700739,-1.31113 23.761014,0.45649 34.671519,4.7682 22.198264,11.01294 34.750784,37.71167 29.674834,61.86386 -4.59656,25.69997 -28.749296,46.12237 -54.855287,46.38627 -1.72831,0.048 -3.458825,0.017 -5.184265,-0.093 z"
         id="path1663" />
      <path
         style="fill:#856b58;stroke-width:0.120096"
         d="m 60.615291,1045.615 c -24.705659,-1.1122 -47.30168,-20.0215 -52.6517581,-44.1937 -5.8089372,-23.83517 5.5334071,-51.25313 27.4466631,-62.76632 13.165274,-5.00672 27.600122,-7.86263 41.575167,-4.71507 5.736874,1.61834 11.730831,2.79372 17.106861,5.42625 21.214076,12.50153 32.053446,39.67947 25.538996,63.38284 -5.83556,23.4974 -27.922963,41.6868 -52.120349,42.8689 -2.295455,0.1454 -4.600297,0.1469 -6.89558,0 z"
         id="path1661" />
      <path
         style="fill:#7b6250;stroke-width:0.120096"
         d="M 60.915532,1045.6149 C 36.361994,1044.6578 13.84039,1026.105 8.1723868,1002.1902 2.3693485,979.44741 11.973528,953.05032 32.18956,940.68014 c 13.435506,-6.23911 28.634836,-9.35229 43.358747,-6.62643 6.933834,1.14041 13.543275,3.71027 19.993631,6.3228 16.832672,10.53911 26.723762,30.50652 25.817242,50.24414 -0.43462,23.52015 -17.33879,45.15285 -39.597292,52.24935 -6.689418,2.2271 -13.805285,3.2144 -20.846356,2.7449 z"
         id="path1659" />
      <path
         style="fill:#725744;stroke-width:0.120096"
         d="M 60.014803,1045.5376 C 34.843379,1044.1759 12.080231,1024.2409 7.6042786,999.39017 3.3008982,978.14006 12.110115,954.41203 30.137388,942.09964 c 11.053969,-5.00717 22.908131,-9.16913 35.226431,-8.76144 8.811595,-0.0132 17.386654,2.40465 25.452802,5.77367 10.313759,2.80123 17.597969,11.69629 22.919969,20.47801 11.58601,19.74836 9.94569,46.40802 -4.60048,64.21622 -11.597925,14.7603 -30.419191,22.9961 -49.121307,21.7315 z m 2.882317,-7.1715 c -0.127275,-0.3838 -0.646827,0.2449 0,0 z m 3.212581,-0.1556 H 65.693902 Z M 65.29905,1004.187 c -2.367258,-0.3504 -1.959264,0.4587 0,0 z m -0.360295,-7.08682 c -0.783587,-0.33939 -2.815655,0.15181 -0.84611,0.0891 z m 0.233987,-13.98375 c -2.060048,-1.73202 -3.089765,1.43107 0,0 z m 1.391127,-6.93684 c -2.419925,-1.60669 -7.371572,0.63125 -1.996042,0.0807 0.665839,-0.003 1.333285,-0.007 1.996042,-0.0807 z m 0.2089,-7.18476 c -2.623095,-1.01018 -7.707517,0.50131 -2.140829,0.0918 0.713817,0.005 1.434267,0.0399 2.140829,-0.0918 z"
         id="path1657" />
      <path
         style="fill:#664b39;stroke-width:0.120096"
         d="m 60.134904,1045.5346 c -24.663528,-1.2867 -47.013487,-20.365 -52.1959676,-44.5144 -4.6974541,-20.646 2.7946466,-44.30608 19.9887656,-57.05862 10.708785,-5.18022 21.9833,-10.19264 34.117454,-10.20802 11.825624,-0.49721 23.373012,3.00966 33.911163,8.12537 7.194531,2.5485 11.847991,9.09771 16.126381,15.05009 12.39788,18.74721 12.46931,44.80858 -0.379,63.35638 -11.22073,16.6762 -31.455811,26.8055 -51.568796,25.2492 z m 8.046455,-6.9348 c 5.119628,-0.6181 10.628975,-1.3997 15.004081,-4.275 -12.067374,4.3396 -25.606432,4.4374 -37.73232,0.2615 6.644908,3.9081 15.176904,4.4623 22.728239,4.0135 z m -0.360287,-5.9579 c 2.361716,-0.084 9.314808,-1.7059 8.60195,-2.0953 -8.539936,2.2907 -17.643181,1.9227 -26.160692,-0.2776 5.526996,2.2816 11.636326,2.8771 17.558742,2.3729 z m 0.06001,-13.977 c 3.271979,-0.3497 4.513449,-1.4583 0.562718,-0.507 -3.084183,0.6213 -9.472016,-0.2786 -10.417081,0.098 3.213046,0.8295 6.579391,0.7631 9.854363,0.4087 z m -0.478256,-7.3182 c 2.274655,0.01 6.677268,-2.5343 1.924092,-1.0214 -3.580492,1.4968 -10.72452,-0.3517 -12.157,0.057 3.234797,1.2758 6.817347,1.45 10.232908,0.9642 z m -0.69565,-6.971 c 3.950429,-0.6971 2.688126,-2.0294 -0.412052,-0.5478 -2.781048,0.098 -11.193363,-1.0985 -4.11153,0.6745 1.501037,0.2025 3.037655,0.1768 4.523582,-0.1267 z m -1.267443,-7.05097 c 5.237433,-1.83975 -10.004985,-0.3513 -1.236362,0.12478 0.412504,0.0104 0.825031,-0.0939 1.236362,-0.12478 z m 0.546919,-13.83113 c -1.532888,-3.33347 -6.335222,1.45206 -1.076317,0.19411 0.371748,0.007 0.72218,-0.0968 1.076317,-0.19411 z m -4.590778,-6.74505 c 2.087727,-0.20275 10.522139,0.4729 4.095478,-1.32798 -1.138791,-1.31364 -10.258499,2.16769 -4.095478,1.32798 z m -2.386975,-6.83936 c 3.225895,-1.54688 10.0981,0.7581 11.022433,-0.45803 -2.520982,-2.27787 -12.600837,-0.63299 -11.261422,0.50508 z m -1.095783,-7.09288 c 3.537262,-1.24199 11.874915,0.17199 12.423227,-0.29047 -3.752686,-1.97383 -12.206208,-0.81262 -13.208902,0.41824 l 0.785675,-0.12776 z"
         id="path1655" />
      <path
         style="fill:#5b4231;stroke-width:0.120096"
         d="M 59.89471,1045.491 C 35.102729,1044.3493 13.063673,1024.7474 7.9354954,1000.6405 3.8939318,983.14126 8.883735,964.01735 20.667837,950.5203 c 4.343678,-5.56434 11.555701,-7.38939 17.529967,-10.65936 13.310986,-6.15226 28.784119,-7.80301 42.876986,-3.39827 7.465233,2.29707 14.241515,6.2705 21.38568,9.34686 17.83152,15.54214 24.12078,42.77827 14.5134,64.46967 -8.82712,21.4055 -31.418015,36.5202 -54.721232,35.324 l -1.179522,-0.045 z m 8.314704,-6.6564 c 8.463648,-0.8407 16.992491,-3.5 23.652108,-8.9486 -13.798226,7.5622 -30.721103,9.8611 -45.656422,4.3861 -2.445264,-0.4717 -12.232085,-5.6167 -6.569781,-1.9478 8.417745,5.3559 18.716951,7.2426 28.574095,6.5103 z m 0.332231,-5.8742 c 6.029162,-0.8027 12.120633,-2.519 17.071608,-6.1783 -12.948796,6.3757 -28.703807,6.8904 -41.810374,0.6742 3.25509,2.9642 10.567473,4.9524 15.870912,5.5107 2.944668,0.3162 5.923859,0.3193 8.867854,-0.01 z m -1.261007,-4.4549 c 2.376129,0 9.353432,-1.6582 8.681468,-2.0383 -8.184339,2.2821 -17.020038,2.204 -25.148725,-0.2821 5.163126,2.221 10.90762,2.7309 16.467257,2.3204 z m 1.261007,-9.6644 c 2.796003,0.2947 12.796024,-4.7557 5.476168,-2.2025 -7.593229,2.2594 -15.944817,1.8926 -23.294247,-1.076 5.016234,3.562 11.8706,4.106 17.818079,3.2785 z m -0.90072,-7.3339 c 3.205308,0.3351 11.099049,-5.0853 3.899212,-1.9317 -5.376678,2.8396 -15.900063,-0.3394 -18.137137,-0.6803 4.145044,2.7496 9.405043,3.355 14.237925,2.612 z m -1.200961,-6.8608 c 2.15239,0.4024 8.42664,-4.1185 2.928853,-1.8289 -3.658945,2.2871 -11.107572,-0.5784 -12.771386,-0.061 2.824131,2.0135 6.501637,2.2508 9.842533,1.89 z m -0.459571,-7.25381 c 7.027232,-1.96742 -7.705009,-1.40676 -5.264587,-0.5644 1.618818,0.87232 3.494751,1.00462 5.264587,0.5644 z m 0.279424,-13.41971 c 1.024576,-4.23652 -9.264977,0.71492 -2.194448,0.13122 0.732756,-0.007 1.468004,-0.0248 2.194448,-0.13122 z m -6.461973,-6.64281 c 2.331586,-2.24827 9.516649,1.82835 9.414224,-0.92342 -2.204303,-2.80194 -11.911884,-0.73432 -9.85912,1.03134 l 0.316358,-0.0767 0.128538,-0.0312 z m -2.915935,-6.57672 c 4.20303,-2.80076 14.429676,0.50384 15.127744,-0.45301 -4.163534,-4.06126 -15.969391,-1.75786 -16.192287,0.78554 z m -1.849213,-6.9025 c 5.78342,-2.60596 15.653124,-0.60516 19.230517,-0.0121 -6.534694,-3.6298 -15.122649,-3.58288 -21.423687,0.54552 0.793613,0.0937 1.40714,-0.57353 2.19317,-0.53344 z"
         id="path1653" />
      <path
         style="fill:#533b2a;stroke-width:0.120096;opacity:1"
         d="M 60.134904,1045.4917 C 32.269809,1044.2431 7.6968471,1019.6633 6.7364204,991.72563 5.7961064,975.58024 11.660326,958.78699 23.66744,947.72186 c 6.750996,-2.34649 12.30173,-7.22049 19.148365,-9.43053 17.129531,-6.74797 37.165565,-4.61832 52.773316,5.03316 5.670739,3.02681 11.648079,5.57335 14.971139,11.47644 13.66279,18.35361 14.45462,45.02639 1.86618,64.14487 -10.09298,16.1886 -28.612087,26.6104 -47.715647,26.6411 -1.525755,0.028 -3.052626,0 -4.575889,-0.095 z m 7.926362,-6.4912 c 10.482212,-1.0516 21.142776,-4.8663 28.525573,-12.6419 -11.9163,8.0975 -26.698437,12.3337 -41.062956,9.8367 -8.44193,-1.3551 -16.524238,-4.6986 -23.591085,-9.49 6.056064,6.5951 14.927301,10.095 23.586828,11.7518 4.135612,0.7074 8.360332,0.8863 12.54164,0.5434 z m -0.285745,-5.5747 c 8.244443,-0.9139 16.531214,-3.8896 22.602115,-9.7039 -10.612635,6.5239 -23.568867,10.2043 -35.919256,7.0274 -5.90507,-1.3816 -11.496825,-3.8827 -16.724128,-6.925 8.008538,7.3503 19.321099,10.5429 30.041269,9.6015 z m -0.755745,-4.7456 c 5.880136,-0.5994 12.026242,-2.0365 16.847852,-5.6023 -12.104949,6.383 -27.300134,6.5056 -39.46637,0.2135 6.324896,4.5993 15.016844,5.6061 22.618518,5.3888 z m 1.521869,-9.6608 c 4.38547,-0.9263 9.473631,-2.1123 12.435483,-5.6928 -9.963291,6.0483 -22.976051,6.0838 -33.164617,0.5399 1.504931,2.7661 9.246299,5.0816 13.828349,5.3578 2.296758,0.2132 4.622326,0.1664 6.900785,-0.2049 z m -1.020813,-7.3205 c 2.648174,0.046 10.069069,-3.4701 8.749369,-4.3114 -7.592615,4.3643 -17.339578,4.2329 -24.906874,-0.1222 1.838292,3.6161 11.037713,5.4463 16.157505,4.4336 z m -1.897897,-6.8012 c 2.942527,1.1933 11.37639,-6.01068 4.441138,-2.2545 -4.274617,2.741 -12.421398,-1.1124 -14.634838,-0.3809 2.853121,2.232 6.64642,2.9559 10.1937,2.6354 z m 0.456734,-7.37415 c 3.991749,-0.91004 2.962811,-3.41565 -0.273849,-1.05751 -2.029788,0.35303 -10.011025,-2.07378 -4.4515,0.87274 1.527042,0.44367 3.170595,0.55524 4.725349,0.18477 z m 0.695896,-13.30647 c 0.371502,-5.21166 -10.664396,0.98427 -2.518301,0.24275 0.843101,-0.0173 1.693524,-0.048 2.518301,-0.24275 z m -8.077798,-6.28035 c 3.225796,-2.83682 10.670361,1.36631 11.660093,-0.97196 -2.333701,-4.05986 -14.574698,-1.07233 -11.660093,0.97194 z m -3.768862,-6.22004 c 5.531048,-3.82096 15.951328,-0.78283 19.065919,-0.23515 -4.04513,-4.07229 -10.79384,-4.12545 -15.933307,-2.5433 -0.641779,0.13433 -7.418608,3.6763 -3.132612,2.77845 z m -2.059833,-6.86201 c 7.355795,-3.19766 15.955974,-2.72632 23.259793,0.37543 -2.300201,-3.82908 -11.333118,-4.69373 -16.508914,-3.77838 -1.602479,-0.80723 -13.183121,5.86294 -6.750879,3.40295 z m 4.493163,-9.48978 c 4.149563,-1.4302 14.118339,0.55475 14.591249,-0.35935 -5.326674,-2.1346 -12.800672,-2.00556 -17.229766,0.69161 0.897857,0.0224 1.742254,-0.37112 2.638517,-0.33226 z"
         id="path1651" />
      <path
         style="fill:#4a3323;stroke-width:0.120096"
         d="M 60.375098,1045.4945 C 33.656833,1044.3212 9.7089163,1021.9021 7.0347126,995.2374 5.083094,979.26047 10.005288,962.32426 21.073564,950.49664 c 7.257446,-2.85306 12.963956,-8.59377 20.352368,-11.25561 18.316662,-7.96357 40.477652,-5.26634 56.668625,6.3123 5.360033,3.1811 11.344253,5.78553 14.171563,11.7478 11.6048,17.62825 12.24535,41.73029 1.25994,59.81257 -10.69826,18.336 -31.836467,30.0809 -53.150962,28.3808 z m 7.746214,-6.2949 c 12.663781,-1.1409 25.282026,-6.9218 33.132228,-17.1437 -6.807564,5.112 -13.955422,10.0841 -22.399147,12.0101 -17.188486,4.7318 -36.713125,1.0309 -50.301379,-10.7154 -1.058337,1.1452 5.241829,5.8613 7.619352,7.5524 9.289815,6.293 20.784162,9.1781 31.948946,8.2966 z m -0.960775,-4.9331 c 10.45724,-1.1198 20.783531,-5.9385 27.42898,-14.2447 -11.865575,9.9808 -28.660333,14.7345 -43.664792,9.6966 -6.286562,-1.9924 -12.102702,-5.3199 -17.233375,-9.4396 7.824145,9.6347 21.165484,14.9761 33.469187,13.9877 z m 0.240194,-5.5155 c 8.037363,-0.8538 16.163828,-3.6726 22.067018,-9.3713 -11.145354,8.0979 -26.181024,11.0476 -39.227854,6.0082 -3.122951,-0.7608 -10.551428,-5.2235 -10.426418,-4.9371 7.523774,6.4395 17.826524,9.0866 27.587254,8.3002 z m -0.240423,-9.4433 c 5.985611,-0.05 15.548163,-5.163 16.825576,-8.1343 -9.46394,6.3588 -22.304646,9.418 -32.856858,3.9062 -2.136317,-1.1668 -10.059855,-5.5595 -4.832999,-1.399 5.837121,4.5775 13.565462,6.2811 20.864281,5.6271 z m -0.68559,-7.3236 c 4.249857,0.172 12.681243,-4.387 12.236323,-6.3585 -7.824143,5.7408 -19.290414,6.8772 -27.43452,1.1308 -6.820966,-2.7032 6.77309,6.5466 9.909637,5.178 1.752988,0.2208 3.531801,0.2399 5.28856,0.05 z m -0.635234,-6.9701 c 2.966,-0.475 7.881401,-1.7939 8.430607,-4.8618 -6.046001,4.4433 -14.337003,4.0272 -20.569019,0.3027 1.524236,3.6206 7.944945,5.1239 12.138412,4.5591 z m 0.360286,-7.37544 c 3.449938,-0.1826 4.758218,-4.73627 0.732658,-1.63797 -2.528097,1.73494 -12.51867,-2.99523 -6.285916,1.25572 1.74765,0.71772 3.722417,0.80818 5.553258,0.38225 z m 0.982256,-13.10033 c 1.140627,-5.60331 -11.406729,-0.10518 -3.949108,0.31148 1.318774,-0.0426 2.655601,-0.002 3.949108,-0.31148 z m -9.14881,-6.08216 c 3.588131,-3.55328 12.426405,1.05625 13.292987,-0.63165 -3.061997,-5.36164 -15.665266,-2.48997 -14.365014,1.0745 z m -3.994422,-6.03357 c 6.475704,-3.69863 14.79377,-3.10699 21.145152,0.56463 -1.694409,-4.81326 -8.999671,-5.51531 -13.654103,-4.92529 -2.422164,-1.10135 -13.683652,6.38567 -7.491049,4.36066 z m -3.278469,-6.32351 c 8.292825,-4.47208 18.816235,-4.3205 27.036336,0.24835 -0.584632,-3.23459 -8.022769,-5.20042 -12.119796,-5.29768 -6.091282,-0.39475 -12.897431,1.02259 -17.011355,5.87598 l 1.071038,-0.35003 z m 1.027879,-9.05667 c 8.00213,-2.62445 16.79145,-2.43927 24.810219,0.0163 -3.743956,-3.98362 -10.388208,-4.01035 -15.592863,-3.79835 -1.922255,-0.61981 -13.111278,3.92207 -9.217356,3.78203 z"
         id="path1649" />
      <path
         style="fill:#422c1d;stroke-width:0.120096"
         d="M 60.555237,1045.5019 C 35.50159,1044.4664 12.944791,1024.817 7.8911993,1000.3491 4.311683,984.17224 8.0225496,966.2322 18.780444,953.46364 c 6.188814,-1.96084 10.297126,-7.49125 16.012984,-10.38728 18.709376,-11.4924 44.075001,-10.63233 61.870994,2.27128 4.270088,3.28854 8.805658,6.22766 13.376258,9.02549 4.00618,4.81399 6.4717,10.81268 8.6668,16.63349 7.43579,22.64848 -1.16697,49.42948 -20.590557,63.32068 -10.727358,7.9099 -24.246684,11.9851 -37.561686,11.1746 z m 7.986408,-6.1297 c 14.509953,-1.3304 28.661095,-9.0933 36.494245,-21.5546 -4.14566,2.1946 -7.564851,7.2337 -12.309197,9.4346 -1.989992,2.3762 -10.81819,4.2766 -4.783264,-0.01 3.766165,-3.2402 7.879564,-6.4414 10.047277,-11.0446 -9.517584,9.9993 -23.162742,16.4654 -37.132696,15.3131 -11.320062,-0.8246 -22.017742,-6.3447 -29.865796,-14.4409 0.127023,2.5946 5.82916,7.9301 9.266071,10.2405 4.75862,2.8221 1.398812,4.0074 -1.875889,1.7055 -5.994382,-2.7648 -10.849413,-7.3621 -15.601724,-11.8346 8.822077,15.8214 28.261831,23.5368 45.760973,22.1868 z m -1.080868,-10.5031 c 10.179849,-0.9554 20.26816,-5.6474 26.632324,-13.8064 -6.669938,6.2636 -15.06553,10.6844 -24.20183,11.8295 -12.465944,1.7992 -25.719782,-2.2144 -34.887141,-10.9018 2.62504,4.142 7.357027,6.9427 11.748662,9.1563 6.415124,3.0282 13.637219,4.3583 20.707985,3.7224 z m 0.240194,-9.4303 c 7.633394,-1.2045 15.587558,-4.6557 19.709312,-11.5268 -6.751161,5.8001 -15.157403,10.4079 -24.3289,9.8355 -8.082589,-0.2215 -15.855624,-3.8396 -21.720975,-9.3176 2.4972,5.5344 8.964606,8.3593 14.509951,10.1028 3.834398,1.0637 7.878667,1.4083 11.830612,0.9061 z m 0.660535,-7.5569 c 4.800818,-0.5988 12.720359,-5.4838 12.780422,-8.3982 -7.154704,6.3295 -18.081017,9.5136 -26.888169,4.76 -2.534544,-1.6697 -10.807893,-6.7277 -5.207533,-1.5028 5.173821,4.585 12.56894,6.3275 19.31528,5.141 z m -1.080868,-6.9119 c 2.689143,0.084 9.930292,-4.6221 7.642003,-5.57319 -5.964114,4.96019 -15.436696,5.36019 -21.408458,0.20029 -4.108702,0.30441 6.766697,6.8075 10.037594,5.6472 1.247889,0.049 2.502124,-0.038 3.728861,-0.2743 z m -0.720581,-7.26839 c 2.954735,0.20693 5.78914,-5.77173 1.358513,-2.36309 -2.157407,3.69956 -10.797668,-2.86162 -9.581256,0.69902 2.217529,1.91594 5.438464,2.44306 8.222743,1.66407 z m 0.357893,-12.50452 c 3.673127,-5.5278 -12.14493,-2.14104 -4.581104,0.0974 1.527174,0.0587 3.057742,0.0246 4.581104,-0.0974 z m -10.045511,-5.79948 c 4.238563,-4.49982 13.153289,-0.0886 15.562351,-0.42888 -2.802299,-4.89604 -10.205969,-5.15975 -14.615722,-2.5259 -1.142023,0.59905 -4.87198,4.64873 -0.946629,2.95478 z m -4.603672,-5.59624 c 6.959579,-5.16763 17.011611,-4.78967 23.948856,0.20393 1.607373,-2.11144 -5.848588,-6.02741 -9.128241,-5.94381 -6.066884,-1.00308 -13.238817,0.74914 -16.641203,6.25881 0.07352,1.09416 1.658111,-0.7672 1.820588,-0.51893 z m -4.859162,-5.40673 c 9.455852,-7.01448 23.192532,-7.12065 32.780115,-0.29216 -0.410757,-3.70063 -8.993333,-7.09132 -13.961558,-7.23726 -7.230631,-0.66835 -15.145152,1.73053 -19.67586,7.66231 0.253399,0.32016 0.573305,-0.12723 0.857303,-0.13289 z m 1.616382,-9.85017 c 9.70463,-4.38206 21.244222,-4.05207 30.886523,0.33357 0.348423,-2.62182 -7.708042,-5.26217 -11.177386,-5.75662 -7.715093,-1.29301 -16.235748,0.46315 -22.07476,5.88178 0.621383,0.7031 1.642967,-0.44204 2.365623,-0.45873 z"
         id="path1647" />
      <path
         style="fill:#372417;stroke-width:0.120096"
         d="M 60.795431,1045.4959 C 35.751649,1044.5168 12.880168,1025.0705 7.9427913,1000.4833 4.8196318,986.09262 7.3804745,970.43359 15.42511,958.0409 c 6.071012,-1.14025 9.078119,-7.44537 14.068673,-10.53935 16.135575,-12.97636 39.76259,-16.13526 58.370841,-6.67654 7.756479,3.86128 14.409346,9.54822 20.629676,15.50312 6.29658,1.17958 7.50361,8.75724 9.83723,13.67076 8.37904,23.65998 -1.24116,52.17661 -22.336227,65.82401 -10.289505,6.8869 -22.832708,10.3563 -35.199872,9.673 z m 7.806269,-5.8196 c 18.079041,-1.5805 35.56331,-13.4497 41.73053,-30.8367 -4.27286,4.4366 -7.35129,10.2029 -12.827224,13.3323 -2.945553,-2.9161 5.011134,-7.7548 4.533804,-12.2067 -9.388315,14.9584 -27.856115,24.1464 -45.456622,20.7806 -12.258808,-2.1195 -23.392141,-9.671 -30.132549,-20.0947 -0.250597,4.2418 5.537767,8.1744 5.203364,11.971 -5.843208,-2.4056 -9.110646,-8.1352 -13.129335,-12.6243 0.706968,4.6044 5.301183,10.6406 9.104187,14.649 10.512034,10.7377 25.993828,16.521 40.973845,15.0295 z m -1.381108,-10.6344 c 12.637619,-1.1615 25.245534,-8.1142 31.168803,-19.6351 -7.568937,9.411 -18.467006,16.8215 -30.794054,17.6232 -10.591308,1.0055 -21.224574,-2.6139 -29.544897,-9.0974 -2.89835,-1.6216 -7.036456,-7.4341 -8.013596,-7.7507 7.18395,12.9469 22.678362,20.037 37.183744,18.86 z m 1.37136,-9.5377 c 9.203283,-1.4726 18.25959,-7.0097 22.047432,-15.7908 -4.935865,4.4234 -9.256844,9.8897 -15.831982,12.011 -11.952095,4.6692 -26.474027,0.7206 -34.511561,-9.2645 -5.366638,-5.6391 0.329536,4.0658 2.708408,5.256 6.803665,6.2102 16.490305,9.0688 25.587703,7.7883 z m -2.117234,-7.1592 c 7.367244,-0.9051 15.076016,-5.0896 17.701324,-12.39553 -5.282124,5.19293 -11.494237,10.54113 -19.356076,10.44453 -7.33424,0.2443 -14.46974,-3.3641 -19.222232,-8.8464 -3.339045,-1.026 2.681016,5.2523 3.895563,6.167 4.94492,3.3381 10.962999,5.3254 16.981421,4.6304 z m 0.829253,-7.1958 c 4.153926,-0.052 11.602303,-6.39711 9.856243,-7.96595 -5.05317,4.77465 -12.819349,8.28135 -19.487449,4.68825 -2.624682,-1.2845 -10.61832,-7.80401 -5.6776,-1.5443 3.759021,4.1721 9.862638,5.889 15.308806,4.822 z m -1.057805,-7.16543 c 3.044092,1.05047 7.935569,-7.54053 2.721666,-3.43675 -3.542352,4.18506 -10.669645,-1.00936 -12.603039,-0.62583 1.564315,3.61083 6.310982,4.89329 9.881373,4.06258 z m 1.37168,-12.27016 c 3.365582,-6.50385 -13.303899,-2.82351 -5.644648,0.27017 1.8835,0.073 3.78307,0.0581 5.644648,-0.27017 z M 54.97406,981.28764 c 4.697403,-5.80435 13.764835,-3.53996 18.259132,-0.71908 -0.738273,-5.64606 -9.39485,-7.1732 -13.986358,-4.93553 -1.691807,0.88935 -6.830326,3.25952 -4.272774,5.65461 z m -4.167737,-5.85915 c 7.314397,-7.12639 20.058349,-6.70491 27.105192,0.60673 2.182831,-2.06882 -5.132778,-7.34994 -8.574648,-7.6007 -7.433874,-2.09075 -17.452004,0.26147 -20.58743,7.94981 0.414588,0.72645 1.650074,-0.8361 2.056886,-0.95584 z m -5.660371,-4.62187 c 8.995328,-8.65375 24.411465,-10.58945 34.321186,-2.41089 2.497476,2.53023 5.396912,2.16167 1.838015,-0.84449 -9.701477,-10.24945 -28.870766,-9.2204 -36.849526,2.64377 -0.585626,0.47886 -0.09982,2.01798 0.690325,0.61161 z m -1.436344,-8.87244 c 11.325578,-7.79384 27.226277,-8.49037 38.846411,-0.91959 5.706088,2.20589 -3.515125,-5.36663 -5.703941,-5.81366 -11.231423,-5.55615 -26.633786,-3.243 -34.367398,7.03774 0.07225,0.5913 1.248824,-0.44561 1.224928,-0.30449 z"
         id="path1645" />
      <path
         style="fill:#301e12;stroke-width:0.120096"
         d="M 61.035624,1045.476 C 34.528781,1044.6198 10.479106,1022.845 7.2657059,996.46789 5.6121942,984.931 7.3846509,972.77171 13.046221,962.51544 c 4.2136,4.8659 6.834222,-5.87154 10.112504,-7.96346 14.598229,-17.29764 40.671164,-23.9429 61.512085,-14.70645 11.051964,4.7167 20.19898,13.32827 26.56678,23.37892 2.70824,2.72395 3.77534,-3.60015 4.5864,0.8522 11.86586,23.85108 3.7423,55.51725 -18.261734,70.59805 -10.504577,7.5508 -23.589675,11.5145 -36.526632,10.8013 z m 6.106852,-5.2685 c 23.070549,-1.0778 44.985274,-19.7346 47.430494,-43.07992 -1.46051,-1.41614 -2.636,6.80412 -4.54488,8.49412 -1.14151,4.8167 -8.86816,9.4051 -5.41636,1.4611 1.02268,-1.9349 1.2606,-7.47415 -0.37471,-2.5952 -6.71806,15.0019 -21.813343,26.2672 -38.475816,26.6508 -17.436039,0.7588 -34.710012,-9.9071 -41.587542,-25.9921 -4.212797,-6.5174 1.535506,4.8985 -0.400059,7.0549 -5.837983,-2.954 -7.341874,-10.3159 -10.176154,-15.75256 0.229567,11.26846 6.682639,21.53696 14.38083,29.35686 10.312085,9.9318 24.855476,15.379 39.164197,14.402 z m 0.978836,-11.0455 c 15.370107,-1.5953 30.191369,-12.3804 34.237168,-27.6514 -5.537818,8.9678 -12.231294,17.9935 -22.320671,22.1184 -14.054891,6.5345 -31.854981,3.7588 -42.906265,-7.2232 -3.562437,-3.3843 -6.65462,-7.7271 -8.648056,-10.2197 -0.970637,-2.1508 -3.858942,-6.1033 -1.862254,-1.3776 6.301602,16.197 24.470586,26.1564 41.500078,24.3535 z m 0.780628,-9.4722 c 11.475675,-1.8048 22.290709,-10.3534 24.811296,-21.98914 -4.172035,4.53384 -6.604825,10.60814 -11.949553,14.06614 -12.205045,9.2813 -31.484381,7.1101 -40.912737,-5.1504 -2.099069,-2.1019 -4.871472,-7.87401 -6.222058,-7.93262 1.386237,7.76972 7.764024,13.86562 14.438116,17.55512 6.024094,3.1969 13.077954,4.5467 19.834936,3.4509 z m -1.080868,-7.274 c 8.740686,-1.4316 17.148756,-7.9174 18.877894,-16.90215 -4.886509,5.89525 -9.880699,12.82015 -17.93131,14.29545 -10.325241,2.4479 -21.064392,-3.7599 -25.920485,-12.81436 -3.557646,-0.45285 2.854605,8.11766 5.064602,9.65436 5.378968,4.6759 12.858053,6.892 19.909299,5.7667 z m -2.066927,-6.7956 c 6.134726,0.2352 14.632595,-7.47989 13.473841,-11.30359 -4.6113,4.13428 -9.202816,9.84589 -16.172658,8.83519 -6.240969,0.7993 -10.942832,-7.45286 -14.772528,-8.07054 2.194188,7.12144 10.322629,11.27504 17.471345,10.53894 z m 0.73938,-7.4557 c 3.574343,1.02376 9.359614,-9.33497 3.860556,-4.72614 -4.696917,5.19898 -11.331872,0.88628 -15.259903,-1.11542 1.245893,4.92845 6.796197,7.00155 11.399347,5.84156 z m 0.700922,-11.2983 c 6.51464,-6.65376 -13.63822,-5.58561 -6.270381,-0.0166 2.059016,0.43379 4.208594,0.43169 6.270381,0.0166 z m -12.114032,-4.65197 c 4.634148,-6.41926 14.585887,-5.48204 18.842491,0.73545 2.66954,-4.78495 -6.064916,-9.20226 -10.752371,-8.23824 -4.235706,-0.49078 -12.290853,4.94608 -9.179366,8.67673 l 0.49205,-0.41399 z m 25.711065,-2.88795 c -1.373714,-8.52843 -11.360584,-12.50087 -19.11658,-11.59745 -6.468895,0.71822 -13.548326,4.77615 -14.643621,11.70504 5.250382,-4.11014 10.431523,-10.07649 17.823785,-9.05457 6.407264,0.23741 11.942715,4.45802 15.564643,9.49677 0.46499,0.18837 0.277604,-0.3341 0.371773,-0.54979 z m 5.553758,-3.99147 C 83.56519,964.21145 70.512125,958.98079 59.982148,960.6464 c -8.008503,1.08916 -16.070731,6.1846 -18.40538,14.26701 4.73634,-3.45887 8.144528,-8.87888 14.238125,-10.32619 10.854763,-3.74237 23.399401,1.23223 29.823357,10.48862 l 0.341709,0.20844 z m -47.544952,-8.31066 c 9.739037,-10.48989 26.320945,-14.65561 39.309561,-7.85344 3.753605,1.24058 9.935039,7.34605 11.182281,7.08322 -7.119237,-14.41797 -27.323038,-18.16397 -40.643292,-10.4465 -4.241077,2.31374 -9.657862,7.41705 -10.246039,11.41868 l 0.29021,-0.14745 z"
         id="path1643" />
      <path
         style="fill:#2d1c11;stroke-width:0.120096"
         d="m 61.095671,1045.4708 c -25.512458,-0.7323 -48.697617,-20.9106 -53.31044,-45.95429 -2.2707827,-11.3038 -1.1076199,-23.36249 3.756807,-33.8543 2.319763,9.68315 -1.675213,19.53058 0.340966,29.2729 2.378012,18.66729 15.421178,35.48229 33.061238,42.14339 20.109228,7.9691 44.812065,2.034 58.765128,-14.5898 10.49173,-12.0598 14.80382,-28.80047 12.285,-44.50266 -0.57459,-2.91362 -1.33148,-11.73527 1.01766,-11.34795 9.72472,22.64342 2.39005,51.10181 -17.05296,66.22951 -10.844925,8.7495 -24.943883,13.3475 -38.863399,12.6032 z m 0.180147,-14.5821 c -18.455113,-0.8922 -35.221843,-15.2134 -39.183874,-33.22572 -3.17503,-3.40016 2.324013,9.79962 -2.594218,7.59842 -8.839717,-12.19282 -8.770995,-29.53697 -1.261846,-42.37581 10.711115,-20.08878 35.55895,-31.17273 57.656415,-25.64046 21.281127,4.62856 39.227505,24.30571 39.277125,46.48859 -0.52265,7.6913 -1.88603,16.19603 -7.52975,21.90998 -3.33776,-1.2866 1.24255,-10.37677 -1.21394,-9.13196 -2.96787,11.18016 -9.506759,21.66436 -19.531318,27.75616 -7.57689,4.7825 -16.656907,7.248 -25.618594,6.6208 z m 6.148394,-1.4916 c 18.274454,-1.2328 35.040668,-16.2851 36.992768,-34.71073 -1.85546,4.81818 -4.09488,7.33483 -6.068275,11.79553 -7.176979,13.6187 -22.820033,22.2165 -38.193387,20.4117 -15.182008,-1.439 -28.920303,-12.4457 -33.490779,-27.00155 1.294934,6.91175 -1.273839,-2.63724 -2.862615,-3.82067 2.670593,20.29582 23.574375,35.38032 43.622288,33.32572 z m -1.884977,-9.236 c 15.373059,-0.3713 29.466032,-13.6585 30.094519,-29.14207 -4.058396,7.74566 -7.334294,16.59737 -15.159453,21.43187 -11.838413,8.4814 -29.751712,6.147 -38.858287,-5.2483 -4.140432,-4.5373 -6.241485,-10.48161 -9.217326,-15.6656 0.787614,16.391 16.94179,29.8337 33.140547,28.6241 z m 1.819241,-7.5162 c 11.421769,-1.3698 21.241019,-11.8953 21.059101,-23.53113 -3.574318,9.85055 -10.961878,20.10463 -22.2694,21.02723 -10.587276,1.1941 -20.296007,-6.324 -24.269945,-15.76795 -0.70006,-2.18321 -3.183232,-6.09061 -2.005178,-1.32252 2.112286,12.41297 15.065607,21.63517 27.485422,19.59437 z m -1.340403,-6.8967 c 8.681985,-0.7681 15.876165,-9.01401 15.568825,-17.70459 -2.398487,5.6067 -6.333994,11.11775 -11.879316,13.90979 -6.86272,2.9198 -15.098512,-0.3212 -19.026419,-6.42281 -1.334842,-1.74889 -5.174365,-8.83948 -3.711452,-2.71318 2.017715,8.18989 10.693037,14.07919 19.048362,12.93079 z m 35.387267,-6.05689 c -0.62389,0.49119 -0.0126,1.07929 0,0 z m -35.929627,-1.15562 c 5.387598,0.48057 10.270484,-8.98534 8.518373,-10.30011 -2.601745,5.96768 -11.150076,11.1663 -16.165265,4.70772 -1.924747,-1.94986 -5.739822,-6.324 -3.552772,-0.94414 1.711593,4.34048 6.532803,7.34095 11.199664,6.53653 z m 30.17256,-8.42973 -0.0041,0.4766 z m -29.876518,-1.9685 c 8.583659,-2.20836 -3.690369,-10.87293 -6.647408,-4.06943 -1.723531,3.48268 4.373565,4.98611 6.647408,4.06943 z m -12.192304,-0.58282 c 0.13893,-7.26493 9.404869,-12.36896 15.544974,-8.35258 3.661601,-0.3148 5.159809,11.58061 6.355252,4.07431 -0.886561,-7.67955 -11.060277,-10.52402 -17.28228,-7.38979 -4.866389,1.96406 -6.978755,6.95381 -4.617946,11.66806 z m 28.017547,-0.81137 -0.0041,0.47659 z m -35.136986,-1.37094 c -0.508587,-0.33071 0.294087,1.136 0,0 z m 35.179037,-0.49195 c 1.846418,-8.77642 -6.265609,-16.13505 -14.433665,-17.08374 -8.593718,-1.4252 -19.474397,3.29012 -20.986226,12.58593 -0.718867,3.11901 1.30944,4.50242 1.696742,0.61052 4.283062,-10.22092 18.975757,-13.89635 27.384605,-6.5049 3.273824,2.57499 4.708838,6.71225 6.338544,10.39219 z m 6.486978,-3.47013 c 0.378652,-11.897 -11.32109,-20.81668 -22.506232,-21.10762 -11.472317,-0.88558 -24.663729,6.66935 -25.670879,18.9795 1.072504,2.56153 2.678965,-5.88156 4.847033,-6.70824 8.011113,-9.97505 23.922458,-12.15206 34.02005,-4.11399 4.410426,3.3621 7.604338,8.19645 9.263501,13.46593 l 0.02927,-0.32421 0.0173,-0.19137 z m -53.091268,-7.85577 c 7.316465,-14.50264 26.23077,-21.66335 41.198179,-15.09985 7.174257,2.9961 13.117637,8.60707 16.934953,15.33951 -2.755641,-15.34931 -20.152199,-24.81033 -34.877984,-21.66627 -10.880568,2.01015 -21.49383,10.07906 -23.573858,21.36098 l 0.08704,0.15855 z"
         id="path1641" />
      <path
         style="fill:#29190e;stroke-width:0.120096"
         d="m 60.074857,1045.4146 c -29.182788,-1.2148 -54.5032859,-28.4144 -53.2807318,-57.67273 0.049806,-6.69105 0.9805871,-13.49141 3.7250818,-19.64496 1.207,10.45729 -1.2423616,21.14418 1.631506,31.45758 5.013837,22.31981 25.597765,40.22231 48.594141,41.22501 20.380021,1.3674 40.860416,-10.1425 50.207816,-28.3186 6.11178,-11.4356 7.27632,-24.79608 5.90421,-37.50445 -0.55497,-3.08921 0.64841,-9.97125 1.99518,-3.01093 8.28681,25.59292 -4.83105,55.90468 -29.101304,67.48828 -9.130381,4.5799 -19.492902,6.5863 -29.675899,5.9808 z m 1.239363,-14.6851 c -18.76413,-0.9849 -36.041543,-15.8245 -39.051384,-34.47477 0.06687,-2.52036 -2.202746,-8.8094 -1.908133,-2.78541 0.790575,2.50778 0.849822,11.54638 -3.011441,6.12311 -6.035607,-10.32079 -4.738677,-23.5841 0.129916,-34.12608 8.769156,-19.2561 30.339031,-31.54931 51.379817,-29.21933 21.372664,1.91183 41.130615,18.3254 44.983825,39.76181 1.42937,7.77309 0.86597,16.27433 -3.0406,23.25909 -5.43218,5.55138 -2.46347,-5.6643 -3.40396,-8.68817 -0.71708,-4.94495 -0.76612,4.72183 -1.72978,6.40487 -3.34233,15.62368 -15.810627,28.83228 -31.413984,32.54398 -4.213266,1.0711 -8.595046,1.4988 -12.934276,1.2009 z m 6.266658,-1.2032 c 20.213377,-1.323 38.386402,-19.7981 37.602842,-40.34396 -0.40506,0.47145 -3.30685,13.51786 -2.72672,5.14429 -1.64777,7.79377 -4.972319,15.44497 -10.777503,21.09447 -11.47379,11.9041 -30.773197,15.2463 -45.407531,7.387 -11.051754,-5.6982 -18.870973,-16.9045 -20.859231,-29.09329 0.365579,2.56864 0.474171,6.32289 -0.999439,1.79339 -0.706918,-2.57408 -1.975934,-10.83804 -1.713078,-3.86636 0.925795,18.82656 16.766715,35.28576 35.382057,37.56246 3.13958,0.4721 6.334337,0.5921 9.498603,0.322 z m -1.302541,-9.3032 c 17.227102,-0.7399 31.671589,-17.4942 29.929153,-34.65289 -0.231979,-11.80509 -5.287534,-24.41223 -16.235754,-30.08905 -15.011411,-8.51287 -37.254779,-3.08907 -44.448916,13.23548 -4.869451,11.35833 -6.027646,25.5427 1.0378,36.27516 6.244415,9.8659 17.935852,16.3651 29.717717,15.2313 z m -4.402038,-2.7815 c -12.177448,-0.6707 -22.675026,-9.8084 -26.50071,-21.16073 -2.917349,-5.30455 -3.518634,-11.51613 -1.794043,-17.29594 4.04288,-15.66514 21.610786,-25.96916 37.288373,-22.12248 14.402732,2.99752 26.417431,17.51264 24.070095,32.51509 -2.909446,11.57386 -10.118498,23.38276 -22.256159,26.79136 -3.488504,1.0677 -7.168953,1.4574 -10.807556,1.2727 z m 5.395165,-4.6702 c 13.512522,-1.2767 23.174442,-15.15782 21.801425,-28.26824 0.02681,-7.92522 -3.249064,-16.32641 -10.549465,-20.21545 -11.793894,-7.30638 -29.852565,-4.46328 -36.915667,8.07472 -3.53658,7.23094 -3.371516,15.88193 -1.370946,23.51501 3.646225,10.96126 15.479888,18.75866 27.034653,16.89396 z m -5.455212,-2.7209 c -11.42471,-0.9026 -19.524565,-11.65244 -21.656188,-22.19486 -1.497905,-13.84719 12.508655,-25.64699 25.872611,-24.04932 12.492971,0.55294 23.730658,12.87196 21.612973,25.47826 -2.834823,9.43159 -9.674127,19.19202 -20.159037,20.57092 -1.871424,0.3068 -3.782292,0.3737 -5.670359,0.195 z m 5.658422,-4.4186 c 9.571276,-1.6321 15.50062,-11.67474 14.900287,-20.91267 0.862999,-7.65011 -5.005511,-14.34812 -12.147638,-16.22752 -8.927499,-2.80832 -20.618772,0.99879 -23.989798,10.22564 -1.804462,8.76381 -0.0061,19.89912 8.492271,24.61665 3.790279,2.2433 8.404739,3.1858 12.744878,2.2979 z m -6.002418,-2.8398 c -6.534419,-0.6202 -9.690096,-6.92113 -13.213971,-11.39521 -4.328789,-8.6013 3.289494,-18.84832 12.119535,-20.21167 9.712726,-2.57082 20.688263,5.22473 20.547214,15.47525 -1.520935,7.02026 -6.830515,14.41493 -14.257592,16.13983 -1.710076,0.3439 -3.486807,0.3368 -5.195186,-0.01 z m 5.152365,-4.37997 c 7.100175,-1.72301 9.869097,-10.68852 8.684813,-17.12042 -3.986675,-9.20995 -19.853773,-8.79375 -22.976114,0.87264 -0.208629,5.80505 1.525673,13.36756 7.581919,15.75396 2.101764,0.88495 4.502668,1.11045 6.709382,0.49382 z m -4.207888,-2.58017 c -4.988721,-2.02244 -10.838085,-7.98306 -6.832994,-13.4658 4.111286,-6.46756 15.326173,-5.47009 17.852336,1.93157 1.487599,5.80264 -4.701992,11.57271 -10.228532,11.63954 -0.263601,-0.0351 -0.52721,-0.0702 -0.79081,-0.10531 z m 2.665104,-6.72414 c 8.539706,-0.75401 0.976196,-11.20712 -4.402277,-6.54494 -5.119811,2.64984 0.634988,7.75084 4.402277,6.54494 z m 12.707232,4.51665 c 0.176827,-0.64443 0.392286,0.45925 0,0 z m 24.821901,-0.75018 c -0.26762,0.12952 0.27225,0.45938 0,0 z m -77.290507,-0.3723 c -0.566232,-0.12 0.649145,0.89087 0,0 z m -4.277897,-3.6915 c -0.633141,-0.7631 0.213426,1.2313 0,0 z"
         id="path1639" />
      <path
         style="fill:#23140b;stroke-width:0.120096"
         d="m 60.254997,1045.4148 c -25.239601,-1.2415 -48.099326,-21.2329 -52.5054347,-46.15932 -1.7289854,-8.83836 -1.3732637,-18.11819 1.307193,-26.73217 0.2507413,14.11061 0.6421046,28.99399 8.1477527,41.45289 10.870648,19.521 34.692324,31.057 56.718292,26.3791 22.370603,-3.9959 40.74038,-23.5051 43.61026,-46.02276 1.14034,-7.36777 0.96097,-14.84388 1.21747,-22.27245 8.13805,24.745 -3.84971,54.15831 -26.932551,66.22961 -9.585665,5.2513 -20.657273,7.6994 -31.562982,7.1251 z m 1.020821,-18.4872 c -18.435,-0.7119 -34.455089,-16.8415 -35.601321,-35.14409 -0.352444,-2.97816 0.353362,-9.13769 -0.08319,-9.90289 -1.02242,2.54607 -0.176789,10.46547 -1.443964,9.48328 -1.586463,-4.73013 0.380811,-13.19007 0.09309,-15.69099 -3.775019,5.00973 -4.407623,11.35221 -4.583025,17.40727 -1.868228,6.4705 -5.655562,-4.5977 -5.410986,-7.36767 -1.465444,-19.50064 11.935097,-37.92815 29.591359,-45.28645 19.841121,-8.9533 44.897718,-2.99062 58.845989,13.64387 8.43654,9.92776 13.51843,24.0111 9.81985,36.89887 -0.20825,4.56799 -5.09862,4.76481 -4.32069,-0.20472 -0.52125,-5.36973 -1.02169,-11.10131 -4.53583,-15.11275 -0.97227,0.76656 1.75858,8.90769 0.6353,12.335 -0.24525,2.89419 -1.21245,6.59777 -1.08126,1.57811 0.15189,-2.50501 -1.71018,-12.20911 -0.71104,-4.57031 1.82793,19.05317 -12.399876,38.40597 -31.522054,41.34527 -3.18751,0.6058 -6.454176,0.8501 -9.692222,0.5882 z m 7.265827,-6.7042 c 16.162574,-2.0262 28.949177,-17.5149 28.402127,-33.71818 0.54141,-10.88415 -3.236135,-22.68374 -12.779397,-28.83282 -14.525866,-10.80699 -37.366137,-7.50705 -47.811517,7.39601 -5.002249,7.03002 -5.902762,16.12735 -5.302585,24.50997 1.269141,13.78362 11.122549,26.80172 24.929064,29.92932 4.09252,1.0294 8.379221,1.2586 12.562308,0.7157 z m -5.884719,-2.7932 c -13.467269,-0.1815 -24.847184,-11.3014 -27.670552,-24.08235 -4.903323,-11.84897 1.594558,-25.60276 12.04834,-32.01392 12.170799,-8.24051 29.921462,-6.01203 39.729259,4.90714 6.562594,6.90151 10.106102,17.50585 6.288605,26.62968 -2.194907,8.76365 -7.295038,17.15175 -15.612686,21.25165 -4.517909,2.3841 -9.674832,3.5788 -14.782966,3.3078 z m 4.327055,-4.421 c 13.615512,-1.2635 23.711834,-14.93857 22.696735,-28.25098 0.569071,-7.71555 -3.041854,-15.43574 -9.596602,-19.60824 -12.453232,-8.94474 -32.88484,-5.37779 -39.890109,8.77063 -3.132386,7.72781 -2.430905,16.79757 0.689737,24.40145 4.505625,9.67404 15.374144,16.26534 26.100239,14.68714 z m -6.068449,-3.12 c -10.606323,-1.2132 -18.879909,-11.57866 -18.321676,-22.11126 0.315251,3.57109 -1.261676,5.21078 -1.664828,0.70458 -2.412136,-13.70151 11.404257,-25.97689 24.666581,-24.66167 12.269412,0.59698 24.059117,12.60229 21.300574,25.23301 -0.333395,2.84028 -2.203844,3.8967 -1.373877,0.36607 -0.999218,5.27211 -2.22739,10.80907 -6.436566,14.53117 -4.702402,4.649 -11.640458,6.8447 -18.170208,5.9381 z m 6.845494,-4.1191 c 8.819384,-1.7152 14.977674,-10.53829 15.031169,-19.28213 2.302981,-9.99169 -7.782961,-18.51912 -17.101819,-18.91324 -8.862083,-0.74106 -19.174331,4.77604 -20.745344,14.05161 -0.406022,8.1889 2.048021,17.6586 9.731875,21.90896 3.886677,2.3246 8.643137,3.2107 13.084119,2.2348 z m -5.974912,-2.9634 c -7.311865,-0.9435 -12.452707,-8.34022 -12.220249,-15.45745 -0.241726,7.43022 -3.431227,-2.39731 -1.574627,-4.87751 2.779556,-10.13881 16.081386,-14.96521 24.800936,-9.17605 5.602336,3.25452 9.657558,10.87057 6.426121,17.03006 -1.664943,-5.93826 -0.69178,4.54744 -3.431991,6.18708 -2.948611,4.54677 -8.57801,7.40217 -14.00019,6.29387 z m 5.074183,-4.25868 c 6.699166,-1.89023 10.755381,-10.80012 8.890909,-17.10478 -4.358545,-8.84201 -18.631929,-9.15445 -23.413962,-0.52587 -2.043544,5.939 1.146857,13.53363 6.503667,16.69516 2.439088,1.26771 5.354848,1.66896 8.019386,0.93549 z m -3.777356,-2.66351 c -4.521264,-1.24674 -8.21023,-6.4945 -8.326461,-10.90094 1.666361,-7.52777 13.368112,-9.37623 17.292936,-2.68277 3.278522,4.49235 -1.498881,10.0355 -4.859848,12.82689 -1.242978,0.67376 -2.70194,0.9785 -4.106627,0.75682 z m 2.531877,-6.05155 c 8.349376,-1.28894 0.404083,-12.05013 -4.92674,-7.27914 -6.093228,3.01621 0.515035,8.90384 4.92674,7.27914 z m -29.777441,3.76191 c -0.267624,0.12954 0.272345,0.45933 0,0 z m 56.56289,-1.68886 -0.0057,0.29301 z M 35.57879,989.20384 c -0.541565,-2.60239 1.207402,-7.99687 0.831635,-8.52853 -1.269726,1.74711 -1.111295,13.19648 -0.832012,8.70608 l 3.4e-4,-0.17755 z m 57.03241,0.87071 c 0.570432,-2.07069 -1.309674,-10.83548 -0.309833,-4.52605 0.218238,0.61882 -0.20462,7.11049 0.309833,4.52605 z m -1.011049,-8.94719 c -0.644835,-1.58978 0.418644,1.88784 0,0 z M 37.30631,978.60534 c -0.498163,0.1745 0.0828,0.75462 0,0 z m -14.879832,0.99079 c 0.328923,-1.45097 0.601075,0.61019 0,0 z m 82.504372,-0.8707 c 0.28986,-0.47164 0.28981,0.47165 0,0 z m -82.025825,-0.0983 c 0.193561,-0.65613 0.56048,0.0807 0,0 z"
         id="path1637" />
      <path
         style="fill:#1d1008;stroke-width:0.120096"
         d="M 59.89471,1045.3709 C 32.625357,1044.0083 8.7064415,1020.33 6.8646265,993.1201 6.4351455,987.91694 6.746685,982.64888 7.8360934,977.54132 c -0.1457068,18.6689 5.7720496,38.46308 20.4071056,50.88278 15.729506,14.0589 39.86434,17.4107 58.840149,8.2018 16.446182,-7.6568 28.200142,-23.7696 31.284152,-41.55613 1.17972,-5.96162 1.62708,-12.04825 1.64222,-18.11899 5.31185,23.07652 -6.12068,48.54732 -26.561896,60.34842 -10.021436,6.0022 -21.891274,8.914 -33.553114,8.0717 z m 1.794333,-18.4904 c -18.84947,-0.7064 -35.460021,-17.4 -35.877242,-36.30654 -0.391717,-8.42755 2.134333,-16.8242 6.423086,-24.03058 -4.766189,5.49631 -6.426701,12.81725 -7.773388,19.77429 -1.782156,-6.40042 2.93491,-15.71412 3.714061,-19.42354 -5.915347,5.16068 -7.114595,13.33342 -9.05693,20.513 -5.632753,0.0844 -3.90992,-9.63821 -3.269816,-13.58719 4.506694,-21.83367 26.220742,-37.57347 48.156008,-37.33659 22.826248,-0.2409 45.636468,17.06179 48.517388,40.26351 0.97855,3.29494 -0.81872,15.39107 -4.50714,8.2682 -0.86561,-5.70271 -2.46174,-11.32261 -5.99397,-15.99127 -1.1103,-2.10175 -4.319476,-3.57185 -1.7448,0.0646 2.51344,4.74042 4.198,13.77296 3.16196,16.82886 -1.29137,-6.94424 -3.18088,-14.12769 -7.844925,-19.63184 8.042995,12.57772 9.092035,29.68194 0.954191,42.46869 -7.206928,11.7089 -21.066635,19.1996 -34.858483,18.1263 z m 5.531549,-6.244 c 16.411966,-1.4524 30.010565,-16.3926 30.504283,-32.77043 0.879003,-7.11575 1.596805,-15.1522 -3.272799,-21.10083 -7.477572,-10.44066 -20.384137,-16.66069 -33.235329,-15.53525 -13.76528,0.78074 -26.735921,10.06116 -31.573405,23.02441 -0.361935,9.09773 0.104414,18.68692 4.073605,27.0469 5.855975,12.598 19.546526,20.9185 33.503645,19.3352 z m -6.425161,-3.4116 c -14.943099,-1.1426 -26.657003,-15.9881 -24.974305,-30.74919 -0.274654,-2.77481 2.150417,-8.30129 1.532658,-2.15629 0.204787,11.50004 6.427383,23.64028 17.797448,27.57088 13.045114,5.0847 28.968813,-2.7773 33.273953,-15.99798 1.772025,-5.05015 2.13819,-10.44686 2.312139,-15.75489 5.476914,14.69292 -4.032324,32.79137 -19.400332,36.29337 -3.421202,0.9257 -7.02005,1.2237 -10.541561,0.7941 z m 1.621302,-7.2273 c -12.520288,-0.5267 -22.756464,-14.45201 -18.741988,-26.45355 1.333794,5.04304 1.574833,10.8813 5.217437,15.11689 5.821033,8.03406 18.217622,10.40816 26.120348,4.06256 6.104433,-4.56338 8.417974,-12.30459 9.108811,-19.57224 2.294881,5.1365 0.6748,13.30145 -3.18291,18.17434 -4.177226,5.7641 -11.329601,9.5049 -18.521698,8.672 z m -0.900721,-7.3226 c -8.611307,-1.1207 -13.577858,-11.28415 -10.906551,-19.14293 -0.700637,3.41796 -3.035417,5.64618 -2.483172,0.69237 1.142825,-12.05111 18.112318,-17.47783 26.600144,-9.21184 4.053755,2.1121 6.570784,11.40109 4.134789,12.30417 -0.88097,-3.33329 -2.071994,-4.46418 -0.88215,-0.41449 1.29303,8.993 -7.376468,17.79002 -16.46306,15.77272 z m 5.40434,-3.94797 c 6.241283,-1.88925 10.984334,-9.50515 9.758613,-15.80636 -3.154985,-8.76891 -15.840426,-11.15358 -22.377747,-4.72829 -6.19907,5.0295 -2.450176,14.54939 2.92017,18.67384 2.720111,2.0538 6.408169,2.90877 9.698964,1.86081 z m -4.503619,-3.02095 c -4.624996,-1.05187 -5.77842,-6.93027 -7.316731,-10.21947 0.890421,-7.00499 10.043955,-9.56849 14.987945,-4.96634 5.606877,4.37916 0.620919,10.01136 -2.189956,14.3279 -1.524632,1.02117 -3.709685,1.24524 -5.481258,0.85791 z m 3.482117,-5.20382 c 8.797453,-1.68966 0.02853,-13.0835 -5.556342,-7.8558 -6.11223,3.34402 0.862171,9.97014 5.556342,7.8558 z m -24.244473,-2.49591 c -2.686256,-12.8774 10.104981,-24.49838 22.503447,-24.04057 11.831838,-0.11883 23.953577,10.47319 22.353337,22.83401 -1.398497,1.56815 -2.06136,-8.11191 -4.983949,-9.9121 -7.004768,-11.80096 -25.913711,-12.55665 -34.001434,-1.55742 -3.181661,3.31734 -5.105026,9.57555 -5.871401,12.67608 z m 51.266836,-0.99685 c -0.860687,-15.41386 -15.766336,-28.61644 -31.271638,-26.79392 -13.234307,0.9997 -25.086569,12.11613 -26.433215,25.40524 -2.447673,0.10603 -0.76914,-8.25986 0.753487,-10.95435 5.512476,-13.24927 21.244366,-20.80249 35.084179,-17.26315 12.442017,2.71503 23.664274,14.38331 22.594983,27.62228 -0.08092,0.19729 -0.516978,3.26994 -0.727796,1.9839 z m -68.56555,-0.18757 c 0.2216,-0.29174 -0.01275,0.55049 0,0 z"
         id="path1635" />
      <path
         style="fill:#190d06;stroke-width:0.120096"
         d="M 60.134904,1045.3716 C 33.745132,1044.2027 10.299917,1022.1049 7.2567662,995.91618 6.7061807,991.7817 6.6116503,987.58546 6.9931556,983.43153 c 0.9673439,22.23047 13.4233524,44.83167 34.3475274,53.95407 21.268364,9.9242 48.543013,4.1315 63.841777,-13.708 9.926,-11.1951 14.99742,-26.10255 15.72658,-40.91457 2.99602,24.24687 -12.06675,49.09407 -34.666612,58.16337 -8.207106,3.4579 -17.216738,5.0124 -26.107524,4.4452 z m 1.561247,-18.5656 c -18.811771,-0.702 -35.846636,-17.7181 -35.369691,-36.74619 3.620327,-1.96939 4.071439,6.56889 5.924708,9.07848 4.86396,12.82981 17.883908,21.97341 31.655492,21.83821 13.651841,0.3803 26.342422,-8.8048 31.559621,-21.21607 2.596187,-2.9799 1.584671,-10.60625 5.836239,-10.76842 1.1883,5.04311 -0.74362,10.60365 -2.631438,15.38069 -6.229683,14.1331 -21.480066,23.6621 -36.974931,22.4333 z M 27.195969,989.94193 c -0.405731,-0.33856 -0.169608,0.30102 0,0 z m 35.340865,27.37757 c -15.518333,-0.3168 -28.951035,-15.8058 -26.327039,-31.23515 1.462892,4.28263 2.633839,11.95983 6.542918,16.43335 7.307068,10.9642 23.363292,14.4874 34.490397,7.3071 8.065057,-4.4938 12.461308,-13.30272 13.801259,-22.15302 1.300451,-5.60032 1.299614,4.20871 0.660248,6.20377 -2.073609,13.24945 -14.429262,23.92335 -27.932667,23.49555 z m -1.618015,-7.5597 c -10.524921,-1.3154 -19.18417,-11.90861 -17.641216,-22.54489 2.521998,8.16339 7.388517,17.30389 16.654443,18.86339 9.728468,2.161 20.126251,-4.2925 22.807974,-13.83461 0.391392,-2.06478 2.665087,-7.24306 2.123022,-1.9479 -0.36478,11.78871 -12.295796,21.60231 -23.944223,19.46401 z m 1.55796,-6.9693 c -7.164353,-0.6742 -13.370703,-7.83267 -12.198223,-15.09635 2.730353,6.33312 8.585743,13.32335 16.310548,11.33333 5.654143,-0.90985 8.240557,-7.18595 11.239302,-10.55826 0.702545,8.18206 -7.301729,15.35188 -15.351627,14.32128 z m 0.347489,-7.0638 c -5.296687,-0.60081 -6.635888,-8.21355 -6.980377,-12.05944 2.397705,-6.80682 14.166538,-7.16537 16.201278,7e-5 1.250702,3.65581 -2.027443,2.68141 -1.315241,6.42713 -0.820964,3.46129 -4.173036,6.52321 -7.90566,5.63224 z m 2.962761,-4.64321 c 9.3082,-1.28433 0.846446,-13.90151 -5.443742,-8.584 -6.003152,3.8932 -0.289492,10.68073 5.443742,8.584 z M 48.921716,985.8691 c -1.45883,-9.21792 9.202292,-16.14806 17.595725,-14.43021 6.401377,0.92477 12.898932,6.11003 12.663485,13.04992 -2.652856,-1.17781 -4.6564,-7.85001 -9.348947,-8.77434 -6.923192,-3.19704 -15.584488,0.11212 -19.039627,6.81251 -0.651639,1.09835 -1.214956,2.24615 -1.870636,3.34212 z m -6.869309,-1.27187 c -0.777659,-12.94926 13.452368,-22.32863 25.426834,-20.17812 9.329336,1.33892 18.323522,9.13292 18.45351,19.00077 -2.52845,-3.0989 -4.326029,-9.00437 -8.746949,-11.49036 -8.531869,-6.80455 -22.03234,-5.80567 -29.18225,2.56938 -2.650592,2.9126 -4.573473,6.42589 -5.951145,10.09833 z M 7.0757145,982.98886 c 0.1634592,-0.54972 0.031909,0.76631 0,0 z m 11.3857435,-0.65344 c -4.003991,-4.54029 -1.331743,-11.14776 0.288665,-16.15934 8.76732,-22.33689 35.863404,-34.34442 58.581851,-27.65608 17.056571,4.62928 32.106336,19.14638 34.178326,37.13882 0.88758,4.17868 -4.25434,8.20606 -4.67542,1.96722 -2.55657,-5.98479 -5.16821,-12.68952 -11.086732,-16.12782 3.204891,5.14552 7.655982,14.3814 6.892962,18.27636 -3.171667,-8.86444 -7.857606,-18.24976 -16.865591,-22.36361 -9.657345,-6.09621 -21.782331,-8.31368 -32.800404,-4.91547 -6.980065,2.09074 -13.414986,6.00304 -18.752645,10.90871 -4.413403,4.54872 -6.632648,10.88948 -8.999262,16.41911 -0.203922,-6.02626 2.920423,-11.3263 5.943602,-16.28807 -1.684109,-2.0459 -6.14674,5.4434 -7.225587,7.8615 -2.094812,3.43208 -2.520837,8.20915 -5.479765,10.93867 z m 16.816584,-0.87793 c 0.129071,-13.19247 12.741095,-23.19684 25.147977,-24.52881 13.707853,-1.65055 28.993039,7.01963 32.006304,21.00065 0.498359,7.63774 -2.287264,-3.78041 -4.492207,-5.4607 -8.346588,-12.34624 -26.508107,-16.11965 -39.075214,-8.12769 -6.094097,3.68902 -10.876946,9.61707 -12.872744,16.4854 0.869364,0.68657 -0.718839,1.83215 -0.714116,0.63115 z m 2.759127,-21.1068 c 0.269577,-0.46507 0.158093,0.45537 0,0 z"
         id="path1633" />
      <path
         style="fill:#130a04;stroke-width:0.120096"
         d="m 60.375098,1045.3744 c -28.434151,-1.2682 -53.9902229,-26.9347 -53.4653113,-55.70082 2.5471298,23.47552 19.6847713,45.41712 42.9652683,51.24962 22.500345,6.1276 48.128851,-3.7518 60.757855,-23.3552 5.76045,-8.5178 9.25365,-18.48571 10.46516,-28.67607 0.53026,27.14337 -21.494162,52.35367 -48.345536,55.90117 -4.08973,0.6313 -8.246557,0.8248 -12.377436,0.5813 z m -0.720582,-18.8549 c -14.579564,-1.5622 -28.126783,-12.4887 -31.502231,-26.95634 2.618314,-4.80077 5.590237,5.06484 7.588436,7.12194 8.745641,12.2076 25.730117,18.0689 39.923055,12.5296 9.525602,-3.4217 17.114798,-11.2561 21.050255,-20.46093 6.076099,-4.20031 1.50025,7.41413 -0.509746,9.83313 -7.366613,12.331 -22.242583,19.8402 -36.549769,17.9326 z m 39.992098,-28.69165 c -0.230798,-0.73181 -0.477354,0.4167 0,0 z M 61.455966,1017.203 c -13.635349,-1.0478 -25.987025,-13.6219 -25.225787,-27.5056 2.020285,5.41076 4.244389,11.6671 8.778029,15.9105 8.726366,9.6757 24.781843,10.9046 34.894316,2.6899 6.290409,-4.4711 9.634577,-11.68571 11.636039,-18.9106 1.186515,6.20852 -2.691454,14.5575 -7.55782,19.4501 -5.742539,6.1469 -14.205072,9.0713 -22.524777,8.3657 z m 0.840674,-7.337 c -9.955742,-0.6371 -19.073124,-9.551 -18.862701,-19.72395 3.231897,7.67891 9.105545,15.44115 17.977885,16.42105 9.393089,1.2714 18.66173,-5.1896 21.71275,-13.98624 3.501974,-5.23029 -0.201956,7.80604 -2.649797,9.23324 -4.235985,5.4516 -11.250493,8.7592 -18.178137,8.0559 z m -1.136815,-7.3585 c -5.54929,0.1314 -12.345714,-9.71963 -9.88972,-11.46254 3.509087,5.73647 10.60689,10.62844 17.423862,7.51639 3.885085,-0.73617 7.46711,-8.26873 8.776661,-7.82187 -0.396909,7.75187 -8.888301,13.56822 -16.310803,11.76802 z m 1.292178,-6.91262 c -4.324214,0.63953 -7.435371,-10.68427 -1.781445,-4.34758 3.698994,2.89979 13.505742,-5.92581 8.455999,2.00302 -1.578301,1.90595 -4.224802,3.03459 -6.674554,2.34456 z m -6.410532,-9.20779 c -1.07328,-7.79988 11.257303,-10.63627 14.911008,-4.34373 2.699333,3.19491 -0.478051,5.94778 -1.967774,1.5894 -4.011467,-4.31425 -10.424135,-1.04007 -12.795478,3.04767 z m -6.668162,-2.54805 c 0.0043,-9.06636 10.714502,-14.21378 18.6828,-11.95405 5.306613,-0.0528 11.896984,9.09984 9.803206,10.63453 -4.333499,-6.12526 -12.806428,-10.59669 -20.017607,-6.71417 -3.53806,1.76489 -6.343377,4.74764 -8.468399,8.03369 z m -6.652226,-2.79294 c 2.161125,-14.5002 21.341227,-21.30997 33.063352,-13.40605 4.845229,2.90958 8.970017,7.8332 9.302264,13.67213 -4.627131,-9.02044 -14.811439,-15.9861 -25.229006,-13.55245 -7.416539,1.48049 -13.670097,6.9582 -16.855686,13.63424 l -0.27872,0.0204 z m -6.242823,-3.13132 c 1.15831,-10.79549 11.508865,-18.12806 21.417556,-20.38924 13.32283,-2.722 29.334508,4.36153 33.205361,18.08019 -0.380537,3.81968 -3.371535,-4.86333 -4.916606,-5.74605 -6.249515,-6.82138 -15.623607,-10.62877 -24.884526,-9.68569 -9.98299,0.64751 -18.886168,7.10546 -23.558543,15.8078 -0.414889,0.64833 -0.830133,1.2966 -1.263242,1.93299 z m -17.296223,-0.73612 c -3.110171,-4.9406 0.119985,-10.91103 2.199401,-15.61205 11.13827,-21.11876 39.272854,-30.27664 61.049528,-21.03502 13.341737,5.20767 25.075204,16.70617 27.466224,31.21415 0.77664,5.35812 -3.65489,5.87016 -4.75368,0.73656 -3.11072,-5.58297 -6.603311,-11.64759 -12.707178,-14.36107 3.671234,4.19818 8.897698,13.10609 8.512918,16.11347 -4.220469,-8.75396 -10.917627,-16.82267 -20.380952,-20.03365 -14.232177,-6.2789 -32.006944,-3.68387 -43.816206,6.40985 -4.359295,4.04013 -7.56692,9.16302 -10.06212,14.51894 0.485598,-6.2044 4.61863,-11.38129 8.236118,-16.16776 -2.500261,0.0397 -6.640174,4.59516 -8.503041,7.53546 -2.415615,3.40374 -3.958201,7.55301 -6.640663,10.66136 l -0.299231,0.11518 -0.30112,-0.0954 z"
         id="path1631" />
      <path
         style="fill:#0a0401;stroke-width:0.120096"
         d="M 60.675338,1045.3782 C 35.48878,1044.207 11.976911,1024.3784 7.9696228,999.26261 c 5.8975912,24.43159 28.9566082,43.70039 54.2433752,44.18579 23.368264,0.8404 46.178992,-14.1347 54.878352,-35.8071 1.17742,-2.1153 3.20576,-9.95504 2.98884,-8.27636 -4.75749,27.21336 -31.843531,48.24376 -59.404852,46.01326 z m 1.261007,-18.931 c -9.813256,-0.767 -19.833667,-5.0469 -25.685243,-13.2279 0.546851,-6.0262 6.896001,3.6503 10.308512,4.1595 11.123475,6.1207 25.398429,5.8774 36.223522,-0.7729 2.806407,-0.6801 8.068148,-8.7765 9.197822,-4.5491 -2.78459,6.4119 -9.686761,9.8279 -15.846649,12.3128 -4.538315,1.6043 -9.389784,2.3204 -14.197964,2.0776 z m -1.573676,-9.4654 c -10.902646,-1.4571 -20.879608,-9.8763 -23.131801,-20.80369 5.22693,9.43069 14.381129,17.77979 25.722634,17.88469 11.506018,0.4507 22.320067,-7.0142 27.07544,-17.31522 1.890265,-0.98201 -1.651546,6.27752 -2.783541,7.75852 -5.677311,8.822 -16.436914,14.0052 -26.882732,12.4757 z m 1.033242,-7.3218 c -7.881552,-0.931 -15.152752,-6.8485 -17.017044,-14.6656 4.737483,6.3878 11.546138,12.55 20.060963,11.9876 7.15422,-0.3072 13.941882,-4.4655 17.709867,-10.51537 2.858386,-0.29625 -2.725314,7.19747 -4.651439,8.45547 -4.608668,3.3431 -10.307132,5.6557 -16.102347,4.7379 z m 1.050468,-7.0406 c -4.850627,0.3451 -11.712919,-6.76261 -10.602359,-8.84285 4.446499,4.18761 10.887128,7.99755 17.032669,5.06464 2.642681,-0.50185 7.594901,-6.7654 7.712986,-4.76608 -2.070002,5.58829 -8.230473,9.32419 -14.143296,8.54429 z M 7.6622655,998.23109 c 0.2216076,-0.29174 -0.012782,0.5505 0,0 z M 7.5421686,997.6306 c 0.221615,-0.29173 -0.01279,0.55053 0,0 z m 112.7799814,-0.05 c 0.10413,-0.54662 0.10415,0.54659 0,0 z m -57.719047,-2.05677 c -3.184091,0.30398 -7.023473,-7.40682 -1.672757,-3.66423 2.930763,2.81149 12.621771,-4.36439 7.470218,2.00154 -1.560722,1.35944 -3.743766,2.06257 -5.797461,1.66269 z m -5.946776,-10.82357 c 0.449461,-7.70278 14.294266,-7.75576 14.575436,0.0577 -4.03753,-3.73922 -10.675903,-4.54105 -14.21285,0.25231 l -0.220889,-0.044 -0.141697,-0.26598 z m -5.888942,-4.00831 c 2.893346,-11.27147 21.176556,-12.19055 25.748289,-1.79753 -0.794524,2.19604 -5.975248,-4.91695 -9.428809,-4.15704 -5.752755,-1.35451 -11.810631,1.09405 -15.570873,5.52581 z m 30.324335,-5.61179 c -6.532022,-7.19812 -17.766462,-10.33085 -26.64433,-5.73736 -3.599417,1.09253 -5.689071,5.54642 -9.112379,6.24419 6.433978,-13.96561 29.087263,-14.68774 36.559751,-1.33467 1.129642,1.73936 1.714036,3.78882 -0.803042,0.82784 z m -41.012913,-3.87681 c 4.824585,-11.55516 19.350748,-15.89005 30.820315,-13.15921 6.772519,1.54275 13.282782,5.62705 16.451533,11.97435 -4.39298,-2.22504 -8.139058,-7.68287 -13.820821,-8.61316 -11.345425,-4.05671 -25.096361,0.28814 -32.537008,8.94831 -0.258125,0.14269 -0.548537,1.21107 -0.914019,0.84971 z M 22.10425,969.2887 c -2.567249,-6.19648 2.816017,-12.11296 6.345632,-16.71553 17.017757,-19.11485 49.811803,-20.4631 68.2692,-2.66837 4.942628,4.39234 9.331938,10.19517 9.740778,17.02742 -4.61894,3.5642 -7.040338,-6.58656 -10.994661,-8.44915 -2.278246,-2.34986 -8.826542,-5.82268 -9.736002,-5.33565 4.280757,3.89197 9.326737,7.59798 11.323198,13.24552 -3.981862,-4.27496 -8.170204,-9.06641 -13.650799,-11.73742 -13.47981,-6.07829 -30.1096,-5.46269 -42.795007,2.27071 -3.374183,2.06694 -8.795498,9.7951 -9.719148,8.77495 1.787942,-4.94366 9.893288,-10.7414 10.902465,-12.54119 -7.374324,2.28334 -12.560764,8.23501 -16.911718,14.27359 -0.769924,0.81207 -1.666613,1.55522 -2.773938,1.85512 z m 62.543325,-16.99145 c -1.146981,-0.77107 0.597242,0.83847 0,0 z m -0.493399,-0.16891 -0.471803,-0.26763 z m -38.487709,-2.56311 -0.282954,0.18095 z m 30.868662,-0.80764 c -1.357897,-0.82665 0.494211,0.63129 0,0 z m -7.75329,-3.05863 c -0.434328,-0.50619 -0.434352,0.50618 0,0 z m -4.235894,-0.31276 c -0.405723,-0.33856 -0.169604,0.30102 0,0 z"
         id="path1629" />
      <path
         style="fill:#050100;stroke-width:0.120096"
         d="m 61.215772,1045.354 c -21.113721,-0.7673 -41.127496,-14.5235 -49.471881,-33.9232 10.149891,21.3366 34.176628,35.1786 57.767827,32.5674 19.493943,-1.7937 37.605692,-14.2805 46.271102,-31.8259 -9.05318,20.9779 -31.889498,34.4448 -54.567048,33.1817 z m -0.360295,-28.4506 c -3.256478,-0.2927 -6.908191,-1.8305 -1.672314,-0.3794 2.804464,0.9767 11.260192,-0.3929 10.177767,0.043 -2.808801,0.45 -5.669991,0.5325 -8.505453,0.3363 z m 0.960775,-0.4684 c -8.589567,-0.7654 -17.132493,-5.3674 -21.416778,-13.0298 7.492975,10.1308 21.700137,15.1557 33.604811,10.2759 5.513422,-2.1597 10.255579,-6.0596 13.76781,-10.7951 -4.668919,9.3982 -15.847215,14.1237 -25.955843,13.549 z m -50.252614,-5.3684 c -0.106577,-0.5254 0.401204,0.6233 0,0 z m 104.656272,0.092 c 0.13837,-0.6835 0.24394,0.4214 0,0 z m -55.304378,-1.9846 c -4.664976,-0.039 -12.226686,-5.3827 -12.539907,-7.4115 4.280529,3.8936 9.860796,7.0309 15.828759,5.8947 2.19881,1.1736 9.457602,-1.5645 13.112373,-4.1555 2.553465,-2.4204 4.084082,-2.9452 0.836502,0.3202 -4.506497,4.3452 -11.093794,6.1648 -17.237727,5.3521 z m 2.341875,-1.0319 c -0.619091,-0.568 -0.340389,0.6534 0,0 z m -0.780628,0.01 c -0.434353,-0.5061 -0.434328,0.5062 0,0 z m 2.767348,-0.3519 0.292018,-0.1443 z m -4.328595,-0.1284 c 0.676128,-0.5501 0.550551,0.5126 0,0 z m 3.760516,0.038 c 0.459432,-0.2722 0.129496,0.2673 0,0 z m -1.718882,-5.4417 c -3.510361,0.5397 -9.75958,-4.13135 -9.196277,-5.11691 4.089956,3.39761 10.318589,4.14551 15.292725,2.44224 2.615896,-0.99065 8.098672,-4.18565 3.439394,-0.16447 -2.664513,2.11504 -6.162987,3.06294 -9.535842,2.83914 z m -6.064865,-2.88301 c -0.412172,-0.49958 -0.310605,0.48976 0,0 z m 5.419195,-4.39284 c -3.248196,-1.16919 -4.00457,-3.19292 -0.363066,-0.81203 5.314122,0.74655 -4.164369,-1.53599 1.696819,-0.99722 2.114307,0.98518 7.926665,-1.07591 2.953087,1.32033 -1.242085,0.45234 -3.10595,1.59259 -4.28684,0.48892 z m 3.107647,-0.7713 c -0.636612,-0.41027 -0.732281,0.53228 0,0 z M 57.973168,983.1752 c 1.158107,-6.36283 12.179974,-3.26841 11.289444,-0.56635 -3.26037,-2.37043 -8.274384,-2.08386 -11.289444,0.56635 z m -3.769199,-6.10265 c 3.305281,-3.30805 7.592426,-6.43881 12.541163,-4.75964 2.363921,0.36 5.69543,2.70182 1.241002,1.02212 -2.510552,-0.95717 -6.818472,-0.40571 -6.485872,0.43471 -2.628619,0.56575 -5.1302,1.71311 -7.296293,3.30281 z m 4.530233,-2.96279 -0.455626,-0.15519 z m 1.430725,-0.30636 c 0.578713,-1.31449 -2.059352,0.85234 0,0 z m 12.923667,2.88467 c -0.562906,-0.87238 1.098208,0.97188 0,0 z m -1.541718,-0.99329 c -1.959928,-1.77733 -12.725431,-2.85325 -5.284091,-2.35463 1.028651,0.31273 6.513615,1.84997 5.284091,2.35463 z m -21.13978,-4.59895 c 0.163558,-1.01909 0.862334,0.55978 0,0 z m 0.67837,-0.47981 c 0.868266,-1.1785 3.898782,-2.26563 1.130374,-0.50784 z m 24.832097,-0.4722 c -0.955659,-1.55818 2.376055,1.7667 0,0 z m -1.571913,-0.90366 c -2.848335,-1.66605 3.296698,1.20212 0,0 z m -20.335662,-0.60631 c 0.48039,-1.76596 7.594897,-1.33821 8.659499,-2.85341 -1.812731,0.28945 -8.941798,1.47521 -3.327451,-0.26099 2.952472,-0.89115 12.339624,-0.61491 11.246721,2.13392 -5.841759,-1.62564 -11.039543,-1.20793 -16.578769,0.98048 z m 16.813494,-1.62831 c -3.058832,-2.29477 -4.360226,0.26239 0,0 z m -3.843084,-0.81589 c -0.551609,-0.97397 -0.61987,0.55276 0,0 z m -1.88387,-0.13488 c 1.766639,-1.10017 -3.951502,0.56178 0,0 z m 9.089651,2.04242 c -0.04452,-0.71601 0.956807,0.89427 0,0 z m -18.614938,-1.03205 c 0.62295,-1.06916 1.286747,0.44378 0,0 z m -28.07253,-5.59303 c -3.325197,-4.25663 3.24793,-9.38198 5.903474,-12.5221 17.403367,-15.69139 47.302767,-14.97387 63.415485,2.22808 2.553127,2.0046 7.67226,11.90026 0.936064,8.62669 -6.411494,-6.04515 -13.683659,-11.62082 -22.452811,-13.64947 -15.104727,-4.15992 -32.149709,0.50687 -42.916688,11.92318 -1.490526,1.3108 -3.076645,2.55059 -4.885524,3.39362 z m 27.952433,-0.93157 c 1.416431,-1.60882 0.965114,0.44961 0,0 z m -2.762217,-0.18562 c 0.980046,-1.5253 0.532077,0.62323 0,0 z m 4.083277,-0.23751 c 2.500193,-1.39388 2.488575,0.26847 0,0 z m 16.993634,-0.1483 c -4.719685,-2.20422 -13.136617,-1.57664 -16.056843,-1.31983 5.309964,-1.50698 12.670042,-1.44674 16.957285,1.71812 l -0.141459,0.074 z m -20.171058,0.0296 c 0.619965,-0.88221 1.719434,0.1338 0,0 z m 13.355595,-0.4546 c -0.751031,-1.04581 3.324926,0.7163 0,0 z m -6.455185,-0.15417 c 0.739217,-0.56608 0.656264,0.45736 0,0 z m 3.482798,-0.1201 c 0.289853,-0.47164 0.289812,0.47164 0,0 z m 1.170938,0.0406 0.293009,0.006 z m 0.968276,-0.002 c 0.459367,-0.27225 0.129522,0.26761 0,0 z m -29.280997,-0.14163 c 12.266665,-14.32449 35.94477,-15.1969 50.44327,-3.85812 2.385827,1.77202 4.500274,5.17065 0.453955,1.6792 -13.742664,-10.22371 -34.154218,-10.39209 -47.720019,0.25553 -1.012635,0.7125 -2.050635,1.40112 -3.177206,1.92339 z m 17.511553,-8.02493 c 0.459368,-0.27225 0.129527,0.26761 0,0 z m 1.403627,-0.33971 c 4.7776,-1.1697 10.254432,-1.29592 14.89195,-0.0672 -4.60333,-0.94968 -12.315579,-0.1413 -14.89195,0.0672 z"
         id="path1627" />
    </g>
  </g>
</svg>
