<?xml version="1.0" encoding="UTF-8" standalone="no"?>
<svg
   width="128"
   height="128"
   viewBox="0 0 128 128"
   id="svg2"
   version="1.1"
   inkscape:version="1.2.2 (1:1.2.2+202305151915+b0a8486541)"
   sodipodi:docname="manwhite.svg"
   xmlns:inkscape="http://www.inkscape.org/namespaces/inkscape"
   xmlns:sodipodi="http://sodipodi.sourceforge.net/DTD/sodipodi-0.dtd"
   xmlns:xlink="http://www.w3.org/1999/xlink"
   xmlns="http://www.w3.org/2000/svg"
   xmlns:svg="http://www.w3.org/2000/svg"
   xmlns:rdf="http://www.w3.org/1999/02/22-rdf-syntax-ns#"
   xmlns:cc="http://creativecommons.org/ns#"
   xmlns:dc="http://purl.org/dc/elements/1.1/">
  <defs
     id="defs4">
    <linearGradient
       inkscape:collect="always"
       id="linearGradient2102">
      <stop
         style="stop-color:#555753;stop-opacity:1"
         offset="0"
         id="stop2098" />
      <stop
         style="stop-color:#000000;stop-opacity:1"
         offset="1"
         id="stop2100" />
    </linearGradient>
    <linearGradient
       inkscape:collect="always"
       xlink:href="#linearGradient2102"
       id="linearGradient2104"
       x1="62.694489"
       y1="924.36218"
       x2="62.694489"
       y2="1052.4132"
       gradientUnits="userSpaceOnUse"
       gradientTransform="rotate(-90,64,988.3622)" />
    <filter
       inkscape:collect="always"
       style="color-interpolation-filters:sRGB"
       id="filter2961"
       x="-1.0485384e-05"
       width="1.000021"
       y="-1.0485384e-05"
       height="1.000021">
      <feGaussianBlur
         inkscape:collect="always"
         stdDeviation="0.00051749808"
         id="feGaussianBlur2963" />
    </filter>
  </defs>
  <sodipodi:namedview
     id="base"
     pagecolor="#ffffff"
     bordercolor="#666666"
     borderopacity="1.0"
     inkscape:pageopacity="0.0"
     inkscape:pageshadow="2"
     inkscape:zoom="7.919596"
     inkscape:cx="49.750013"
     inkscape:cy="75.382633"
     inkscape:document-units="px"
     inkscape:current-layer="layer1"
     showgrid="false"
     units="px"
     inkscape:snap-page="true"
     inkscape:window-width="1920"
     inkscape:window-height="1152"
     inkscape:window-x="0"
     inkscape:window-y="0"
     inkscape:window-maximized="1"
     inkscape:document-rotation="0"
     inkscape:showpageshadow="2"
     inkscape:pagecheckerboard="0"
     inkscape:deskcolor="#d1d1d1" />
  <metadata
     id="metadata7">
    <rdf:RDF>
      <cc:Work
         rdf:about="">
        <dc:format>image/svg+xml</dc:format>
        <dc:type
           rdf:resource="http://purl.org/dc/dcmitype/StillImage" />
      </cc:Work>
    </rdf:RDF>
  </metadata>
  <g
     inkscape:groupmode="layer"
     id="layer2"
     inkscape:label="Layer 2"
     style="display:inline;opacity:1;mix-blend-mode:normal" />
  <g
     inkscape:label="Layer 1"
     inkscape:groupmode="layer"
     id="layer1"
     transform="translate(0,-924.36216)"
     style="display:inline;opacity:1;mix-blend-mode:normal;filter:url(#filter2961)">
    <g
       id="g2456"
       transform="matrix(0.81873228,0,0,0.81873228,-16.140332,864.31998)">
      <path
         style="fill:#cbcac8;stroke-width:0.146484"
         d="m 93.039602,221.56476 c -28.157353,-1.13 -53.487624,-21.81968 -61.981038,-48.39923 -9.581646,-27.31541 0.519017,-59.81934 23.591918,-77.194393 24.223111,-19.051917 61.134308,-19.633429 85.558458,-0.62808 22.08432,16.498343 33.32,46.602983 25.8056,73.367393 -6.97879,27.82573 -32.24484,49.95422 -60.9168,52.54842 -4.00237,0.42815 -8.039183,0.52288 -12.058138,0.30589 z"
         id="path2498" />
      <path
         style="fill:#c1c0bd;stroke-width:0.146484"
         d="m 93.918508,221.51684 c -26.100834,-1.10627 -50.463529,-18.2829 -60.509875,-42.3546 -11.079448,-24.5693 -6.030735,-55.363 12.670994,-74.85067 5.740018,-5.533478 11.594003,-12.197778 19.791442,-13.689491 15.579255,-5.841344 32.737883,-8.248531 49.087041,-4.308267 6.69855,1.509442 13.34632,3.514115 19.78099,5.78741 22.91566,13.631538 36.22939,41.247008 32.7458,67.673618 -2.79611,26.62063 -22.41132,50.31199 -47.8989,58.35058 -8.24272,2.72124 -16.99834,3.91755 -25.667492,3.39142 z"
         id="path2496" />
      <path
         style="fill:#c0bfbc;stroke-width:0.146484"
         d="m 94.138235,221.50748 c -26.579828,-1.02722 -51.361902,-18.77527 -61.207239,-43.4295 -10.446613,-24.24821 -5.204488,-54.12731 12.851893,-73.38689 4.041764,-5.437098 9.842414,-8.636974 16.128783,-10.75317 19.417979,-9.657143 42.798008,-11.785068 63.128818,-3.658794 6.53639,3.199775 14.21857,4.523881 19.787,9.27259 15.20559,13.947944 24.41334,34.499944 23.0723,55.254554 -1.31403,30.68002 -24.69962,59.12294 -54.97522,65.26049 -6.15845,1.33122 -12.49759,1.79421 -18.786335,1.44072 z m 5.090332,-85.09184 c 0.504886,-1.81721 -5.169605,0.58194 0,-3e-5 z m 1.881733,-8.62184 c -2.144862,-1.10917 -9.757427,-0.0305 -3.026732,0.0793 1.005637,-0.0183 2.028732,0.0994 3.026732,-0.0793 z"
         id="path2494" />
      <path
         style="fill:#b7b7b3;stroke-width:0.146484"
         d="m 94.284719,221.48514 c -27.067055,-0.87572 -52.211585,-19.3168 -61.797602,-44.5392 -9.293771,-22.7676 -4.919097,-50.09 10.541914,-69.13059 3.748463,-6.14238 10.857356,-7.899651 16.622038,-11.462228 16.293073,-9.363356 36.067481,-13.733518 54.462671,-8.529669 10.99802,2.644494 20.97409,8.107295 30.9968,13.134177 5.65837,2.99045 9.67376,10.00916 13.38357,15.4812 14.01114,22.78363 12.20207,53.43286 -3.25792,75.03868 -13.40405,19.70727 -37.12403,31.49059 -60.951471,30.00763 z m 5.182264,-50.55956 c 3.466067,-0.84965 -6.099625,0.33155 0,0 z m -2.69203,-0.071 c -0.962651,-0.85708 -1.513362,0.62129 0,0 z m 3.552247,-8.77261 c 1.3108,-1.13622 -10.447582,-0.36663 -2.686082,0.3804 l 1.494103,-0.0783 1.191979,-0.30252 z m 0.17276,-16.49278 c 0.41563,-4.14446 -10.960073,0.88199 -2.512193,0.32482 l 1.578558,-0.10487 z m -7.647931,-7.77828 c 3.889994,-1.77887 9.070651,0.79406 12.329771,-0.35299 -3.09426,-3.6805 -14.475435,-2.60304 -14.181203,0.61115 l 0.803233,-0.0713 1.048199,-0.18691 z m -4.706464,-7.68358 c 6.515128,-2.26363 13.609755,-1.92511 20.114455,0.17945 0.14183,-3.4808 -11.41464,-4.75203 -15.775404,-3.24406 -1.064026,-0.28602 -9.912333,3.93315 -4.339051,3.06461 z m -2.116629,-8.44693 c 7.832779,-2.46965 16.308994,-2.31111 24.132224,0.10716 -0.48779,-3.35152 -11.405366,-4.96454 -16.38292,-3.843 -1.359679,-0.93391 -13.676839,4.77067 -7.749304,3.73584 z"
         id="path2492" />
      <path
         style="fill:#b2b1ad;stroke-width:0.146484"
         d="m 93.112844,221.41776 c -26.787015,-0.89448 -51.107416,-19.73862 -60.457233,-44.56209 -8.935642,-22.18069 -5.689344,-49.39726 9.884723,-67.81615 7.290613,-2.68499 12.577062,-9.01562 19.53813,-12.457889 17.206186,-10.526127 39.007846,-13.263927 58.054086,-6.310012 11.08101,3.424841 20.16781,10.836321 29.66975,17.147981 5.19133,0.35534 7.1588,7.84251 10.35922,12.2427 12.25629,22.78204 10.01855,52.29566 -5.57132,72.94602 -13.9087,19.30327 -37.79097,30.25982 -61.477356,28.80944 z m 9.814456,-8.54868 c 11.65237,-1.26376 24.03587,-5.25776 31.96762,-14.27376 2.11547,-1.17005 7.79809,-9.30241 4.05436,-8.70036 -2.89291,-2.18399 -7.49458,4.33026 -11.04637,5.62196 -18.91637,12.75129 -45.501745,11.49861 -63.574215,-2.22184 -3.370623,-1.96756 -6.106364,-4.58196 -9.00879,-3.71612 0.29501,3.62609 4.243447,8.27509 7.423289,11.02858 10.701953,9.7349 25.984751,13.41131 40.184106,12.26154 z M 55.832571,189.88043 c 0.375486,-0.54256 0.563098,0.52519 0,0 z m 45.922849,10.62741 c 2.59044,-0.031 12.23115,-2.14556 10.63556,-2.54636 -9.6521,2.98763 -20.158799,2.58612 -29.81389,-0.0313 5.93978,2.58602 12.770399,2.88559 19.17833,2.57764 z m -19.628904,-2.72088 c -1.758974,-1.43858 -0.68215,0.65123 0,0 z m 20.959834,-9.06658 c 3.47338,-0.45766 9.87989,-2.35608 11.1223,-4.18104 -10.20441,4.44858 -22.062939,4.51323 -32.360482,0.28781 2.827557,2.75976 12.618675,4.93207 18.459332,4.16278 0.92841,-0.0626 1.85834,-0.1283 2.77885,-0.26955 z m -2.4817,-8.66238 c 4.92594,-0.54366 10.84411,-2.55312 13.71456,-6.21098 -8.44312,4.83441 -19.076985,6.89798 -28.118459,2.38844 -3.051831,-1.70491 -6.934071,-3.24121 -2.084301,0.12011 4.84318,3.09013 10.808116,4.24126 16.4882,3.70243 z m 0.31434,-8.56009 c 2.49362,0.5369 11.53357,-5.20475 7.91643,-4.86267 -6.90811,4.56771 -16.61911,4.31069 -23.248182,-0.43558 2.966825,4.89163 10.04995,6.0429 15.331752,5.29825 z m -0.55517,-8.76662 c 3.73451,-0.0984 7.02099,-6.80308 1.71775,-2.55918 -3.763562,2.69494 -9.057986,-0.68856 -11.62873,-1.20248 1.181204,3.69539 6.599683,4.51749 9.91098,3.76166 z m 1.45418,-15.86804 c 3.89407,-5.16348 -14.066799,-2.79452 -7.070766,0.17259 2.351316,0.10491 4.736311,0.18012 7.070766,-0.17259 z m -13.682283,-6.33678 c 5.800881,-3.61082 13.104923,-3.52282 19.006833,-0.17962 6.33723,0.12536 -7.10385,-7.51285 -10.513303,-5.40636 -2.2517,-1.20262 -15.04124,6.19405 -8.49353,5.58598 z m -7.337961,-5.74485 c 7.662581,-4.6068 17.305702,-7.93472 26.030014,-4.15392 2.69452,1.36818 12.81373,7.04111 6.3543,0.96638 -9.4037,-7.94275 -25.27858,-7.06205 -33.221336,2.51871 -0.728854,0.54184 0.431863,1.24071 0.837022,0.66883 z m -5.556006,-6.79084 c 8.099384,-4.79893 17.434167,-8.86476 27.10763,-7.31172 7.07828,-0.0118 12.81075,6.08097 19.12006,6.84868 -9.02834,-10.98029 -26.381549,-12.93312 -38.822759,-6.70976 -1.759918,0.94651 -12.251323,7.2704 -7.404931,7.1728 z m 9.228516,-15.07403 c 9.78308,-2.95229 20.283274,-2.36741 29.922194,0.78654 -3.29456,-3.70613 -11.93064,-4.85835 -17.641541,-4.81771 -4.897297,0.10743 -13.86498,1.83845 -15.471154,4.91464 1.073003,-0.25953 2.129361,-0.58084 3.190501,-0.88347 z"
         id="path2490" />
      <path
         style="fill:#b0aeab;stroke-width:0.146484"
         d="m 93.259328,221.41834 c -26.72133,-0.88283 -50.961804,-19.61894 -60.469891,-44.29259 -8.720031,-21.14296 -6.329543,-46.84088 7.585124,-65.22669 3.625444,2.1738 9.584321,-6.90683 13.825259,-9.22354 19.399589,-16.219755 47.98508,-20.680103 71.06374,-9.953982 10.16368,4.088458 18.1302,11.729192 26.55561,18.413542 3.41079,2.59743 3.30482,-1.38399 5.30466,3.36551 14.26501,21.67643 14.58226,51.41945 0.63683,73.32626 -13.28135,22.01254 -38.88391,35.19103 -64.501332,33.59149 z m 9.000502,-8.10891 c 19.51159,-1.46232 38.86303,-12.69932 47.02578,-30.91954 1.13036,-2.76638 -0.19755,-7.39659 -3.23195,-4.88743 -6.24995,6.10767 -11.43042,13.50048 -19.0947,18.08517 -14.58478,9.53863 -33.669924,11.21057 -49.721936,4.42491 C 66.730716,196.14368 58.610489,188.02145 51.727391,179.48 c -3.33386,-4.30664 -7.005926,0.9552 -4.551183,4.44602 9.838711,20.06117 33.232145,31.05685 55.083622,29.38341 z m 1.83934,-12.71934 c 11.88158,-1.62946 23.51881,-7.45374 30.7311,-17.22208 -4.36561,2.58924 -8.94662,8.32709 -14.50325,10.5539 -17.60664,9.35016 -41.092296,6.82639 -55.409745,-7.40017 -2.2469,-2.51811 -6.713896,-6.4912 -2.770148,-1.57814 9.988624,12.09874 26.576639,17.66834 41.952043,15.64649 z m -1.22759,-11.50534 c 7.96108,-1.28811 16.23858,-4.7916 21.08298,-11.46521 -6.92262,5.30648 -14.97875,9.67792 -23.9211,9.95813 -10.05379,0.8383 -19.784459,-3.24786 -27.551612,-9.39735 1.667791,3.81808 9.580959,8.32855 15.041642,9.76999 4.987515,1.44744 10.203416,1.74379 15.34809,1.13444 z m 32.39519,-6.64755 c -0.49257,-0.65179 -0.53219,0.76845 0,0 z m 0.99917,-1.08948 c 1.2686,-1.83412 -1.61783,1.09889 0,0 z m -35.90212,-0.99447 c 7.49853,-0.79925 15.54317,-4.49137 19.09308,-11.42126 -6.45955,5.2722 -14.37234,10.44442 -23.252436,9.63886 -7.177429,0.79513 -16.25223,-7.17827 -19.435302,-8.821 4.416145,7.94088 14.939661,11.3408 23.594658,10.6034 z m 0.21973,-8.55698 c 4.6818,0.50009 14.35865,-7.18924 11.55589,-8.59236 -5.94427,6.71524 -16.647373,9.09904 -24.193656,3.62237 -2.266547,-1.34231 -7.6909,-7.34181 -4.46663,-1.18408 3.945846,4.84704 11.069278,6.76843 17.104396,6.15407 z m 0.43945,-9.01312 c 3.96864,0.75367 8.1139,-9.72317 2.82807,-4.19981 -4.328071,5.9935 -12.350093,-0.67245 -14.693304,-1.06509 0.947812,5.04085 7.578755,6.54726 11.865234,5.2649 z m 2.23389,-15.28493 c 1.84383,-6.48393 -15.388501,-3.50978 -9.643077,0.23866 3.210245,0.0613 6.449617,0.11393 9.643077,-0.23866 z M 86.624464,142.2936 c 5.649266,-4.77489 14.357286,-5.95104 20.420216,-1.23368 4.2669,3.50449 5.09833,-0.20961 1.10391,-2.63828 -6.8311,-6.07218 -19.706127,-4.46603 -23.677528,4.05132 0.214865,1.06127 1.723701,-0.007 2.153402,-0.17936 z m -7.707482,-4.95661 c 6.130898,-5.25887 13.949394,-9.26036 22.260418,-7.8436 6.52615,-0.44424 12.6438,7.60354 17.08343,7.68323 -8.32783,-14.86945 -33.458334,-14.56747 -41.261267,0.64064 l 0.758335,-0.0767 z m -6.97113,-5.43138 c 8.101681,-6.92251 18.316662,-12.67432 29.361128,-11.1191 8.71897,0.59222 15.67448,6.15016 22.49746,10.93467 3.95871,0.004 -3.8888,-6.54907 -5.82658,-7.96831 -14.33725,-10.90739 -37.725619,-7.94099 -47.563989,7.57057 -1.01676,1.64491 0.785121,1.38737 1.531981,0.58217 z m 2.025486,-13.63844 c 12.784243,-7.93772 29.478772,-9.21282 43.018832,-2.3898 2.7345,1.75513 10.09633,4.89567 3.99277,0.0285 -13.63646,-11.13844 -35.850254,-10.56504 -48.501427,1.86289 -1.106908,2.05155 -0.691296,1.61206 1.489825,0.49846 z"
         id="path2488" />
      <path
         style="fill:#adaca9;stroke-width:0.146484"
         d="m 92.746633,221.36858 c -27.52969,-1.43141 -52.562994,-21.18283 -61.235869,-47.20476 -7.038304,-19.7762 -4.191596,-42.6572 7.308585,-60.17073 2.632452,3.75253 7.741429,-5.01202 10.733202,-6.78646 15.418633,-15.123761 37.908623,-23.316325 59.394769,-19.173935 16.37326,2.363239 30.49327,12.014825 41.84705,23.592925 1.2497,2.05615 5.81096,4.23744 5.67633,2.00971 14.88293,21.77269 15.2194,52.28483 1.07871,74.53319 -13.36179,21.99225 -39.13328,35.22017 -64.802777,33.20006 z m 10.327147,-7.97482 c 20.97927,-1.65339 41.34559,-15.10682 48.93714,-35.03592 2.41928,-4.01149 -1.2675,-7.68155 -4.22352,-5.57716 -4.62411,5.77702 -8.50513,12.82768 -14.52023,17.64505 -17.15238,15.90684 -45.135856,18.08942 -64.478102,4.88366 -8.549477,-5.1375 -14.48206,-13.33542 -20.058887,-21.34963 -5.204814,-4.53973 -6.826459,3.76531 -3.873745,7.36809 10.032444,21.72576 34.734176,34.26476 58.217344,32.06591 z m -1.02539,-12.44702 c 16.58117,-1.51575 33.15907,-11.62588 39.09332,-27.65252 -3.12103,3.46661 -6.12955,9.5672 -10.37111,13.02477 -17.46408,16.81992 -48.132599,17.38994 -65.48831,0.089 -3.802286,-2.43489 -9.100167,-11.79616 -10.147389,-11.76062 7.399002,17.92752 28.105079,28.06348 46.913489,26.29936 z m 0.73242,-11.72048 c 9.90955,-1.51343 20.21672,-6.77936 24.8582,-15.9915 -5.34728,5.35259 -11.53814,10.68939 -19.18227,12.66759 -13.629834,4.40764 -29.193859,-0.34893 -38.584771,-11.03409 -3.053652,-0.98018 4.657817,7.19172 7.022068,8.2273 7.482633,5.10811 16.904674,7.37626 25.886773,6.1307 z m -0.63161,-8.94801 c 7.87288,-1.36785 16.53571,-6.08463 19.08962,-14.06457 -4.21146,3.93425 -8.56395,8.91413 -14.56068,10.63712 -11.375233,4.41151 -24.655601,-0.61918 -31.527361,-10.36989 -0.95745,3.52287 6.581944,10.01938 11.330553,11.77046 4.912363,2.12982 10.37847,2.79421 15.667868,2.02688 z m -2.07835,-8.28036 c 5.60637,-0.0624 15.59758,-6.55649 13.53971,-11.07085 -5.43669,8.564 -17.99608,11.77076 -26.292652,5.43109 -2.315761,-1.02096 -7.873913,-9.97748 -5.308532,-2.63667 3.569022,6.10609 11.213368,9.06792 18.061474,8.27643 z m 1.02539,-9.13212 c 4.27271,1.2639 8.45407,-10.69138 3.70937,-5.27195 -4.38416,6.15137 -13.061934,2.33043 -16.044219,-1.8298 -1.093258,6.15678 7.814866,8.63166 12.334849,7.10175 z m -3.295896,-14.79789 c 3.199106,1.19761 9.399286,-0.51728 3.919586,-3.54304 -3.252375,-4.59441 -15.667022,4.01537 -6.776031,3.6404 l 1.564178,-0.0686 1.292267,-0.0288 z M 85.22142,143.6735 c 6.112995,-6.08117 16.147,-7.75151 22.85596,-1.54751 7.75489,4.80482 -0.43191,-6.55742 -4.53035,-6.41773 -7.20892,-2.81579 -17.142063,0.38706 -19.857835,7.87046 0.232554,0.65447 1.156136,0.22103 1.532225,0.0948 z m -7.855646,-4.47666 c 6.076569,-4.99913 12.981537,-10.54869 21.40714,-9.97931 8.112486,-0.17716 13.868436,6.14344 20.170056,9.94144 -1.39087,-6.74123 -9.88062,-11.33238 -16.59132,-12.65501 -10.209499,-1.98521 -21.845635,3.00036 -26.377478,12.56302 l 0.645964,0.23086 z m -8.302555,-4.93336 c 5.386438,-2.1309 8.757825,-7.9876 14.42618,-10.09373 12.485008,-6.62862 28.567841,-3.14334 38.187901,6.91683 1.97061,2.84829 8.14963,4.95088 3.70751,-0.0436 -11.23521,-16.58181 -37.53647,-18.43644 -51.482361,-4.32446 -1.200215,1.30223 -7.392397,7.84728 -4.83923,7.54499 z m -0.365427,-11.87572 c 8.080528,-5.71718 17.14558,-10.91158 27.387366,-10.71582 11.156872,-0.60731 21.668392,4.11288 30.581142,10.4107 -0.14535,-4.20581 -8.71811,-9.8484 -13.84982,-11.57019 -14.424084,-5.82945 -32.812438,-2.84926 -43.228988,9.12088 -0.408694,0.48447 -2.453043,3.77707 -0.8897,2.75443 z"
         id="path2486" />
      <path
         style="fill:#aaa9a5;stroke-width:0.146484"
         d="m 92.819875,221.36473 c -27.364759,-1.40226 -52.319132,-20.86819 -61.117697,-46.68805 -6.817976,-18.92772 -4.878387,-40.91094 5.647379,-58.11274 1.613035,6.49174 8.810332,-6.36551 11.754239,-8.09405 17.007457,-18.184585 44.451877,-26.133399 68.289934,-18.216051 14.11442,4.207172 25.84093,13.732561 35.31696,24.734811 2.24782,4.78073 5.66873,1.33904 6.02889,2.23199 13.22609,22.32906 12.03714,51.99817 -2.77628,73.27877 -13.63168,20.61273 -38.47894,32.84645 -63.143425,30.86532 z m 10.473635,-7.76087 c 23.06209,-1.92234 45.27851,-18.04458 51.62699,-40.69926 1.31978,-4.05257 0.76029,-6.93628 -3.28897,-6.56661 -5.31338,0.6747 -5.37081,8.55089 -8.73193,12.06966 -11.82967,19.7717 -37.36636,30.20801 -59.526531,23.25169 -15.996735,-4.30205 -28.794778,-16.77738 -35.288414,-31.78576 -1.076284,-4.38592 -10.023603,-3.71034 -7.601613,1.65262 5.197563,21.88464 25.732666,38.17488 47.541735,41.5301 5.043092,0.79735 10.181873,0.9593 15.268733,0.54756 z m 1.83105,-12.78956 c 17.32247,-2.56671 33.88397,-14.95514 38.52539,-32.2356 1.05497,-7.63254 -2.96909,4.85062 -4.6473,6.54215 -9.83719,17.53793 -31.36731,27.50042 -51.063325,23.05215 -16.421091,-3.20629 -29.828433,-16.04775 -35.455549,-31.576 -2.151364,-2.45362 0.871015,7.19122 2.028944,8.70824 8.880253,18.42137 30.698153,28.55406 50.61184,25.50906 z m -3.93397,-11.23074 c 12.55627,-1.41331 25.90585,-8.91224 29.70015,-21.60987 -0.57326,-2.81222 -4.3391,7.15716 -7.05517,8.52368 -13.58314,14.4777 -39.383097,14.38122 -52.449618,-0.75803 -2.308184,-1.3465 -8.011236,-13.02292 -5.868093,-5.27712 6.196434,13.08503 21.537413,20.47866 35.672731,19.12134 z m 1.00429,-9.1382 c 9.19542,-1.56733 18.53598,-7.61236 21.07916,-16.99226 -0.9919,-3.59264 -4.22638,6.26927 -7.06373,7.35101 -9.044,9.4959 -25.219593,10.14892 -35.013314,1.43672 -3.742405,-2.21916 -6.213528,-8.36269 -8.777443,-9.87496 0.997328,9.19596 10.132099,15.24513 18.430169,17.48402 3.689177,0.95295 7.577817,1.22394 11.345158,0.59547 z m -0.58594,-8.50197 c 6.39731,-0.5435 16.29896,-8.87116 13.12083,-13.89207 -3.64875,9.71782 -16.027136,14.59523 -25.162245,9.46533 -4.345105,-1.43493 -6.80231,-7.21057 -9.249697,-9.30398 -0.930488,7.6366 7.361527,12.19854 13.761501,13.62513 2.470183,0.51368 5.050038,0.62063 7.529611,0.10559 z m -49.80469,-7.10314 c -0.261471,-1.25333 -0.437555,1.04897 0,0 z m 49.14551,-1.75286 c 4.09044,0.73665 9.46877,-9.53071 5.02842,-7.44768 -3.55354,7.88144 -14.260656,5.60079 -17.515185,-0.91756 -2.246336,6.17477 7.317495,10.20377 12.486765,8.36493 z m -5.115775,-14.38684 c 3.777787,0.5286 13.095475,0.29972 6.009455,-4.28019 -4.728692,-4.54127 -16.782458,5.66868 -6.009455,4.28015 z m -11.236237,-3.72506 c 5.417765,-5.68816 14.510352,-9.56735 21.481832,-3.97196 1.87572,2.34932 9.1532,6.8111 5.347,0.6287 -6.43148,-9.82534 -22.653868,-8.88392 -28.187554,1.35671 -0.929424,1.16314 -0.578898,3.10262 1.358722,1.98655 z m -7.889858,-3.80414 c 5.056968,-5.68104 11.246149,-11.2971 19.289013,-11.65035 9.002457,-1.02243 16.922807,4.67245 22.467717,11.16145 5.39784,1.47625 -3.24611,-9.0109 -6.05354,-10.06189 -12.21779,-9.12266 -32.272978,-4.02361 -37.663156,10.50643 0.04326,0.98968 1.558429,0.28113 1.959966,0.0444 z m -9.699014,-3.76894 c 5.092767,-1.29972 7.874068,-8.31913 13.006969,-10.74809 10.300578,-7.68972 25.344475,-7.93218 35.645325,-0.11068 5.22896,3.11816 8.2118,9.39236 13.72563,11.53269 -5.99678,-16.11726 -25.64018,-24.76772 -41.833799,-19.43089 -9.508016,2.84236 -17.971104,10.12626 -21.301499,19.51925 l 0.144841,-0.0607 0.612533,-0.70163 z m -2.73916,-9.74778 c 7.930776,-7.96164 17.890053,-14.674 29.385832,-15.65155 13.400142,-1.59782 26.677072,4.51565 35.858662,14.06815 5.41135,4.72691 -0.79229,-6.94337 -3.29925,-7.90421 -16.027,-15.64519 -44.875908,-14.5055 -59.339557,2.7255 -0.875637,1.39064 -4.968134,6.14369 -2.605687,6.76211 z"
         id="path2484" />
      <path
         style="fill:#a5a4a1;stroke-width:0.146484"
         d="m 93.552297,221.41728 c -27.571582,-0.75262 -52.581376,-20.54756 -61.556273,-46.31285 -6.451523,-17.68863 -5.6391,-38.32397 3.485772,-54.89969 -1.46407,8.91219 6.242936,0.0956 7.606634,-3.27884 12.842191,-19.2752 36.12366,-31.369536 59.37543,-29.220454 21.40677,1.489363 40.79589,14.554674 52.32042,32.340624 1.42574,4.50468 7.39292,5.11674 4.94497,-0.65612 16.42285,28.58534 7.11939,68.05366 -19.11945,87.55886 -13.2439,10.43955 -30.29428,15.32181 -47.057503,14.46847 z m 10.766603,-7.57809 c 25.54597,-2.38638 48.96166,-22.25342 53.553,-47.78748 1.98572,-5.83056 -0.96795,-8.08532 -6.23854,-7.37236 -4.59324,-1.05526 -3.04491,9.60226 -6.1772,12.70335 -8.23932,21.15768 -31.74542,34.57861 -54.159105,31.43431 -19.274824,-2.25101 -36.291206,-16.33527 -42.503907,-34.65459 -1.834153,-3.46616 -1.845074,-12.62867 -5.961056,-8.35211 -5.909925,-2.60403 -5.993408,4.41854 -4.5329,8.78021 5.904229,25.68491 30.739913,44.6566 56.795203,45.52945 3.075973,0.14087 6.163075,0.049 9.224505,-0.28078 z m -0.5127,-12.45041 c 20.20389,-2.31797 38.98876,-18.03407 42.47906,-38.40146 0.1028,-2.17744 -0.78628,-12.05895 -1.57818,-4.92498 -2.7644,20.58642 -20.11805,38.48561 -40.99068,40.55365 -20.335537,2.69402 -41.501597,-9.38226 -49.302175,-28.40495 -2.516693,-3.31296 -2.734093,-13.51921 -4.550586,-13.24273 -1.951477,10.59697 4.058837,20.72001 10.741832,28.43453 10.738611,11.92158 27.326517,17.82932 43.200729,15.98594 z m -1.83105,-11.67305 c 14.45585,-1.57101 28.7255,-12.15956 31.71493,-26.8085 0.16007,-3.31252 -0.83819,-12.63468 -1.33963,-4.19676 -2.7843,15.9478 -17.6312,28.6071 -33.872953,28.48864 -17.161127,0.77518 -33.326437,-12.87588 -35.377607,-29.93224 -0.518342,-6.60405 -1.719857,5.51562 -0.704141,7.73382 4.899119,16.48921 22.885952,26.66956 39.579401,24.71504 z m -0.21973,-8.99727 c 11.23545,-1.47904 22.63792,-10.40204 23.52678,-22.16242 -1.84931,-5.43296 -0.75708,-12.6685 -4.07032,-18.15154 -6.51201,-13.80998 -25.985128,-18.85706 -38.292684,-9.72581 -8.622521,5.62142 -11.873305,16.27756 -11.800014,26.10313 -2.156319,5.8298 2.460918,11.78054 6.318202,15.91941 6.289764,6.3013 15.535062,9.20278 24.318036,8.01723 z m -7.506237,-2.78153 c -14.376044,-1.41928 -25.388506,-16.67041 -21.592348,-30.74309 3.800816,-3.8857 7.311014,-9.19428 11.994509,-13.11319 9.924934,-7.87302 25.635686,-4.62936 32.150706,6.06834 4.04831,4.06392 8.25944,7.63994 6.81486,14.47153 -0.71312,14.49654 -15.19312,25.59538 -29.367727,23.31641 z m 6.939707,-5.70257 c 7.50401,-1.35041 15.68535,-7.37088 15.88736,-15.50293 -2.70138,-9.08975 -1.44916,4.44962 -5.50347,6.24066 -6.78037,8.29647 -21.124648,8.76728 -27.518895,-0.28806 -3.910413,-1.67838 -2.946138,-14.59477 -5.45616,-5.90907 0.118974,7.13115 6.739736,12.80965 13.225788,14.82411 3.01636,0.92938 6.251559,1.18034 9.365377,0.63529 z m -0.51891,-8.86615 c 4.11696,-0.66431 11.34075,-7.2525 6.1906,-10.37814 -1.27633,8.4841 -13.959768,10.72143 -17.180714,2.2896 -3.020896,-5.90736 -3.728932,5.299 0.949599,6.01952 2.824328,2.11484 6.608485,2.9294 10.040515,2.06902 z m -4.308704,-13.77992 c 3.903004,0.99784 12.894304,0.0346 6.191514,-4.81061 -4.267415,-5.65836 -18.333982,4.85882 -8.048344,5.0343 l 0.726718,-0.0876 1.130112,-0.1363 z M 81.019771,149.0493 c 4.153127,-2.55207 7.614577,-8.54892 13.272186,-10.22564 6.710853,-1.94021 13.032403,2.64428 16.715523,7.87422 3.14203,0.28589 4.68227,3.28661 2.67014,-1.5258 -3.79849,-11.52668 -20.268252,-13.83173 -28.190476,-5.3023 -2.232611,1.79491 -5.283534,8.20732 -4.467373,9.17952 z m 64.461239,5.67488 c -0.17718,-0.53557 -0.36126,0.52184 0,0 z m -12.33688,-1.89172 c -0.69295,-2.26855 -0.0311,2.6048 0,0 z M 62.810477,151.9776 c -0.713839,-0.78075 0.203398,3.44348 0,0 z m 0.184156,-1.4402 c 0.618501,-3.65792 -1.099647,1.25787 0,0 z m 0.291763,-2.14867 c 0.251662,-6.97222 6.820822,-8.43086 9.429543,-14.45981 8.810349,-12.20922 26.852397,-16.80059 39.988131,-8.97602 6.49502,3.37455 10.75995,9.49552 14.67636,15.44467 4.63046,-0.22813 5.71214,13.30482 4.4635,3.76329 -3.21821,-15.31345 -17.67067,-27.20601 -33.396398,-27.03951 -15.73601,-0.67824 -30.596858,10.71469 -34.403923,25.91318 -0.286829,0.87481 -1.828798,7.34514 -0.757213,5.3542 z M 60.17776,135.47955 c 4.860609,-6.59975 9.570425,-13.736 17.039858,-17.70186 15.135329,-9.26411 36.238502,-6.96773 48.668992,5.84144 4.18911,2.0366 7.27669,13.0334 11.08881,10.71385 0.33013,-5.63014 -3.95337,-10.59088 -7.52242,-14.58043 -10.0969,-10.79967 -25.78785,-14.81327 -40.121962,-12.72643 -12.721775,3.10225 -25.460866,11.02661 -30.351282,23.67467 -0.406955,1.24954 -1.96969,6.68766 1.198004,4.77876 z"
         id="path2482" />
      <path
         style="fill:#a2a19d;stroke-width:0.146484"
         d="m 93.112844,221.36564 c -27.835059,-1.27226 -53.112683,-21.3744 -61.728568,-47.68918 -5.549112,-16.21013 -4.924618,-34.67982 2.516571,-50.17563 -1.960157,2.48039 0.461063,13.04305 3.043626,6.91249 6.15077,-14.86322 16.906004,-28.00743 31.372802,-35.396897 25.707762,-13.881112 60.590605,-7.032615 78.742985,15.984067 5.606,6.2879 8.8335,14.13972 12.78164,21.42746 4.29075,-1.62305 0.0413,-14.35173 3.37022,-5.68475 9.93684,24.36741 3.82505,53.91692 -14.44766,72.73105 -14.11378,15.11955 -35.02227,23.31396 -55.651616,21.89139 z m 10.141886,-7.09876 c 25.21668,-1.8051 48.09096,-20.49965 54.90055,-44.82102 1.8303,-5.5619 2.33233,-11.55671 2.12737,-17.23683 -2.00007,-2.72107 -5.78762,6.07686 -8.42107,0.10888 -1.01378,-3.79036 -3.455,-9.12209 -4.00187,-3.02388 -1.79728,8.24072 -4.17516,-12.30402 -3.31817,-1.36105 1.81216,19.78707 -10.16187,39.94895 -28.7321,47.30088 -21.268774,9.36481 -48.720954,-0.0889 -59.191609,-20.97995 -5.214473,-9.52757 -6.630533,-20.7833 -4.759987,-31.37054 1.855328,-1.1081 1.729704,0.61042 5.382094,0.47852 4.98344,-2.877 4.623886,-11.9997 9.606063,-16.0741 12.933706,-17.5716 40.830599,-19.70764 56.892739,-5.29355 6.61132,5.51811 10.55306,13.50775 12.99728,21.58598 4.56187,-0.74433 8.34448,-3.56181 4.57011,-8.47049 -7.57139,-19.63333 -29.66723,-32.13528 -50.420604,-28.69349 -17.393032,2.53581 -33.327733,15.6641 -37.853825,32.79891 -2.658896,3.69967 -2.188937,10.38391 -4.662969,13.55681 0.02641,-3.75155 -1.913516,-9.76934 -3.459772,-3.02818 -0.241428,5.65838 -5.401116,6.35139 -8.046195,2.92394 -3.607687,4.87273 0.08239,12.50823 0.83754,18.14693 8.121556,27.34248 37.384844,46.11897 65.554425,43.45223 z m 0.55147,-24.52615 c 17.18326,-2.4342 32.6028,-18.33015 32.13024,-35.78559 -3.93885,-2.15211 -2.58315,-10.27975 -5.25335,-14.50839 -6.06115,-15.55318 -23.7289,-25.54178 -40.142855,-21.74558 -15.657816,2.95147 -27.068866,17.57357 -28.508273,33.07059 -3.38714,4.51562 -2.407547,9.77371 -0.151931,15.05534 6.126525,16.45737 24.669996,26.90727 41.926169,23.91363 z M 93.488411,186.86886 C 76.706395,185.0783 62.394893,169.5442 63.327803,152.45017 c 0.420966,-2.83535 -0.07688,-10.12703 4.003791,-6.93712 2.836669,-6.79117 5.864893,-14.03334 12.304141,-18.27872 13.409546,-10.17657 34.863695,-6.45397 43.624815,8.07385 2.93551,3.22743 2.96673,11.61349 7.79514,9.50676 5.12909,15.91922 -4.8876,33.81074 -20.10754,39.71618 -5.48449,2.28033 -11.56669,3.13763 -17.459739,2.33774 z m 9.292399,-6.05626 c 12.56413,-2.02586 23.75679,-13.05017 24.20775,-26.04205 -3.9414,-3.20355 -2.50847,-10.2662 -5.80085,-14.63634 -6.45972,-12.96802 -24.260969,-18.32506 -36.592718,-10.57035 -7.936855,4.69081 -13.016609,13.48066 -13.698088,22.61204 -4.259806,3.28953 -1.001662,10.96731 1.923632,15.49198 6.28768,9.72427 18.526879,15.19996 29.960274,13.14472 z m -8.12988,-2.89808 c -13.667039,-1.32274 -24.805373,-15.03536 -22.076943,-28.76751 -0.03694,-4.00529 5.154294,-0.33472 4.989201,-5.66952 4.767675,-13.39744 23.614602,-17.93187 34.137962,-8.51322 5.16193,1.92767 5.20501,12.20095 9.81999,11.67884 3.49878,3.65258 1.73427,12.80648 -0.81963,17.78761 -4.88149,9.20206 -15.71068,14.84264 -26.05058,13.4838 z m 5.43226,-5.31807 c 9.40024,-0.95855 18.40787,-9.09518 18.44052,-18.85082 -4.77806,-2.41395 -3.5235,-11.34202 -8.97422,-14.63663 -8.14082,-8.0742 -23.438622,-4.85276 -27.68321,5.79838 -1.083094,6.46831 -7.580602,9.93004 -2.801197,16.48649 3.89146,7.58393 12.554312,12.18648 21.018107,11.20258 z m -5.409515,-3.44947 c -8.988013,-1.37339 -16.356433,-11.33246 -13.096379,-20.223 5.719993,1.40294 5.45675,-9.04625 11.878468,-9.44709 6.882046,-2.77469 14.903646,1.68494 16.999706,8.62781 1.52108,1.55313 5.19519,-0.62982 4.30222,4.02966 0.95394,10.55985 -10.0359,19.09902 -20.084015,17.01262 z m 6.243745,-5.61723 c 5.12879,-0.0618 13.04194,-11.20196 5.81847,-11.46577 -0.14591,9.12117 -14.129097,12.00603 -17.069172,2.91447 -0.570669,-6.82466 -6.809317,0.60377 -1.929192,3.78366 2.899231,4.05428 8.352441,6.0689 13.179894,4.76764 z m 2.00988,-12.96117 c 7.75062,-3.59145 -7.931849,-11.46484 -11.265167,-4.63698 -6.625346,7.12631 8.461837,4.41891 11.265167,4.63698 z m 23.52403,2.58197 c -0.65119,-0.0175 -0.35419,0.7585 0,0 z m 22.46982,-7.47178 c -0.49866,-1.46966 -0.54398,0.73525 0,0 z m -5.21525,-2.55025 c -0.2084,-1.83961 -0.82668,1.3969 0,0 z m -0.70315,-0.86874 c 0.29183,-1.78346 -2.13795,0.90448 0,0 z"
         id="path2480" />
      <path
         style="fill:#a09e9a;stroke-width:0.146484"
         d="m 93.259328,221.36671 c -27.50911,-1.23419 -52.728327,-20.73685 -61.527616,-46.71498 -5.438986,-15.51195 -5.421569,-33.14024 0.99707,-48.35147 -1.784324,7.93304 1.414837,15.85974 0.920122,23.86354 0.258607,23.13842 13.058311,46.02366 33.751007,56.88067 22.797982,12.8559 53.323899,9.33505 72.660069,-8.29584 14.22846,-12.4455 22.03527,-31.36191 21.91611,-50.11614 -0.41258,-7.0129 1.83864,-13.87704 1.08429,-20.85398 -1.02584,-5.01308 2.52421,5.44549 2.78687,7.36145 6.94113,26.34576 -3.86217,55.89981 -25.66126,72.07226 -13.2775,10.19177 -30.23771,15.2371 -46.926662,14.15449 z m 2.490235,-22.64877 C 73.882239,197.89371 52.81932,179.83291 52.028115,157.3372 c -0.371439,-2.70928 1.564145,-10.54308 4.701056,-7.93552 2.427313,5.64534 2.253947,12.27822 5.103054,17.89059 8.437135,19.10913 33.515906,28.93055 52.380055,19.35146 12.79423,-5.97634 22.24911,-18.84805 23.17309,-33.06515 -0.28223,-5.36691 4.1561,-6.7903 5.51245,-1.72375 2.29137,9.45591 -1.73363,19.46036 -7.05447,27.22498 -9.05396,12.49562 -24.50055,20.76142 -40.093787,19.63813 z m 44.238277,-50.29259 c -0.17718,-0.53557 -0.36126,0.52184 0,0 z M 96.189016,187.00083 C 77.85147,186.57147 61.369682,169.25587 63.694383,150.69942 c 1.773654,-8.88184 4.28312,6.35394 5.181945,9.46299 4.107027,13.74444 18.70518,23.03627 32.876482,20.90645 12.73284,-1.31428 23.33453,-11.71406 25.854,-24.1155 0.062,-2.8109 3.14887,-15.54564 4.52759,-6.96083 1.03847,12.53599 -5.24888,25.22501 -16.11599,31.7003 -5.82223,3.75992 -12.82352,6.26693 -19.829394,5.308 z m -1.757813,-9.20731 C 81.820439,176.41085 71.220447,164.54529 72.49524,151.67463 c 1.534724,-7.98689 4.182903,5.20498 5.330206,7.72516 4.316766,11.14555 18.488748,17.03464 29.225324,11.43961 7.72221,-3.54958 11.8134,-11.74507 13.22803,-19.74966 3.77303,-7.37183 3.18716,6.08446 2.02181,8.86805 -3.12443,11.81295 -15.94321,19.57647 -27.869407,17.83573 z m 0.732422,-8.63398 c -8.689183,-1.13875 -16.558168,-10.43656 -13.498836,-19.21434 5.051952,3.92785 6.373981,15.08961 15.817344,14.10884 9.427247,1.05997 11.361117,-8.81371 15.738217,-14.21555 4.36409,5.44259 -2.01626,16.13017 -8.85681,18.17903 -2.88433,1.20977 -6.105778,1.65724 -9.199915,1.14202 z m 1.445798,-8.58354 c -5.722993,0.86113 -11.361563,-12.81859 -2.649935,-8.97571 4.03798,2.25774 15.418922,-4.76244 11.730892,3.91207 -1.53443,3.38117 -5.3714,5.63444 -9.080957,5.06364 z m -9.338571,-8.92842 c -4.495805,-5.75875 4.599445,-13.68016 10.803001,-12.82756 6.088347,-0.95415 15.449067,8.46629 9.741087,12.96387 -2.68689,-2.4709 -4.74911,-10.84101 -11.887638,-8.08498 -5.624368,-0.054 -4.913803,7.03884 -8.65645,7.94867 z m -9.30612,-0.45026 c -2.775193,-7.79687 4.146406,-16.10097 10.970268,-19.24362 11.50389,-5.73142 27.37834,1.63935 29.24048,14.63984 1.4736,4.4471 -2.96929,6.48724 -2.9199,1.05244 -3.22501,-11.36677 -18.448376,-17.27075 -27.945598,-9.67969 -5.3434,2.37793 -5.736104,11.33395 -9.34525,13.23103 z m -38.568826,-0.23625 c -4.820698,-5.21928 -3.042278,-13.24149 -1.436295,-19.47285 8.704421,-30.34612 43.466862,-49.624609 73.909789,-41.82301 21.92937,4.850955 41.05946,22.07367 46.27839,44.18495 1.32221,5.26424 2.25208,16.80441 -4.53931,17.05801 -3.96519,-3.74589 -3.1834,-10.56141 -7.01866,-14.32281 -0.0207,2.48028 1.15098,15.13304 -1.53524,7.35634 -4.04129,-18.51496 -19.31079,-34.25687 -38.14465,-37.59195 -19.24065,-3.87956 -40.21838,5.3172 -50.118776,22.31756 -4.148158,5.35139 -5.128656,14.17929 -7.959177,18.84198 -0.994772,-2.80889 1.700812,-14.21926 -2.297603,-6.7105 -1.507685,3.62557 -1.987626,11.43533 -7.138466,10.16225 z m 85.591624,-0.0821 c -1.79191,-12.23846 -11.39725,-23.56999 -24.13426,-24.75355 -13.421678,-1.92441 -26.5299,8.08277 -29.364552,21.13017 -2.660406,9.48845 -3.779923,-6.79014 -0.149921,-9.47283 6.596921,-14.16157 25.200918,-20.39005 39.109773,-13.48462 9.42067,4.3964 17.25871,14.52188 15.97042,25.27734 0.10985,0.49149 -0.85381,2.1441 -1.43146,1.30349 z m -64.067015,-1.42784 c -2.665452,-5.93733 1.041761,-13.06947 3.862111,-18.47474 9.07458,-15.5371 29.626367,-22.66571 46.370794,-16.14373 13.52358,4.8548 24.67776,18.19203 24.27576,32.94389 -2.59804,2.72639 -3.12637,-7.79065 -5.17001,-9.89103 -6.55353,-14.34923 -23.06317,-23.6014 -38.725931,-20.35017 -14.50323,2.41923 -26.111899,14.55025 -29.182114,28.74819 -0.444754,0.56551 -0.582376,3.65663 -1.43061,3.16759 z"
         id="path2478" />
      <path
         style="fill:#9a9995;stroke-width:0.146484"
         d="m 93.405813,221.36903 c -30.916918,-1.40393 -58.859179,-25.85988 -64.343019,-56.3187 -2.095291,-11.73872 -1.802728,-24.22728 2.493944,-35.45064 -1.627923,9.46867 0.562777,19.07165 1.640017,28.49424 3.487015,23.84992 20.192888,45.65187 43.28827,53.43072 25.116145,9.20843 55.309545,0.52339 71.676755,-20.64545 9.99539,-12.25594 14.52028,-27.97118 15.54033,-43.54424 0.63509,-6.16138 1.46495,-12.4732 0.0724,-18.59351 9.97989,24.86365 2.00041,54.7382 -17.29077,72.86713 -13.94707,13.60759 -33.60311,21.0375 -53.077967,19.76045 z m 1.611328,-22.79768 C 76.090449,197.62817 57.50819,183.72077 54.201348,164.58446 c -1.269294,-4.07857 1.891906,-14.54197 3.968525,-5.24602 4.491395,15.18426 17.045207,28.44692 33.154498,30.71331 18.142639,3.25535 37.325639,-7.80943 43.857819,-25.00042 1.12287,-3.9325 5.66022,-15.88616 6.29873,-5.50335 0.7643,15.55065 -11.25449,29.12402 -24.85449,35.10011 -6.76262,2.97962 -14.2313,4.33067 -21.609289,3.92326 z m 0.366211,-11.7053 C 78.796545,185.7142 63.45488,171.51954 63.793687,154.36374 c 0.07311,-9.32154 3.946237,3.72751 4.811376,6.58603 4.973154,15.69554 23.742213,24.35088 39.078877,18.97367 11.42183,-3.54717 19.02853,-14.35796 21.41919,-25.71111 2.731,-8.69316 3.61888,4.37781 1.95867,7.14471 -3.81172,15.46079 -19.75996,27.04836 -35.678448,25.50901 z m 0.406011,-9.00879 c -13.515504,-0.50891 -25.18355,-13.85077 -22.792785,-27.36353 3.360655,4.10058 3.984883,11.06442 8.277268,15.12741 7.86001,9.6566 23.857814,9.8763 32.176294,0.70522 4.93552,-3.90121 5.24613,-11.18537 9.07957,-15.37843 2.36611,11.87038 -7.17682,23.83083 -18.71481,26.26919 -2.62027,0.62885 -5.338691,0.84585 -8.025537,0.64014 z m -1.490451,-8.93296 c -7.787101,-1.30039 -14.618129,-9.49126 -12.566392,-17.41863 4.406949,3.51193 6.377173,11.75963 13.489787,12.59785 7.477253,1.8201 14.049893,-4.39648 16.468433,-10.97043 4.53108,-4.91607 2.36354,7.63994 -0.30383,9.39364 -3.8236,5.21098 -10.78119,7.81521 -17.087998,6.39757 z m 1.450651,-8.57161 c -5.579195,0.15209 -9.160643,-11.97486 -1.375359,-7.80518 4.340994,2.41947 14.896296,-5.03299 10.611846,4.31645 -2.07272,2.72113 -5.866818,4.27809 -9.236487,3.48873 z m -8.4215,-9.75518 c -3.448877,-6.58853 6.843612,-13.5095 13.002047,-11.19263 5.09274,-0.69982 12.70405,10.3982 6.49367,10.62104 -2.52228,-8.63562 -15.199934,-8.92417 -17.856165,-0.13572 -0.585843,0.10834 -0.932721,1.64537 -1.639552,0.70731 z m -8.850622,-1.6 c -2.196874,-6.46902 3.830728,-12.45325 8.752758,-15.86572 10.81576,-7.20164 29.025961,-0.44646 30.160511,13.14154 -0.67493,7.46945 -3.99463,-5.23555 -6.71206,-6.26617 -7.18138,-8.36352 -21.50834,-6.91797 -27.464078,2.14098 -1.968685,1.20483 -2.793174,7.33826 -4.737131,6.84937 z m -8.352454,-1.36554 c -1.17643,-9.37368 5.873752,-18.20152 13.781713,-22.48511 14.21179,-8.17091 34.55622,-1.51425 40.46909,13.96645 2.05853,2.69631 1.06555,12.71006 -0.99751,4.7175 -4.70777,-12.60483 -19.19679,-21.03419 -32.391053,-17.09264 -10.071517,2.60157 -17.151097,11.50633 -20.432128,20.9517 z m -29.566311,-2.10258 c -5.428397,-3.46509 -1.920021,-13.18585 -0.19156,-18.60354 8.977508,-24.32794 35.065235,-40.416107 60.784664,-38.596129 26.00862,1.046192 51.05889,20.244139 56.11685,46.234939 1.52524,3.72609 -0.15816,13.71203 -5.46048,9.44001 -2.99615,-4.48229 -4.33341,-12.51191 -8.4434,-14.63628 0.51381,2.908 3.80224,10.55223 1.34548,11.01544 -4.47767,-13.06987 -13.4287,-24.93832 -26.22822,-30.74229 -20.841238,-10.447083 -48.432005,-2.64152 -60.91339,16.9943 -3.384432,3.24684 -5.376291,14.24109 -7.848736,13.77553 0.0092,-3.69438 4.640571,-16.3115 -0.794355,-7.14596 -3.048569,3.59819 -2.707326,12.56378 -8.366803,12.26382 z m 20.727793,-1.53519 c 0.662358,-16.32476 15.73192,-28.85538 31.233594,-30.90042 18.049317,-3.02824 38.212837,9.4286 41.511117,27.80531 -0.50306,7.13726 -4.34147,-7.89992 -7.23685,-9.34314 -10.82461,-15.01274 -33.711807,-19.38961 -48.969182,-8.63409 -7.742188,4.98782 -12.483641,13.15757 -15.993731,21.41322 l -0.345099,0.13278 z"
         id="path2476" />
      <path
         style="fill:#93918c;stroke-width:0.146484"
         d="m 93.625539,221.37808 c -28.604568,-1.4145 -54.856038,-22.20193 -62.957335,-49.64025 -3.640585,-11.84937 -3.964012,-24.73641 -0.727519,-36.71259 -1.76377,15.38055 2.464082,30.98889 9.071594,44.79754 11.367077,22.224 35.819969,37.07351 60.875859,35.99843 21.860002,-0.46672 42.701882,-13.08537 54.148232,-31.53637 8.23042,-13.9317 12.49086,-30.37176 11.85452,-46.54027 -0.64727,-6.89702 2.38636,8.92395 1.96143,12.1346 1.30633,30.89644 -20.85359,60.49992 -50.46214,68.86415 -7.68556,2.26608 -15.76991,3.15032 -23.764641,2.63476 z m -0.12046,-23.16559 c -15.94029,-1.30687 -31.73517,-12.35032 -35.044095,-28.54454 -0.913008,-7.41832 5.006338,3.86256 6.631615,5.33825 10.906343,14.22945 31.376795,20.15295 47.985381,13.05715 10.53638,-3.94134 18.00753,-12.80502 23.78484,-22.0813 2.05499,3.99577 -2.19716,10.90365 -4.60979,15.11572 -8.29305,12.57291 -24.06952,18.49724 -38.747951,17.11472 z m 1.267238,-11.55747 c -15.340723,-1.27067 -30.392929,-14.29191 -30.228401,-30.30178 4.103881,4.95574 6.451853,12.68136 11.909738,17.25486 11.621318,11.37938 32.522966,11.33997 43.496506,-1.00143 4.76225,-4.64704 7.55235,-10.73568 10.56271,-16.5415 2.01847,6.25027 -3.29804,15.53393 -8.33812,20.53016 -7.10316,7.09266 -17.36119,11.0528 -27.402433,10.05969 z m 0.391308,-8.94783 C 83.760142,176.76747 72.81308,166.72574 73.450922,154.87067 c 3.938859,5.78183 7.117252,12.90843 13.963276,15.96105 11.05308,6.22187 25.730662,0.57565 31.251402,-10.45901 1.24756,-3.64526 5.47586,-8.30846 3.23759,-1.18941 -2.31743,11.93467 -14.95171,19.95793 -26.739565,18.52389 z m 0.512696,-8.6374 c -6.874434,0.3461 -16.624229,-10.30549 -12.624731,-14.48699 3.898737,6.29648 10.994318,12.08 18.84281,9.36988 5.62276,-0.80322 7.84996,-7.632 11.75521,-9.77467 0.82275,9.29702 -9.37258,16.23959 -17.973289,14.89178 z m 0.695885,-8.64078 c -5.945857,0.4906 -8.818069,-11.31862 -1.148413,-6.34491 3.781732,1.91199 12.685297,-4.99221 9.630517,3.04993 -2.13741,2.21088 -5.379557,3.61456 -8.482104,3.29498 z m -8.697969,-11.51347 c -1.283045,-9.44373 13.429783,-13.00188 18.586343,-5.87973 3.70274,2.86887 1.11686,9.07559 -1.8639,3.12463 -5.698194,-6.79657 -12.239164,-0.86376 -16.722443,2.7551 z m -8.233268,-3.37105 c 0.0087,-7.87165 7.983503,-13.91147 15.371102,-14.81352 9.081579,-1.51179 20.084979,4.15445 21.304379,13.86359 -3.2824,-1.21821 -7.5935,-9.0893 -13.50238,-9.44133 -7.279464,-2.2201 -15.318014,0.95467 -19.810202,6.94358 -1.456672,0.67327 -1.746687,3.29841 -3.362899,3.44768 z m -7.964175,-3.22256 c 1.954878,-13.35525 16.567004,-21.70171 29.358836,-20.17637 10.52769,0.87449 20.8074,8.41687 23.06689,19.01787 -1.50918,0.83853 -5.57334,-8.0832 -9.32094,-9.43197 -10.16847,-8.57363 -26.485385,-7.80218 -35.657675,1.88513 -3.035132,2.31426 -5.228139,6.49122 -7.447111,8.70534 z m -27.949659,-4.52601 c -5.959016,0.18281 -2.742984,-8.98238 -1.490187,-12.43231 9.996007,-26.311956 40.671634,-41.546161 67.855502,-35.601345 20.62017,4.029478 39.76083,19.548705 44.95508,40.335635 3.26594,5.80491 -4.26359,10.40446 -6.4832,3.55612 -3.13966,-5.28591 -6.40125,-11.51178 -11.59914,-14.67539 1.75451,3.74319 6.67737,10.56055 5.36839,13.24988 -8.43871,-15.24695 -24.17437,-26.84268 -41.92084,-27.66479 -18.871701,-1.48469 -37.038715,9.90337 -45.813261,26.32921 -4.055312,6.82072 0.838667,-6.93752 2.681111,-8.83482 2.251886,-6.28624 -8.465257,7.79408 -9.386391,11.00181 -0.924636,1.2443 -2.358148,5.0978 -4.167064,4.736 z m 20.676128,-1.89286 c 3.12233,-10.72919 13.029534,-18.75359 23.63662,-21.58587 16.491067,-4.71797 36.659237,3.32842 43.019717,19.78406 0.0144,3.49026 -4.40828,-5.40268 -6.73538,-6.54242 -10.55579,-10.22218 -27.317393,-14.14261 -40.8443,-7.59883 -7.946771,2.98529 -14.176147,9.03241 -18.691159,16.09259 l -0.228101,0.0487 z"
         id="path2474" />
      <path
         style="fill:#8a8984;stroke-width:0.146484"
         d="m 93.821194,221.37112 c -30.186132,-1.4735 -57.792384,-24.5177 -64.39426,-54.04634 -1.953316,-8.44285 -2.256906,-17.29438 -0.710538,-25.82645 -1.205321,22.68263 9.45744,45.46562 26.749964,59.984 20.107717,16.92041 50.45491,19.95742 73.52338,7.35159 24.21637,-12.63701 38.86099,-40.20649 37.93366,-67.21605 5.085,28.02218 -10.45197,57.44839 -35.13718,70.97315 -11.46922,6.48701 -24.80555,9.62424 -37.965026,8.7801 z m 0.829736,-25.52951 c -9.791116,-0.90413 -19.570932,-5.16024 -25.597843,-13.12767 -3.530022,-5.66067 7.847323,4.85352 10.879418,5.11419 14.64884,6.92764 32.837035,4.33697 45.284685,-5.91251 6.6261,-5.16399 -1.88225,6.29431 -4.66163,6.75991 -7.43285,5.42652 -16.746,7.85321 -25.90463,7.16608 z m 0.65918,-9.27555 c -12.746826,-1.00434 -25.907371,-9.64784 -28.881217,-22.53385 3.572155,1.09002 7.406903,9.668 12.412833,12.12881 11.089989,8.72623 27.794984,8.26748 38.614534,-0.68414 4.92801,-2.56543 7.457,-9.86217 11.82952,-11.6756 -3.10433,13.76467 -17.70439,22.70016 -31.274265,22.88877 l -1.353153,-0.03 z m -0.585938,-9.00354 c -9.060938,-1.11094 -18.487486,-7.64511 -19.786219,-17.13846 4.608438,4.18336 9.217814,10.79664 16.227881,12.35039 11.097566,3.72805 22.908116,-2.87342 28.680406,-12.38844 2.06208,3.17939 -3.67802,10.70262 -7.84235,12.99735 -5.05839,3.2764 -11.26761,4.92165 -17.279718,4.17916 z m 0.180886,-8.70222 c -5.854486,-0.83224 -11.692741,-5.58024 -11.846673,-11.72321 4.889325,4.11826 10.590184,9.68749 17.762905,7.47988 4.82612,-0.51856 8.45914,-6.06664 11.86007,-7.26175 -0.59977,8.51263 -10.24555,12.72873 -17.776302,11.50508 z m 0.844505,-8.65452 c -4.415873,-1.72001 -4.828009,-3.11578 -4.394532,-6.12126 4.140558,2.51873 9.985699,0.0764 13.218979,0.73433 1.28276,1.38047 -3.92164,7.36418 -8.824447,5.38693 z m -7.321584,-13.38683 c 0.747452,-7.68034 12.197881,-9.58739 16.921841,-4.15697 4.47407,4.58071 -0.6717,5.45999 -3.2976,1.5278 -4.984834,-3.71259 -10.10288,1.83875 -13.353871,2.89634 l -0.27037,-0.26763 z m -7.325735,-5.09526 c 3.912861,-12.15428 21.981176,-14.48395 30.192896,-5.34493 2.24899,1.6088 4.65772,7.54821 0.37038,3.20718 -5.84875,-3.92022 -13.238861,-7.37322 -20.29262,-4.09668 -3.837147,1.64528 -7.128756,4.1149 -10.270656,6.23443 z m 85.568886,-1.20849 c 0.12821,-0.66028 0.12822,0.66025 0,0 z m -92.015317,-4.76561 c 7.402615,-15.36285 30.742407,-17.84786 42.260137,-5.74813 2.06,1.62915 6.48679,9.13261 1.49199,3.5926 -4.29332,-2.62495 -9.66636,-6.53803 -16.21746,-7.59563 -8.136246,-1.5167 -16.480605,1.51155 -22.798097,6.5452 1.106667,-2.75179 -4.552663,4.31465 -4.73657,3.20596 z m -27.837262,-6.85333 c -7.303027,-3.29492 0.880038,-12.45618 3.507144,-16.83357 17.589863,-23.893489 53.803225,-30.086893 78.780675,-14.450678 9.40933,5.866498 17.76575,14.235928 21.93728,24.640188 2.70035,5.86941 -4.72168,8.48661 -7.28825,2.36045 -4.00793,-5.49844 -9.08957,-10.69534 -15.27666,-13.64003 2.4703,3.01198 10.18104,11.12516 8.55507,12.28033 -9.28099,-10.83844 -22.64927,-18.49671 -37.112379,-18.91793 -15.385529,-0.88856 -30.498579,6.37681 -40.397588,18.01042 -4.673744,4.47865 2.316008,-6.27562 3.968431,-7.24783 2.645993,-2.29555 3.947811,-5.05184 -0.07856,-1.9916 -6.702719,3.95309 -10.205604,11.51305 -16.229518,15.96668 l -0.365574,-0.1764 z m 23.149762,-1.75904 c 6.874543,-10.60872 20.810438,-15.09423 33.019017,-13.4073 8.4098,1.22595 17.19155,5.2366 21.92798,12.46211 -6.25886,-4.52995 -13.22118,-9.08951 -21.19917,-10.09436 -12.358752,-2.27788 -24.637731,2.84517 -33.747827,11.03955 z m 19.492747,-9.76357 c 4.65772,-1.82759 13.5936,-1.03239 16.03554,-0.01 -5.17111,-1.07042 -11.388643,-0.80609 -16.03554,0.01 z"
         id="path2472" />
      <path
         style="fill:#83827c;stroke-width:0.146484"
         d="m 94.138235,221.35901 c -33.44038,-1.50198 -63.914989,-29.79568 -66.229274,-63.48021 -0.489345,-2.45768 0.250348,-15.15683 0.327832,-6.93699 1.787007,30.73472 25.615513,59.2127 56.099638,65.03047 25.368079,5.43562 53.056489,-5.41951 68.322739,-26.32131 9.27326,-12.1933 14.66277,-27.26255 14.8068,-42.61069 3.08113,28.71472 -15.42938,57.07872 -41.52688,68.40127 -9.93526,4.44863 -20.92668,6.53083 -31.800855,5.91746 z m 0.732421,-34.93754 c -10.05175,-1.12735 -20.439748,-6.32651 -25.252539,-15.50444 6.697243,3.30646 12.242879,9.38341 19.967287,10.86428 12.112136,3.38694 24.896426,-1.61658 33.729936,-10.01137 1.22198,0.86449 4.93235,-3.55304 1.53153,1.30071 -6.79279,9.20221 -18.6361,14.34338 -29.976214,13.35082 z m 0.869992,-8.85631 c -7.384888,-0.98411 -16.112337,-4.42859 -18.089594,-12.38955 5.955695,4.7213 13.115415,9.58828 21.254982,8.94292 7.216414,0.77596 14.636974,-6.62875 18.878434,-8.16712 -3.23759,8.52401 -13.4686,12.25446 -22.043822,11.61375 z m 0.594852,-8.57894 c -5.118542,0.14336 -12.355689,-5.20375 -10.538796,-8.36591 6.437502,5.79199 16.603526,6.25075 23.193296,0.43262 3.88058,-3.02226 0.006,3.88897 -1.01304,4.46403 -3.25545,2.56939 -7.51943,3.78824 -11.64146,3.46926 z m -0.292969,-8.7691 c -3.027245,-0.51107 -6.292782,-4.49645 -1.364229,-1.36107 2.348926,1.24542 -6.874186,-5.41706 0.14385,-2.92968 3.028319,1.18958 12.837608,-2.35685 5.859128,2.69329 -0.042,0.56786 6.07085,-2.73946 1.20257,0.66954 -1.75028,0.98832 -3.869677,1.36315 -5.841319,0.92792 z m -5.361726,-14.36885 c -3.099978,-3.21606 5.940605,-7.65104 9.982165,-5.60406 6.21659,1.31796 5.86363,8.51978 0.31016,3.34054 -3.610772,-1.74982 -7.887332,0.54138 -10.292325,2.26352 z m -6.503508,-8.24078 c 6.061971,-8.57322 20.906143,-8.70214 27.009033,-0.13867 -2.84684,-1.46044 -8.32437,-4.53744 -2.58842,-0.0298 -6.45165,-4.20426 -14.883351,-4.18947 -21.410649,-0.18262 5.454875,-4.18999 -0.558229,-1.05955 -2.824602,0.45211 l -0.185362,-0.101 z m 20.736163,-3.17605 c -1.61225,-0.81641 0.82982,0.77009 0,0 z m -25.036354,-4.64622 c 8.788868,-8.95324 24.546094,-9.4028 34.169624,-1.5223 2.04985,2.92036 -6.00063,-3.34529 -7.85086,-2.84952 -8.640247,-2.55662 -18.155424,-0.90198 -25.549477,4.22147 l -0.964328,0.47994 z m 3.427323,-0.33687 c 8.121632,-6.26036 20.539201,-6.3378 28.704901,-0.14505 -8.66794,-4.81094 -19.581586,-4.98611 -28.222242,-0.015 z m -32.084656,-7.71977 c -5.910174,-3.01806 0.189216,-10.49691 3.573698,-13.99459 19.123216,-21.27289 54.197079,-24.411926 77.213959,-7.69432 6.05237,4.72964 13.01509,10.17291 14.69711,18.0724 -3.37268,7.04831 -8.13315,-1.57614 -11.73816,-3.94814 -4.75156,-3.82772 -10.11782,-7.37641 -16.09272,-8.78541 3.4384,2.63954 12.0427,8.21153 11.3866,10.40115 -15.52282,-12.8633 -38.7872,-15.54485 -56.481988,-5.6113 -2.956482,0.92615 -13.661396,10.74401 -7.840523,3.74341 2.515804,-3.30635 7.833977,-5.74273 9.792283,-8.25919 -9.372396,2.6923 -16.434854,9.71346 -23.426496,16.05151 l -0.842749,0.32468 -0.241013,-0.30018 z m 28.855962,-3.02367 c 8.871494,-6.04728 20.923125,-5.99258 30.759775,-2.48207 7.25464,3.69023 -5.63492,-1.27487 -7.92453,-0.9718 -7.839883,-1.46849 -15.714602,0.72978 -22.835245,3.45387 z"
         id="path2470" />
      <path
         style="fill:#807e79;stroke-width:0.146484"
         d="m 94.431203,221.34412 c -30.946424,-1.06303 -59.365127,-25.13857 -65.226488,-55.587 -1.061593,-3.65533 -1.514132,-14.52455 -1.118133,-13.52317 1.883048,31.0649 26.660093,59.12204 57.414176,64.39548 25.581722,5.01176 53.113382,-6.43149 68.201992,-27.56228 8.11561,-11.07062 13.24991,-24.4251 13.92391,-38.17753 0.92988,27.53995 -16.6839,54.25607 -42.07728,64.75696 -9.76563,4.21763 -20.49043,6.19313 -31.118177,5.69754 z m 0.644852,-34.9781 c -9.097137,-0.9387 -18.452484,-5.17947 -23.640557,-12.93971 4.455963,5.34454 9.49852,5.75692 15.45176,7.92947 9.225339,3.32889 19.273842,1.63779 28.027792,-2.22119 2.26754,2.48707 13.09683,-10.71397 7.24335,-2.93883 -6.84145,7.21109 -17.23075,10.87982 -27.082345,10.17026 z m -9.28743,-3.8744 c -0.34185,-0.50315 -0.421907,0.27915 0,0 z m 28.784175,-2.27916 c -0.37547,-0.54257 -0.56312,0.5252 0,0 z m -34.057612,-0.41503 c -0.266459,-0.76294 -0.548132,0.45651 0,0 z m 13.749137,-2.44453 c -4.495623,-0.54405 -10.28309,-3.12335 -12.650504,-6.12522 5.295172,2.88295 -0.381372,-0.30413 0.290413,-1.74012 7.134794,4.04276 15.870401,6.56356 23.960526,3.56019 2.61961,-0.66911 12.84672,-6.97451 5.93091,-0.98818 -3.81626,2.7428 6.08439,-3.30613 0.61634,0.78438 -5.13916,3.82811 -11.8273,5.36681 -18.147685,4.50895 z m 0.240121,-8.70832 c -2.827745,0.0314 -10.247315,-5.28076 -3.58147,-2.12575 -3.349427,-1.51056 -5.287611,-5.54097 -0.21443,-2.45693 5.834967,3.19446 12.973694,0.70254 18.078124,-1.59918 -1.92869,3.0898 -5.81503,5.00544 -0.48783,2.41816 -3.04943,3.45273 -9.145994,4.70586 -13.794394,3.7637 z m 2.197265,-8.37416 c -3.593642,-0.57064 -6.617505,-3.9349 -1.220497,-1.01144 3.594486,1.16541 11.574966,-2.75213 4.402938,0.81274 -1.037854,0.27305 -2.121648,0.32229 -3.182441,0.1987 z m 0.07324,-1.40229 c -4.682753,-0.8473 -3.838736,-3.80998 0.774786,-2.16355 3.311063,-0.98986 7.324753,-0.004 1.962422,1.99124 l -1.377302,0.23982 z m -5.464825,-13.82928 c 2.91108,-2.87894 1.048148,-1.28523 -0.236232,-1.97658 2.757245,-4.36402 12.168146,-3.65403 13.002776,0.26234 -3.12879,-1.3182 -5.531677,-2.04185 -1.0717,0.3584 3.93749,4.16145 -5.917353,-3.48096 -8.186288,-0.18471 -0.305179,-0.69714 -4.239017,3.02771 -3.508556,1.54055 z m 3.121075,-2.61935 c 1.627563,-0.97612 -2.375159,0.91111 0,0 z m 1.892091,-0.53213 c -2.35869,-0.13467 -0.327184,0.40659 0,0 z m -7.260405,-5.87982 c 4.383293,-4.10521 14.391003,-2.76607 17.160313,0.0283 -5.37485,-2.88194 -12.538467,-2.01708 -17.160313,-0.0283 z m -1.130745,-1.32018 c 5.214538,-4.38072 13.729458,-4.31372 19.244418,-0.45798 -4.57545,-1.31004 -11.430911,-2.60109 -16.700437,-0.30391 -0.832735,0.17974 -1.689374,0.74776 -2.543981,0.76189 z m -1.997034,-6.70558 c 6.943379,-3.95578 16.050462,-4.20745 23.067242,-0.29217 -7.32984,-2.82632 -15.859385,-2.94824 -23.067242,0.29217 z m 1.245117,-2.55448 c 0.525617,-0.55771 0.181925,0.5775 0,0 z m 20.288085,-0.21973 c -6.39142,-1.9685 -13.354441,-1.72101 -19.710101,0.0105 6.098814,-3.1526 14.137191,-3.00161 20.296041,0.0884 l -0.0366,0.10961 -0.54932,-0.20858 z m -52.939113,-8.15957 c -3.415176,-4.28426 -0.01856,-9.17748 4.055331,-12.5651 21.530719,-20.333618 58.994462,-19.885511 79.713832,1.40407 6.06566,2.30694 3.27768,15.39115 -2.61126,8.23391 -7.36591,-5.78534 -15.94001,-10.56274 -25.34959,-11.75652 5.01174,2.67141 11.31161,4.47985 14.86796,9.19519 -8.77128,-4.65618 -18.38893,-8.44696 -28.531989,-7.56475 -9.66863,0.1904 -19.057802,3.73059 -27.363367,8.15447 3.270563,-4.90415 13.021558,-7.90901 15.453119,-9.65931 -10.809279,1.48342 -20.275794,7.64508 -28.415967,14.59138 -0.599816,0.14577 -1.212708,-0.11112 -1.818069,-0.0333 z"
         id="path2468" />
      <path
         style="fill:#7a7974;stroke-width:0.146484"
         d="m 93.039602,221.27047 c -34.127115,-1.78608 -64.925753,-32.18518 -64.955485,-66.76601 2.6511,34.89064 35.095216,64.31903 70.077689,63.55518 30.969024,0.0552 60.189624,-22.83803 67.490474,-52.94329 1.10569,-3.24837 1.71183,-10.90702 2.01041,-11.5515 -0.39288,28.87583 -20.77587,56.20962 -48.51691,64.4931 -8.40883,2.65918 -17.30634,3.7058 -26.106178,3.21252 z m 0.439453,-35.12836 c -7.592361,-1.0477 -15.135059,-4.54367 -20.126223,-10.4397 10.090909,8.82706 25.046345,12.38562 37.600658,6.84586 3.97221,-1.17998 9.18898,-5.62745 11.40176,-6.82092 -7.11541,7.96275 -18.35824,11.75423 -28.876195,10.41476 z m 2.197266,-8.65519 c -3.143442,0.15539 -11.615981,-3.21874 -10.836166,-4.07807 8.520615,4.7758 19.011635,3.86656 27.433535,-0.61672 -4.65651,3.5436 -10.79279,5.1332 -16.597369,4.69479 z m 0.805664,-1.32664 c -2.831771,0.62124 -14.467187,-4.66863 -6.077448,-2.44712 6.300839,1.90357 13.033573,0.75701 19.114553,-1.12989 -3.69524,2.9106 -8.4599,3.61622 -13.037105,3.57701 z m -1.086219,-7.38922 c -2.717764,0.0633 -9.990081,-4.37496 -3.640924,-1.63924 4.55104,2.45317 12.784328,-0.19233 14.910358,-0.8376 -3.27015,2.18584 -7.392876,2.9984 -11.269434,2.47684 z m 0.866492,-1.30132 c -3.774539,0.0985 -9.722575,-4.59194 -2.507689,-1.97123 3.017912,2.14407 12.180191,-2.24706 11.517301,0.0216 -2.65604,1.64681 -5.931153,2.14265 -9.009612,1.9496 z m -0.482547,-7.40717 c -8.600863,-3.06438 6.792239,0.90309 6.898779,-1.39498 -1.91121,1.48456 -4.563022,1.95802 -6.898779,1.39498 z m 0.629031,-1.58828 c -6.440218,-2.43496 10.987298,-1.06343 1.496076,0.14704 l -1.496076,-0.14702 z m -4.907226,-13.39804 c 1.689021,-5.48117 13.634324,-1.67183 11.179124,-0.74755 -3.579916,-2.43533 -7.801079,-1.36774 -11.179124,0.74755 z m 1.608029,-3.23653 c 2.1228,-4.15322 14.972405,1.64183 5.427855,-0.51933 -1.725195,-0.19614 -4.098882,0.50867 -5.427855,0.51933 z m -2.845822,-6.4351 c 3.930138,-3.02782 12.225437,-1.80513 14.532657,-0.0709 -4.64259,-1.73753 -10.291604,-1.46096 -14.532657,0.0709 z m 10.100097,-3.23903 c 0.89817,-0.48029 1.14643,0.60471 0,0 z m -4.248046,-0.14649 c 2.716056,-0.38382 -1.097715,0.39803 0,0 z m -6.505566,-5.55346 c 4.863717,-1.9249 10.618152,-1.82759 15.555872,-0.21849 -5.05602,-1.16333 -11.06978,-0.98612 -15.555872,0.21849 z M 58.40314,113.67194 c 1.339497,-3.13847 1.289488,-5.84472 0.09081,-7.89568 13.759663,-15.304969 36.985119,-19.169623 56.192804,-13.539252 8.07812,2.560042 16.24887,6.499655 21.78174,13.067822 -2.8417,2.3867 3.93458,12.16475 -3.49866,6.21231 -21.00921,-15.310127 -51.846479,-14.582591 -72.276639,1.41866 -0.540878,-0.22308 -1.660777,1.56616 -2.290051,0.73614 z m 17.584198,-5.72174 c 12.76165,-8.827846 31.195492,-8.611992 43.785662,0.23475 -10.10857,-3.67523 -21.254314,-5.83385 -31.98684,-3.40542 -3.66975,0.59505 -9.790042,3.09918 -11.798822,3.17067 z"
         id="path2466" />
      <path
         style="fill:#74726d;stroke-width:0.146484"
         d="m 92.746633,221.2221 c -31.448476,-1.7002 -59.586316,-27.38519 -63.943754,-58.60968 -1.047743,-8.14256 1.260137,6.50642 2.712765,8.95404 10.078388,29.6909 41.867891,50.12582 73.080766,46.65825 30.76732,-2.80038 58.07311,-27.95368 62.46652,-58.68911 0.10692,2.46889 -1.33568,9.9256 -2.79766,14.08126 -9.46367,29.85948 -40.43892,50.02754 -71.518637,47.60524 z m 1.68457,-35.01789 c -6.90207,-0.96245 -14.138746,-3.43517 -18.988869,-8.63007 12.784756,10.02986 32.622846,10.44414 45.063086,-0.155 -6.79451,6.58079 -16.71292,9.69119 -26.074217,8.78507 z m -0.303448,-8.99015 c -2.565804,0.16974 -11.819619,-4.365 -4.859489,-1.74797 5.568787,3.11203 17.325304,0.0853 19.152194,-0.41996 -4.39494,2.07905 -9.480976,2.83138 -14.292705,2.16793 z m 1.84336,-8.44301 c -2.448255,0.008 -8.480934,-2.97709 -3.122048,-1.11812 3.305575,1.70541 11.806193,-0.54848 11.528323,-0.19399 -2.6198,1.11869 -5.563222,1.69381 -8.406275,1.31211 z m 0.291143,-8.62291 c -7.525282,-3.0011 3.848682,1.30236 6.316382,-1.52117 -1.67607,1.44148 -4.181965,1.83454 -6.316382,1.52117 z m -3.672401,-16.10678 c 2.82599,-5.22589 16.181293,2.46971 6.577626,-1.05253 -1.511483,-1.15389 -7.414632,2.02964 -6.577626,1.05253 z m 0.522987,-9.66701 c 3.583618,-1.6792 13.320796,0.53166 4.079139,-0.39074 -1.013794,-0.14598 -3.620721,0.61111 -4.079139,0.39074 z m -30.03445,-24.61124 c 3.229513,-5.36248 8.898458,-9.23117 14.726833,-11.445614 9.689614,-3.860548 20.562387,-4.978496 30.806603,-2.788178 8.89395,1.761385 17.94334,5.674112 23.2855,13.344492 -6.34192,-1.14179 -13.58046,-6.87398 -20.98038,-7.56101 -16.00038,-3.659222 -32.963569,-0.007 -46.864101,8.43722 0.107756,-0.0963 -1.319991,0.70431 -0.974455,0.0131 z m 43.018746,-5.82416 c -0.31871,-0.7427 0.86091,0.0699 0,0 z m -14.964079,-0.19496 c 0.388469,-0.91052 0.883331,0.57931 0,0 z m 1.03116,-0.13715 c 2.662915,-1.67459 10.492429,-0.77568 11.075889,0.074 -3.690502,-0.24168 -7.385109,-0.0973 -11.075889,-0.074 z m -22.5573,-5.7886 c 16.232444,-10.167513 38.261549,-10.297073 54.840099,-0.868737 -4.61188,0.05534 -12.84788,-4.544143 -19.20115,-4.337705 -11.546111,-1.580943 -23.429308,0.523884 -34.041439,5.222574 0.718888,-0.241536 -2.192094,0.852988 -1.59751,-0.01613 z"
         id="path2464" />
      <path
         style="fill:#6a6965;stroke-width:0.146484"
         d="m 93.552297,221.27079 c -30.530258,-1.22731 -58.337865,-25.38106 -64.067086,-55.35253 6.523053,26.4784 29.600406,47.78313 56.523702,52.12711 30.805567,5.77755 63.892327,-12.1454 76.159777,-40.92768 1.81252,-3.9538 2.97823,-8.14844 4.14928,-12.32176 -4.43644,27.57888 -27.77495,50.22591 -55.07956,55.13876 -5.81474,1.14619 -11.7657,1.58266 -17.686113,1.3361 z m -0.07324,-35.27851 c -4.327648,0.013 -13.7938,-4.44922 -13.366699,-5.10428 11.084691,6.52942 25.303472,6.02746 36.316872,-0.37713 -6.53621,4.66523 -15.03142,6.42308 -22.950173,5.48141 z m 1.028717,-8.86395 c -2.21463,-0.16356 13.284786,-0.26091 3.888857,0.0901 -1.296615,0.0125 -2.596139,0.0338 -3.888857,-0.0901 z m 8.578216,-0.48413 c 0.57446,-0.32986 1.3711,-0.087 0,0 z m -7.439019,-8.01413 c -3.097868,-0.39896 12.004339,-0.53777 2.846427,0.0462 -0.947601,0.0348 -1.902644,0.0769 -2.846427,-0.0462 z m -66.389748,-3.73743 c 0.21142,-0.39012 0.06534,0.63155 0,0 z M 166.3666,164.16022 c 0.21144,-0.39012 0.0652,0.63153 0,0 z m -70.617037,-4.22544 c -5.022946,-0.66272 11.525127,-0.76495 2.781358,0.16916 l -1.469154,0.0314 z m -2.624117,-16.13937 c 2.797824,-3.80204 14.077804,1.4519 5.428536,-0.93621 -1.804397,-0.2773 -4.074762,0.67594 -5.428536,0.93621 z M 69.821828,105.3943 c 10.864426,-9.03569 26.441612,-10.71145 39.920682,-7.683764 3.93053,0.654941 14.96772,5.013874 13.55802,6.896164 -16.41912,-6.802546 -35.477948,-6.961346 -51.739211,0.40119 l -1.244248,0.42913 z"
         id="path2462" />
      <path
         style="fill:#63615d;stroke-width:0.146484"
         d="M 93.405813,221.22254 C 65.203795,219.82908 38.99902,199.40187 31.184361,172.21907 c 9.157647,27.52212 36.893958,47.56374 65.964056,47.29415 27.760953,0.49046 54.974813,-16.9002 65.457013,-42.74379 1.52231,-4.0237 2.61825,-6.39788 0.61601,-0.81543 -10.02721,28.47283 -39.82669,47.42032 -69.815627,45.26854 z m 2.563476,-35.09219 c -3.701135,0.30609 -15.224598,-3.79919 -5.556541,-1.14827 5.698226,2.09483 16.733322,-0.45148 19.227172,-0.90817 -4.35584,1.5181 -9.06576,2.16455 -13.670631,2.05644 z m -11.645508,-2.84171 c -0.363203,-0.57693 1.073494,0.61417 0,0 z m 13.146973,-23.24791 c 1.461396,-0.22037 0.285853,0.22442 0,0 z m 1.620484,-0.14317 c 0.642247,-0.20965 0.06328,0.28165 0,0 z m 1.419062,-16.77103 c -3.100314,-0.82601 -9.146571,0.44929 -2.444357,-0.68107 0.319468,-0.5553 5.595167,1.68933 2.444357,0.68107 z M 79.343313,101.15332 c 10.796751,-5.108569 24.031387,-5.291534 35.078227,-0.784 -3.93055,0.38335 -10.61784,-1.813204 -15.690855,-1.453816 -6.572347,-0.34114 -12.965533,1.284806 -19.387372,2.237816 z"
         id="path2460" />
      <path
         style="fill:#52524f;stroke-width:0.146484"
         d="m 93.972953,221.223 c -24.610936,-1.19787 -48.04318,-16.40151 -58.677158,-38.7012 11.975735,22.5666 36.695655,38.10753 62.428775,37.51367 25.60502,0.26913 50.91849,-14.70719 62.57054,-37.58214 -11.64208,24.69991 -39.12934,40.54694 -66.322157,38.76967 z m 66.605367,-39.44215 c 0.51332,-0.66847 -0.18549,0.60958 0,0 z"
         id="path2458" />
    </g>
  </g>
</svg>
