<?xml version="1.0" encoding="UTF-8" standalone="no"?>
<svg
   width="128"
   height="128"
   viewBox="0 0 128 128"
   id="svg2"
   version="1.1"
   inkscape:version="1.2.2 (1:1.2.2+202305151915+b0a8486541)"
   sodipodi:docname="manwhite.svg"
   xmlns:inkscape="http://www.inkscape.org/namespaces/inkscape"
   xmlns:sodipodi="http://sodipodi.sourceforge.net/DTD/sodipodi-0.dtd"
   xmlns:xlink="http://www.w3.org/1999/xlink"
   xmlns="http://www.w3.org/2000/svg"
   xmlns:svg="http://www.w3.org/2000/svg"
   xmlns:rdf="http://www.w3.org/1999/02/22-rdf-syntax-ns#"
   xmlns:cc="http://creativecommons.org/ns#"
   xmlns:dc="http://purl.org/dc/elements/1.1/">
  <defs
     id="defs4">
    <linearGradient
       inkscape:collect="always"
       id="linearGradient2102">
      <stop
         style="stop-color:#555753;stop-opacity:1"
         offset="0"
         id="stop2098" />
      <stop
         style="stop-color:#000000;stop-opacity:1"
         offset="1"
         id="stop2100" />
    </linearGradient>
    <linearGradient
       inkscape:collect="always"
       xlink:href="#linearGradient2102"
       id="linearGradient2104"
       x1="62.694489"
       y1="924.36218"
       x2="62.694489"
       y2="1052.4132"
       gradientUnits="userSpaceOnUse"
       gradientTransform="rotate(-90,64,988.3622)" />
    <filter
       inkscape:collect="always"
       style="color-interpolation-filters:sRGB"
       id="filter2961"
       x="-1.0767514e-05"
       width="1.0000215"
       y="-1.0812733e-05"
       height="1.0000216">
      <feGaussianBlur
         inkscape:collect="always"
         stdDeviation="0.00051749808"
         id="feGaussianBlur2963" />
    </filter>
  </defs>
  <sodipodi:namedview
     id="base"
     pagecolor="#ffffff"
     bordercolor="#666666"
     borderopacity="1.0"
     inkscape:pageopacity="0.0"
     inkscape:pageshadow="2"
     inkscape:zoom="5.6"
     inkscape:cx="59.821428"
     inkscape:cy="64.821428"
     inkscape:document-units="px"
     inkscape:current-layer="layer1"
     showgrid="false"
     units="px"
     inkscape:snap-page="true"
     inkscape:window-width="1920"
     inkscape:window-height="1152"
     inkscape:window-x="0"
     inkscape:window-y="0"
     inkscape:window-maximized="1"
     inkscape:document-rotation="0"
     inkscape:showpageshadow="2"
     inkscape:pagecheckerboard="0"
     inkscape:deskcolor="#d1d1d1" />
  <metadata
     id="metadata7">
    <rdf:RDF>
      <cc:Work
         rdf:about="">
        <dc:format>image/svg+xml</dc:format>
        <dc:type
           rdf:resource="http://purl.org/dc/dcmitype/StillImage" />
      </cc:Work>
    </rdf:RDF>
  </metadata>
  <g
     inkscape:groupmode="layer"
     id="layer2"
     inkscape:label="Layer 2"
     style="display:inline;opacity:1;mix-blend-mode:normal" />
  <g
     inkscape:label="Layer 1"
     inkscape:groupmode="layer"
     id="layer1"
     transform="translate(0,-924.36216)"
     style="display:inline;opacity:1;mix-blend-mode:normal;filter:url(#filter2961)">
    <g
       id="g458"
       transform="matrix(0.81987197,0,0,0.81987197,-25.28942,861.23776)">
      <g
         id="g392"
         transform="translate(0.40078091,31.007428)">
        <path
           style="fill:#d1d0cd;stroke-width:0.146484"
           d="M 104.95721,193.66594 C 77.28188,192.66915 51.619697,173.45732 42.426496,147.41077 32.420936,121.15687 40.629366,89.457239 61.866148,71.138213 82.2087,52.890914 113.3153,49.947234 138.0827,60.14993 c 25.51398,10.923855 42.13675,38.597448 40.64628,66.19613 -0.68097,27.55351 -19.3943,53.43884 -45.25538,62.8895 -9.06178,3.43888 -18.84021,4.93449 -28.51639,4.43038 z"
           id="path434" />
        <path
           style="fill:#c9c8c5;stroke-width:0.146484"
           d="M 104.15155,193.54293 C 76.072436,192.30456 50.403451,172.09537 41.863553,145.44306 34.664071,124.23147 38.583136,99.333859 52.643727,81.806351 70.415294,64.533915 96.006275,53.686843 120.93948,58.551453 c 16.6878,3.062081 32.139,11.952404 44.05651,23.893209 18.23595,23.229698 18.11654,58.228798 0.69422,81.868598 -13.75398,19.4796 -37.75336,30.84844 -61.53866,29.22967 z m 9.08203,-8.79588 c 13.55492,-1.26675 28.05133,-6.59338 36.06176,-18.13881 -1.19414,-5.07237 -8.73608,2.8176 -12.55099,2.92354 -16.27514,9.09169 -36.800932,9.68186 -53.552184,1.48556 -3.947257,-2.01252 -7.749916,-3.57362 -11.486876,-5.15445 -5.98287,-3.67423 -3.523457,2.68291 -0.453985,4.90408 10.73968,10.87902 27.022134,14.96747 41.982275,13.98008 z M 68.848816,165.56132 c 0.421906,-0.27915 0.34185,0.50314 0,0 z m 41.894214,-13.91025 c 3.40353,-0.13438 9.25143,-2.41584 2.79822,-0.91058 -3.37796,1.32202 -12.75646,-0.82888 -12.1729,-0.0258 3.03058,0.88163 6.22871,1.2279 9.37468,0.93635 z m 0.29329,-8.56064 c 2.54151,-0.14245 7.36441,-2.6713 1.63639,-1.01417 -2.24333,1.69042 -11.29754,-1.20912 -10.27138,0.005 2.71774,1.11044 5.73435,1.47685 8.63499,1.00887 z m -0.0867,-8.86428 c 6.93685,-1.36474 -12.875518,-1.35784 -4.18618,0.18148 1.38166,0.29887 2.83271,0.20955 4.18618,-0.18148 z m 0.63599,-16.63613 c -0.29584,-3.78071 -11.14926,0.67133 -3.03086,0.17144 1.01156,-0.0189 2.02812,-0.0107 3.03086,-0.17144 z m -6.99463,-8.23617 c 3.05484,-1.06733 16.23797,1.75504 7.51785,-1.62874 -1.84288,-2.16561 -17.254254,2.7596 -7.51785,1.62874 z m -2.60985,-8.44918 c 4.9393,-1.443524 10.80573,-0.0722 15.2257,-0.0838 -4.97809,-2.877494 -13.18774,-3.127048 -17.554629,0.36339 0.767499,0.25562 1.573059,-0.41109 2.328929,-0.27959 z"
           id="path432" />
        <path
           style="fill:#c1c1bd;stroke-width:0.146484"
           d="M 104.51776,193.55242 C 77.070011,192.24115 51.587932,173.25551 42.485903,147.33051 35.374158,127.83765 37.308606,104.72959 49.03609,87.429986 62.04502,74.117643 77.781219,62.09374 96.644936,59.123351 c 21.754894,-4.079302 44.559324,3.665544 60.791014,18.361697 5.70284,5.088405 12.24178,9.829909 14.96536,17.294876 12.57036,26.335746 5.89325,60.195316 -15.76752,79.779466 -13.85389,13.02984 -33.08459,20.25485 -52.11603,18.99303 z m 9.52149,-8.27416 c 21.38769,-1.79133 42.17815,-15.87316 49.42715,-36.43175 3.15942,-8.83909 -6.9149,-0.98057 -8.39837,2.427 -9.24433,12.31615 -22.55211,22.2406 -38.14284,24.25959 -18.338255,3.07374 -37.675635,-4.18069 -49.779611,-18.22974 -3.400265,-3.37341 -6.403992,-8.2423 -10.0078,-10.69662 -6.624936,-5.28972 -2.804726,5.50713 -0.828058,8.50362 10.782608,20.58453 34.869457,32.34471 57.729529,30.1679 z m -2.78321,-12.5962 c 7.69321,-0.39175 15.38243,-2.60246 21.8695,-6.80263 -9.56589,4.72058 -20.5286,7.49713 -31.26509,5.67197 -6.588917,-0.63247 -12.987321,-3.2003 -18.656165,-6.15268 8.113014,5.49292 18.325285,7.83591 28.051755,7.28334 z m 22.76876,-7.3203 c 0.24799,-0.6469 -1.16755,0.72241 0,0 z m 1.11207,-0.7889 c -0.63716,0.17401 -0.28316,0.41456 0,0 z m -21.7568,-3.6192 c 5.57629,-0.55592 14.9029,-4.25536 16.69402,-7.53091 -12.90703,9.00165 -31.049978,8.53742 -43.877857,-0.38982 6.896738,6.88047 17.742497,8.93191 27.183837,7.92073 z m 18.09684,-8.13758 c 0.1457,-0.78577 -0.68209,0.63 0,0 z m -17.73865,-1.00522 c 4.90151,-0.59891 13.67498,-5.51129 14.04586,-8.55255 -9.22316,8.41995 -23.96467,10.23825 -34.40693,2.98666 -2.842887,-2.48894 -6.417378,-4.28301 -2.083674,-0.20074 6.125607,5.28767 14.555034,7.15908 22.444744,5.76663 z m -1.95871,-8.29934 c 3.30496,0.44622 12.04387,-5.76344 9.94435,-6.5298 -6.80964,6.33463 -17.94253,6.94996 -25.163067,0.94896 -4.937341,-2.87584 3.448367,5.21812 5.653357,4.74355 3.05166,1.06821 6.3745,1.37026 9.56536,0.83729 z m -0.78279,-8.78582 c 3.73762,0.41265 8.32303,-8.17824 2.58091,-2.91135 -4.00291,4.13747 -10.96774,-0.97957 -12.95424,-1.22223 1.51873,3.87857 6.70198,4.90482 10.37333,4.13358 z m -2.6704,-15.95129 c 2.7274,0.5243 8.24446,-0.12695 2.88292,-2.47679 -3.35108,-2.85963 -12.255512,3.9324 -4.08043,2.50192 l 1.19751,-0.0251 z m -10.208694,-6.16292 c 6.006924,-3.60715 13.579504,-4.08288 19.739524,-0.53581 5.27001,0.9503 -4.3005,-5.49611 -6.57358,-4.69862 -4.02377,-0.96099 -13.616973,0.96745 -13.165944,5.23443 z m -4.880716,-7.2734 c 7.93623,-4.63721 18.05209,-6.573325 26.4856,-2.03169 3.00926,2.21586 7.97844,2.6216 2.45607,-0.74793 -8.93263,-6.136119 -22.523609,-5.475589 -30.079104,2.54733 -0.735575,0.52996 0.866191,1.54848 1.137434,0.23229 z m 32.30132,-9.88117 c -5.41579,-5.698669 -14.44853,-6.270479 -21.85637,-5.480436 -3.54807,0.538863 -11.773246,2.688591 -11.600723,5.628495 9.408003,-4.12187 20.331513,-5.098159 29.944283,-1.031921 1.0123,0.102042 2.68605,1.602434 3.51281,0.883862 z"
           id="path430" />
        <path
           style="fill:#c0bebb;stroke-width:0.146484"
           d="M 104.66425,193.54426 C 77.598058,192.32621 52.355075,173.9252 42.952709,148.51263 35.926972,130.11469 36.793771,108.30286 46.855733,91.197946 58.25516,79.611368 70.125093,67.428058 86.006964,62.261904 c 23.455226,-8.623849 50.956576,-2.405126 69.243356,14.378681 5.49238,5.523004 12.13121,10.264632 16.39124,16.791878 13.8664,26.811147 6.72271,62.109877 -15.87814,81.937837 -13.75397,12.47538 -32.5207,19.3343 -51.09917,18.17396 z m 9.22851,-7.921 c 25.02704,-1.85114 48.80481,-20.85031 53.36859,-45.98103 1.25954,-8.83934 -7.5464,0.34288 -8.61761,3.71504 -7.95097,15.33803 -22.06298,28.00171 -39.33283,31.36134 -21.33155,4.77408 -44.459783,-5.51597 -56.173661,-23.76064 -3.836141,-5.14051 -6.11909,-12.50992 -12.532349,-14.86331 -1.893502,5.70584 1.736419,12.53249 4.254609,17.92185 11.052659,21.29525 35.266488,33.86461 59.033251,31.60675 z m -1.31836,-12.58139 c 15.83339,-1.34736 31.59682,-10.55962 38.26793,-25.33521 -4.77137,6.09598 -10.30818,12.91676 -17.39058,17.05579 -18.45715,11.69175 -44.617771,8.31132 -59.453148,-7.74347 -2.305329,-1.49556 -6.90597,-10.00362 -7.151041,-8.02303 8.439169,16.40249 27.621826,25.66092 45.726839,24.04592 z m 0.73626,-11.79677 c 10.46724,-1.38042 21.06008,-7.31872 25.79917,-17.01568 -8.10305,9.66268 -20.25542,16.97031 -33.25964,15.49248 -11.020069,-0.42346 -20.535175,-7.04029 -27.561335,-15.0958 2.268357,5.44441 8.190925,10.28667 13.838592,13.07494 6.501158,3.26363 13.973533,4.51293 21.183213,3.54406 z m 0.65534,-9.20083 c 7.68256,-1.51373 17.01699,-7.37971 18.34113,-14.75893 -5.80661,8.95204 -16.47651,14.94803 -27.29875,13.05452 -8.416038,-1.05297 -15.520625,-6.48735 -20.387739,-13.17497 2.17611,7.98261 10.565028,13.24618 18.417049,14.80588 3.5923,0.68997 7.33423,0.82758 10.92831,0.0735 z m -47.540432,-4.62825 c -0.05352,-0.72145 -0.466888,0.48734 0,0 z m 84.747472,-0.44957 c -0.37423,-0.52551 -0.37428,0.52549 0,0 z m -38.23243,-3.42091 c 5.30558,-1.2707 10.77524,-4.75861 12.29402,-10.27399 -3.27731,2.23465 -9.87698,9.8252 -16.76524,8.77361 -6.90616,0.26321 -12.634036,-4.52324 -16.582522,-9.57272 1.544789,8.91531 13.061042,13.05107 21.053742,11.0731 z m -1.24511,-8.73837 c 4.16851,1.18137 8.77856,-10.93992 3.92436,-5.05835 -4.43824,6.77252 -13.415,1.77773 -16.240826,-1.63606 0.02292,5.78246 7.609356,8.1072 12.316466,6.69441 z m -5.78614,-15.16006 c 3.39032,-0.11856 13.35513,0.92194 5.40421,-3.42436 -2.87135,-3.1291 -14.503595,4.81498 -5.40421,3.42436 z m -9.804652,-4.90752 c 6.178432,-4.73313 15.169102,-7.16212 21.816372,-1.82447 7.78794,5.26988 0.30486,-4.84348 -3.69641,-4.91168 -5.68471,-3.05057 -19.139927,1.13786 -18.119962,6.73615 z m -6.762005,-5.77864 c 6.74752,-5.20782 15.147937,-9.645826 23.938227,-7.51049 5.4946,0.0365 11.5623,6.85559 14.96645,6.91629 -8.66725,-13.456572 -31.53164,-13.290063 -39.680535,0.58383 l 0.174769,0.20995 z m -2.813215,-9.058312 c 10.2222,-7.522212 24.372662,-10.400937 36.076022,-4.593647 2.30336,0.850567 12.80453,8.307839 7.5252,2.003471 -12.59056,-10.903151 -33.773929,-10.480676 -45.072453,2.060174 -0.898145,1.380434 0.864856,1.016754 1.471231,0.530002 z"
           id="path428" />
        <path
           style="fill:#b9b8b5;stroke-width:0.146484"
           d="m 104.81073,193.54 c -27.499958,-1.20467 -53.121141,-20.15193 -62.277323,-46.11579 -6.195181,-17.10188 -5.696593,-37.0341 2.842374,-53.226665 9.453239,-8.89344 17.356978,-19.753105 28.96095,-26.12353 22.073621,-13.483222 51.813519,-12.301208 72.808519,2.776234 9.50847,6.204629 16.13533,15.656457 24.56097,23.035081 11.36389,22.08843 8.62175,50.33483 -6.05872,70.28081 -13.62873,19.25601 -37.19762,30.96596 -60.83677,29.37386 z m 9.44824,-7.6105 c 26.22931,-2.09663 50.63393,-22.85803 54.38145,-49.31212 2.32646,-6.6401 -3.20955,-8.72256 -6.27112,-2.64754 -5.18877,9.93406 -9.84138,20.60915 -18.68773,27.97172 -15.8321,14.45501 -40.62982,17.57895 -59.540035,7.437 -12.275981,-6.22835 -21.067428,-17.52154 -26.626738,-29.88627 -0.762132,-3.24839 -8.542889,-13.71923 -9.170632,-5.9668 1.255352,21.13642 16.819403,39.75923 36.000953,47.74726 9.389875,3.9753 19.759762,5.58987 29.913852,4.65675 z m -1.97754,-12.52257 c 19.00058,-1.50953 38.06919,-14.55205 42.35795,-33.80902 0.3226,-4.5899 -2.8135,5.5162 -4.05003,6.78699 -8.83873,15.83131 -26.65879,26.76112 -45.0435,25.05259 -17.57743,-0.76021 -33.497226,-12.49509 -40.690077,-28.34992 -1.141771,-3.04022 -3.72987,-8.1433 -1.926245,-1.65675 5.985507,20.6967 28.416373,33.82334 49.351902,31.97611 z m -0.0732,-11.80038 c 13.05797,-1.40405 26.54589,-9.9243 30.20565,-23.06106 -2.36319,1.12736 -7.01856,11.39671 -12.30528,13.83904 -14.21871,11.09375 -36.735651,9.30242 -48.438854,-4.65003 -2.663172,-1.94547 -5.033128,-9.13095 -6.903697,-8.72334 4.822563,15.20054 22.094263,24.20408 37.442181,22.59539 z m -1.18844,-8.93087 c 10.47022,-0.90195 21.55261,-8.21578 23.45407,-19.03662 -2.27736,0.80324 -5.43514,9.22793 -9.71657,11.39697 -10.94657,8.88932 -28.787277,6.74054 -37.112036,-4.74719 -2.115132,-2.1442 -6.407806,-12.31078 -4.382629,-3.68375 4.277965,10.79862 16.441724,17.12652 27.757165,16.07059 z m 0.6025,-8.65046 c 6.67011,-1.28477 14.2311,-5.94032 14.95174,-13.22551 -1.1033,-3.67545 -3.75347,6.47373 -6.59171,6.81623 -7.75105,7.29042 -21.225975,4.90099 -26.569331,-4.1168 -1.456333,-4.38015 -4.180199,-4.41527 -2.11568,0.33233 3.453038,7.58254 12.311541,11.40376 20.324981,10.19375 z m -0.54161,-8.86312 c 3.62789,-0.70499 9.33535,-5.08351 6.62528,-8.85171 -2.888,8.48376 -15.42778,8.98106 -18.243885,0.15204 -3.437731,5.65888 7.004535,10.2412 11.618605,8.69967 z m -5.32683,-14.85321 c 3.54531,-0.29766 13.85395,1.38629 6.43088,-3.77658 -2.59756,-4.05158 -17.439061,5.28957 -6.43088,3.77658 z m -10.294682,-3.94803 c 4.991272,-4.95764 12.701932,-8.59866 19.455882,-4.77521 2.52373,1.70914 11.07798,8.14702 6.22969,1.20136 -6.72454,-8.89787 -22.958891,-7.31221 -27.023779,3.31888 -0.313973,0.89733 1.151139,0.66363 1.338207,0.25497 z m -6.869408,-5.35503 c 6.590192,-7.38823 17.28043,-12.441682 27.08264,-8.6723 5.669,1.01917 10.40958,8.02059 14.59598,8.86178 -6.70634,-14.307853 -27.94006,-17.029551 -38.907236,-6.11652 -1.148656,0.56268 -7.608031,8.96915 -2.771384,5.92704 z m -6.825803,-6.35519 c 6.422289,-5.325361 13.341676,-10.795597 21.966843,-11.804218 11.00748,-1.937675 22.10619,2.869738 29.84112,10.577548 6.46894,3.16394 -3.10921,-6.969426 -5.77581,-8.040656 -13.86235,-9.914553 -34.936122,-7.118774 -45.44964,6.400216 -0.3424,0.3827 -2.983216,3.77552 -0.582513,2.86711 z"
           id="path426" />
        <path
           style="fill:#b2b1ad;stroke-width:0.146484"
           d="M 105.03046,193.51256 C 76.992485,192.55661 51.008954,172.80871 42.171065,146.25381 36.94556,130.95849 36.958339,113.53813 43.419353,98.639857 49.944189,96.088333 52.252736,88.34922 56.986976,83.584847 74.224829,62.425993 105.00941,53.133178 130.75113,62.952501 c 15.38609,5.310897 27.64946,16.858371 36.54207,30.208806 5.16435,4.257955 9.37001,8.668223 9.81542,16.017093 6.029,26.0273 -5.0047,54.69316 -26.50103,70.41177 -12.95109,9.78888 -29.37068,14.77728 -45.57713,13.92239 z m 8.8623,-7.06114 c 28.69026,-1.8923 54.59677,-26.14227 56.66701,-55.10195 1.20337,-4.58439 -0.6411,-12.44327 -6.20561,-6.7307 -4.16675,3.8552 -5.64057,15.48737 -8.32756,16.5982 0.67651,-3.85703 2.36472,-10.92497 0.18978,-13.18363 -2.44913,16.52546 -12.60025,32.30739 -28.22317,39.08215 -19.4969,9.02558 -44.836749,2.82976 -57.261899,-14.90917 -5.500505,-7.10142 -8.005597,-15.83094 -10.170894,-24.38451 -2.251178,3.73523 1.290731,12.21609 0.133586,13.83358 -3.533898,-5.82352 -3.930079,-13.88426 -10.070849,-17.85139 -5.651516,-5.63864 -4.127153,9.2284 -3.448599,12.38101 4.549667,28.17991 31.216625,50.22401 59.591285,50.43961 2.37624,0.0505 4.75725,0.0249 7.12692,-0.1732 z M 61.231629,142.93813 c 0.561364,-0.78826 0.561415,0.78825 0,0 z M 113.4586,161.8272 c 15.78089,-1.90933 30.9949,-14.93494 31.87555,-31.36679 -1.5316,-9.04991 -2.27114,5.12315 -4.22448,7.48398 -6.72427,16.58325 -27.05014,25.91364 -43.907822,19.65516 -12.611952,-4.17311 -22.286239,-15.90583 -23.742273,-29.14759 -2.527593,-2.67329 -1.691275,8.09146 -0.07747,10.1445 6.029622,15.82036 23.433883,25.56483 40.076495,23.23074 z m -1.81525,-8.86152 c 12.17946,-1.15049 23.8756,-10.96713 24.94958,-23.51015 -1.62698,-8.8939 -2.40129,3.91431 -4.66261,6.46372 -6.0761,13.00422 -23.48889,18.593 -35.89683,11.30288 -8.264628,-4.15466 -12.865637,-13.02174 -14.136815,-21.88261 -3.598299,7.46215 1.952436,15.70357 7.425814,20.61776 6.08826,5.2193 14.338541,7.82983 22.320861,7.0084 z m 0.79032,-8.76213 c 7.95208,-1.51173 16.50269,-8.6529 15.4935,-17.35167 -2.85299,-3.65813 -2.51613,6.7824 -5.61419,8.16069 -6.90681,9.7406 -23.346607,8.58749 -28.904228,-1.95264 -1.769127,-2.79149 -3.227583,-11.60174 -4.450594,-4.04034 1.59265,10.53108 13.375062,17.3502 23.475512,15.18396 z m -1.54384,-8.68959 c 4.69344,0.24898 12.22602,-9.2004 6.64203,-10.13526 -1.23536,8.02476 -12.90544,10.52568 -16.63969,3.01422 -0.978238,-6.39046 -5.359186,-1.43033 -2.256887,1.97867 2.461987,4.0863 7.647457,6.05726 12.254547,5.14237 z m -4.98047,-13.97341 c 3.55157,-0.54246 14.31245,2.02652 7.53376,-4.32498 -3.43838,-4.20745 -13.956954,0.0994 -11.30734,4.51739 1.25981,0.065 2.52789,0.006 3.77358,-0.19241 z m -11.853846,-2.28037 c 4.108967,-3.74932 8.030536,-9.33507 14.415936,-8.96924 6.35078,-0.28635 10.46052,5.12597 14.58433,8.90629 3.16663,-3.65182 -5.35151,-10.99191 -10.07892,-11.71903 -8.26505,-2.3701 -18.820683,2.60784 -20.240714,11.51342 l 0.415489,0.38138 0.903879,-0.11285 z m -7.883045,-3.24887 c 4.562133,-6.35119 10.317792,-12.91073 18.539751,-14.23007 10.21973,-2.225748 20.0035,4.39178 25.06722,12.90267 5.83175,4.33678 -0.16457,-6.66447 -2.47442,-8.24407 -10.10993,-11.701112 -30.600302,-10.583903 -39.340085,2.17757 -0.718345,1.36914 -6.054684,8.6772 -1.792466,7.3939 z m -8.031119,-4.2397 C 83.67242,104.787 89.538713,97.232083 98.423684,94.409704 111.28186,89.778555 126.3236,95.01706 134.24114,105.97938 c 1.24163,3.27189 9.19761,9.74213 4.97693,1.99741 -8.63013,-18.212487 -34.60631,-24.417439 -50.606957,-12.211726 -5.615232,3.867078 -10.214537,9.494316 -12.30839,15.951776 0.601971,0.0833 1.356294,0.61717 1.838627,0.0548 z M 89.205664,87.349567 c 12.187506,-5.923257 26.937136,-5.768135 39.092746,0.131598 -1.46244,-2.690237 -10.49054,-5.431607 -15.44922,-5.900814 -8.7063,-0.862044 -17.948641,0.885206 -25.103889,6.096137 l 0.418697,0.08129 1.041666,-0.4082 z"
           id="path424" />
        <path
           style="fill:#aaa9a5;stroke-width:0.146484"
           d="m 103.78534,193.4457 c -26.914281,-1.56581 -51.796588,-20.10415 -60.993112,-45.4419 -5.413334,-14.45132 -5.977022,-30.88803 -0.776102,-45.46655 0.06148,6.07071 5.971888,4.81381 5.885425,-0.28313 7.903579,-22.690847 29.308682,-39.853432 53.230269,-42.357673 24.30077,-3.135054 49.8153,9.057796 62.19942,30.292474 3.26219,5.185592 5.40797,10.985449 7.44528,16.698339 3.41581,0.16299 4.36264,-8.033118 5.3681,-1.36972 7.32141,24.91423 -1.27526,53.36738 -20.9272,70.27255 -13.9275,12.42225 -32.83504,18.77342 -51.43208,17.65561 z m 10.47363,-6.41249 c 25.72372,-1.89456 48.87652,-21.03254 55.70797,-45.88259 2.79977,-9.53632 3.4455,-19.86054 1.2483,-29.57631 -1.04843,-1.66106 -6.61744,5.5161 -8.16695,8.03289 -2.64372,2.04229 -5.25455,5.89839 -6.45884,-0.0333 -1.54976,5.16057 -1.03354,11.16447 -2.83154,16.46545 -5.04827,20.67025 -25.54979,36.24924 -46.88634,35.05008 -20.586265,-0.38493 -39.309862,-16.11218 -43.812424,-36.11085 -1.896,-3.77218 -0.471637,-13.36378 -3.00453,-14.23281 -0.982854,4.60525 -4.533064,0.97252 -6.147232,-0.81006 -1.914901,-2.44333 -5.776557,-7.89271 -8.258146,-6.82589 -4.986008,25.18826 8.118787,52.59444 30.37094,65.30764 11.452929,6.78216 24.988712,9.77488 38.238792,8.61576 z m -0.14648,-24.89009 c 16.11867,-2.16093 29.98528,-15.1601 32.74881,-31.25767 2.26311,-6.77119 -1.27375,-9.01805 -3.399,-14.39398 -4.01278,-11.16231 -11.90855,-21.71327 -23.66473,-25.321937 -15.66178,-5.808572 -34.503635,1.84078 -42.066817,16.644727 -2.897302,6.09795 -6.029821,12.40653 -8.060667,18.2636 0.571782,20.32753 19.714164,37.44564 39.894344,36.38018 1.51984,-0.0188 3.04403,-0.081 4.54806,-0.31492 z m -8.66657,-2.87282 c -18.571489,-1.20414 -34.720758,-19.95053 -30.889695,-38.61259 1.927826,-2.81715 5.583703,-3.52031 5.773434,-8.36496 5.431782,-14.520313 22.924971,-22.818738 37.577201,-17.672726 10.2234,3.138462 17.76732,12.151936 20.54422,22.300326 5.0761,1.46621 5.4667,8.3071 4.387,13.4914 -2.73425,17.5276 -19.71743,30.71829 -37.39216,28.85855 z m 5.08703,-5.8545 c 15.48464,-0.68694 29.45577,-15.25629 27.60721,-31.00221 -4.88988,-0.69093 -4.89206,-10.98101 -9.4179,-14.62432 -8.72573,-11.322088 -27.03392,-12.878732 -37.427871,-2.99712 -5.641566,4.58997 -7.5294,11.88057 -10.742035,17.99879 -4.578921,2.92201 0.268853,12.68401 2.830861,17.07832 5.789452,8.92854 16.511938,14.38099 27.149735,13.54654 z m -4.77007,-3.24454 c -13.576062,-1.13861 -25.504851,-14.81314 -22.172978,-28.57668 4.75428,-0.76033 4.28921,-7.77759 7.933684,-11.45824 8.000719,-10.73543 26.154874,-11.104338 34.113204,-0.12606 3.71185,3.03851 2.37297,10.95353 7.61754,10.69886 4.76728,16.15947 -11.66042,31.65695 -27.49145,29.46212 z m 6.61535,-5.60968 c 9.82445,-1.73501 18.41546,-11.22869 17.37213,-21.45621 -6.02461,-0.4129 -5.14212,-10.42821 -11.02145,-12.9615 -8.78583,-6.9418 -23.102674,-2.35344 -26.514437,8.23293 -1.37423,5.01729 -7.642098,5.38694 -4.128559,11.60284 3.030906,10.02439 14.028936,16.57338 24.292316,14.58194 z m -6.24619,-3.03186 c -8.661679,-1.13556 -17.008153,-10.26405 -13.809056,-19.21525 6.154047,0.24191 5.453776,-11.77706 13.621556,-11.40046 7.05475,-1.6895 14.30543,3.7483 15.41601,10.73509 7.609,-0.25685 3.58023,12.17177 -1.05221,15.3609 -3.7479,3.50306 -9.07974,5.28748 -14.1763,4.51972 z m 3.97815,-5.55979 c 5.81828,-0.55609 12.29679,-6.97027 10.43574,-12.6801 -5.41623,-0.17009 -4.02246,11.26924 -11.95536,9.65474 -7.25578,1.58148 -6.92126,-8.86871 -11.21507,-9.37168 -3.885898,3.77454 3.67957,11.93577 8.81668,12.25474 1.28881,0.23667 2.61604,0.31581 3.91801,0.1423 z m 3.92906,-12.97729 c 6.67515,-1.51692 -4.38522,-10.73413 -8.63251,-6.85548 -6.78854,2.5821 -4.72328,9.29278 2.40937,7.13589 2.07608,0.002 4.1609,-0.0153 6.22314,-0.28041 z M 68.262879,112.6891 c -0.361291,-0.5218 -0.17714,0.53557 0,0 z m 1.755744,-1.2638 c 3.75355,-8.31954 8.969224,-16.345935 16.859513,-21.324816 16.208134,-11.120821 40.255624,-7.33532 52.358324,8.149779 3.46329,4.008427 5.94345,9.325777 7.98153,13.825867 4.42498,-2.94004 -2.02694,-10.87826 -4.32266,-14.698108 C 130.71764,81.776984 107.55375,75.869726 89.736471,84.920195 79.435566,90.119933 70.162793,99.367778 67.856934,110.99083 c 0.380837,2.09761 1.257344,2.13744 2.161689,0.43447 z m 100.929807,-2.61803 c -0.6002,-0.78834 -0.34331,0.7462 0,0 z"
           id="path422" />
        <path
           style="fill:#a3a19c;stroke-width:0.146484"
           d="m 103.49237,193.396 c -30.223826,-1.62955 -57.213125,-25.36142 -63.502474,-54.83069 -2.255331,-10.17342 -2.182653,-20.93233 0.590978,-30.99255 2.322896,15.33402 2.549604,31.5284 10.315401,45.44178 11.608376,22.45483 37.03492,36.84704 62.294405,34.62943 24.19916,-1.45186 46.53851,-17.71063 55.59714,-40.16434 5.61602,-12.77377 5.50575,-26.97154 7.581,-40.52948 7.857,27.96411 -5.02897,59.72969 -29.43172,75.18398 -12.74905,8.36753 -28.24319,12.32789 -43.44473,11.26187 z m 2.70996,-22.50971 c -11.926012,-0.72343 -24.020368,-5.94887 -31.621588,-15.31868 -1.014408,-4.23333 -5.589292,-9.60917 -6.669112,-14.91468 -1.473124,-2.6448 -1.965039,-15.14517 1.223452,-7.25426 5.035258,15.39552 18.972762,27.87138 35.360288,29.32271 17.45921,2.10371 34.86095,-8.893 41.56708,-24.95369 0.86088,-3.59624 5.05058,-11.51153 4.40883,-3.19245 -0.70172,7.41293 -4.32636,14.1497 -8.28995,20.21793 -2.94082,2.3378 3.15083,-1.32523 -0.53604,1.96298 -8.86054,9.75755 -22.3964,14.69449 -35.44296,14.13014 z M 76.319519,156.56117 c -1.039762,-0.83168 0.510735,0.76091 0,0 z m 29.589841,2.61787 c -15.956166,-0.99558 -30.765608,-14.63026 -31.277058,-30.88935 1.676787,-8.33595 4.408948,6.77222 6.64696,9.09661 7.250855,14.63508 26.994068,20.8591 41.318058,13.00312 9.20309,-4.49075 14.93105,-13.74319 17.4293,-23.40138 4.21339,-5.836 2.41247,9.38034 -0.0743,11.97253 -5.63628,12.99155 -19.95186,21.45998 -34.04301,20.21847 z m -0.58593,-9.14965 c -11.997471,-1.34856 -23.299075,-12.49256 -21.444413,-25.09655 3.967611,2.74348 4.489134,10.44475 9.094096,13.80446 8.838847,9.56153 25.986347,8.22235 33.318717,-2.52462 3.2321,-3.27277 3.59538,-9.19785 6.79852,-11.86404 2.62647,14.54546 -12.3986,27.27704 -26.3478,25.82304 l -1.41912,-0.14228 z m 0.17262,-8.6946 c -7.535305,-1.22378 -14.86446,-8.6658 -12.878569,-16.64257 4.845147,4.23796 9.228029,13.96334 18.146419,11.46242 7.37533,0.23017 9.31105,-9.63134 13.89909,-11.37104 2.06742,10.41066 -9.72674,18.43545 -19.16694,16.55119 z m 1.36546,-8.64844 c -6.78799,-1.62002 -9.760946,-11.18803 -0.9722,-7.85206 3.58402,1.03395 10.69233,-1.88934 10.7904,0.64968 1.47913,2.12116 -4.98524,9.03458 -9.8182,7.20238 z m 10.19254,-9.6701 c -0.66893,-7.05092 -10.58842,-10.4443 -14.91209,-4.50013 -2.418239,2.98597 -1.38374,6.6201 -4.624452,2.63418 -0.861262,-9.44225 13.167942,-13.46339 19.217732,-7.10335 5.00257,2.34776 1.80652,9.95062 0.31881,8.9693 z m -27.903378,-3.83469 c -0.630089,-7.9855 6.942423,-14.63077 14.190038,-16.45334 10.30311,-2.824752 23.14391,3.58067 24.71096,14.68285 -1.73051,5.81338 -5.65788,-6.06908 -8.82643,-6.92688 -7.97308,-6.98364 -21.186899,-3.77188 -26.043537,5.35377 -0.469482,0.78998 -2.979681,5.5041 -4.031031,3.3436 z m -8.015854,-1.75501 c -0.881798,-9.50155 7.132108,-17.38719 15.108195,-21.263164 15.161017,-7.605737 37.359837,1.501254 39.853907,19.017804 -0.67015,5.07718 -4.61992,-4.88319 -6.31374,-6.18673 -7.46188,-10.832265 -23.43196,-14.325682 -34.551624,-7.13879 -6.371612,3.4941 -9.790867,10.207 -13.883665,15.76118 z m -25.870747,-3.43833 c -5.637597,-5.01627 -6.455269,-13.0021 -2.522873,-19.399699 11.685855,-26.571439 44.172828,-40.547224 71.797052,-32.785154 19.48843,5.073657 37.46732,20.204367 42.07137,40.312543 0.78296,3.9349 -4.15764,15.15508 -8.16113,9.10835 -1.15872,0.51652 -2.18864,4.31507 -4.12063,0.34575 -8.17172,-18.165308 -26.82301,-32.541068 -47.39217,-31.502317 -18.760836,0.540111 -35.383047,13.527023 -43.364917,30.028027 -1.197105,2.61082 -3.677784,5.79465 -4.691066,1.48668 -1.474806,0.18488 -2.037154,3.18045 -3.615636,2.40582 z m 17.178302,0.12911 c -0.23133,-7.57569 4.752204,-14.487182 9.893038,-19.66254 14.548376,-14.256032 40.527999,-13.510381 54.111859,1.719079 3.88794,4.661881 9.14958,11.553821 7.54752,17.427871 -5.65235,-9.47794 -13.16941,-18.911043 -24.11767,-22.42842 -14.78217,-5.451351 -32.47025,0.777219 -40.917499,13.99997 -2.877957,2.34139 -3.944324,7.25512 -6.517248,8.94404 z"
           id="path420" />
        <path
           style="fill:#a09e99;stroke-width:0.146484"
           d="m 104.29804,193.44359 c -30.232533,-1.35204 -57.855135,-24.75075 -64.085444,-54.38681 -2.133831,-9.50526 -2.505661,-19.54903 -0.143846,-29.04227 1.264395,17.32466 4.223387,35.40792 14.547032,49.87694 15.878393,23.71879 48.331438,34.57707 75.171778,24.6558 19.19806,-6.42787 34.83538,-22.10968 41.19701,-41.33512 3.67231,-10.93951 5.24922,-22.50468 5.92811,-33.98265 5.43396,23.42535 -2.61509,49.51946 -20.58231,65.62394 -13.92527,12.87971 -33.14402,19.50083 -52.03233,18.59017 z m 1.90429,-22.69759 c -8.951773,-0.75946 -18.287102,-3.39857 -25.114061,-9.43401 15.491391,10.46835 36.818761,10.95754 52.811921,1.28522 5.37172,-3.05599 -4.67147,3.84038 -6.42076,4.1109 -6.63131,3.01307 -14.00452,4.39959 -21.2771,4.03789 z m 1.53809,-3.10609 c -11.501301,-0.4535 -23.007984,-5.05488 -30.502478,-13.99302 -3.045081,-3.14439 -7.253259,-10.32387 -6.405887,-13.12576 5.852055,8.36387 13.147999,16.48368 23.115894,19.95153 16.228581,6.55716 35.994801,0.93438 46.762501,-12.75829 1.60777,-2.12823 7.70212,-11.42761 5.11531,-3.67761 -5.52936,14.13229 -20.61454,22.94677 -35.44862,23.50682 -0.88492,-0.071 -1.75446,0.28034 -2.63672,0.0963 z m -3.74315,-8.73297 C 90.447849,157.1874 78.217338,146.64805 75.389111,133.16539 c 0.835388,-8.37417 4.689243,4.09598 6.678823,6.18541 7.714395,12.88909 25.062386,18.19749 38.756506,12.21511 9.51567,-3.84903 15.43383,-12.91283 19.33273,-21.97779 4.2977,2.94067 -0.99859,10.51714 -2.97832,14.22301 -7.02061,10.92159 -20.36581,16.77335 -33.18158,15.09581 z m 1.76561,-8.88217 c -10.991873,-1.14079 -22.227524,-10.3853 -21.376898,-22.19692 3.794664,2.71143 5.287727,9.47702 9.882877,12.41983 9.820341,8.51728 26.662841,5.88898 33.320491,-5.35003 1.45877,-2.44573 5.97767,-11.763 5.0388,-3.51684 -1.77081,12.15255 -15.19658,20.06101 -26.86527,18.64396 z m 0.80566,-8.56689 c -7.250172,-0.79765 -15.288598,-7.38854 -13.48584,-15.23226 4.700858,4.73557 10.15757,12.43296 18.30695,9.97271 6.22185,-0.15314 8.71865,-8.20645 12.83881,-9.78723 1.67384,9.59703 -9.34056,15.86976 -17.65992,15.04678 z m 39.917,-1.22107 c 0.27795,-0.7376 0.45498,0.53124 0,0 z m 0.45101,-0.53355 c 0.21141,-0.39013 0.0654,0.63164 0,0 z m -39.56958,-6.95327 c -3.47751,0.59905 -8.562456,-7.19176 -5.69689,-5.43797 -1.06377,-5.49784 8.61107,0.89891 11.74253,-2.32257 4.15801,-1.9284 1.0703,4.06086 3.13002,1.90868 -0.94727,3.86036 -5.37568,6.27898 -9.17566,5.85186 z m -7.655027,-10.63452 c -5.362439,-4.31161 3.456037,-11.99633 9.083777,-11.04506 5.65353,-0.57059 13.61986,6.70454 8.47111,11.16618 -2.31483,-8.59464 -15.3095,-9.17487 -17.335461,-0.0375 l -0.131399,0.0845 z m -9.910708,-4.58275 c -0.05512,-6.81907 6.379659,-12.34735 12.510425,-14.34636 9.89624,-3.401435 22.97638,2.23163 24.97036,13.03812 -3.41087,3.25065 -6.99012,-8.29237 -12.48285,-8.36253 -8.40229,-3.63501 -18.200344,1.1098 -22.415922,8.80714 -1.068238,-0.38696 -1.795757,1.73899 -2.582013,0.86363 z m -7.991201,-3.26891 c 2.081443,-14.25558 18.376366,-22.837925 31.862386,-20.175953 9.90438,1.694351 19.96239,9.291163 21.35562,19.702923 -2.95619,-1.2078 -5.71553,-6.41786 -9.4395,-9.32997 -9.51759,-8.629646 -25.26481,-8.485288 -34.575468,0.3893 -3.50202,2.98112 -5.986641,7.70681 -9.203038,9.4137 z m -25.788619,-4.14007 c -5.172451,-5.5025 -5.101039,-13.372604 -0.788838,-19.427739 13.4458,-25.5381 46.642213,-36.975973 73.476743,-27.452642 16.16918,5.580686 30.85923,18.178412 36.09613,34.797306 1.17419,3.938165 -3.65915,15.848115 -7.22865,8.850615 -2.62108,-2.46911 -0.93829,5.88608 -4.08527,0.84698 C 143.25825,88.18823 119.57459,75.433129 97.665303,81.003182 83.090215,84.742064 70.361187,95.027171 63.337526,108.2928 c -2.757482,4.77595 -2.664105,-5.62959 -5.621079,1.08754 -0.290525,0.3743 -1.353865,2.17048 -1.695032,0.7434 z m 17.663929,-0.16328 c 2.907732,-13.747419 16.30697,-23.488163 29.819486,-25.235055 16.54422,-2.45613 35.18285,7.580456 39.63692,24.182595 -1.76646,1.01981 -6.22089,-8.40521 -6.81239,-6.58447 -9.41955,-10.887832 -25.34094,-16.503077 -39.159442,-11.286702 -6.598382,2.187884 -12.011252,6.737071 -16.828198,11.581492 -2.196763,0.32935 -4.492998,7.02409 -6.656376,7.34214 z"
           id="path418" />
        <path
           style="fill:#9a9994;stroke-width:0.146484"
           d="M 104.44452,193.44504 C 73.102385,192.12787 44.56868,167.0364 39.605369,135.97357 c -1.596604,-7.23812 -1.447959,-18.8221 0.162659,-23.729 0.936718,20.2072 6.740406,41.41171 21.41184,56.08491 17.729643,18.62226 46.755092,25.31219 70.723092,15.78988 23.17705,-8.3885 39.29311,-30.71181 43.24859,-54.6272 1.29768,-4.854 1.58984,-13.95063 2.56751,-16.51198 4.12312,24.28342 -5.87799,50.32006 -25.48359,65.30733 -13.42266,10.6099 -30.73504,15.93369 -47.79095,15.15753 z m 0.95215,-22.83213 c -6.215353,-0.51912 -12.444277,-2.09612 -17.862389,-5.24714 13.038829,5.86196 28.489219,6.14177 41.519609,0.11173 -0.36464,1.08245 -10.16079,4.59522 -14.64843,4.85292 -2.99003,0.25928 -6.0087,0.39068 -9.00879,0.28249 z m -1.83106,-4.68221 c -11.531342,-1.42805 -23.146347,-7.62928 -28.914397,-17.98554 2.846057,0.66723 7.931343,7.79846 12.560313,9.60255 16.054454,10.05822 38.462254,6.79408 51.439934,-6.85919 1.84163,-2.16099 6.61572,-6.90145 3.15582,-1.56809 -7.85719,12.52137 -23.91066,18.42061 -38.24167,16.81027 z m 1.4011,-6.95761 c -13.367081,-1.30688 -25.780664,-11.21926 -29.081678,-24.36192 3.351345,-4.22473 5.616255,7.40464 9.077281,8.96104 10.53041,12.31188 30.593987,14.07687 43.100337,3.80337 5.26088,-3.92453 8.40272,-9.83516 11.81771,-15.21876 3.70807,5.23947 -3.61412,12.68667 -7.21364,17.04056 -7.2088,7.09242 -17.60367,10.94973 -27.70001,9.77571 z m 1.23914,-8.94742 c -10.398594,-0.85807 -21.013257,-8.8929 -21.494097,-19.87558 4.428221,2.14344 7.691904,11.73738 14.572342,13.33647 10.482575,5.10902 23.639465,0.15861 29.367105,-9.68736 0.88111,-2.97086 5.30986,-6.53617 3.22377,-0.78312 -1.50622,9.44893 -11.21928,15.7846 -20.22225,16.92763 -1.80615,0.21767 -3.63498,0.2429 -5.44687,0.082 z m 0.21621,-8.6355 c -6.802598,-0.79538 -13.718677,-6.40665 -13.293993,-13.35016 4.601873,1.51536 8.766753,9.95928 15.747453,8.61551 6.97116,1.53717 10.6979,-8.0754 15.11382,-8.7037 0.59671,5.83179 -4.80311,11.31166 -11.13756,12.97563 -2.08512,0.56995 -4.28425,0.7554 -6.42972,0.46272 z m -0.44189,-9.04545 c -3.90576,-1.21641 -6.203749,-6.14724 -3.02714,-3.40848 -4.830947,-6.95898 7.26317,-0.44619 10.37263,-3.50166 5.41665,-1.92826 -2.28389,7.35666 3.03575,1.87697 -1.33574,4.11161 -6.3391,6.44608 -10.38124,5.03317 z m -6.123683,-10.66943 c -4.69439,-4.11752 3.115533,-11.13882 8.537763,-10.53151 5.46412,-0.64836 13.3275,5.95824 8.89721,10.52618 -3.13969,-8.06781 -14.14489,-8.41207 -17.434973,0.005 z m -9.520182,-5.52489 c 0.993108,-8.50987 10.320585,-14.09345 18.468925,-13.81412 7.81946,0.0562 16.4605,5.15658 17.88407,13.27158 -3.63873,1.51035 -6.15834,-6.57395 -11.12401,-7.46573 -8.38681,-3.97924 -18.595308,0.35654 -23.059247,8.13584 0.128723,-3.1367 -0.931558,0.8635 -2.169738,-0.12757 z m -7.473816,-3.70544 c 0.378105,-5.76704 5.1904,-10.68485 9.810434,-13.914514 13.188237,-9.05864 34.383377,-4.706423 40.836877,10.569424 2.08768,4.49068 -0.87368,2.40447 -2.32991,0.0413 -1.00847,1.17804 -6.05921,-6.63774 -9.72544,-7.63025 -11.39603,-7.164001 -26.995246,-2.808622 -34.635361,7.77059 -1.841534,2.58161 -0.538708,-1.9604 -3.155838,2.59773 l -0.515908,0.60027 -0.284854,-0.0346 z M 56.631661,107.39298 C 52.292243,102.08278 52.032685,95.030208 56.249789,89.488316 68.269991,68.156212 94.267734,56.886808 118.14566,60.874884 c 19.32213,2.835586 37.80398,15.436716 44.98196,33.959481 1.68399,3.48701 -1.00326,14.846045 -5.29643,10.876695 -1.96267,-3.49358 -3.17233,-1.47909 -3.78292,0.9421 C 149.11862,100.75112 145.02905,93.660837 138.1639,89.514026 122.93254,77.759891 100.9096,76.428669 84.299401,86.037989 75.548156,90.720609 68.71205,98.225541 63.5809,106.60044 c -2.738439,1.77507 -0.59612,-5.77768 -3.819135,-1.31896 -0.874643,0.41913 -2.059799,3.94666 -3.130104,2.1115 z m 18.223015,0.0941 c 4.329157,-14.52541 20.15301,-23.515648 34.883294,-22.857692 13.5609,0.308316 27.56855,8.567192 32.06007,21.742022 -2.43574,-0.55861 -8.01877,-9.708522 -7.27985,-6.0591 -10.33131,-11.057047 -27.83138,-14.565419 -41.373985,-7.542476 -4.075224,1.585653 -9.059488,6.31894 -11.211666,7.816106 1.98004,-4.670962 -6.514364,7.86494 -7.077863,6.90114 z"
           id="path416" />
        <path
           style="fill:#93928c;stroke-width:0.146484"
           d="M 104.00507,193.39413 C 73.148547,191.94491 45.344845,167.5134 39.788995,137.15199 c -1.475736,-7.13454 -1.440678,-14.51365 -0.705864,-21.73258 1.304474,22.5339 10.527578,45.66783 28.949539,59.57233 20.988023,16.68314 52.26971,18.42789 74.96447,4.16097 17.98874,-10.69086 29.44896,-30.03107 33.21131,-50.3211 1.1305,-3.79379 1.35888,-11.80272 1.77273,-13.28569 3.97048,28.16338 -11.87481,57.48726 -37.22187,70.16857 -11.25994,5.83235 -24.10693,8.46127 -36.75424,7.67964 z m 4.73543,-23.01062 c 0.60299,-0.33908 2.77412,0.15303 0,0 z m -4.07625,-5.46092 c -5.326695,-0.54023 -13.001346,-2.55173 -16.000552,-5.53668 11.726502,5.56129 25.686452,6.14591 37.641622,0.89802 -2.61163,3.04223 -12.3676,5.10508 -18.25731,4.7547 -1.12829,-0.0162 -2.25831,-0.025 -3.38376,-0.11604 z m 22.63183,-4.84064 c 1.27754,-1.20254 0.28096,0.36011 0,0 z m -20.87402,-1.05734 c -12.950284,-0.77329 -25.705492,-9.55654 -29.583721,-22.13393 1.957594,2.34917 4.229262,6.52619 2.55868,1.01894 4.531077,4.89512 8.864203,10.49975 15.234704,13.25472 13.473137,6.97154 30.938547,2.09181 39.906597,-9.84666 2.72417,-5.17805 3.32671,-1.50726 2.4525,0.0532 1.13045,-1.6607 5.1555,-8.13305 2.65068,-2.36551 -5.47727,12.75189 -19.42928,21.00147 -33.21944,20.01925 z m -1.31836,-9.14948 c -7.746215,-1.05986 -15.878106,-6.15748 -18.668882,-13.38866 2.943774,3.63645 -2.996545,-7.53373 1.71536,-2.08147 6.355595,9.51645 19.534042,14.63685 30.100392,9.04214 5.60526,-1.37896 8.95058,-9.04052 13.00059,-10.48869 -0.64073,2.28488 -1.89881,4.01592 -0.52375,3.91858 -4.47129,9.32011 -15.61256,14.26659 -25.62371,12.9981 z m 0,-8.76468 c -5.281457,-0.41704 -12.373979,-7.63545 -10.292259,-8.79074 -2.044987,-7.33332 5.741869,4.13486 9.120669,3.77789 7.25308,2.70023 13.98494,-2.06062 18.78496,-6.97549 1.56529,1.26333 -2.21676,5.17163 0.40158,3.71578 -3.1741,6.41343 -11.14251,9.71836 -18.01495,8.27256 z m 1.53809,-8.58856 c -3.71518,-0.64251 -7.92777,-6.9838 -2.27577,-2.31557 -3.12088,-2.16677 -2.50515,-5.67571 1.9828,-3.52277 5.91631,-1.17688 10.76409,-0.0965 7.22708,3.09392 5.48592,-5.03506 -0.80095,3.86491 -4.16348,2.89042 l -1.41169,0.0627 z M 99.9034,120.20863 c -3.646292,-4.8816 5.84992,-10.4293 10.89191,-8.67521 5.12708,-0.52474 9.65019,9.0509 5.49338,8.44666 -3.39044,-8.10751 -14.44724,-3.31001 -16.38529,0.22859 z m -6.734214,-5.47927 c 1.599702,-3.62089 -4.184707,2.45656 -1.235874,-2.85108 6.351904,-12.140398 26.302988,-12.490967 32.880848,-0.43877 1.66887,2.29082 0.54438,3.76295 -1.37995,1.23942 0.94369,4.4479 -4.86771,-5.00378 -7.97516,-4.61291 -7.62541,-3.56464 -16.931167,-0.28495 -21.763702,6.30755 l -0.526162,0.35569 z m -9.083043,-5.15596 c 2.230959,-7.36978 9.663158,-12.455463 16.802947,-14.556822 12.0199,-3.265265 27.65403,1.79259 31.96917,14.301902 -3.85737,-3.35048 -4.50557,-4.65828 -3.19078,-1.19935 -6.51868,-7.70194 -16.99235,-11.802307 -26.94992,-9.415141 -6.516656,1.226134 -11.867496,5.520791 -16.105689,10.410281 3.663841,-6.62574 -0.553423,-0.43719 -2.525728,0.45913 z M 57.900212,104.15081 C 54.678433,97.736396 54.365684,90.61082 59.601967,85.042458 74.946896,62.884566 106.052,54.432611 130.84822,64.460436 c 13.54556,5.255567 25.92762,15.603426 30.97121,29.492619 -1.19151,3.493689 -2.13326,14.457615 -6.56515,6.920865 -3.07453,-4.311297 -2.06029,6.11205 -5.19976,-0.38598 -13.15173,-18.348558 -39.13163,-26.630921 -60.120039,-17.578355 -9.945077,3.872324 -18.374945,10.98965 -24.492485,19.669185 -3.400057,2.99284 -0.07375,-6.530092 -4.08881,-1.02461 -0.932199,0.20653 -2.392475,4.15972 -3.452974,2.59665 z m 19.243219,-0.80009 c 8.031251,-17.038317 31.309489,-23.213832 47.667859,-14.775767 6.15732,3.170384 12.09047,7.916672 14.82905,14.435857 -6.01156,-5.290515 -12.15569,-11.616131 -20.35343,-13.562536 4.44685,1.464371 12.34473,6.453546 13.10863,8.655074 -11.9463,-10.387036 -30.72507,-12.202082 -43.825257,-2.864667 -2.187197,1.605893 -7.015482,5.431349 -2.280507,0.869781 2.727758,-2.729472 8.562472,-5.258071 10.279067,-6.370888 -7.787268,2.514872 -13.852622,8.300631 -19.45881,13.934106 z M 99.537293,89.032389 c 1.503087,-0.813703 -2.863177,0.843251 0,0 z M 117.2619,88.81215 c -0.90541,-0.61048 -0.50364,0.475263 0,0 z m -2.85644,-0.585938 c -1.03802,-0.447819 0.26179,0.519672 0,0 z m -9.55811,-0.144872 c 1.1728,-0.734698 -3.12488,0.44417 0,0 z m 5.3833,-0.294581 c -1.23621,-0.544681 -0.90216,0.554434 0,0 z m 1.2085,0.04551 c -1.1346,-0.227959 -0.21784,0.235614 0,0 z"
           id="path414" />
        <path
           style="fill:#8b8984;stroke-width:0.146484"
           d="m 104.29804,193.40866 c -29.334502,-1.44084 -56.293613,-23.2575 -63.458212,-51.79933 -1.885939,-7.43944 -2.837666,-15.25051 -1.930046,-22.90122 0.733755,16.68921 7.317411,33.11882 17.799413,46.07851 17.015316,21.07285 47.355325,29.78377 72.962025,20.98363 22.76218,-7.23381 39.75084,-27.4673 45.73075,-50.25083 1.77356,-3.82473 2.34931,-15.487 2.97062,-15.49164 2.32374,26.99518 -13.9664,53.6172 -37.87983,65.68998 -11.07906,5.76299 -23.72258,8.51094 -36.19472,7.6909 z m 0.59335,-34.58879 c -11.461285,-1.31556 -22.851729,-8.71526 -26.965287,-19.68705 7.903117,13.68809 25.352137,21.37032 40.626457,16.36044 8.92268,-2.35127 15.80283,-9.09417 20.82439,-16.5354 -5.28165,13.33166 -20.43187,21.46311 -34.48556,19.86201 z m 1.16446,-2.92729 c -7.69509,-0.75984 -15.681112,-3.82199 -20.552333,-10.0374 8.276839,6.39077 19.126093,10.58968 29.704343,8.13625 5.76527,-0.13263 13.96174,-7.13798 16.46,-7.96426 -6.3056,7.12427 -16.24647,10.49648 -25.61201,9.86541 z m 0.29297,-5.94569 c -7.570561,-0.76843 -15.224755,-4.83256 -18.957686,-11.63107 1.888586,2.01463 8.745751,7.49865 3.517097,2.22092 -5.548687,-7.1252 3.24871,0.69304 5.649185,2.08519 9.598664,6.15616 22.620974,3.21238 30.165564,-4.84379 6.72411,-4.35786 -9.13342,10.93543 -1.52545,4.58641 2.45339,-2.34771 6.85918,-6.44854 2.29396,-0.69879 -5.21904,5.80758 -13.38601,8.92002 -21.14267,8.28113 z m -0.5127,-8.76472 c -4.00832,-0.30569 -10.215293,-4.47684 -10.513659,-6.96405 2.869095,2.69443 6.164259,4.28486 1.784042,0.47778 -4.753875,-6.94246 5.087847,2.21174 7.780437,1.86216 6.32627,2.30049 12.08841,-2.56277 16.90363,-5.02507 -0.28354,2.96223 -7.86725,8.11773 -1.67222,4.05813 5.58179,-4.75744 -2.56089,5.16239 -5.84459,4.72028 -2.69131,0.9321 -5.61115,1.31718 -8.43764,0.87077 z m 1.09863,-8.65324 c -3.56337,-0.46472 -7.838813,-6.30681 -2.1323,-1.92662 9.06691,2.68995 -7.047812,-3.37416 -0.12801,-3.64654 3.21897,0.98567 14.38275,-1.60445 6.63324,3.30182 -6.74312,2.71994 5.28916,-1.35544 3.9661,-1.11914 -1.77634,2.63855 -5.22649,4.03703 -8.33903,3.39048 z m -6.73874,-12.3971 c 0.11999,-2.90532 -1.153548,-5.26947 3.38815,-7.42391 4.42237,-3.35238 14.70861,0.40294 13.22307,5.07455 0.62311,5.17731 -4.84457,-4.8427 -9.44995,-2.42248 -3.11672,0.1059 -5.66524,3.32875 -7.16127,4.77184 z m -6.298366,-6.49476 c 5.184574,-11.14786 23.598686,-11.31743 29.100406,-0.40019 -3.72078,-3.27906 -8.87868,-6.99702 -14.5029,-6.71255 -5.7744,-0.11566 -10.689533,3.22654 -14.597506,7.11274 z m -1.11643,-1.99423 c 5.767043,-11.704907 25.142156,-11.937879 31.298146,-0.45281 -3.26195,-1.01231 -9.64323,-7.73976 -15.65976,-6.35697 -6.09311,-0.81565 -11.721742,4.47097 -15.638386,6.80978 z m -4.742945,-4.65705 c 8.766723,-13.060023 30.660231,-13.774839 40.198681,-1.14187 1.94125,3.23647 -4.7496,-4.23623 -6.43416,-4.23776 -10.70688,-6.484568 -25.445472,-3.905656 -33.602589,5.49486 z m -1.382862,-1.35547 c 6.092389,-10.284877 20.201253,-13.792635 31.143543,-9.90012 4.40524,0.645097 12.76828,7.71885 11.75372,9.60152 -9.11706,-10.0201 -25.6595,-12.657586 -36.720795,-4.33001 -2.013028,0.9241 -4.64322,4.56748 -6.176468,4.62861 z M 59.597568,100.86049 C 59.429057,94.560163 56.057613,87.859999 61.781826,82.849606 78.225504,61.078535 110.69348,54.385316 134.88962,66.551015 c 9.87712,4.778045 19.43028,12.181636 23.78262,22.480861 -1.63683,3.649634 0.22335,15.920624 -5.52226,8.08312 -2.94723,-3.258365 -2.21989,-0.320674 -2.88585,1.517433 -4.39007,-3.168786 -7.61875,-8.042835 -12.5102,-10.773993 -17.15446,-11.680871 -41.30721,-11.974177 -58.354578,0.100921 -5.01513,2.548047 -9.307879,9.430727 -13.289158,11.189466 0.620063,-7.218033 -4.518681,1.955857 -6.512626,1.711667 z M 81.007019,98.276506 C 92.41732,82.439931 117.80252,80.839823 132.05776,93.753532 c 2.28806,1.497156 5.3873,6.284968 0.71263,2.35359 -11.78721,-10.19805 -30.10939,-12.178393 -43.3364,-3.56122 -2.971638,1.441119 -5.76688,4.64456 -8.426971,5.730604 z m 5.770498,-2.201181 c 11.897221,-10.560876 32.007893,-10.39355 43.766173,0.271069 -11.06806,-8.053999 -26.55453,-9.926748 -38.681129,-3.091663 -0.91235,0.108148 -6.236007,4.186054 -5.085044,2.820594 z"
           id="path412" />
        <path
           style="fill:#83827c;stroke-width:0.146484"
           d="m 104.51776,193.40581 c -29.489778,-1.48956 -56.796421,-23.40972 -63.842436,-52.21174 -1.66704,-6.35393 -2.140569,-12.94807 -1.967371,-19.49618 1.869491,28.90138 21.844929,56.55045 50.000424,64.89738 24.626323,7.90272 53.159563,-0.2388 70.254443,-19.55807 11.13031,-12.16291 17.78986,-28.16049 19.37272,-44.51443 0.86812,19.66881 -7.85222,39.35669 -22.50287,52.48533 -13.68252,12.78975 -32.59516,19.70421 -51.31491,18.39771 z m 2.05078,-34.51992 c -11.197588,-0.7899 -22.290071,-7.11079 -27.48285,-17.25194 7.496091,9.6628 19.392099,16.62433 31.94513,15.58816 10.97354,-0.72655 20.86063,-7.26951 27.17135,-16.0586 -5.52179,11.52815 -19.05629,18.47859 -31.63363,17.72238 z m -0.14648,-8.9992 c -6.682661,-0.26099 -15.455764,-5.26377 -17.620557,-9.95191 9.104043,10.06723 25.761877,11.39822 36.268657,2.76699 2.07306,-1.98119 5.15811,-4.33528 1.84479,-0.48206 -5.22662,5.3268 -13.04515,8.29257 -20.49289,7.66698 z m -1.83106,-2.90501 c -3.23055,-0.0655 -11.58631,-4.61094 -10.172847,-5.00897 8.535377,5.54049 19.975907,5.34481 28.510037,-0.0708 -4.48996,4.74614 -12.07803,5.919 -18.33719,5.0798 z m 1.61133,-5.8045 c -3.47329,0.55527 -11.502751,-5.75265 -9.804972,-5.79503 7.065022,6.5453 18.637122,5.67962 25.412782,-0.85067 -3.22252,5.07967 -9.77006,7.48761 -15.60781,6.6457 z m 0.65918,-2.10956 c -3.54782,0.92714 -12.966031,-7.4348 -5.22009,-3.38111 5.53719,3.76485 13.45829,-0.0297 17.56019,-1.2918 -2.93788,3.62447 -7.83446,4.97297 -12.3401,4.67291 z m -0.34808,-6.67883 c -3.68619,-1.20581 -6.38419,-5.00913 -0.95275,-1.37439 3.60467,2.60447 13.83548,-4.7356 6.5084,0.76556 -1.71534,0.7851 -3.71157,1.10708 -5.55565,0.60883 z m 0.92007,-2.04614 c -4.74,-1.03463 -3.64013,-3.92761 0.91199,-2.37674 8.0666,-1.55535 4.39205,2.90153 -0.91199,2.37674 z m -6.89215,-10.9244 c 1.95425,-7.36552 14.21,-7.22092 16.05449,0.10978 -3.11213,-4.951 -12.50892,-6.15969 -16.05353,0.27362 l -9.6e-4,-0.38337 z m 0.24139,-3.35671 c 2.39132,-5.81448 12.75838,-5.82946 15.58581,-0.17985 -4.98367,-3.3922 -10.75794,-3.56437 -15.58581,0.17985 z m -5.859249,-3.95927 c 6.006529,-8.93032 21.702029,-9.02069 27.273839,0.31914 -5.9641,-5.97205 -15.91209,-8.10422 -23.142394,-3.10897 -0.844685,-0.012 -4.641716,4.34487 -4.131445,2.78983 z m 0.32476,-3.38573 c 6.313799,-7.62996 20.259819,-7.97828 26.304969,0.0406 -6.34912,-4.64431 -15.25479,-6.09811 -22.343822,-1.91905 -0.730714,-0.0219 -4.695337,3.63932 -3.961147,1.87846 z m -5.717619,-3.44432 c 8.139882,-9.5365 23.754378,-11.109667 33.880348,-3.74941 2.25622,0.99553 6.49943,6.48599 1.8813,2.28757 -9.82018,-8.188479 -25.1584,-7.705597 -34.571914,0.88915 0.194249,-0.35911 -2.429068,2.33665 -1.189734,0.57269 z m 0.558419,-3.30767 c 9.174382,-9.858459 27.304129,-10.356221 36.438239,-0.18376 -8.9559,-6.282384 -21.34207,-8.571281 -31.147299,-2.820645 -1.786566,0.652555 -3.689178,2.790235 -5.29094,3.004405 z M 61.473478,97.490521 C 60.75855,93.302865 65.455914,87.102177 61.415342,84.919537 70.946071,68.80686 90.458105,60.8373 108.64046,60.832465 c 16.81818,-0.121687 33.87126,7.214774 44.58066,20.301305 4.1772,3.835321 -2.27119,4.178574 0.94191,8.656164 1.3315,2.822924 2.01924,10.281686 -2.07543,4.970698 -2.83731,-2.863794 -3.79344,-2.717586 -4.94575,0.133968 -8.18555,-7.802243 -18.38679,-13.723256 -29.68831,-15.477903 -17.32801,-3.189653 -35.632356,3.333339 -47.771638,15.932633 -2.106111,-5.276966 -3.912299,0.525682 -8.208424,2.141191 z m 27.070448,-2.661124 c 11.171953,-8.452283 27.850584,-8.624001 39.234704,-0.506034 -11.76823,-7.073924 -27.34566,-7.1387 -38.915703,0.443435 l -0.319011,0.0626 z m 39.558854,-0.156195 c 0.37072,-0.267891 0.5832,0.471879 0,0 z M 85.344311,94.048966 C 97.457777,82.799208 118.37279,82.238657 130.67353,93.401943 126.12427,91.162963 120.57153,87.75721 114.86217,87.258781 104.57823,85.44838 94.031231,88.464572 85.479588,94.223296 L 85.344311,94.04897 Z"
           id="path410" />
        <path
           style="fill:#807e77;stroke-width:0.146484"
           d="m 104.69137,193.39664 c -28.519986,-1.30635 -55.023352,-21.70801 -63.06259,-49.18839 -1.951363,-6.52548 -3.128154,-13.33957 -2.918701,-20.16661 2.396477,29.43758 24.261722,56.75863 53.278703,63.70895 25.483298,6.78647 54.162378,-3.23026 70.234628,-24.05114 9.07454,-11.53316 15.22743,-25.65377 16.15595,-40.39023 0.95891,28.71873 -18.64294,56.18685 -45.52455,65.80637 -8.95662,3.35295 -18.61143,4.86805 -28.16344,4.28105 z m -0.0271,-34.72654 c -10.046082,-1.35664 -20.051019,-7.01334 -24.910152,-16.13067 8.729238,11.70177 24.649952,17.8936 38.787022,13.2649 7.73357,-2.06428 14.03287,-7.40423 18.9611,-13.52538 -6.14221,11.45871 -20.08429,17.89831 -32.83797,16.39115 z m 1.09863,-8.86038 c -6.279396,-0.7212 -13.094298,-4.08015 -16.425378,-9.13129 9.40119,9.68644 25.959338,10.61497 36.242938,1.80322 6.08963,-5.00756 -3.43346,4.94766 -6.30866,5.04741 -4.17971,2.09179 -8.90341,2.5401 -13.5089,2.28066 z m 1.9043,-3.13624 c 0.84092,-0.46336 2.21699,0.48108 0,0 z m -2.2044,-5.6465 c -2.72921,0.42341 -10.75513,-5.57527 -8.562206,-5.11647 6.946516,5.94834 17.853466,5.22335 24.488226,-0.82347 -3.50995,4.86408 -10.13335,6.95989 -15.92602,5.93994 z m -0.41402,-2.92584 c -6.981085,-2.69538 6.30355,0.76348 8.63535,-1.28484 6.2729,-0.80179 -7.51687,3.25838 -8.63535,1.28484 z m 1.59303,-5.722 c -3.76062,-1.24073 -5.68944,-4.09047 -0.52787,-1.14291 3.07022,0.99052 6.82454,-0.35717 8.94586,-2.06083 -1.81327,2.6368 -5.30153,4.0423 -8.41799,3.20374 z m 0.73242,-2.35154 c -6.90395,-2.89014 10.73232,-1.54212 1.29677,0.095 z m -6.73685,-10.71003 c 1.55049,-8.55743 16.71508,-4.25519 14.94509,-0.70594 -3.89913,-5.25693 -11.1632,-3.85676 -14.94509,0.70594 z m 13.84134,-4.60162 c -3.18786,-3.5554 -10.63098,-0.53231 -12.20756,-0.51924 2.93975,-3.64244 12.45304,-2.51939 12.20756,0.51924 z m -19.262696,-2.72507 c 5.879016,-8.60233 20.738056,-8.69866 26.637416,-0.0316 -6.25095,-5.65301 -16.25636,-7.68962 -23.36574,-2.36333 -1.159954,0.67943 -2.071247,1.83117 -3.271676,2.3949 z m 3.076172,-5.51739 c 5.643824,-4.51766 14.864824,-4.70741 20.457624,0.0611 -6.36957,-3.30868 -14.0612,-3.05825 -20.411774,0.10044 l -0.04589,-0.1615 z m -8.253134,-1.62174 c 9.379692,-10.544737 27.855408,-10.518189 37.107588,0.1732 -8.26304,-7.208231 -20.72205,-9.493157 -30.616129,-4.29121 -2.139934,0.80815 -5.340772,3.73353 -6.491459,4.11801 z m 5.231296,-6.487521 c 7.519242,-4.978905 18.113572,-5.140674 25.735972,-0.427482 -8.11068,-3.27263 -17.5229,-3.375684 -25.485494,0.471341 z M 62.992395,94.677043 c -0.08883,-5.911546 6.218013,-12.35237 7.174781,-15.972315 -1.967224,1.429679 -7.208037,4.078595 -3.419529,-0.330057 21.039406,-23.145363 61.557123,-23.066368 83.053953,-0.559443 4.50085,7.036229 -4.89952,-2.219008 -6.66998,-1.493672 4.59344,4.318793 8.79439,9.344738 10.36698,15.709984 0.9796,6.678931 -7.26447,-5.830523 -8.09143,0.222992 -4.37811,-2.33906 -8.72955,-6.574321 -13.75761,-8.577674 -18.89028,-9.410588 -42.971024,-5.813103 -58.666234,8.174842 -3.589797,3.769726 -1.573742,-3.746137 -5.271572,0.204565 -1.689078,0.38936 -2.815909,3.429377 -4.719359,2.620778 z m 8.749488,-16.69647 c 0.953163,-1.963711 -1.510126,1.031748 0,0 z m 18.347168,15.885944 c 10.717569,-7.140094 25.649719,-7.274544 36.474609,-0.285629 -11.29361,-6.203696 -25.27795,-6.097612 -36.474609,0.285629 z m 0.867791,-3.502888 c 9.634848,-5.90637 22.667428,-6.610903 32.585078,-1.167797 -10.31082,-3.734371 -22.04577,-3.745313 -32.010638,1.107578 0.443036,0.266251 -1.06626,0.437098 -0.57444,0.06022 z"
           id="path408" />
        <path
           style="fill:#7b7a74;stroke-width:0.146484"
           d="m 104.81073,193.3949 c -29.426094,-1.3482 -56.791049,-23.00511 -63.934646,-51.75668 -1.368978,-5.24197 -2.115236,-10.65002 -2.193487,-16.06739 3.021763,29.28617 25.206579,56.0677 54.235059,62.56134 25.408234,6.3153 53.669854,-3.84081 69.624344,-24.51463 8.8683,-11.10276 14.61895,-24.79252 15.78979,-38.98996 0.73966,29.12917 -20.26971,56.1823 -47.54525,65.20333 -8.32134,2.84675 -17.19443,4.08887 -25.97581,3.56399 z m 0.37853,-34.71171 c -9.73174,-1.21693 -19.874463,-6.36201 -24.666482,-15.13366 9.631739,12.64912 28.055332,17.58401 42.516022,10.63799 5.0467,-1.41804 11.20016,-8.38402 13.41474,-10.04762 -6.68858,10.07593 -19.28463,15.76431 -31.26428,14.54329 z m 0.79335,-8.88862 c -6.118671,-0.812 -12.495143,-3.52401 -16.250112,-8.58272 9.397923,9.02803 25.270542,10.15606 35.400352,1.7077 6.29775,-5.07402 -3.92018,5.14578 -6.60544,4.93024 -3.94092,1.65334 -8.28847,2.32394 -12.5448,1.94478 z m -0.41671,-8.76567 c -3.13743,-0.20703 -8.661618,-3.74111 -8.717329,-5.07548 6.698499,5.99241 17.398699,5.20922 24.053129,-0.43037 -3.28154,4.67036 -9.90508,6.29417 -15.3358,5.50585 z m 1.88155,-8.51292 c -3.39272,-0.48261 -7.27276,-4.59806 -1.82066,-1.36635 3.59048,2.27332 13.5672,-4.2014 5.69462,0.89139 -1.22561,0.45167 -2.57144,0.7258 -3.87396,0.47496 z m -0.18311,-3.00577 c -1.40274,-1.62358 6.70604,-0.32211 1.3693,0.12033 z m -6.48056,-10.45129 c 2.32314,-6.45509 13.17486,-6.58643 15.48303,-0.009 -3.89146,-5.11104 -11.65461,-4.96293 -15.48303,0.009 z m 13.08652,-5.05927 c -2.50298,-3.16656 -15.674747,1.49104 -7.17694,-1.91119 1.93268,-0.27347 6.92603,0.12115 7.17694,1.91119 z m -18.270479,-2.51904 c 6.081729,-7.81188 19.960669,-7.98342 25.813529,0.10111 -6.55102,-6.04643 -17.17369,-7.00117 -24.169055,-1.1334 0.340651,-0.48128 -2.005615,1.74675 -1.644474,1.03229 z m 19.322529,-6.64721 c -3.6632,-1.7976 -9.02202,-0.37395 -12.02994,-0.62875 2.77755,-2.23112 13.9823,-0.0459 12.02994,0.62875 z m -13.48938,0.0141 c -0.85822,0.85224 -0.472,0.44339 0,0 z m -9.898803,-1.39604 c 9.301513,-8.758184 25.584913,-8.514502 34.557753,0.59611 -9.85854,-7.832963 -25.04076,-8.434539 -34.772838,-0.0539 l -0.704178,0.44784 z m 9.394723,-7.551959 c 3.95278,-2.010571 13.86147,-1.017787 14.81821,0.158468 -4.5087,-1.442705 -11.54479,-0.728814 -14.81821,-0.158468 z M 63.721863,93.66953 c 3.976923,-12.385825 15.772198,-20.498428 27.459403,-24.836744 19.642574,-7.047625 43.028884,-0.985076 56.751214,14.73338 2.47916,2.064701 8.17276,13.789098 1.20398,7.574291 -3.87118,-4.860113 -4.17697,2.303936 -7.82726,-1.841359 -18.53454,-14.515991 -46.480086,-14.56421 -65.12668,-0.219747 -3.445877,4.623973 -5.69286,-1.577644 -9.358392,3.115804 -0.640975,-0.06068 -2.670979,2.806757 -3.102265,1.474375 z m 30.322266,-1.852733 c 8.671331,-4.323869 19.487681,-4.419216 28.263521,-0.34465 -9.11844,-3.385413 -19.24213,-3.415718 -28.263521,0.34465 z m 1.757812,-3.507035 c 0.801504,-0.703894 0.767135,-0.130158 0,0 z m 1.904297,-0.797045 c 6.406592,-2.092308 13.778082,-2.596389 20.190252,-0.351621 -6.73607,-1.30563 -13.52177,-1.266003 -20.190252,0.351621 z M 66.798035,79.061309 C 76.922734,66.74797 93.531069,60.910718 109.20212,61.020218 c 14.53786,0.244133 29.6971,5.508258 39.60085,16.458286 -4.64776,-1.638721 -10.04286,-7.124511 -15.70149,-8.922959 -17.63141,-8.065319 -38.890694,-6.61956 -55.499112,3.249147 -3.760331,2.126393 -7.158798,5.161289 -10.804333,7.256617 z"
           id="path406" />
        <path
           style="fill:#74726c;stroke-width:0.146484"
           d="M 105.03046,193.37647 C 73.595772,192.26245 44.778545,167.41225 39.7305,136.25019 c -0.673925,-3.036 -1.246364,-11.09322 -0.15332,-3.89108 5.445549,28.74616 29.784782,53.27588 59.095508,57.11497 26.287332,4.17488 53.869832,-8.84155 68.104422,-31.17168 6.05437,-9.12837 10.07363,-19.62227 11.44104,-30.50168 -0.68859,28.77284 -22.30744,54.80605 -49.67906,62.70824 -7.59648,2.28776 -15.58483,3.2644 -23.50863,2.86751 z m 0.73242,-34.69745 c -9.635576,-1.0577 -19.40899,-5.83915 -24.718723,-14.17979 8.403642,9.59401 21.797123,15.20946 34.507843,12.25181 8.06617,-1.60797 15.07601,-6.44719 20.59861,-12.38705 -6.41519,9.83669 -18.80558,15.24621 -30.38773,14.31503 z m 0.21973,-8.93156 c -5.35456,0.0251 -13.879962,-4.99026 -14.831548,-7.28947 9.828738,8.72871 25.767938,8.18294 35.447868,-0.50305 -4.29278,5.48385 -13.24491,8.60943 -20.61632,7.79252 z m -0.0973,-8.71999 c -3.7531,0.39158 -13.033138,-7.40692 -5.28297,-2.61686 6.40835,3.31892 14.33755,1.91313 19.90974,-2.41394 -3.52378,4.12067 -9.34746,5.86508 -14.62677,5.0308 z m 1.37916,-8.57127 c -2.80649,-0.32374 -6.71264,-4.19295 -1.66831,-1.2208 3.73216,1.64868 12.57151,-2.95155 5.06127,1.01017 -1.09729,0.31289 -2.26552,0.40789 -3.39296,0.21063 z m -6.33554,-13.6004 c 2.42895,-6.12464 12.8548,-6.15951 15.12426,-0.0565 -4.09336,-4.84927 -11.02802,-4.75362 -15.12426,0.0565 z m 19.70485,-7.92014 c -6.63671,-5.86996 -17.14616,-5.95354 -23.922161,-0.25244 4.176771,-6.00954 18.110521,-7.27011 23.993861,-0.0377 l 0.15735,0.43232 -0.22905,-0.14212 z m -27.981213,-8.28223 c 8.792783,-7.462612 23.163153,-7.388355 31.795203,0.1336 -8.66743,-6.053287 -20.66511,-6.716862 -29.746193,-1.13028 -0.228048,-0.0132 -3.501552,2.35376 -2.04901,0.99668 z M 65.371109,91.46451 c 4.160124,-9.999088 14.072022,-16.329328 23.613526,-20.60079 16.751095,-6.637191 36.755605,-4.247913 51.128825,6.738345 4.48415,3.598129 10.31546,8.327896 11.05536,13.933206 -3.48509,-2.199991 -7.08606,-4.788253 -10.23708,-2.914801 -16.54485,-12.136177 -39.89429,-14.02088 -57.938471,-4.101436 -4.119191,2.768034 -7.549992,5.192558 -11.519413,3.92493 -1.699489,0.161401 -5.106392,4.553834 -6.102747,3.020546 z m 52.476731,-1.430659 c -3.24111,-1.388634 4.99856,1.523051 0,0 z m -19.995117,0.243142 c 1.021002,-0.463556 0.652917,0.24546 -0.104324,0.105855 z m 1.904296,-0.50049 C 104.73876,88.200973 111.6226,88.233997 115.85663,89.494236 110.50449,88.602105 105.0519,88.6538 99.757019,89.776503 Z M 73.080482,73.454295 C 92.5576,57.15437 123.60653,57.112857 143.38076,72.939699 137.04812,70.161276 130.15994,65.913324 122.85273,64.471825 105.9374,60.143933 87.669302,64.294381 73.219626,73.752849 l -0.216219,-0.04558 z"
           id="path404" />
        <path
           style="fill:#6b6964;stroke-width:0.146484"
           d="m 103.78534,193.29921 c -31.450522,-1.53456 -59.635457,-27.16647 -64.254545,-58.30448 -0.800338,-5.27012 -0.145843,-3.33508 0.577418,0.86529 6.446077,27.96745 31.156766,50.78892 59.802867,54.09506 26.23578,3.63006 53.49416,-9.64249 67.50758,-31.98441 5.30633,-8.05021 8.81887,-17.20392 10.534,-26.67734 -2.09481,27.09825 -22.5292,51.01952 -48.35301,58.78003 -8.31709,2.62188 -17.10897,3.70064 -25.81431,3.22585 z m 0.80566,-34.82323 c -8.374664,-1.24922 -16.8571,-5.15841 -21.960281,-12.0753 10.224145,10.70482 27.204121,14.46678 40.680711,7.86758 3.83231,-0.97306 10.22291,-7.56921 11.11392,-7.6314 -6.97111,8.65869 -18.88515,13.07534 -29.83435,11.83912 z m 1.02539,-8.82573 c -4.03988,0.19407 -13.124182,-4.86022 -12.086474,-5.25241 9.459364,6.53276 22.632434,5.72024 31.713804,-1.05171 -5.1764,4.89007 -12.60599,7.04609 -19.62733,6.30412 z m 1.31836,-8.55637 c -3.29669,0.77592 -13.10463,-6.30294 -5.75718,-2.25825 5.32763,3.78781 15.55215,-0.16783 17.91539,-1.53283 -3.24135,2.86931 -7.87066,4.26081 -12.15821,3.79108 z m -0.66027,-8.97516 c -7.856539,-2.66075 7.82868,0.62944 6.92248,-1.16363 -1.9648,1.42027 -4.60151,1.92685 -6.92248,1.16363 z m -5.04854,-13.72223 c 2.77709,-5.35006 11.93246,-5.49196 14.5795,0.0227 -4.01963,-4.46994 -10.50191,-4.31899 -14.5795,-0.0227 z m 18.08674,-8.57927 c -6.17322,-5.40211 -16.61563,-3.52704 -21.929953,0.0506 6.167683,-5.39131 16.947933,-5.74834 22.689533,0.4401 z m -23.657223,-9.08084 c 6.468533,-5.721151 21.845433,-3.182965 24.536133,-0.41263 -7.94682,-3.785252 -17.47105,-3.324989 -25.158418,0.89246 z M 67.240705,89.581192 c 4.351292,-8.283595 13.057927,-13.367032 21.342397,-17.147688 18.606808,-8.022201 41.317238,-3.44312 56.001088,10.291534 2.76517,1.575865 7.53691,9.573932 1.2826,4.800923 -2.57272,-2.050097 -7.93302,-3.189781 -7.48413,-1.096755 -15.78291,-9.715105 -36.43018,-11.677069 -53.183405,-3.246071 -3.855135,1.647795 -6.737915,4.598732 -8.897933,2.44433 -3.371234,0.123484 -6.187348,3.554557 -9.060617,3.953727 z M 83.350769,67.346983 c 2.221335,-1.416134 1.757354,-0.07235 0,0 z m 1.907267,-0.845031 c 13.999725,-6.65347 30.959984,-6.690606 45.212834,-0.687831 -2.46922,-0.06213 -10.12894,-3.00168 -14.77061,-3.128553 -10.0043,-1.088816 -20.170671,0.226463 -29.609177,3.708542 l -0.833047,0.107879 z"
           id="path402" />
        <path
           style="fill:#63625c;stroke-width:0.146484"
           d="M 103.49237,193.24952 C 72.4319,191.50168 44.127928,166.37355 39.804473,135.41143 c 6.606523,32.36783 38.591607,57.23251 71.621307,55.31048 29.13515,-0.99379 56.25162,-21.96798 64.42652,-49.96997 0.77992,-2.76117 2.19537,-8.46204 1.07246,-2.54132 -5.51173,27.7335 -29.58117,50.4038 -57.57448,54.35005 -5.23874,0.81695 -10.56809,1.04242 -15.85791,0.68885 z m 0.65918,-34.93619 c -6.472985,0.47076 -19.472893,-8.36368 -19.006078,-9.52566 13.03609,12.10106 34.995858,11.57094 47.717018,-0.73998 -1.84256,2.60563 -8.98999,7.69864 -14.14039,8.95493 -4.68194,1.49267 -9.6968,1.99404 -14.57055,1.31071 z m 2.34375,-8.65034 c -3.5569,-0.0393 -10.517902,-2.71799 -11.169922,-4.01467 8.514582,4.89373 19.350122,4.28668 27.703692,-0.63558 -4.67589,3.4464 -10.75163,5.11035 -16.53377,4.65025 z m -0.73242,-8.76344 c -2.8014,-0.14183 -9.30038,-4.18848 -3.26675,-1.4338 4.22322,2.85594 14.07161,-0.8162 14.73004,-0.84748 -3.36741,2.09772 -7.55197,2.88977 -11.46329,2.28128 z m -66.187809,-6.23779 c 0.128178,-0.66027 0.128186,0.66025 0,0 z M 107.008,132.24923 c -6.50611,-2.0598 4.47895,0.61624 5.60479,-1.02572 -1.58812,1.1558 -3.72124,1.34301 -5.60479,1.02572 z m -5.47408,-14.32331 c 2.24382,-6.09751 13.88143,-2.47797 12.94717,-0.70598 -3.78308,-3.67372 -10.30424,-2.07402 -12.94717,0.70598 z m -1.776901,-9.61937 c 4.348821,-4.33335 15.860821,-1.79115 16.809081,-0.21909 -5.35986,-2.68963 -11.81745,-2.25954 -17.074583,0.44959 l 0.265505,-0.2305 z m 0.878911,-9.679947 c 1.27292,-0.633166 -0.35753,0.581411 0,0 z m 1.42113,-0.441394 c 3.23969,-1.353833 10.70435,-0.776368 11.82077,-0.117221 -3.72537,-0.756031 -8.85515,-0.383515 -11.82077,0.117221 z M 69.434754,87.138819 c 7.682485,-10.08751 20.276393,-15.669652 32.646636,-17.43737 16.46448,-2.29664 34.1907,3.99023 45.00376,16.639673 -2.06533,0.98905 -10.15438,-5.071433 -12.69552,-3.841156 4.81629,4.738596 -5.85166,-1.777719 -8.21649,-2.010403 -14.6847,-5.018424 -31.307015,-3.214341 -44.882084,4.178811 -3.42652,1.370388 4.749194,-4.325707 -1.02609,-1.673587 -3.76061,0.552489 -7.601589,3.918928 -10.830212,4.144032 z"
           id="path400" />
        <path
           style="fill:#5a5853;stroke-width:0.146484"
           d="m 104.44452,193.29856 c -28.344437,-1.24695 -54.476671,-21.80355 -62.692453,-48.91974 -1.169312,-3.14069 -1.968617,-8.98815 -0.363966,-2.54112 8.931187,29.31611 38.799625,50.71536 69.507479,49.1673 28.42409,-0.72219 55.22638,-20.36289 64.19112,-47.39629 1.071,-3.53486 2.43826,-7.65753 0.89685,-1.60699 -6.73986,27.57209 -32.41664,48.39421 -60.44358,50.9383 -3.68291,0.39386 -7.39489,0.51102 -11.09545,0.35854 z m 0.74695,-34.98813 c -6.074469,-0.28128 -14.364542,-4.12831 -17.362563,-7.14903 12.228783,9.01318 29.887783,8.58773 42.057233,-0.30876 -6.76564,5.64884 -15.94898,8.31626 -24.69467,7.45779 z m 0.42492,-8.85028 c -3.98344,-0.53586 -6.337327,-1.715 -0.99161,-0.50308 3.51929,1.25998 13.12605,-1.31588 13.10143,-1.08078 -3.86674,1.50738 -7.9911,1.91393 -12.10982,1.58386 z m -5.786128,-1.46831 c -0.383242,-0.58312 1.268958,0.61417 0,0 z m 5.566408,-7.2473 c -8.466542,-2.71578 3.93731,1.16697 6.85244,-0.54998 7.47376,-2.18205 -1.79291,1.54424 -4.42223,0.79417 l -1.28377,-0.0681 z m 1.38091,-8.6284 c -3.47837,-0.70712 10.23526,-0.52155 2.13391,0.14448 l -1.18476,-7.1e-4 -0.94922,-0.14348 z m -3.94439,-15.39134 c 1.8529,-4.83205 12.91609,-0.20703 10.44091,-0.47038 -1.89542,-3.86507 -12.42267,1.49714 -10.44091,0.47038 z m 2.46277,-10.43459 c 0.64211,-0.20973 0.0635,0.28196 0,0 z m 0.86975,-0.14343 c 0.80666,-0.2378 0.14639,0.25643 0,0 z m 2.34375,-0.15544 c 2.11376,-0.208 0.41886,0.2096 0,0 z M 71.046082,85.956043 C 84.702174,70.850561 108.06866,65.725651 126.97673,73.217845 c 6.76069,2.627135 13.30878,6.452277 18.19045,11.843064 -5.81611,-2.024699 -12.38752,-5.25864 -17.87969,-6.383508 2.51292,1.150089 9.89716,6.189854 2.97987,3.137499 -14.4521,-6.111689 -31.323834,-5.85393 -45.509386,0.90371 -5.758376,1.788571 9.463837,-6.232354 0.470737,-2.567236 -4.85713,1.580335 -9.610212,3.642653 -14.182629,5.804669 z"
           id="path398" />
        <path
           style="fill:#53524c;stroke-width:0.146484"
           d="m 104.15155,193.26045 c -29.156986,-1.56016 -56.25784,-23.23414 -63.093011,-51.80012 7.699842,25.33493 30.519518,45.25817 56.781611,49.0432 29.14944,4.9214 60.14214,-11.01157 73.34197,-37.42344 1.67234,-2.43643 4.59562,-11.51168 4.4764,-10.07783 -8.08964,30.87445 -39.91473,52.56492 -71.50697,50.25819 z m 1.09863,-35.15218 c -3.42609,-0.25898 -6.47433,-1.39874 -0.98749,-0.38157 6.02703,0.74702 12.14585,-0.29182 17.82246,-2.34378 -5.18907,2.23769 -11.20436,3.34944 -16.83497,2.72535 z m -7.104489,-1.48663 c -1.630213,-0.82571 3.312479,0.92035 0,0 z m 77.941249,-15.7465 c 0.21141,-0.39013 0.0654,0.63164 0,0 z m -69.62655,-0.16464 c 1.2845,-0.21274 0.26566,0.22616 0,0 z m 6.18725,-24.94523 c -0.24178,-0.54304 0.74052,0.55167 0,0 z m -8.20312,-0.14648 c 1.07343,-0.61422 -0.36304,0.57697 0,0 z m 1.02147,-0.42209 c 2.23836,-1.53056 9.44141,0.64197 3.18236,-0.32772 -1.07538,-0.0802 -2.13091,0.15271 -3.18236,0.32772 z M 77.205063,81.768498 C 87.07098,73.806912 99.996885,69.839232 112.64942,70.94237 c 10.06145,0.536535 19.49191,4.939374 27.47007,10.848275 -6.16938,-1.257343 -12.80211,-4.861472 -19.39824,-6.183481 -11.28344,-2.131582 -23.297912,-1.408903 -33.945493,3.113082 -3.053726,0.709138 -7.009572,3.262759 -9.570694,3.048252 z m 8.92891,-0.240788 c 7.93818,-5.488785 18.370337,-7.311473 27.911057,-6.18338 5.03153,0.75114 14.28097,3.427737 15.91903,5.981902 -13.80031,-5.548255 -29.51612,-5.387473 -43.280148,0.188363 z"
           id="path396" />
        <path
           style="fill:#31312f;stroke-width:0.146484"
           d="m 104.95721,193.22703 c -25.739649,-1.07748 -50.094544,-17.69291 -60.231718,-41.41879 10.10865,20.95936 30.890178,36.35923 54.021812,39.39586 28.528246,4.37227 58.745276,-10.89369 72.023366,-36.56507 1.52224,-3.1939 2.80849,-5.16624 0.66884,-0.78534 -11.62282,24.99913 -39.029,41.02155 -66.4823,39.37334 z"
           id="path394" />
      </g>
    </g>
  </g>
</svg>
